<?xml version="1.0" encoding="utf-8" standalone="no"?>
<!DOCTYPE svg PUBLIC "-//W3C//DTD SVG 1.1//EN"
  "http://www.w3.org/Graphics/SVG/1.1/DTD/svg11.dtd">
<svg xmlns:xlink="http://www.w3.org/1999/xlink" width="505.44pt" height="280.512pt" viewBox="0 0 505.44 280.512" xmlns="http://www.w3.org/2000/svg" version="1.1">
 <metadata>
  <rdf:RDF xmlns:dc="http://purl.org/dc/elements/1.1/" xmlns:cc="http://creativecommons.org/ns#" xmlns:rdf="http://www.w3.org/1999/02/22-rdf-syntax-ns#">
   <cc:Work>
    <dc:type rdf:resource="http://purl.org/dc/dcmitype/StillImage"/>
    <dc:date>2026-06-22T00:35:32.832115</dc:date>
    <dc:format>image/svg+xml</dc:format>
    <dc:creator>
     <cc:Agent>
      <dc:title>Matplotlib v3.10.8, https://matplotlib.org/</dc:title>
     </cc:Agent>
    </dc:creator>
   </cc:Work>
  </rdf:RDF>
 </metadata>
 <defs>
  <style type="text/css">*{stroke-linejoin: round; stroke-linecap: butt}</style>
 </defs>
 <g id="figure_1">
  <g id="patch_1">
   <path d="M 0 280.512 
L 505.44 280.512 
L 505.44 0 
L 0 0 
z
" style="fill: #ffffff"/>
  </g>
  <g id="axes_1">
   <g id="patch_2">
    <path d="M 29.2968 118.96704 
L 201.1608 118.96704 
Q 208.5264 118.96704 208.5264 114.97536 
L 208.5264 37.80288 
Q 208.5264 33.8112 201.1608 33.8112 
L 29.2968 33.8112 
Q 21.9312 33.8112 21.9312 37.80288 
L 21.9312 114.97536 
Q 21.9312 118.96704 29.2968 118.96704 
z
" clip-path="url(#p4cf8505052)" style="fill: #ede9fe; stroke: #8b5cf6; stroke-width: 1.2; stroke-linejoin: miter"/>
   </g>
   <g id="patch_3">
    <path d="M 36.6624 76.38912 
L 193.7952 76.38912 
L 193.7952 41.79456 
L 36.6624 41.79456 
z
" clip-path="url(#p4cf8505052)" style="fill: #8b5cf6; stroke: #ffffff; stroke-width: 1.2; stroke-linejoin: miter"/>
   </g>
   <g id="patch_4">
    <path d="M 36.6624 113.6448 
L 193.7952 113.6448 
L 193.7952 81.71136 
L 36.6624 81.71136 
z
" clip-path="url(#p4cf8505052)" style="fill: #6d28d9; stroke: #ffffff; stroke-width: 1.2; stroke-linejoin: miter"/>
   </g>
   <g id="patch_5">
    <path d="M 304.2792 118.96704 
L 476.1432 118.96704 
Q 483.5088 118.96704 483.5088 114.97536 
L 483.5088 37.80288 
Q 483.5088 33.8112 476.1432 33.8112 
L 304.2792 33.8112 
Q 296.9136 33.8112 296.9136 37.80288 
L 296.9136 114.97536 
Q 296.9136 118.96704 304.2792 118.96704 
z
" clip-path="url(#p4cf8505052)" style="fill: #fffbeb; stroke: #f59e0b; stroke-width: 1.2; stroke-linejoin: miter"/>
   </g>
   <g id="patch_6">
    <path d="M 311.6448 113.6448 
L 468.7776 113.6448 
L 468.7776 41.79456 
L 311.6448 41.79456 
z
" clip-path="url(#p4cf8505052)" style="fill: #f59e0b; stroke: #ffffff; stroke-width: 1.2; stroke-linejoin: miter"/>
   </g>
   <g id="patch_7">
    <path d="M 29.2968 241.37856 
L 201.1608 241.37856 
Q 208.5264 241.37856 208.5264 237.38688 
L 208.5264 160.2144 
Q 208.5264 156.22272 201.1608 156.22272 
L 29.2968 156.22272 
Q 21.9312 156.22272 21.9312 160.2144 
L 21.9312 237.38688 
Q 21.9312 241.37856 29.2968 241.37856 
z
" clip-path="url(#p4cf8505052)" style="fill: #ede9fe; stroke: #8b5cf6; stroke-width: 1.2; stroke-linejoin: miter"/>
   </g>
   <g id="patch_8">
    <path d="M 36.6624 198.80064 
L 193.7952 198.80064 
L 193.7952 164.20608 
L 36.6624 164.20608 
z
" clip-path="url(#p4cf8505052)" style="fill: #8b5cf6; stroke: #ffffff; stroke-width: 1.2; stroke-linejoin: miter"/>
   </g>
   <g id="patch_9">
    <path d="M 36.6624 236.05632 
L 193.7952 236.05632 
L 193.7952 204.12288 
L 36.6624 204.12288 
z
" clip-path="url(#p4cf8505052)" style="fill: #6d28d9; stroke: #ffffff; stroke-width: 1.2; stroke-linejoin: miter"/>
   </g>
   <g id="patch_10">
    <path d="M 304.2792 241.37856 
L 476.1432 241.37856 
Q 483.5088 241.37856 483.5088 237.38688 
L 483.5088 160.2144 
Q 483.5088 156.22272 476.1432 156.22272 
L 304.2792 156.22272 
Q 296.9136 156.22272 296.9136 160.2144 
L 296.9136 237.38688 
Q 296.9136 241.37856 304.2792 241.37856 
z
" clip-path="url(#p4cf8505052)" style="fill: #fffbeb; stroke: #f59e0b; stroke-width: 1.2; stroke-linejoin: miter"/>
   </g>
   <g id="patch_11">
    <path d="M 311.6448 236.05632 
L 468.7776 236.05632 
L 468.7776 164.20608 
L 311.6448 164.20608 
z
" clip-path="url(#p4cf8505052)" style="fill: #f59e0b; stroke: #ffffff; stroke-width: 1.2; stroke-linejoin: miter"/>
   </g>
   <g id="text_1">
    <!-- cta_group::2, M=256  —  2 CTAs (M split) -->
    <g style="fill: #1f2937" transform="translate(132.299766 17.839479) scale(0.105 -0.105)">
     <defs>
      <path id="DejaVuSans-Bold-63" d="M 3366 3391 
L 3366 2478 
Q 3138 2634 2908 2709 
Q 2678 2784 2431 2784 
Q 1963 2784 1702 2511 
Q 1441 2238 1441 1747 
Q 1441 1256 1702 982 
Q 1963 709 2431 709 
Q 2694 709 2930 787 
Q 3166 866 3366 1019 
L 3366 103 
Q 3103 6 2833 -42 
Q 2563 -91 2291 -91 
Q 1344 -91 809 395 
Q 275 881 275 1747 
Q 275 2613 809 3098 
Q 1344 3584 2291 3584 
Q 2566 3584 2833 3536 
Q 3100 3488 3366 3391 
z
" transform="scale(0.015625)"/>
      <path id="DejaVuSans-Bold-74" d="M 1759 4494 
L 1759 3500 
L 2913 3500 
L 2913 2700 
L 1759 2700 
L 1759 1216 
Q 1759 972 1856 886 
Q 1953 800 2241 800 
L 2816 800 
L 2816 0 
L 1856 0 
Q 1194 0 917 276 
Q 641 553 641 1216 
L 641 2700 
L 84 2700 
L 84 3500 
L 641 3500 
L 641 4494 
L 1759 4494 
z
" transform="scale(0.015625)"/>
      <path id="DejaVuSans-Bold-61" d="M 2106 1575 
Q 1756 1575 1579 1456 
Q 1403 1338 1403 1106 
Q 1403 894 1545 773 
Q 1688 653 1941 653 
Q 2256 653 2472 879 
Q 2688 1106 2688 1447 
L 2688 1575 
L 2106 1575 
z
M 3816 1997 
L 3816 0 
L 2688 0 
L 2688 519 
Q 2463 200 2181 54 
Q 1900 -91 1497 -91 
Q 953 -91 614 226 
Q 275 544 275 1050 
Q 275 1666 698 1953 
Q 1122 2241 2028 2241 
L 2688 2241 
L 2688 2328 
Q 2688 2594 2478 2717 
Q 2269 2841 1825 2841 
Q 1466 2841 1156 2769 
Q 847 2697 581 2553 
L 581 3406 
Q 941 3494 1303 3539 
Q 1666 3584 2028 3584 
Q 2975 3584 3395 3211 
Q 3816 2838 3816 1997 
z
" transform="scale(0.015625)"/>
      <path id="DejaVuSans-Bold-5f" d="M 3200 -916 
L 3200 -1509 
L 0 -1509 
L 0 -916 
L 3200 -916 
z
" transform="scale(0.015625)"/>
      <path id="DejaVuSans-Bold-67" d="M 2919 594 
Q 2688 288 2409 144 
Q 2131 0 1766 0 
Q 1125 0 706 504 
Q 288 1009 288 1791 
Q 288 2575 706 3076 
Q 1125 3578 1766 3578 
Q 2131 3578 2409 3434 
Q 2688 3291 2919 2981 
L 2919 3500 
L 4044 3500 
L 4044 353 
Q 4044 -491 3511 -936 
Q 2978 -1381 1966 -1381 
Q 1638 -1381 1331 -1331 
Q 1025 -1281 716 -1178 
L 716 -306 
Q 1009 -475 1290 -558 
Q 1572 -641 1856 -641 
Q 2406 -641 2662 -400 
Q 2919 -159 2919 353 
L 2919 594 
z
M 2181 2772 
Q 1834 2772 1640 2515 
Q 1447 2259 1447 1791 
Q 1447 1309 1634 1061 
Q 1822 813 2181 813 
Q 2531 813 2725 1069 
Q 2919 1325 2919 1791 
Q 2919 2259 2725 2515 
Q 2531 2772 2181 2772 
z
" transform="scale(0.015625)"/>
      <path id="DejaVuSans-Bold-72" d="M 3138 2547 
Q 2991 2616 2845 2648 
Q 2700 2681 2553 2681 
Q 2122 2681 1889 2404 
Q 1656 2128 1656 1613 
L 1656 0 
L 538 0 
L 538 3500 
L 1656 3500 
L 1656 2925 
Q 1872 3269 2151 3426 
Q 2431 3584 2822 3584 
Q 2878 3584 2943 3579 
Q 3009 3575 3134 3559 
L 3138 2547 
z
" transform="scale(0.015625)"/>
      <path id="DejaVuSans-Bold-6f" d="M 2203 2784 
Q 1831 2784 1636 2517 
Q 1441 2250 1441 1747 
Q 1441 1244 1636 976 
Q 1831 709 2203 709 
Q 2569 709 2762 976 
Q 2956 1244 2956 1747 
Q 2956 2250 2762 2517 
Q 2569 2784 2203 2784 
z
M 2203 3584 
Q 3106 3584 3614 3096 
Q 4122 2609 4122 1747 
Q 4122 884 3614 396 
Q 3106 -91 2203 -91 
Q 1297 -91 786 396 
Q 275 884 275 1747 
Q 275 2609 786 3096 
Q 1297 3584 2203 3584 
z
" transform="scale(0.015625)"/>
      <path id="DejaVuSans-Bold-75" d="M 500 1363 
L 500 3500 
L 1625 3500 
L 1625 3150 
Q 1625 2866 1622 2436 
Q 1619 2006 1619 1863 
Q 1619 1441 1641 1255 
Q 1663 1069 1716 984 
Q 1784 875 1895 815 
Q 2006 756 2150 756 
Q 2500 756 2700 1025 
Q 2900 1294 2900 1772 
L 2900 3500 
L 4019 3500 
L 4019 0 
L 2900 0 
L 2900 506 
Q 2647 200 2364 54 
Q 2081 -91 1741 -91 
Q 1134 -91 817 281 
Q 500 653 500 1363 
z
" transform="scale(0.015625)"/>
      <path id="DejaVuSans-Bold-70" d="M 1656 506 
L 1656 -1331 
L 538 -1331 
L 538 3500 
L 1656 3500 
L 1656 2988 
Q 1888 3294 2169 3439 
Q 2450 3584 2816 3584 
Q 3463 3584 3878 3070 
Q 4294 2556 4294 1747 
Q 4294 938 3878 423 
Q 3463 -91 2816 -91 
Q 2450 -91 2169 54 
Q 1888 200 1656 506 
z
M 2400 2772 
Q 2041 2772 1848 2508 
Q 1656 2244 1656 1747 
Q 1656 1250 1848 986 
Q 2041 722 2400 722 
Q 2759 722 2948 984 
Q 3138 1247 3138 1747 
Q 3138 2247 2948 2509 
Q 2759 2772 2400 2772 
z
" transform="scale(0.015625)"/>
      <path id="DejaVuSans-Bold-3a" d="M 716 3500 
L 1844 3500 
L 1844 2291 
L 716 2291 
L 716 3500 
z
M 716 1209 
L 1844 1209 
L 1844 0 
L 716 0 
L 716 1209 
z
" transform="scale(0.015625)"/>
      <path id="DejaVuSans-Bold-32" d="M 1844 884 
L 3897 884 
L 3897 0 
L 506 0 
L 506 884 
L 2209 2388 
Q 2438 2594 2547 2791 
Q 2656 2988 2656 3200 
Q 2656 3528 2436 3728 
Q 2216 3928 1850 3928 
Q 1569 3928 1234 3808 
Q 900 3688 519 3450 
L 519 4475 
Q 925 4609 1322 4679 
Q 1719 4750 2100 4750 
Q 2938 4750 3402 4381 
Q 3866 4013 3866 3353 
Q 3866 2972 3669 2642 
Q 3472 2313 2841 1759 
L 1844 884 
z
" transform="scale(0.015625)"/>
      <path id="DejaVuSans-Bold-2c" d="M 653 1209 
L 1778 1209 
L 1778 256 
L 1006 -909 
L 341 -909 
L 653 256 
L 653 1209 
z
" transform="scale(0.015625)"/>
      <path id="DejaVuSans-Bold-20" transform="scale(0.015625)"/>
      <path id="DejaVuSans-Bold-4d" d="M 588 4666 
L 2119 4666 
L 3181 2169 
L 4250 4666 
L 5778 4666 
L 5778 0 
L 4641 0 
L 4641 3413 
L 3566 897 
L 2803 897 
L 1728 3413 
L 1728 0 
L 588 0 
L 588 4666 
z
" transform="scale(0.015625)"/>
      <path id="DejaVuSans-Bold-3d" d="M 678 3084 
L 4684 3084 
L 4684 2350 
L 678 2350 
L 678 3084 
z
M 678 1663 
L 4684 1663 
L 4684 922 
L 678 922 
L 678 1663 
z
" transform="scale(0.015625)"/>
      <path id="DejaVuSans-Bold-35" d="M 678 4666 
L 3669 4666 
L 3669 3781 
L 1638 3781 
L 1638 3059 
Q 1775 3097 1914 3117 
Q 2053 3138 2203 3138 
Q 3056 3138 3531 2711 
Q 4006 2284 4006 1522 
Q 4006 766 3489 337 
Q 2972 -91 2053 -91 
Q 1656 -91 1267 -14 
Q 878 63 494 219 
L 494 1166 
Q 875 947 1217 837 
Q 1559 728 1863 728 
Q 2300 728 2551 942 
Q 2803 1156 2803 1522 
Q 2803 1891 2551 2103 
Q 2300 2316 1863 2316 
Q 1603 2316 1309 2248 
Q 1016 2181 678 2041 
L 678 4666 
z
" transform="scale(0.015625)"/>
      <path id="DejaVuSans-Bold-36" d="M 2316 2303 
Q 2000 2303 1842 2098 
Q 1684 1894 1684 1484 
Q 1684 1075 1842 870 
Q 2000 666 2316 666 
Q 2634 666 2792 870 
Q 2950 1075 2950 1484 
Q 2950 1894 2792 2098 
Q 2634 2303 2316 2303 
z
M 3803 4544 
L 3803 3681 
Q 3506 3822 3243 3889 
Q 2981 3956 2731 3956 
Q 2194 3956 1894 3657 
Q 1594 3359 1544 2772 
Q 1750 2925 1990 3001 
Q 2231 3078 2516 3078 
Q 3231 3078 3670 2659 
Q 4109 2241 4109 1563 
Q 4109 813 3618 361 
Q 3128 -91 2303 -91 
Q 1394 -91 895 523 
Q 397 1138 397 2266 
Q 397 3422 980 4083 
Q 1563 4744 2578 4744 
Q 2900 4744 3203 4694 
Q 3506 4644 3803 4544 
z
" transform="scale(0.015625)"/>
      <path id="DejaVuSans-Bold-2014" d="M 344 2156 
L 6056 2156 
L 6056 1350 
L 344 1350 
L 344 2156 
z
" transform="scale(0.015625)"/>
      <path id="DejaVuSans-Bold-43" d="M 4288 256 
Q 3956 84 3597 -3 
Q 3238 -91 2847 -91 
Q 1681 -91 1000 561 
Q 319 1213 319 2328 
Q 319 3447 1000 4098 
Q 1681 4750 2847 4750 
Q 3238 4750 3597 4662 
Q 3956 4575 4288 4403 
L 4288 3438 
Q 3953 3666 3628 3772 
Q 3303 3878 2944 3878 
Q 2300 3878 1931 3465 
Q 1563 3053 1563 2328 
Q 1563 1606 1931 1193 
Q 2300 781 2944 781 
Q 3303 781 3628 887 
Q 3953 994 4288 1222 
L 4288 256 
z
" transform="scale(0.015625)"/>
      <path id="DejaVuSans-Bold-54" d="M 31 4666 
L 4331 4666 
L 4331 3756 
L 2784 3756 
L 2784 0 
L 1581 0 
L 1581 3756 
L 31 3756 
L 31 4666 
z
" transform="scale(0.015625)"/>
      <path id="DejaVuSans-Bold-41" d="M 3419 850 
L 1538 850 
L 1241 0 
L 31 0 
L 1759 4666 
L 3194 4666 
L 4922 0 
L 3713 0 
L 3419 850 
z
M 1838 1716 
L 3116 1716 
L 2478 3572 
L 1838 1716 
z
" transform="scale(0.015625)"/>
      <path id="DejaVuSans-Bold-73" d="M 3272 3391 
L 3272 2541 
Q 2913 2691 2578 2766 
Q 2244 2841 1947 2841 
Q 1628 2841 1473 2761 
Q 1319 2681 1319 2516 
Q 1319 2381 1436 2309 
Q 1553 2238 1856 2203 
L 2053 2175 
Q 2913 2066 3209 1816 
Q 3506 1566 3506 1031 
Q 3506 472 3093 190 
Q 2681 -91 1863 -91 
Q 1516 -91 1145 -36 
Q 775 19 384 128 
L 384 978 
Q 719 816 1070 734 
Q 1422 653 1784 653 
Q 2113 653 2278 743 
Q 2444 834 2444 1013 
Q 2444 1163 2330 1236 
Q 2216 1309 1875 1350 
L 1678 1375 
Q 931 1469 631 1722 
Q 331 1975 331 2491 
Q 331 3047 712 3315 
Q 1094 3584 1881 3584 
Q 2191 3584 2531 3537 
Q 2872 3491 3272 3391 
z
" transform="scale(0.015625)"/>
      <path id="DejaVuSans-Bold-28" d="M 2413 -844 
L 1484 -844 
Q 1006 -72 778 623 
Q 550 1319 550 2003 
Q 550 2688 779 3389 
Q 1009 4091 1484 4856 
L 2413 4856 
Q 2013 4116 1813 3408 
Q 1613 2700 1613 2009 
Q 1613 1319 1811 609 
Q 2009 -100 2413 -844 
z
" transform="scale(0.015625)"/>
      <path id="DejaVuSans-Bold-6c" d="M 538 4863 
L 1656 4863 
L 1656 0 
L 538 0 
L 538 4863 
z
" transform="scale(0.015625)"/>
      <path id="DejaVuSans-Bold-69" d="M 538 3500 
L 1656 3500 
L 1656 0 
L 538 0 
L 538 3500 
z
M 538 4863 
L 1656 4863 
L 1656 3950 
L 538 3950 
L 538 4863 
z
" transform="scale(0.015625)"/>
      <path id="DejaVuSans-Bold-29" d="M 513 -844 
Q 913 -100 1113 609 
Q 1313 1319 1313 2009 
Q 1313 2700 1113 3408 
Q 913 4116 513 4856 
L 1441 4856 
Q 1916 4091 2145 3389 
Q 2375 2688 2375 2003 
Q 2375 1319 2147 623 
Q 1919 -72 1441 -844 
L 513 -844 
z
" transform="scale(0.015625)"/>
     </defs>
     <use xlink:href="#DejaVuSans-Bold-63"/>
     <use xlink:href="#DejaVuSans-Bold-74" transform="translate(59.277344 0)"/>
     <use xlink:href="#DejaVuSans-Bold-61" transform="translate(107.080078 0)"/>
     <use xlink:href="#DejaVuSans-Bold-5f" transform="translate(174.560547 0)"/>
     <use xlink:href="#DejaVuSans-Bold-67" transform="translate(224.560547 0)"/>
     <use xlink:href="#DejaVuSans-Bold-72" transform="translate(296.142578 0)"/>
     <use xlink:href="#DejaVuSans-Bold-6f" transform="translate(345.458984 0)"/>
     <use xlink:href="#DejaVuSans-Bold-75" transform="translate(414.160156 0)"/>
     <use xlink:href="#DejaVuSans-Bold-70" transform="translate(485.351562 0)"/>
     <use xlink:href="#DejaVuSans-Bold-3a" transform="translate(556.933594 0)"/>
     <use xlink:href="#DejaVuSans-Bold-3a" transform="translate(596.923828 0)"/>
     <use xlink:href="#DejaVuSans-Bold-32" transform="translate(636.914062 0)"/>
     <use xlink:href="#DejaVuSans-Bold-2c" transform="translate(706.494141 0)"/>
     <use xlink:href="#DejaVuSans-Bold-20" transform="translate(744.482422 0)"/>
     <use xlink:href="#DejaVuSans-Bold-4d" transform="translate(779.296875 0)"/>
     <use xlink:href="#DejaVuSans-Bold-3d" transform="translate(878.808594 0)"/>
     <use xlink:href="#DejaVuSans-Bold-32" transform="translate(962.597656 0)"/>
     <use xlink:href="#DejaVuSans-Bold-35" transform="translate(1032.177734 0)"/>
     <use xlink:href="#DejaVuSans-Bold-36" transform="translate(1101.757812 0)"/>
     <use xlink:href="#DejaVuSans-Bold-20" transform="translate(1171.337891 0)"/>
     <use xlink:href="#DejaVuSans-Bold-20" transform="translate(1206.152344 0)"/>
     <use xlink:href="#DejaVuSans-Bold-2014" transform="translate(1240.966797 0)"/>
     <use xlink:href="#DejaVuSans-Bold-20" transform="translate(1340.966797 0)"/>
     <use xlink:href="#DejaVuSans-Bold-20" transform="translate(1375.78125 0)"/>
     <use xlink:href="#DejaVuSans-Bold-32" transform="translate(1410.595703 0)"/>
     <use xlink:href="#DejaVuSans-Bold-20" transform="translate(1480.175781 0)"/>
     <use xlink:href="#DejaVuSans-Bold-43" transform="translate(1514.990234 0)"/>
     <use xlink:href="#DejaVuSans-Bold-54" transform="translate(1588.378906 0)"/>
     <use xlink:href="#DejaVuSans-Bold-41" transform="translate(1648.841797 0)"/>
     <use xlink:href="#DejaVuSans-Bold-73" transform="translate(1726.234375 0)"/>
     <use xlink:href="#DejaVuSans-Bold-20" transform="translate(1785.755859 0)"/>
     <use xlink:href="#DejaVuSans-Bold-28" transform="translate(1820.570312 0)"/>
     <use xlink:href="#DejaVuSans-Bold-4d" transform="translate(1866.273438 0)"/>
     <use xlink:href="#DejaVuSans-Bold-20" transform="translate(1965.785156 0)"/>
     <use xlink:href="#DejaVuSans-Bold-73" transform="translate(2000.599609 0)"/>
     <use xlink:href="#DejaVuSans-Bold-70" transform="translate(2060.121094 0)"/>
     <use xlink:href="#DejaVuSans-Bold-6c" transform="translate(2131.703125 0)"/>
     <use xlink:href="#DejaVuSans-Bold-69" transform="translate(2165.980469 0)"/>
     <use xlink:href="#DejaVuSans-Bold-74" transform="translate(2200.257812 0)"/>
     <use xlink:href="#DejaVuSans-Bold-29" transform="translate(2248.060547 0)"/>
    </g>
   </g>
   <g id="text_2">
    <!-- CTA 0 — SMEM -->
    <g style="fill: #334155" transform="translate(29.2968 43.083294) scale(0.08 -0.08)">
     <defs>
      <path id="DejaVuSans-Bold-30" d="M 2944 2338 
Q 2944 3213 2780 3570 
Q 2616 3928 2228 3928 
Q 1841 3928 1675 3570 
Q 1509 3213 1509 2338 
Q 1509 1453 1675 1090 
Q 1841 728 2228 728 
Q 2613 728 2778 1090 
Q 2944 1453 2944 2338 
z
M 4147 2328 
Q 4147 1169 3647 539 
Q 3147 -91 2228 -91 
Q 1306 -91 806 539 
Q 306 1169 306 2328 
Q 306 3491 806 4120 
Q 1306 4750 2228 4750 
Q 3147 4750 3647 4120 
Q 4147 3491 4147 2328 
z
" transform="scale(0.015625)"/>
      <path id="DejaVuSans-Bold-53" d="M 3834 4519 
L 3834 3531 
Q 3450 3703 3084 3790 
Q 2719 3878 2394 3878 
Q 1963 3878 1756 3759 
Q 1550 3641 1550 3391 
Q 1550 3203 1689 3098 
Q 1828 2994 2194 2919 
L 2706 2816 
Q 3484 2659 3812 2340 
Q 4141 2022 4141 1434 
Q 4141 663 3683 286 
Q 3225 -91 2284 -91 
Q 1841 -91 1394 -6 
Q 947 78 500 244 
L 500 1259 
Q 947 1022 1364 901 
Q 1781 781 2169 781 
Q 2563 781 2772 912 
Q 2981 1044 2981 1288 
Q 2981 1506 2839 1625 
Q 2697 1744 2272 1838 
L 1806 1941 
Q 1106 2091 782 2419 
Q 459 2747 459 3303 
Q 459 4000 909 4375 
Q 1359 4750 2203 4750 
Q 2588 4750 2994 4692 
Q 3400 4634 3834 4519 
z
" transform="scale(0.015625)"/>
      <path id="DejaVuSans-Bold-45" d="M 588 4666 
L 3834 4666 
L 3834 3756 
L 1791 3756 
L 1791 2888 
L 3713 2888 
L 3713 1978 
L 1791 1978 
L 1791 909 
L 3903 909 
L 3903 0 
L 588 0 
L 588 4666 
z
" transform="scale(0.015625)"/>
     </defs>
     <use xlink:href="#DejaVuSans-Bold-43"/>
     <use xlink:href="#DejaVuSans-Bold-54" transform="translate(73.388672 0)"/>
     <use xlink:href="#DejaVuSans-Bold-41" transform="translate(133.851562 0)"/>
     <use xlink:href="#DejaVuSans-Bold-20" transform="translate(211.244141 0)"/>
     <use xlink:href="#DejaVuSans-Bold-30" transform="translate(246.058594 0)"/>
     <use xlink:href="#DejaVuSans-Bold-20" transform="translate(315.638672 0)"/>
     <use xlink:href="#DejaVuSans-Bold-2014" transform="translate(350.453125 0)"/>
     <use xlink:href="#DejaVuSans-Bold-20" transform="translate(450.453125 0)"/>
     <use xlink:href="#DejaVuSans-Bold-53" transform="translate(485.267578 0)"/>
     <use xlink:href="#DejaVuSans-Bold-4d" transform="translate(557.289062 0)"/>
     <use xlink:href="#DejaVuSans-Bold-45" transform="translate(656.800781 0)"/>
     <use xlink:href="#DejaVuSans-Bold-4d" transform="translate(725.111328 0)"/>
    </g>
   </g>
   <g id="text_3">
    <!-- A  rows 0-127 -->
    <g style="fill: #ffffff" transform="translate(84.3663 56.456102) scale(0.08 -0.08)">
     <defs>
      <path id="DejaVuSans-Bold-77" d="M 225 3500 
L 1313 3500 
L 1900 1088 
L 2491 3500 
L 3425 3500 
L 4013 1113 
L 4603 3500 
L 5691 3500 
L 4769 0 
L 3547 0 
L 2956 2406 
L 2369 0 
L 1147 0 
L 225 3500 
z
" transform="scale(0.015625)"/>
      <path id="DejaVuSans-Bold-2d" d="M 347 2297 
L 2309 2297 
L 2309 1388 
L 347 1388 
L 347 2297 
z
" transform="scale(0.015625)"/>
      <path id="DejaVuSans-Bold-31" d="M 750 831 
L 1813 831 
L 1813 3847 
L 722 3622 
L 722 4441 
L 1806 4666 
L 2950 4666 
L 2950 831 
L 4013 831 
L 4013 0 
L 750 0 
L 750 831 
z
" transform="scale(0.015625)"/>
      <path id="DejaVuSans-Bold-37" d="M 428 4666 
L 3944 4666 
L 3944 3988 
L 2125 0 
L 953 0 
L 2675 3781 
L 428 3781 
L 428 4666 
z
" transform="scale(0.015625)"/>
     </defs>
     <use xlink:href="#DejaVuSans-Bold-41"/>
     <use xlink:href="#DejaVuSans-Bold-20" transform="translate(77.392578 0)"/>
     <use xlink:href="#DejaVuSans-Bold-20" transform="translate(112.207031 0)"/>
     <use xlink:href="#DejaVuSans-Bold-72" transform="translate(147.021484 0)"/>
     <use xlink:href="#DejaVuSans-Bold-6f" transform="translate(196.337891 0)"/>
     <use xlink:href="#DejaVuSans-Bold-77" transform="translate(265.039062 0)"/>
     <use xlink:href="#DejaVuSans-Bold-73" transform="translate(357.421875 0)"/>
     <use xlink:href="#DejaVuSans-Bold-20" transform="translate(416.943359 0)"/>
     <use xlink:href="#DejaVuSans-Bold-30" transform="translate(451.757812 0)"/>
     <use xlink:href="#DejaVuSans-Bold-2d" transform="translate(521.337891 0)"/>
     <use xlink:href="#DejaVuSans-Bold-31" transform="translate(562.841797 0)"/>
     <use xlink:href="#DejaVuSans-Bold-32" transform="translate(632.421875 0)"/>
     <use xlink:href="#DejaVuSans-Bold-37" transform="translate(702.001953 0)"/>
    </g>
   </g>
   <g id="text_4">
    <!-- 128 × K -->
    <g style="fill: #ffffff" transform="translate(102.710613 66.337782) scale(0.062 -0.062)">
     <defs>
      <path id="DejaVuSans-31" d="M 794 531 
L 1825 531 
L 1825 4091 
L 703 3866 
L 703 4441 
L 1819 4666 
L 2450 4666 
L 2450 531 
L 3481 531 
L 3481 0 
L 794 0 
L 794 531 
z
" transform="scale(0.015625)"/>
      <path id="DejaVuSans-32" d="M 1228 531 
L 3431 531 
L 3431 0 
L 469 0 
L 469 531 
Q 828 903 1448 1529 
Q 2069 2156 2228 2338 
Q 2531 2678 2651 2914 
Q 2772 3150 2772 3378 
Q 2772 3750 2511 3984 
Q 2250 4219 1831 4219 
Q 1534 4219 1204 4116 
Q 875 4013 500 3803 
L 500 4441 
Q 881 4594 1212 4672 
Q 1544 4750 1819 4750 
Q 2544 4750 2975 4387 
Q 3406 4025 3406 3419 
Q 3406 3131 3298 2873 
Q 3191 2616 2906 2266 
Q 2828 2175 2409 1742 
Q 1991 1309 1228 531 
z
" transform="scale(0.015625)"/>
      <path id="DejaVuSans-38" d="M 2034 2216 
Q 1584 2216 1326 1975 
Q 1069 1734 1069 1313 
Q 1069 891 1326 650 
Q 1584 409 2034 409 
Q 2484 409 2743 651 
Q 3003 894 3003 1313 
Q 3003 1734 2745 1975 
Q 2488 2216 2034 2216 
z
M 1403 2484 
Q 997 2584 770 2862 
Q 544 3141 544 3541 
Q 544 4100 942 4425 
Q 1341 4750 2034 4750 
Q 2731 4750 3128 4425 
Q 3525 4100 3525 3541 
Q 3525 3141 3298 2862 
Q 3072 2584 2669 2484 
Q 3125 2378 3379 2068 
Q 3634 1759 3634 1313 
Q 3634 634 3220 271 
Q 2806 -91 2034 -91 
Q 1263 -91 848 271 
Q 434 634 434 1313 
Q 434 1759 690 2068 
Q 947 2378 1403 2484 
z
M 1172 3481 
Q 1172 3119 1398 2916 
Q 1625 2713 2034 2713 
Q 2441 2713 2670 2916 
Q 2900 3119 2900 3481 
Q 2900 3844 2670 4047 
Q 2441 4250 2034 4250 
Q 1625 4250 1398 4047 
Q 1172 3844 1172 3481 
z
" transform="scale(0.015625)"/>
      <path id="DejaVuSans-20" transform="scale(0.015625)"/>
      <path id="DejaVuSans-d7" d="M 4488 3438 
L 3059 2003 
L 4488 575 
L 4116 197 
L 2681 1631 
L 1247 197 
L 878 575 
L 2303 2003 
L 878 3438 
L 1247 3816 
L 2681 2381 
L 4116 3816 
L 4488 3438 
z
" transform="scale(0.015625)"/>
      <path id="DejaVuSans-4b" d="M 628 4666 
L 1259 4666 
L 1259 2694 
L 3353 4666 
L 4166 4666 
L 1850 2491 
L 4331 0 
L 3500 0 
L 1259 2247 
L 1259 0 
L 628 0 
L 628 4666 
z
" transform="scale(0.015625)"/>
     </defs>
     <use xlink:href="#DejaVuSans-31"/>
     <use xlink:href="#DejaVuSans-32" transform="translate(63.623047 0)"/>
     <use xlink:href="#DejaVuSans-38" transform="translate(127.246094 0)"/>
     <use xlink:href="#DejaVuSans-20" transform="translate(190.869141 0)"/>
     <use xlink:href="#DejaVuSans-d7" transform="translate(222.65625 0)"/>
     <use xlink:href="#DejaVuSans-20" transform="translate(306.445312 0)"/>
     <use xlink:href="#DejaVuSans-4b" transform="translate(338.232422 0)"/>
    </g>
   </g>
   <g id="text_5">
    <!-- B  cols 0..N/2 -->
    <g style="fill: #ffffff" transform="translate(85.71755 95.414898) scale(0.08 -0.08)">
     <defs>
      <path id="DejaVuSans-Bold-42" d="M 2456 2859 
Q 2741 2859 2887 2984 
Q 3034 3109 3034 3353 
Q 3034 3594 2887 3720 
Q 2741 3847 2456 3847 
L 1791 3847 
L 1791 2859 
L 2456 2859 
z
M 2497 819 
Q 2859 819 3042 972 
Q 3225 1125 3225 1434 
Q 3225 1738 3044 1889 
Q 2863 2041 2497 2041 
L 1791 2041 
L 1791 819 
L 2497 819 
z
M 3616 2497 
Q 4003 2384 4215 2081 
Q 4428 1778 4428 1338 
Q 4428 663 3972 331 
Q 3516 0 2584 0 
L 588 0 
L 588 4666 
L 2394 4666 
Q 3366 4666 3802 4372 
Q 4238 4078 4238 3431 
Q 4238 3091 4078 2852 
Q 3919 2613 3616 2497 
z
" transform="scale(0.015625)"/>
      <path id="DejaVuSans-Bold-2e" d="M 653 1209 
L 1778 1209 
L 1778 0 
L 653 0 
L 653 1209 
z
" transform="scale(0.015625)"/>
      <path id="DejaVuSans-Bold-4e" d="M 588 4666 
L 1931 4666 
L 3628 1466 
L 3628 4666 
L 4769 4666 
L 4769 0 
L 3425 0 
L 1728 3200 
L 1728 0 
L 588 0 
L 588 4666 
z
" transform="scale(0.015625)"/>
      <path id="DejaVuSans-Bold-2f" d="M 1644 4666 
L 2338 4666 
L 691 -594 
L 0 -594 
L 1644 4666 
z
" transform="scale(0.015625)"/>
     </defs>
     <use xlink:href="#DejaVuSans-Bold-42"/>
     <use xlink:href="#DejaVuSans-Bold-20" transform="translate(76.220703 0)"/>
     <use xlink:href="#DejaVuSans-Bold-20" transform="translate(111.035156 0)"/>
     <use xlink:href="#DejaVuSans-Bold-63" transform="translate(145.849609 0)"/>
     <use xlink:href="#DejaVuSans-Bold-6f" transform="translate(205.126953 0)"/>
     <use xlink:href="#DejaVuSans-Bold-6c" transform="translate(273.828125 0)"/>
     <use xlink:href="#DejaVuSans-Bold-73" transform="translate(308.105469 0)"/>
     <use xlink:href="#DejaVuSans-Bold-20" transform="translate(367.626953 0)"/>
     <use xlink:href="#DejaVuSans-Bold-30" transform="translate(402.441406 0)"/>
     <use xlink:href="#DejaVuSans-Bold-2e" transform="translate(472.021484 0)"/>
     <use xlink:href="#DejaVuSans-Bold-2e" transform="translate(510.009766 0)"/>
     <use xlink:href="#DejaVuSans-Bold-4e" transform="translate(547.998047 0)"/>
     <use xlink:href="#DejaVuSans-Bold-2f" transform="translate(631.689453 0)"/>
     <use xlink:href="#DejaVuSans-Bold-32" transform="translate(668.212891 0)"/>
    </g>
   </g>
   <g id="text_6">
    <!-- N/2 × K -->
    <g style="fill: #ffffff" transform="translate(103.291863 104.498243) scale(0.062 -0.062)">
     <defs>
      <path id="DejaVuSans-4e" d="M 628 4666 
L 1478 4666 
L 3547 763 
L 3547 4666 
L 4159 4666 
L 4159 0 
L 3309 0 
L 1241 3903 
L 1241 0 
L 628 0 
L 628 4666 
z
" transform="scale(0.015625)"/>
      <path id="DejaVuSans-2f" d="M 1625 4666 
L 2156 4666 
L 531 -594 
L 0 -594 
L 1625 4666 
z
" transform="scale(0.015625)"/>
     </defs>
     <use xlink:href="#DejaVuSans-4e"/>
     <use xlink:href="#DejaVuSans-2f" transform="translate(74.804688 0)"/>
     <use xlink:href="#DejaVuSans-32" transform="translate(108.496094 0)"/>
     <use xlink:href="#DejaVuSans-20" transform="translate(172.119141 0)"/>
     <use xlink:href="#DejaVuSans-d7" transform="translate(203.90625 0)"/>
     <use xlink:href="#DejaVuSans-20" transform="translate(287.695312 0)"/>
     <use xlink:href="#DejaVuSans-4b" transform="translate(319.482422 0)"/>
    </g>
   </g>
   <g id="patch_12">
    <path d="M 215.435546 79.05024 
Q 245.355498 79.05024 273.262988 79.05024 
" style="fill: none; stroke: #059669; stroke-width: 1.8; stroke-linecap: round"/>
    <path d="M 269.262988 77.05024 
L 273.262988 79.05024 
L 269.262988 81.05024 
z
" style="fill: #059669; stroke: #059669; stroke-width: 1.8; stroke-linecap: round"/>
   </g>
   <g id="text_7">
    <!-- MMA -->
    <g style="fill: #059669" transform="translate(236.920494 65.015082) scale(0.07 -0.07)">
     <defs>
      <path id="DejaVuSans-4d" d="M 628 4666 
L 1569 4666 
L 2759 1491 
L 3956 4666 
L 4897 4666 
L 4897 0 
L 4281 0 
L 4281 4097 
L 3078 897 
L 2444 897 
L 1241 4097 
L 1241 0 
L 628 0 
L 628 4666 
z
" transform="scale(0.015625)"/>
      <path id="DejaVuSans-41" d="M 2188 4044 
L 1331 1722 
L 3047 1722 
L 2188 4044 
z
M 1831 4666 
L 2547 4666 
L 4325 0 
L 3669 0 
L 3244 1197 
L 1141 1197 
L 716 0 
L 50 0 
L 1831 4666 
z
" transform="scale(0.015625)"/>
     </defs>
     <use xlink:href="#DejaVuSans-4d"/>
     <use xlink:href="#DejaVuSans-4d" transform="translate(86.279297 0)"/>
     <use xlink:href="#DejaVuSans-41" transform="translate(172.558594 0)"/>
    </g>
   </g>
   <g id="text_8">
    <!-- CTA 0 — TMEM -->
    <g style="fill: #334155" transform="translate(304.2792 43.083294) scale(0.08 -0.08)">
     <use xlink:href="#DejaVuSans-Bold-43"/>
     <use xlink:href="#DejaVuSans-Bold-54" transform="translate(73.388672 0)"/>
     <use xlink:href="#DejaVuSans-Bold-41" transform="translate(133.851562 0)"/>
     <use xlink:href="#DejaVuSans-Bold-20" transform="translate(211.244141 0)"/>
     <use xlink:href="#DejaVuSans-Bold-30" transform="translate(246.058594 0)"/>
     <use xlink:href="#DejaVuSans-Bold-20" transform="translate(315.638672 0)"/>
     <use xlink:href="#DejaVuSans-Bold-2014" transform="translate(350.453125 0)"/>
     <use xlink:href="#DejaVuSans-Bold-20" transform="translate(450.453125 0)"/>
     <use xlink:href="#DejaVuSans-Bold-54" transform="translate(485.267578 0)"/>
     <use xlink:href="#DejaVuSans-Bold-4d" transform="translate(553.480469 0)"/>
     <use xlink:href="#DejaVuSans-Bold-45" transform="translate(652.992188 0)"/>
     <use xlink:href="#DejaVuSans-Bold-4d" transform="translate(721.302734 0)"/>
    </g>
   </g>
   <g id="text_9">
    <!-- C  rows 0-127 -->
    <g style="fill: #ffffff" transform="translate(359.5087 69.868146) scale(0.08 -0.08)">
     <use xlink:href="#DejaVuSans-Bold-43"/>
     <use xlink:href="#DejaVuSans-Bold-20" transform="translate(73.388672 0)"/>
     <use xlink:href="#DejaVuSans-Bold-20" transform="translate(108.203125 0)"/>
     <use xlink:href="#DejaVuSans-Bold-72" transform="translate(143.017578 0)"/>
     <use xlink:href="#DejaVuSans-Bold-6f" transform="translate(192.333984 0)"/>
     <use xlink:href="#DejaVuSans-Bold-77" transform="translate(261.035156 0)"/>
     <use xlink:href="#DejaVuSans-Bold-73" transform="translate(353.417969 0)"/>
     <use xlink:href="#DejaVuSans-Bold-20" transform="translate(412.939453 0)"/>
     <use xlink:href="#DejaVuSans-Bold-30" transform="translate(447.753906 0)"/>
     <use xlink:href="#DejaVuSans-Bold-2d" transform="translate(517.333984 0)"/>
     <use xlink:href="#DejaVuSans-Bold-31" transform="translate(558.837891 0)"/>
     <use xlink:href="#DejaVuSans-Bold-32" transform="translate(628.417969 0)"/>
     <use xlink:href="#DejaVuSans-Bold-37" transform="translate(697.998047 0)"/>
    </g>
   </g>
   <g id="text_10">
    <!-- x full N (lanes 0-127) -->
    <g style="fill: #ffffff" transform="translate(357.663138 90.926531) scale(0.062 -0.062)">
     <defs>
      <path id="DejaVuSans-78" d="M 3513 3500 
L 2247 1797 
L 3578 0 
L 2900 0 
L 1881 1375 
L 863 0 
L 184 0 
L 1544 1831 
L 300 3500 
L 978 3500 
L 1906 2253 
L 2834 3500 
L 3513 3500 
z
" transform="scale(0.015625)"/>
      <path id="DejaVuSans-66" d="M 2375 4863 
L 2375 4384 
L 1825 4384 
Q 1516 4384 1395 4259 
Q 1275 4134 1275 3809 
L 1275 3500 
L 2222 3500 
L 2222 3053 
L 1275 3053 
L 1275 0 
L 697 0 
L 697 3053 
L 147 3053 
L 147 3500 
L 697 3500 
L 697 3744 
Q 697 4328 969 4595 
Q 1241 4863 1831 4863 
L 2375 4863 
z
" transform="scale(0.015625)"/>
      <path id="DejaVuSans-75" d="M 544 1381 
L 544 3500 
L 1119 3500 
L 1119 1403 
Q 1119 906 1312 657 
Q 1506 409 1894 409 
Q 2359 409 2629 706 
Q 2900 1003 2900 1516 
L 2900 3500 
L 3475 3500 
L 3475 0 
L 2900 0 
L 2900 538 
Q 2691 219 2414 64 
Q 2138 -91 1772 -91 
Q 1169 -91 856 284 
Q 544 659 544 1381 
z
M 1991 3584 
L 1991 3584 
z
" transform="scale(0.015625)"/>
      <path id="DejaVuSans-6c" d="M 603 4863 
L 1178 4863 
L 1178 0 
L 603 0 
L 603 4863 
z
" transform="scale(0.015625)"/>
      <path id="DejaVuSans-28" d="M 1984 4856 
Q 1566 4138 1362 3434 
Q 1159 2731 1159 2009 
Q 1159 1288 1364 580 
Q 1569 -128 1984 -844 
L 1484 -844 
Q 1016 -109 783 600 
Q 550 1309 550 2009 
Q 550 2706 781 3412 
Q 1013 4119 1484 4856 
L 1984 4856 
z
" transform="scale(0.015625)"/>
      <path id="DejaVuSans-61" d="M 2194 1759 
Q 1497 1759 1228 1600 
Q 959 1441 959 1056 
Q 959 750 1161 570 
Q 1363 391 1709 391 
Q 2188 391 2477 730 
Q 2766 1069 2766 1631 
L 2766 1759 
L 2194 1759 
z
M 3341 1997 
L 3341 0 
L 2766 0 
L 2766 531 
Q 2569 213 2275 61 
Q 1981 -91 1556 -91 
Q 1019 -91 701 211 
Q 384 513 384 1019 
Q 384 1609 779 1909 
Q 1175 2209 1959 2209 
L 2766 2209 
L 2766 2266 
Q 2766 2663 2505 2880 
Q 2244 3097 1772 3097 
Q 1472 3097 1187 3025 
Q 903 2953 641 2809 
L 641 3341 
Q 956 3463 1253 3523 
Q 1550 3584 1831 3584 
Q 2591 3584 2966 3190 
Q 3341 2797 3341 1997 
z
" transform="scale(0.015625)"/>
      <path id="DejaVuSans-6e" d="M 3513 2113 
L 3513 0 
L 2938 0 
L 2938 2094 
Q 2938 2591 2744 2837 
Q 2550 3084 2163 3084 
Q 1697 3084 1428 2787 
Q 1159 2491 1159 1978 
L 1159 0 
L 581 0 
L 581 3500 
L 1159 3500 
L 1159 2956 
Q 1366 3272 1645 3428 
Q 1925 3584 2291 3584 
Q 2894 3584 3203 3211 
Q 3513 2838 3513 2113 
z
" transform="scale(0.015625)"/>
      <path id="DejaVuSans-65" d="M 3597 1894 
L 3597 1613 
L 953 1613 
Q 991 1019 1311 708 
Q 1631 397 2203 397 
Q 2534 397 2845 478 
Q 3156 559 3463 722 
L 3463 178 
Q 3153 47 2828 -22 
Q 2503 -91 2169 -91 
Q 1331 -91 842 396 
Q 353 884 353 1716 
Q 353 2575 817 3079 
Q 1281 3584 2069 3584 
Q 2775 3584 3186 3129 
Q 3597 2675 3597 1894 
z
M 3022 2063 
Q 3016 2534 2758 2815 
Q 2500 3097 2075 3097 
Q 1594 3097 1305 2825 
Q 1016 2553 972 2059 
L 3022 2063 
z
" transform="scale(0.015625)"/>
      <path id="DejaVuSans-73" d="M 2834 3397 
L 2834 2853 
Q 2591 2978 2328 3040 
Q 2066 3103 1784 3103 
Q 1356 3103 1142 2972 
Q 928 2841 928 2578 
Q 928 2378 1081 2264 
Q 1234 2150 1697 2047 
L 1894 2003 
Q 2506 1872 2764 1633 
Q 3022 1394 3022 966 
Q 3022 478 2636 193 
Q 2250 -91 1575 -91 
Q 1294 -91 989 -36 
Q 684 19 347 128 
L 347 722 
Q 666 556 975 473 
Q 1284 391 1588 391 
Q 1994 391 2212 530 
Q 2431 669 2431 922 
Q 2431 1156 2273 1281 
Q 2116 1406 1581 1522 
L 1381 1569 
Q 847 1681 609 1914 
Q 372 2147 372 2553 
Q 372 3047 722 3315 
Q 1072 3584 1716 3584 
Q 2034 3584 2315 3537 
Q 2597 3491 2834 3397 
z
" transform="scale(0.015625)"/>
      <path id="DejaVuSans-30" d="M 2034 4250 
Q 1547 4250 1301 3770 
Q 1056 3291 1056 2328 
Q 1056 1369 1301 889 
Q 1547 409 2034 409 
Q 2525 409 2770 889 
Q 3016 1369 3016 2328 
Q 3016 3291 2770 3770 
Q 2525 4250 2034 4250 
z
M 2034 4750 
Q 2819 4750 3233 4129 
Q 3647 3509 3647 2328 
Q 3647 1150 3233 529 
Q 2819 -91 2034 -91 
Q 1250 -91 836 529 
Q 422 1150 422 2328 
Q 422 3509 836 4129 
Q 1250 4750 2034 4750 
z
" transform="scale(0.015625)"/>
      <path id="DejaVuSans-2d" d="M 313 2009 
L 1997 2009 
L 1997 1497 
L 313 1497 
L 313 2009 
z
" transform="scale(0.015625)"/>
      <path id="DejaVuSans-37" d="M 525 4666 
L 3525 4666 
L 3525 4397 
L 1831 0 
L 1172 0 
L 2766 4134 
L 525 4134 
L 525 4666 
z
" transform="scale(0.015625)"/>
      <path id="DejaVuSans-29" d="M 513 4856 
L 1013 4856 
Q 1481 4119 1714 3412 
Q 1947 2706 1947 2009 
Q 1947 1309 1714 600 
Q 1481 -109 1013 -844 
L 513 -844 
Q 928 -128 1133 580 
Q 1338 1288 1338 2009 
Q 1338 2731 1133 3434 
Q 928 4138 513 4856 
z
" transform="scale(0.015625)"/>
     </defs>
     <use xlink:href="#DejaVuSans-78"/>
     <use xlink:href="#DejaVuSans-20" transform="translate(59.179688 0)"/>
     <use xlink:href="#DejaVuSans-66" transform="translate(90.966797 0)"/>
     <use xlink:href="#DejaVuSans-75" transform="translate(126.171875 0)"/>
     <use xlink:href="#DejaVuSans-6c" transform="translate(189.550781 0)"/>
     <use xlink:href="#DejaVuSans-6c" transform="translate(217.333984 0)"/>
     <use xlink:href="#DejaVuSans-20" transform="translate(245.117188 0)"/>
     <use xlink:href="#DejaVuSans-4e" transform="translate(276.904297 0)"/>
     <use xlink:href="#DejaVuSans-20" transform="translate(351.708984 0)"/>
     <use xlink:href="#DejaVuSans-28" transform="translate(383.496094 0)"/>
     <use xlink:href="#DejaVuSans-6c" transform="translate(422.509766 0)"/>
     <use xlink:href="#DejaVuSans-61" transform="translate(450.292969 0)"/>
     <use xlink:href="#DejaVuSans-6e" transform="translate(511.572266 0)"/>
     <use xlink:href="#DejaVuSans-65" transform="translate(574.951172 0)"/>
     <use xlink:href="#DejaVuSans-73" transform="translate(636.474609 0)"/>
     <use xlink:href="#DejaVuSans-20" transform="translate(688.574219 0)"/>
     <use xlink:href="#DejaVuSans-30" transform="translate(720.361328 0)"/>
     <use xlink:href="#DejaVuSans-2d" transform="translate(783.984375 0)"/>
     <use xlink:href="#DejaVuSans-31" transform="translate(820.068359 0)"/>
     <use xlink:href="#DejaVuSans-32" transform="translate(883.691406 0)"/>
     <use xlink:href="#DejaVuSans-37" transform="translate(947.314453 0)"/>
     <use xlink:href="#DejaVuSans-29" transform="translate(1010.9375 0)"/>
    </g>
   </g>
   <g id="text_11">
    <!-- CTA 1 — SMEM -->
    <g style="fill: #334155" transform="translate(29.2968 165.494814) scale(0.08 -0.08)">
     <use xlink:href="#DejaVuSans-Bold-43"/>
     <use xlink:href="#DejaVuSans-Bold-54" transform="translate(73.388672 0)"/>
     <use xlink:href="#DejaVuSans-Bold-41" transform="translate(133.851562 0)"/>
     <use xlink:href="#DejaVuSans-Bold-20" transform="translate(211.244141 0)"/>
     <use xlink:href="#DejaVuSans-Bold-31" transform="translate(246.058594 0)"/>
     <use xlink:href="#DejaVuSans-Bold-20" transform="translate(315.638672 0)"/>
     <use xlink:href="#DejaVuSans-Bold-2014" transform="translate(350.453125 0)"/>
     <use xlink:href="#DejaVuSans-Bold-20" transform="translate(450.453125 0)"/>
     <use xlink:href="#DejaVuSans-Bold-53" transform="translate(485.267578 0)"/>
     <use xlink:href="#DejaVuSans-Bold-4d" transform="translate(557.289062 0)"/>
     <use xlink:href="#DejaVuSans-Bold-45" transform="translate(656.800781 0)"/>
     <use xlink:href="#DejaVuSans-Bold-4d" transform="translate(725.111328 0)"/>
    </g>
   </g>
   <g id="text_12">
    <!-- A  rows 128-255 -->
    <g style="fill: #ffffff" transform="translate(78.80005 178.867622) scale(0.08 -0.08)">
     <defs>
      <path id="DejaVuSans-Bold-38" d="M 2228 2088 
Q 1891 2088 1709 1903 
Q 1528 1719 1528 1375 
Q 1528 1031 1709 848 
Q 1891 666 2228 666 
Q 2563 666 2741 848 
Q 2919 1031 2919 1375 
Q 2919 1722 2741 1905 
Q 2563 2088 2228 2088 
z
M 1350 2484 
Q 925 2613 709 2878 
Q 494 3144 494 3541 
Q 494 4131 934 4440 
Q 1375 4750 2228 4750 
Q 3075 4750 3515 4442 
Q 3956 4134 3956 3541 
Q 3956 3144 3739 2878 
Q 3522 2613 3097 2484 
Q 3572 2353 3814 2058 
Q 4056 1763 4056 1313 
Q 4056 619 3595 264 
Q 3134 -91 2228 -91 
Q 1319 -91 855 264 
Q 391 619 391 1313 
Q 391 1763 633 2058 
Q 875 2353 1350 2484 
z
M 1631 3419 
Q 1631 3141 1786 2991 
Q 1941 2841 2228 2841 
Q 2509 2841 2662 2991 
Q 2816 3141 2816 3419 
Q 2816 3697 2662 3845 
Q 2509 3994 2228 3994 
Q 1941 3994 1786 3844 
Q 1631 3694 1631 3419 
z
" transform="scale(0.015625)"/>
     </defs>
     <use xlink:href="#DejaVuSans-Bold-41"/>
     <use xlink:href="#DejaVuSans-Bold-20" transform="translate(77.392578 0)"/>
     <use xlink:href="#DejaVuSans-Bold-20" transform="translate(112.207031 0)"/>
     <use xlink:href="#DejaVuSans-Bold-72" transform="translate(147.021484 0)"/>
     <use xlink:href="#DejaVuSans-Bold-6f" transform="translate(196.337891 0)"/>
     <use xlink:href="#DejaVuSans-Bold-77" transform="translate(265.039062 0)"/>
     <use xlink:href="#DejaVuSans-Bold-73" transform="translate(357.421875 0)"/>
     <use xlink:href="#DejaVuSans-Bold-20" transform="translate(416.943359 0)"/>
     <use xlink:href="#DejaVuSans-Bold-31" transform="translate(451.757812 0)"/>
     <use xlink:href="#DejaVuSans-Bold-32" transform="translate(521.337891 0)"/>
     <use xlink:href="#DejaVuSans-Bold-38" transform="translate(590.917969 0)"/>
     <use xlink:href="#DejaVuSans-Bold-2d" transform="translate(660.498047 0)"/>
     <use xlink:href="#DejaVuSans-Bold-32" transform="translate(702.001953 0)"/>
     <use xlink:href="#DejaVuSans-Bold-35" transform="translate(771.582031 0)"/>
     <use xlink:href="#DejaVuSans-Bold-35" transform="translate(841.162109 0)"/>
    </g>
   </g>
   <g id="text_13">
    <!-- 128 × K -->
    <g style="fill: #ffffff" transform="translate(102.710613 188.749302) scale(0.062 -0.062)">
     <use xlink:href="#DejaVuSans-31"/>
     <use xlink:href="#DejaVuSans-32" transform="translate(63.623047 0)"/>
     <use xlink:href="#DejaVuSans-38" transform="translate(127.246094 0)"/>
     <use xlink:href="#DejaVuSans-20" transform="translate(190.869141 0)"/>
     <use xlink:href="#DejaVuSans-d7" transform="translate(222.65625 0)"/>
     <use xlink:href="#DejaVuSans-20" transform="translate(306.445312 0)"/>
     <use xlink:href="#DejaVuSans-4b" transform="translate(338.232422 0)"/>
    </g>
   </g>
   <g id="text_14">
    <!-- B  cols N/2..N -->
    <g style="fill: #ffffff" transform="translate(85.153175 217.826418) scale(0.08 -0.08)">
     <use xlink:href="#DejaVuSans-Bold-42"/>
     <use xlink:href="#DejaVuSans-Bold-20" transform="translate(76.220703 0)"/>
     <use xlink:href="#DejaVuSans-Bold-20" transform="translate(111.035156 0)"/>
     <use xlink:href="#DejaVuSans-Bold-63" transform="translate(145.849609 0)"/>
     <use xlink:href="#DejaVuSans-Bold-6f" transform="translate(205.126953 0)"/>
     <use xlink:href="#DejaVuSans-Bold-6c" transform="translate(273.828125 0)"/>
     <use xlink:href="#DejaVuSans-Bold-73" transform="translate(308.105469 0)"/>
     <use xlink:href="#DejaVuSans-Bold-20" transform="translate(367.626953 0)"/>
     <use xlink:href="#DejaVuSans-Bold-4e" transform="translate(402.441406 0)"/>
     <use xlink:href="#DejaVuSans-Bold-2f" transform="translate(486.132812 0)"/>
     <use xlink:href="#DejaVuSans-Bold-32" transform="translate(522.65625 0)"/>
     <use xlink:href="#DejaVuSans-Bold-2e" transform="translate(592.236328 0)"/>
     <use xlink:href="#DejaVuSans-Bold-2e" transform="translate(630.224609 0)"/>
     <use xlink:href="#DejaVuSans-Bold-4e" transform="translate(668.212891 0)"/>
    </g>
   </g>
   <g id="text_15">
    <!-- N/2 × K -->
    <g style="fill: #ffffff" transform="translate(103.291863 226.909763) scale(0.062 -0.062)">
     <use xlink:href="#DejaVuSans-4e"/>
     <use xlink:href="#DejaVuSans-2f" transform="translate(74.804688 0)"/>
     <use xlink:href="#DejaVuSans-32" transform="translate(108.496094 0)"/>
     <use xlink:href="#DejaVuSans-20" transform="translate(172.119141 0)"/>
     <use xlink:href="#DejaVuSans-d7" transform="translate(203.90625 0)"/>
     <use xlink:href="#DejaVuSans-20" transform="translate(287.695312 0)"/>
     <use xlink:href="#DejaVuSans-4b" transform="translate(319.482422 0)"/>
    </g>
   </g>
   <g id="patch_13">
    <path d="M 215.435546 201.46176 
Q 245.355498 201.46176 273.262988 201.46176 
" style="fill: none; stroke: #059669; stroke-width: 1.8; stroke-linecap: round"/>
    <path d="M 269.262988 199.46176 
L 273.262988 201.46176 
L 269.262988 203.46176 
z
" style="fill: #059669; stroke: #059669; stroke-width: 1.8; stroke-linecap: round"/>
   </g>
   <g id="text_16">
    <!-- MMA -->
    <g style="fill: #059669" transform="translate(236.920494 187.426602) scale(0.07 -0.07)">
     <use xlink:href="#DejaVuSans-4d"/>
     <use xlink:href="#DejaVuSans-4d" transform="translate(86.279297 0)"/>
     <use xlink:href="#DejaVuSans-41" transform="translate(172.558594 0)"/>
    </g>
   </g>
   <g id="text_17">
    <!-- CTA 1 — TMEM -->
    <g style="fill: #334155" transform="translate(304.2792 165.494814) scale(0.08 -0.08)">
     <use xlink:href="#DejaVuSans-Bold-43"/>
     <use xlink:href="#DejaVuSans-Bold-54" transform="translate(73.388672 0)"/>
     <use xlink:href="#DejaVuSans-Bold-41" transform="translate(133.851562 0)"/>
     <use xlink:href="#DejaVuSans-Bold-20" transform="translate(211.244141 0)"/>
     <use xlink:href="#DejaVuSans-Bold-31" transform="translate(246.058594 0)"/>
     <use xlink:href="#DejaVuSans-Bold-20" transform="translate(315.638672 0)"/>
     <use xlink:href="#DejaVuSans-Bold-2014" transform="translate(350.453125 0)"/>
     <use xlink:href="#DejaVuSans-Bold-20" transform="translate(450.453125 0)"/>
     <use xlink:href="#DejaVuSans-Bold-54" transform="translate(485.267578 0)"/>
     <use xlink:href="#DejaVuSans-Bold-4d" transform="translate(553.480469 0)"/>
     <use xlink:href="#DejaVuSans-Bold-45" transform="translate(652.992188 0)"/>
     <use xlink:href="#DejaVuSans-Bold-4d" transform="translate(721.302734 0)"/>
    </g>
   </g>
   <g id="text_18">
    <!-- C  rows 128-255 -->
    <g style="fill: #ffffff" transform="translate(353.94245 192.279666) scale(0.08 -0.08)">
     <use xlink:href="#DejaVuSans-Bold-43"/>
     <use xlink:href="#DejaVuSans-Bold-20" transform="translate(73.388672 0)"/>
     <use xlink:href="#DejaVuSans-Bold-20" transform="translate(108.203125 0)"/>
     <use xlink:href="#DejaVuSans-Bold-72" transform="translate(143.017578 0)"/>
     <use xlink:href="#DejaVuSans-Bold-6f" transform="translate(192.333984 0)"/>
     <use xlink:href="#DejaVuSans-Bold-77" transform="translate(261.035156 0)"/>
     <use xlink:href="#DejaVuSans-Bold-73" transform="translate(353.417969 0)"/>
     <use xlink:href="#DejaVuSans-Bold-20" transform="translate(412.939453 0)"/>
     <use xlink:href="#DejaVuSans-Bold-31" transform="translate(447.753906 0)"/>
     <use xlink:href="#DejaVuSans-Bold-32" transform="translate(517.333984 0)"/>
     <use xlink:href="#DejaVuSans-Bold-38" transform="translate(586.914062 0)"/>
     <use xlink:href="#DejaVuSans-Bold-2d" transform="translate(656.494141 0)"/>
     <use xlink:href="#DejaVuSans-Bold-32" transform="translate(697.998047 0)"/>
     <use xlink:href="#DejaVuSans-Bold-35" transform="translate(767.578125 0)"/>
     <use xlink:href="#DejaVuSans-Bold-35" transform="translate(837.158203 0)"/>
    </g>
   </g>
   <g id="text_19">
    <!-- x full N (lanes 0-127) -->
    <g style="fill: #ffffff" transform="translate(357.663138 213.338051) scale(0.062 -0.062)">
     <use xlink:href="#DejaVuSans-78"/>
     <use xlink:href="#DejaVuSans-20" transform="translate(59.179688 0)"/>
     <use xlink:href="#DejaVuSans-66" transform="translate(90.966797 0)"/>
     <use xlink:href="#DejaVuSans-75" transform="translate(126.171875 0)"/>
     <use xlink:href="#DejaVuSans-6c" transform="translate(189.550781 0)"/>
     <use xlink:href="#DejaVuSans-6c" transform="translate(217.333984 0)"/>
     <use xlink:href="#DejaVuSans-20" transform="translate(245.117188 0)"/>
     <use xlink:href="#DejaVuSans-4e" transform="translate(276.904297 0)"/>
     <use xlink:href="#DejaVuSans-20" transform="translate(351.708984 0)"/>
     <use xlink:href="#DejaVuSans-28" transform="translate(383.496094 0)"/>
     <use xlink:href="#DejaVuSans-6c" transform="translate(422.509766 0)"/>
     <use xlink:href="#DejaVuSans-61" transform="translate(450.292969 0)"/>
     <use xlink:href="#DejaVuSans-6e" transform="translate(511.572266 0)"/>
     <use xlink:href="#DejaVuSans-65" transform="translate(574.951172 0)"/>
     <use xlink:href="#DejaVuSans-73" transform="translate(636.474609 0)"/>
     <use xlink:href="#DejaVuSans-20" transform="translate(688.574219 0)"/>
     <use xlink:href="#DejaVuSans-30" transform="translate(720.361328 0)"/>
     <use xlink:href="#DejaVuSans-2d" transform="translate(783.984375 0)"/>
     <use xlink:href="#DejaVuSans-31" transform="translate(820.068359 0)"/>
     <use xlink:href="#DejaVuSans-32" transform="translate(883.691406 0)"/>
     <use xlink:href="#DejaVuSans-37" transform="translate(947.314453 0)"/>
     <use xlink:href="#DejaVuSans-29" transform="translate(1010.9375 0)"/>
    </g>
   </g>
   <g id="text_20">
    <!-- B halves (N/2 each) combine across the pair -&gt; full B(N,K); -->
    <g style="fill: #334155" transform="translate(152.767438 138.325119) scale(0.068 -0.068)">
     <defs>
      <path id="DejaVuSans-Oblique-42" d="M 1081 4666 
L 2694 4666 
Q 3350 4666 3675 4422 
Q 4000 4178 4000 3688 
Q 4000 3238 3720 2911 
Q 3441 2584 2988 2516 
Q 3375 2428 3569 2181 
Q 3763 1934 3763 1522 
Q 3763 819 3242 409 
Q 2722 0 1819 0 
L 172 0 
L 1081 4666 
z
M 1234 2228 
L 903 519 
L 1919 519 
Q 2491 519 2800 781 
Q 3109 1044 3109 1522 
Q 3109 1891 2904 2059 
Q 2700 2228 2247 2228 
L 1234 2228 
z
M 1606 4147 
L 1331 2741 
L 2272 2741 
Q 2775 2741 3058 2959 
Q 3341 3178 3341 3566 
Q 3341 3869 3150 4008 
Q 2959 4147 2541 4147 
L 1606 4147 
z
" transform="scale(0.015625)"/>
      <path id="DejaVuSans-Oblique-20" transform="scale(0.015625)"/>
      <path id="DejaVuSans-Oblique-68" d="M 3566 2113 
L 3156 0 
L 2578 0 
L 2988 2091 
Q 3016 2238 3031 2350 
Q 3047 2463 3047 2528 
Q 3047 2791 2881 2937 
Q 2716 3084 2419 3084 
Q 1956 3084 1617 2771 
Q 1278 2459 1178 1941 
L 800 0 
L 225 0 
L 1172 4863 
L 1747 4863 
L 1375 2950 
Q 1594 3244 1934 3414 
Q 2275 3584 2650 3584 
Q 3113 3584 3367 3334 
Q 3622 3084 3622 2631 
Q 3622 2519 3608 2391 
Q 3594 2263 3566 2113 
z
" transform="scale(0.015625)"/>
      <path id="DejaVuSans-Oblique-61" d="M 3438 1997 
L 3047 0 
L 2472 0 
L 2578 531 
Q 2325 219 2001 64 
Q 1678 -91 1281 -91 
Q 834 -91 548 182 
Q 263 456 263 884 
Q 263 1497 752 1853 
Q 1241 2209 2100 2209 
L 2900 2209 
L 2931 2363 
Q 2938 2388 2941 2417 
Q 2944 2447 2944 2509 
Q 2944 2788 2717 2942 
Q 2491 3097 2081 3097 
Q 1800 3097 1504 3025 
Q 1209 2953 897 2809 
L 997 3341 
Q 1322 3463 1633 3523 
Q 1944 3584 2234 3584 
Q 2853 3584 3176 3315 
Q 3500 3047 3500 2534 
Q 3500 2431 3484 2292 
Q 3469 2153 3438 1997 
z
M 2816 1759 
L 2241 1759 
Q 1534 1759 1195 1570 
Q 856 1381 856 984 
Q 856 709 1029 553 
Q 1203 397 1509 397 
Q 1978 397 2328 733 
Q 2678 1069 2791 1631 
L 2816 1759 
z
" transform="scale(0.015625)"/>
      <path id="DejaVuSans-Oblique-6c" d="M 1172 4863 
L 1747 4863 
L 800 0 
L 225 0 
L 1172 4863 
z
" transform="scale(0.015625)"/>
      <path id="DejaVuSans-Oblique-76" d="M 459 3500 
L 1069 3500 
L 1581 525 
L 3256 3500 
L 3866 3500 
L 1875 0 
L 1100 0 
L 459 3500 
z
" transform="scale(0.015625)"/>
      <path id="DejaVuSans-Oblique-65" d="M 3078 2063 
Q 3088 2113 3092 2166 
Q 3097 2219 3097 2272 
Q 3097 2653 2873 2875 
Q 2650 3097 2266 3097 
Q 1838 3097 1509 2826 
Q 1181 2556 1013 2059 
L 3078 2063 
z
M 3578 1613 
L 903 1613 
Q 884 1494 878 1425 
Q 872 1356 872 1306 
Q 872 872 1139 634 
Q 1406 397 1894 397 
Q 2269 397 2603 481 
Q 2938 566 3225 728 
L 3116 159 
Q 2806 34 2476 -28 
Q 2147 -91 1806 -91 
Q 1078 -91 686 257 
Q 294 606 294 1247 
Q 294 1794 489 2264 
Q 684 2734 1063 3103 
Q 1306 3334 1642 3459 
Q 1978 3584 2356 3584 
Q 2950 3584 3301 3228 
Q 3653 2872 3653 2272 
Q 3653 2128 3634 1964 
Q 3616 1800 3578 1613 
z
" transform="scale(0.015625)"/>
      <path id="DejaVuSans-Oblique-73" d="M 3200 3397 
L 3091 2853 
Q 2863 2978 2609 3040 
Q 2356 3103 2088 3103 
Q 1634 3103 1373 2948 
Q 1113 2794 1113 2528 
Q 1113 2219 1719 2053 
Q 1766 2041 1788 2034 
L 1972 1978 
Q 2547 1819 2739 1644 
Q 2931 1469 2931 1166 
Q 2931 609 2489 259 
Q 2047 -91 1331 -91 
Q 1053 -91 747 -37 
Q 441 16 72 128 
L 184 722 
Q 500 559 806 475 
Q 1113 391 1394 391 
Q 1816 391 2080 572 
Q 2344 753 2344 1031 
Q 2344 1331 1650 1516 
L 1591 1531 
L 1394 1581 
Q 956 1697 753 1886 
Q 550 2075 550 2369 
Q 550 2928 970 3256 
Q 1391 3584 2113 3584 
Q 2397 3584 2667 3537 
Q 2938 3491 3200 3397 
z
" transform="scale(0.015625)"/>
      <path id="DejaVuSans-Oblique-28" d="M 2731 4856 
Q 1903 3822 1495 2892 
Q 1088 1963 1088 1100 
Q 1088 606 1206 120 
Q 1325 -366 1563 -844 
L 1063 -844 
Q 775 -306 634 201 
Q 494 709 494 1197 
Q 494 2125 923 3036 
Q 1353 3947 2222 4856 
L 2731 4856 
z
" transform="scale(0.015625)"/>
      <path id="DejaVuSans-Oblique-4e" d="M 1081 4666 
L 1931 4666 
L 3219 666 
L 4000 4666 
L 4616 4666 
L 3706 0 
L 2853 0 
L 1569 4025 
L 788 0 
L 172 0 
L 1081 4666 
z
" transform="scale(0.015625)"/>
      <path id="DejaVuSans-Oblique-2f" d="M 2175 4666 
L 2731 4666 
L 84 -594 
L -469 -594 
L 2175 4666 
z
" transform="scale(0.015625)"/>
      <path id="DejaVuSans-Oblique-32" d="M 2950 2253 
L 934 525 
L 3163 525 
L 3053 0 
L 25 0 
L 128 531 
L 2234 2338 
Q 2656 2703 2832 2979 
Q 3009 3256 3009 3547 
Q 3009 3850 2796 4040 
Q 2584 4231 2241 4231 
Q 1944 4231 1581 4125 
Q 1219 4019 806 3816 
L 922 4441 
Q 1309 4594 1662 4672 
Q 2016 4750 2316 4750 
Q 2928 4750 3301 4425 
Q 3675 4100 3675 3572 
Q 3675 3216 3497 2892 
Q 3319 2569 2950 2253 
z
" transform="scale(0.015625)"/>
      <path id="DejaVuSans-Oblique-63" d="M 3431 3366 
L 3316 2797 
Q 3109 2947 2876 3022 
Q 2644 3097 2394 3097 
Q 2119 3097 1870 3000 
Q 1622 2903 1453 2725 
Q 1184 2453 1037 2087 
Q 891 1722 891 1331 
Q 891 859 1127 628 
Q 1363 397 1844 397 
Q 2081 397 2348 469 
Q 2616 541 2906 684 
L 2797 116 
Q 2547 13 2283 -39 
Q 2019 -91 1741 -91 
Q 1044 -91 669 257 
Q 294 606 294 1253 
Q 294 1797 489 2255 
Q 684 2713 1069 3078 
Q 1331 3328 1684 3456 
Q 2038 3584 2456 3584 
Q 2700 3584 2940 3529 
Q 3181 3475 3431 3366 
z
" transform="scale(0.015625)"/>
      <path id="DejaVuSans-Oblique-29" d="M -397 -844 
Q 434 191 840 1120 
Q 1247 2050 1247 2913 
Q 1247 3406 1130 3892 
Q 1013 4378 775 4856 
L 1275 4856 
Q 1563 4316 1703 3812 
Q 1844 3309 1844 2822 
Q 1844 1891 1411 973 
Q 978 56 116 -844 
L -397 -844 
z
" transform="scale(0.015625)"/>
      <path id="DejaVuSans-Oblique-6f" d="M 1625 -91 
Q 1009 -91 651 289 
Q 294 669 294 1325 
Q 294 1706 417 2101 
Q 541 2497 738 2766 
Q 1047 3184 1428 3384 
Q 1809 3584 2291 3584 
Q 2888 3584 3255 3212 
Q 3622 2841 3622 2241 
Q 3622 1825 3500 1412 
Q 3378 1000 3181 728 
Q 2875 309 2494 109 
Q 2113 -91 1625 -91 
z
M 891 1344 
Q 891 869 1089 633 
Q 1288 397 1691 397 
Q 2269 397 2648 901 
Q 3028 1406 3028 2181 
Q 3028 2634 2825 2865 
Q 2622 3097 2228 3097 
Q 1903 3097 1650 2945 
Q 1397 2794 1197 2484 
Q 1050 2253 970 1956 
Q 891 1659 891 1344 
z
" transform="scale(0.015625)"/>
      <path id="DejaVuSans-Oblique-6d" d="M 5747 2113 
L 5338 0 
L 4763 0 
L 5166 2094 
Q 5191 2228 5203 2325 
Q 5216 2422 5216 2491 
Q 5216 2772 5059 2928 
Q 4903 3084 4622 3084 
Q 4203 3084 3875 2770 
Q 3547 2456 3450 1953 
L 3066 0 
L 2491 0 
L 2900 2094 
Q 2925 2209 2937 2307 
Q 2950 2406 2950 2484 
Q 2950 2769 2794 2926 
Q 2638 3084 2363 3084 
Q 1938 3084 1609 2770 
Q 1281 2456 1184 1953 
L 800 0 
L 225 0 
L 909 3500 
L 1484 3500 
L 1375 2956 
Q 1609 3263 1923 3423 
Q 2238 3584 2597 3584 
Q 2978 3584 3223 3384 
Q 3469 3184 3519 2828 
Q 3781 3197 4126 3390 
Q 4472 3584 4856 3584 
Q 5306 3584 5551 3325 
Q 5797 3066 5797 2591 
Q 5797 2488 5784 2364 
Q 5772 2241 5747 2113 
z
" transform="scale(0.015625)"/>
      <path id="DejaVuSans-Oblique-62" d="M 3169 2138 
Q 3169 2591 2961 2847 
Q 2753 3103 2388 3103 
Q 2122 3103 1889 2973 
Q 1656 2844 1484 2597 
Q 1303 2338 1198 1995 
Q 1094 1653 1094 1313 
Q 1094 881 1298 636 
Q 1503 391 1863 391 
Q 2134 391 2365 517 
Q 2597 644 2772 891 
Q 2950 1147 3059 1487 
Q 3169 1828 3169 2138 
z
M 1381 2969 
Q 1594 3256 1914 3420 
Q 2234 3584 2584 3584 
Q 3122 3584 3439 3221 
Q 3756 2859 3756 2241 
Q 3756 1734 3570 1259 
Q 3384 784 3041 416 
Q 2816 172 2522 40 
Q 2228 -91 1906 -91 
Q 1566 -91 1316 65 
Q 1066 222 909 531 
L 806 0 
L 231 0 
L 1178 4863 
L 1753 4863 
L 1381 2969 
z
" transform="scale(0.015625)"/>
      <path id="DejaVuSans-Oblique-69" d="M 1172 4863 
L 1747 4863 
L 1606 4134 
L 1031 4134 
L 1172 4863 
z
M 909 3500 
L 1484 3500 
L 800 0 
L 225 0 
L 909 3500 
z
" transform="scale(0.015625)"/>
      <path id="DejaVuSans-Oblique-6e" d="M 3566 2113 
L 3156 0 
L 2578 0 
L 2988 2091 
Q 3016 2238 3031 2350 
Q 3047 2463 3047 2528 
Q 3047 2791 2881 2937 
Q 2716 3084 2419 3084 
Q 1956 3084 1622 2776 
Q 1288 2469 1184 1941 
L 800 0 
L 225 0 
L 903 3500 
L 1478 3500 
L 1363 2950 
Q 1603 3253 1940 3418 
Q 2278 3584 2650 3584 
Q 3113 3584 3367 3334 
Q 3622 3084 3622 2631 
Q 3622 2519 3608 2391 
Q 3594 2263 3566 2113 
z
" transform="scale(0.015625)"/>
      <path id="DejaVuSans-Oblique-72" d="M 2853 2969 
Q 2766 3016 2653 3041 
Q 2541 3066 2413 3066 
Q 1953 3066 1609 2717 
Q 1266 2369 1153 1784 
L 800 0 
L 225 0 
L 909 3500 
L 1484 3500 
L 1375 2956 
Q 1603 3259 1920 3421 
Q 2238 3584 2597 3584 
Q 2691 3584 2781 3573 
Q 2872 3563 2963 3538 
L 2853 2969 
z
" transform="scale(0.015625)"/>
      <path id="DejaVuSans-Oblique-74" d="M 2706 3500 
L 2619 3053 
L 1472 3053 
L 1100 1153 
Q 1081 1047 1072 975 
Q 1063 903 1063 863 
Q 1063 663 1183 572 
Q 1303 481 1569 481 
L 2150 481 
L 2053 0 
L 1503 0 
Q 991 0 739 200 
Q 488 400 488 806 
Q 488 878 497 964 
Q 506 1050 525 1153 
L 897 3053 
L 409 3053 
L 500 3500 
L 978 3500 
L 1172 4494 
L 1747 4494 
L 1556 3500 
L 2706 3500 
z
" transform="scale(0.015625)"/>
      <path id="DejaVuSans-Oblique-70" d="M 3175 2156 
Q 3175 2616 2975 2859 
Q 2775 3103 2400 3103 
Q 2144 3103 1911 2972 
Q 1678 2841 1497 2591 
Q 1319 2344 1212 1994 
Q 1106 1644 1106 1300 
Q 1106 863 1306 627 
Q 1506 391 1875 391 
Q 2147 391 2380 519 
Q 2613 647 2778 891 
Q 2956 1147 3065 1494 
Q 3175 1841 3175 2156 
z
M 1394 2969 
Q 1625 3272 1939 3428 
Q 2253 3584 2638 3584 
Q 3175 3584 3472 3232 
Q 3769 2881 3769 2247 
Q 3769 1728 3584 1258 
Q 3400 788 3053 416 
Q 2822 169 2531 39 
Q 2241 -91 1919 -91 
Q 1547 -91 1294 64 
Q 1041 219 916 525 
L 556 -1331 
L -19 -1331 
L 922 3500 
L 1497 3500 
L 1394 2969 
z
" transform="scale(0.015625)"/>
      <path id="DejaVuSans-Oblique-2d" d="M 391 2009 
L 2075 2009 
L 1978 1497 
L 288 1497 
L 391 2009 
z
" transform="scale(0.015625)"/>
      <path id="DejaVuSans-Oblique-3e" d="M 678 3150 
L 678 3719 
L 4684 2266 
L 4684 1747 
L 678 294 
L 678 863 
L 3897 2003 
L 678 3150 
z
" transform="scale(0.015625)"/>
      <path id="DejaVuSans-Oblique-66" d="M 3059 4863 
L 2969 4384 
L 2419 4384 
Q 2106 4384 1964 4261 
Q 1822 4138 1753 3809 
L 1691 3500 
L 2638 3500 
L 2553 3053 
L 1606 3053 
L 1013 0 
L 434 0 
L 1031 3053 
L 481 3053 
L 563 3500 
L 1113 3500 
L 1159 3744 
Q 1278 4363 1576 4613 
Q 1875 4863 2516 4863 
L 3059 4863 
z
" transform="scale(0.015625)"/>
      <path id="DejaVuSans-Oblique-75" d="M 428 1388 
L 838 3500 
L 1416 3500 
L 1006 1409 
Q 975 1256 961 1147 
Q 947 1038 947 966 
Q 947 700 1109 554 
Q 1272 409 1569 409 
Q 2031 409 2368 721 
Q 2706 1034 2809 1563 
L 3194 3500 
L 3769 3500 
L 3091 0 
L 2516 0 
L 2631 550 
Q 2388 244 2052 76 
Q 1716 -91 1338 -91 
Q 878 -91 622 161 
Q 366 413 366 863 
Q 366 956 381 1097 
Q 397 1238 428 1388 
z
" transform="scale(0.015625)"/>
      <path id="DejaVuSans-Oblique-2c" d="M 575 794 
L 1234 794 
L 1131 256 
L 422 -744 
L 19 -744 
L 469 256 
L 575 794 
z
" transform="scale(0.015625)"/>
      <path id="DejaVuSans-Oblique-4b" d="M 1081 4666 
L 1716 4666 
L 1331 2700 
L 3781 4666 
L 4622 4666 
L 1850 2438 
L 3878 0 
L 3109 0 
L 1247 2272 
L 806 0 
L 172 0 
L 1081 4666 
z
" transform="scale(0.015625)"/>
      <path id="DejaVuSans-Oblique-3b" d="M 563 794 
L 1222 794 
L 1113 256 
L 409 -744 
L 6 -744 
L 453 256 
L 563 794 
z
M 1050 3309 
L 1709 3309 
L 1556 2516 
L 897 2516 
L 1050 3309 
z
" transform="scale(0.015625)"/>
     </defs>
     <use xlink:href="#DejaVuSans-Oblique-42"/>
     <use xlink:href="#DejaVuSans-Oblique-20" transform="translate(68.603516 0)"/>
     <use xlink:href="#DejaVuSans-Oblique-68" transform="translate(100.390625 0)"/>
     <use xlink:href="#DejaVuSans-Oblique-61" transform="translate(163.769531 0)"/>
     <use xlink:href="#DejaVuSans-Oblique-6c" transform="translate(225.048828 0)"/>
     <use xlink:href="#DejaVuSans-Oblique-76" transform="translate(252.832031 0)"/>
     <use xlink:href="#DejaVuSans-Oblique-65" transform="translate(312.011719 0)"/>
     <use xlink:href="#DejaVuSans-Oblique-73" transform="translate(373.535156 0)"/>
     <use xlink:href="#DejaVuSans-Oblique-20" transform="translate(425.634766 0)"/>
     <use xlink:href="#DejaVuSans-Oblique-28" transform="translate(457.421875 0)"/>
     <use xlink:href="#DejaVuSans-Oblique-4e" transform="translate(496.435547 0)"/>
     <use xlink:href="#DejaVuSans-Oblique-2f" transform="translate(571.240234 0)"/>
     <use xlink:href="#DejaVuSans-Oblique-32" transform="translate(604.931641 0)"/>
     <use xlink:href="#DejaVuSans-Oblique-20" transform="translate(668.554688 0)"/>
     <use xlink:href="#DejaVuSans-Oblique-65" transform="translate(700.341797 0)"/>
     <use xlink:href="#DejaVuSans-Oblique-61" transform="translate(761.865234 0)"/>
     <use xlink:href="#DejaVuSans-Oblique-63" transform="translate(823.144531 0)"/>
     <use xlink:href="#DejaVuSans-Oblique-68" transform="translate(878.125 0)"/>
     <use xlink:href="#DejaVuSans-Oblique-29" transform="translate(941.503906 0)"/>
     <use xlink:href="#DejaVuSans-Oblique-20" transform="translate(980.517578 0)"/>
     <use xlink:href="#DejaVuSans-Oblique-63" transform="translate(1012.304688 0)"/>
     <use xlink:href="#DejaVuSans-Oblique-6f" transform="translate(1067.285156 0)"/>
     <use xlink:href="#DejaVuSans-Oblique-6d" transform="translate(1128.466797 0)"/>
     <use xlink:href="#DejaVuSans-Oblique-62" transform="translate(1225.878906 0)"/>
     <use xlink:href="#DejaVuSans-Oblique-69" transform="translate(1289.355469 0)"/>
     <use xlink:href="#DejaVuSans-Oblique-6e" transform="translate(1317.138672 0)"/>
     <use xlink:href="#DejaVuSans-Oblique-65" transform="translate(1380.517578 0)"/>
     <use xlink:href="#DejaVuSans-Oblique-20" transform="translate(1442.041016 0)"/>
     <use xlink:href="#DejaVuSans-Oblique-61" transform="translate(1473.828125 0)"/>
     <use xlink:href="#DejaVuSans-Oblique-63" transform="translate(1535.107422 0)"/>
     <use xlink:href="#DejaVuSans-Oblique-72" transform="translate(1590.087891 0)"/>
     <use xlink:href="#DejaVuSans-Oblique-6f" transform="translate(1631.201172 0)"/>
     <use xlink:href="#DejaVuSans-Oblique-73" transform="translate(1692.382812 0)"/>
     <use xlink:href="#DejaVuSans-Oblique-73" transform="translate(1744.482422 0)"/>
     <use xlink:href="#DejaVuSans-Oblique-20" transform="translate(1796.582031 0)"/>
     <use xlink:href="#DejaVuSans-Oblique-74" transform="translate(1828.369141 0)"/>
     <use xlink:href="#DejaVuSans-Oblique-68" transform="translate(1867.578125 0)"/>
     <use xlink:href="#DejaVuSans-Oblique-65" transform="translate(1930.957031 0)"/>
     <use xlink:href="#DejaVuSans-Oblique-20" transform="translate(1992.480469 0)"/>
     <use xlink:href="#DejaVuSans-Oblique-70" transform="translate(2024.267578 0)"/>
     <use xlink:href="#DejaVuSans-Oblique-61" transform="translate(2087.744141 0)"/>
     <use xlink:href="#DejaVuSans-Oblique-69" transform="translate(2149.023438 0)"/>
     <use xlink:href="#DejaVuSans-Oblique-72" transform="translate(2176.806641 0)"/>
     <use xlink:href="#DejaVuSans-Oblique-20" transform="translate(2217.919922 0)"/>
     <use xlink:href="#DejaVuSans-Oblique-2d" transform="translate(2249.707031 0)"/>
     <use xlink:href="#DejaVuSans-Oblique-3e" transform="translate(2285.791016 0)"/>
     <use xlink:href="#DejaVuSans-Oblique-20" transform="translate(2369.580078 0)"/>
     <use xlink:href="#DejaVuSans-Oblique-66" transform="translate(2401.367188 0)"/>
     <use xlink:href="#DejaVuSans-Oblique-75" transform="translate(2436.572266 0)"/>
     <use xlink:href="#DejaVuSans-Oblique-6c" transform="translate(2499.951172 0)"/>
     <use xlink:href="#DejaVuSans-Oblique-6c" transform="translate(2527.734375 0)"/>
     <use xlink:href="#DejaVuSans-Oblique-20" transform="translate(2555.517578 0)"/>
     <use xlink:href="#DejaVuSans-Oblique-42" transform="translate(2587.304688 0)"/>
     <use xlink:href="#DejaVuSans-Oblique-28" transform="translate(2655.908203 0)"/>
     <use xlink:href="#DejaVuSans-Oblique-4e" transform="translate(2694.921875 0)"/>
     <use xlink:href="#DejaVuSans-Oblique-2c" transform="translate(2769.726562 0)"/>
     <use xlink:href="#DejaVuSans-Oblique-4b" transform="translate(2801.513672 0)"/>
     <use xlink:href="#DejaVuSans-Oblique-29" transform="translate(2867.089844 0)"/>
     <use xlink:href="#DejaVuSans-Oblique-3b" transform="translate(2906.103516 0)"/>
    </g>
    <!-- each CTA's A-half x full B -&gt; its 128 C rows -->
    <g style="fill: #334155" transform="translate(180.006219 145.939631) scale(0.068 -0.068)">
     <defs>
      <path id="DejaVuSans-Oblique-43" d="M 4447 4306 
L 4319 3641 
Q 4019 3944 3683 4091 
Q 3347 4238 2956 4238 
Q 2422 4238 2017 3981 
Q 1613 3725 1319 3200 
Q 1131 2863 1032 2486 
Q 934 2109 934 1728 
Q 934 1091 1264 756 
Q 1594 422 2222 422 
Q 2656 422 3056 561 
Q 3456 700 3834 978 
L 3688 231 
Q 3316 72 2936 -9 
Q 2556 -91 2175 -91 
Q 1278 -91 773 396 
Q 269 884 269 1753 
Q 269 2309 461 2846 
Q 653 3384 1013 3828 
Q 1394 4300 1883 4525 
Q 2372 4750 3022 4750 
Q 3422 4750 3780 4639 
Q 4138 4528 4447 4306 
z
" transform="scale(0.015625)"/>
      <path id="DejaVuSans-Oblique-54" d="M 378 4666 
L 4325 4666 
L 4225 4134 
L 2559 4134 
L 1759 0 
L 1125 0 
L 1925 4134 
L 275 4134 
L 378 4666 
z
" transform="scale(0.015625)"/>
      <path id="DejaVuSans-Oblique-41" d="M 2356 4666 
L 3072 4666 
L 3938 0 
L 3278 0 
L 3084 1197 
L 984 1197 
L 325 0 
L -341 0 
L 2356 4666 
z
M 2584 4044 
L 1275 1722 
L 2988 1722 
L 2584 4044 
z
" transform="scale(0.015625)"/>
      <path id="DejaVuSans-Oblique-27" d="M 1147 4666 
L 1147 2931 
L 616 2931 
L 616 4666 
L 1147 4666 
z
" transform="scale(0.015625)"/>
      <path id="DejaVuSans-Oblique-78" d="M 3841 3500 
L 2234 1784 
L 3219 0 
L 2559 0 
L 1819 1388 
L 531 0 
L -166 0 
L 1556 1844 
L 641 3500 
L 1300 3500 
L 1972 2234 
L 3144 3500 
L 3841 3500 
z
" transform="scale(0.015625)"/>
      <path id="DejaVuSans-Oblique-31" d="M 416 531 
L 1447 531 
L 2144 4122 
L 978 3897 
L 1088 4441 
L 2247 4666 
L 2881 4666 
L 2075 531 
L 3103 531 
L 3003 0 
L 313 0 
L 416 531 
z
" transform="scale(0.015625)"/>
      <path id="DejaVuSans-Oblique-38" d="M 2847 1416 
Q 2847 1769 2600 1992 
Q 2353 2216 1953 2216 
Q 1466 2216 1148 1923 
Q 831 1631 831 1184 
Q 831 828 1073 618 
Q 1316 409 1728 409 
Q 2219 409 2533 693 
Q 2847 978 2847 1416 
z
M 3169 3591 
Q 3169 3888 2950 4069 
Q 2731 4250 2369 4250 
Q 1941 4250 1664 4009 
Q 1388 3769 1388 3406 
Q 1388 3094 1605 2903 
Q 1822 2713 2181 2713 
Q 2613 2713 2891 2961 
Q 3169 3209 3169 3591 
z
M 2741 2456 
Q 3094 2322 3281 2050 
Q 3469 1778 3469 1394 
Q 3469 747 2969 328 
Q 2469 -91 1678 -91 
Q 1006 -91 609 239 
Q 213 569 213 1119 
Q 213 1619 553 2008 
Q 894 2397 1441 2503 
Q 1113 2616 941 2852 
Q 769 3088 769 3425 
Q 769 3991 1239 4370 
Q 1709 4750 2431 4750 
Q 3034 4750 3414 4442 
Q 3794 4134 3794 3659 
Q 3794 3247 3511 2923 
Q 3228 2600 2741 2456 
z
" transform="scale(0.015625)"/>
      <path id="DejaVuSans-Oblique-77" d="M 544 3500 
L 1113 3500 
L 1259 684 
L 2566 3500 
L 3231 3500 
L 3425 684 
L 4666 3500 
L 5241 3500 
L 3641 0 
L 2969 0 
L 2797 2900 
L 1459 0 
L 781 0 
L 544 3500 
z
" transform="scale(0.015625)"/>
     </defs>
     <use xlink:href="#DejaVuSans-Oblique-65"/>
     <use xlink:href="#DejaVuSans-Oblique-61" transform="translate(61.523438 0)"/>
     <use xlink:href="#DejaVuSans-Oblique-63" transform="translate(122.802734 0)"/>
     <use xlink:href="#DejaVuSans-Oblique-68" transform="translate(177.783203 0)"/>
     <use xlink:href="#DejaVuSans-Oblique-20" transform="translate(241.162109 0)"/>
     <use xlink:href="#DejaVuSans-Oblique-43" transform="translate(272.949219 0)"/>
     <use xlink:href="#DejaVuSans-Oblique-54" transform="translate(342.773438 0)"/>
     <use xlink:href="#DejaVuSans-Oblique-41" transform="translate(394.732422 0)"/>
     <use xlink:href="#DejaVuSans-Oblique-27" transform="translate(463.140625 0)"/>
     <use xlink:href="#DejaVuSans-Oblique-73" transform="translate(490.630859 0)"/>
     <use xlink:href="#DejaVuSans-Oblique-20" transform="translate(542.730469 0)"/>
     <use xlink:href="#DejaVuSans-Oblique-41" transform="translate(574.517578 0)"/>
     <use xlink:href="#DejaVuSans-Oblique-2d" transform="translate(642.925781 0)"/>
     <use xlink:href="#DejaVuSans-Oblique-68" transform="translate(679.009766 0)"/>
     <use xlink:href="#DejaVuSans-Oblique-61" transform="translate(742.388672 0)"/>
     <use xlink:href="#DejaVuSans-Oblique-6c" transform="translate(803.667969 0)"/>
     <use xlink:href="#DejaVuSans-Oblique-66" transform="translate(831.451172 0)"/>
     <use xlink:href="#DejaVuSans-Oblique-20" transform="translate(866.65625 0)"/>
     <use xlink:href="#DejaVuSans-Oblique-78" transform="translate(898.443359 0)"/>
     <use xlink:href="#DejaVuSans-Oblique-20" transform="translate(957.623047 0)"/>
     <use xlink:href="#DejaVuSans-Oblique-66" transform="translate(989.410156 0)"/>
     <use xlink:href="#DejaVuSans-Oblique-75" transform="translate(1024.615234 0)"/>
     <use xlink:href="#DejaVuSans-Oblique-6c" transform="translate(1087.994141 0)"/>
     <use xlink:href="#DejaVuSans-Oblique-6c" transform="translate(1115.777344 0)"/>
     <use xlink:href="#DejaVuSans-Oblique-20" transform="translate(1143.560547 0)"/>
     <use xlink:href="#DejaVuSans-Oblique-42" transform="translate(1175.347656 0)"/>
     <use xlink:href="#DejaVuSans-Oblique-20" transform="translate(1243.951172 0)"/>
     <use xlink:href="#DejaVuSans-Oblique-2d" transform="translate(1275.738281 0)"/>
     <use xlink:href="#DejaVuSans-Oblique-3e" transform="translate(1311.822266 0)"/>
     <use xlink:href="#DejaVuSans-Oblique-20" transform="translate(1395.611328 0)"/>
     <use xlink:href="#DejaVuSans-Oblique-69" transform="translate(1427.398438 0)"/>
     <use xlink:href="#DejaVuSans-Oblique-74" transform="translate(1455.181641 0)"/>
     <use xlink:href="#DejaVuSans-Oblique-73" transform="translate(1494.390625 0)"/>
     <use xlink:href="#DejaVuSans-Oblique-20" transform="translate(1546.490234 0)"/>
     <use xlink:href="#DejaVuSans-Oblique-31" transform="translate(1578.277344 0)"/>
     <use xlink:href="#DejaVuSans-Oblique-32" transform="translate(1641.900391 0)"/>
     <use xlink:href="#DejaVuSans-Oblique-38" transform="translate(1705.523438 0)"/>
     <use xlink:href="#DejaVuSans-Oblique-20" transform="translate(1769.146484 0)"/>
     <use xlink:href="#DejaVuSans-Oblique-43" transform="translate(1800.933594 0)"/>
     <use xlink:href="#DejaVuSans-Oblique-20" transform="translate(1870.757812 0)"/>
     <use xlink:href="#DejaVuSans-Oblique-72" transform="translate(1902.544922 0)"/>
     <use xlink:href="#DejaVuSans-Oblique-6f" transform="translate(1943.658203 0)"/>
     <use xlink:href="#DejaVuSans-Oblique-77" transform="translate(2004.839844 0)"/>
     <use xlink:href="#DejaVuSans-Oblique-73" transform="translate(2086.626953 0)"/>
    </g>
   </g>
  </g>
 </g>
 <defs>
  <clipPath id="p4cf8505052">
   <rect x="7.2" y="7.2" width="491.04" height="266.112"/>
  </clipPath>
 </defs>
</svg>
