<?xml version="1.0" encoding="utf-8" standalone="no"?>
<!DOCTYPE svg PUBLIC "-//W3C//DTD SVG 1.1//EN"
  "http://www.w3.org/Graphics/SVG/1.1/DTD/svg11.dtd">
<svg xmlns:xlink="http://www.w3.org/1999/xlink" width="491.46375pt" height="197.352pt" viewBox="0 0 491.46375 197.352" xmlns="http://www.w3.org/2000/svg" version="1.1">
 <metadata>
  <rdf:RDF xmlns:dc="http://purl.org/dc/elements/1.1/" xmlns:cc="http://creativecommons.org/ns#" xmlns:rdf="http://www.w3.org/1999/02/22-rdf-syntax-ns#">
   <cc:Work>
    <dc:type rdf:resource="http://purl.org/dc/dcmitype/StillImage"/>
    <dc:date>2026-06-22T19:35:28.121652</dc:date>
    <dc:format>image/svg+xml</dc:format>
    <dc:creator>
     <cc:Agent>
      <dc:title>Matplotlib v3.10.8, https://matplotlib.org/</dc:title>
     </cc:Agent>
    </dc:creator>
   </cc:Work>
  </rdf:RDF>
 </metadata>
 <defs>
  <style type="text/css">*{stroke-linejoin: round; stroke-linecap: butt}</style>
 </defs>
 <g id="figure_1">
  <g id="patch_1">
   <path d="M 0 197.352
L 491.46375 197.352
L 491.46375 0
L 0 0
z
" style="fill: #ffffff"/>
  </g>
  <g id="axes_1">
   <g id="patch_2">
    <path d="M 28.5435 175.51584
L 194.5485 175.51584
Q 201.663 175.51584 201.663 172.77156
L 201.663 31.89852
Q 201.663 29.15424 194.5485 29.15424
L 28.5435 29.15424
Q 21.429 29.15424 21.429 31.89852
L 21.429 172.77156
Q 21.429 175.51584 28.5435 175.51584
z
" clip-path="url(#p4598d0693c)" style="fill: #ede9fe; stroke: #8b5cf6; stroke-width: 1.2; stroke-linejoin: miter"/>
   </g>
   <g id="patch_3">
    <path d="M 35.658 102.33504
L 187.434 102.33504
L 187.434 43.7904
L 35.658 43.7904
z
" clip-path="url(#p4598d0693c)" style="fill: #8b5cf6; stroke: #ffffff; stroke-width: 1.2; stroke-linejoin: miter"/>
   </g>
   <g id="patch_4">
    <path d="M 35.658 168.19776
L 187.434 168.19776
L 187.434 113.31216
L 35.658 113.31216
z
" clip-path="url(#p4598d0693c)" style="fill: #6d28d9; stroke: #ffffff; stroke-width: 1.2; stroke-linejoin: miter"/>
   </g>
   <g id="patch_5">
    <path d="M 294.1515 175.51584
L 460.1565 175.51584
Q 467.271 175.51584 467.271 172.77156
L 467.271 31.89852
Q 467.271 29.15424 460.1565 29.15424
L 294.1515 29.15424
Q 287.037 29.15424 287.037 31.89852
L 287.037 172.77156
Q 287.037 175.51584 294.1515 175.51584
z
" clip-path="url(#p4598d0693c)" style="fill: #fffbeb; stroke: #f59e0b; stroke-width: 1.2; stroke-linejoin: miter"/>
   </g>
   <g id="patch_6">
    <path d="M 301.266 59.7987
L 453.042 59.7987
L 453.042 44.888112
L 301.266 44.888112
z
" clip-path="url(#p4598d0693c)" style="fill: #f59e0b; stroke: #ffffff; stroke-width: 1.2; stroke-linejoin: miter"/>
   </g>
   <g id="patch_7">
    <path d="M 301.266 75.807
L 453.042 75.807
L 453.042 60.896412
L 301.266 60.896412
z
" clip-path="url(#p4598d0693c)" style="fill: url(#h022cc84512); opacity: 0.6; stroke: #ffffff; stroke-linejoin: miter"/>
   </g>
   <g id="patch_8">
    <path d="M 301.266 91.8153
L 453.042 91.8153
L 453.042 76.904712
L 301.266 76.904712
z
" clip-path="url(#p4598d0693c)" style="fill: #f59e0b; stroke: #ffffff; stroke-width: 1.2; stroke-linejoin: miter"/>
   </g>
   <g id="patch_9">
    <path d="M 301.266 107.8236
L 453.042 107.8236
L 453.042 92.913012
L 301.266 92.913012
z
" clip-path="url(#p4598d0693c)" style="fill: url(#h022cc84512); opacity: 0.6; stroke: #ffffff; stroke-linejoin: miter"/>
   </g>
   <g id="patch_10">
    <path d="M 301.266 123.8319
L 453.042 123.8319
L 453.042 108.921312
L 301.266 108.921312
z
" clip-path="url(#p4598d0693c)" style="fill: #f59e0b; stroke: #ffffff; stroke-width: 1.2; stroke-linejoin: miter"/>
   </g>
   <g id="patch_11">
    <path d="M 301.266 139.8402
L 453.042 139.8402
L 453.042 124.929612
L 301.266 124.929612
z
" clip-path="url(#p4598d0693c)" style="fill: url(#h022cc84512); opacity: 0.6; stroke: #ffffff; stroke-linejoin: miter"/>
   </g>
   <g id="patch_12">
    <path d="M 301.266 155.8485
L 453.042 155.8485
L 453.042 140.937912
L 301.266 140.937912
z
" clip-path="url(#p4598d0693c)" style="fill: #f59e0b; stroke: #ffffff; stroke-width: 1.2; stroke-linejoin: miter"/>
   </g>
   <g id="patch_13">
    <path d="M 301.266 171.8568
L 453.042 171.8568
L 453.042 156.946212
L 301.266 156.946212
z
" clip-path="url(#p4598d0693c)" style="fill: url(#h022cc84512); opacity: 0.6; stroke: #ffffff; stroke-linejoin: miter"/>
   </g>
   <g id="text_1">
    <!-- cta_group::1, M=64  —  1 CTA -->
    <g style="fill: #1f2937" transform="translate(157.377188 16.822489) scale(0.105 -0.105)">
     <defs>
      <path id="DejaVuSans-Bold-63" d="M 3366 3391
L 3366 2478
Q 3138 2634 2908 2709
Q 2678 2784 2431 2784
Q 1963 2784 1702 2511
Q 1441 2238 1441 1747
Q 1441 1256 1702 982
Q 1963 709 2431 709
Q 2694 709 2930 787
Q 3166 866 3366 1019
L 3366 103
Q 3103 6 2833 -42
Q 2563 -91 2291 -91
Q 1344 -91 809 395
Q 275 881 275 1747
Q 275 2613 809 3098
Q 1344 3584 2291 3584
Q 2566 3584 2833 3536
Q 3100 3488 3366 3391
z
" transform="scale(0.015625)"/>
      <path id="DejaVuSans-Bold-74" d="M 1759 4494
L 1759 3500
L 2913 3500
L 2913 2700
L 1759 2700
L 1759 1216
Q 1759 972 1856 886
Q 1953 800 2241 800
L 2816 800
L 2816 0
L 1856 0
Q 1194 0 917 276
Q 641 553 641 1216
L 641 2700
L 84 2700
L 84 3500
L 641 3500
L 641 4494
L 1759 4494
z
" transform="scale(0.015625)"/>
      <path id="DejaVuSans-Bold-61" d="M 2106 1575
Q 1756 1575 1579 1456
Q 1403 1338 1403 1106
Q 1403 894 1545 773
Q 1688 653 1941 653
Q 2256 653 2472 879
Q 2688 1106 2688 1447
L 2688 1575
L 2106 1575
z
M 3816 1997
L 3816 0
L 2688 0
L 2688 519
Q 2463 200 2181 54
Q 1900 -91 1497 -91
Q 953 -91 614 226
Q 275 544 275 1050
Q 275 1666 698 1953
Q 1122 2241 2028 2241
L 2688 2241
L 2688 2328
Q 2688 2594 2478 2717
Q 2269 2841 1825 2841
Q 1466 2841 1156 2769
Q 847 2697 581 2553
L 581 3406
Q 941 3494 1303 3539
Q 1666 3584 2028 3584
Q 2975 3584 3395 3211
Q 3816 2838 3816 1997
z
" transform="scale(0.015625)"/>
      <path id="DejaVuSans-Bold-5f" d="M 3200 -916
L 3200 -1509
L 0 -1509
L 0 -916
L 3200 -916
z
" transform="scale(0.015625)"/>
      <path id="DejaVuSans-Bold-67" d="M 2919 594
Q 2688 288 2409 144
Q 2131 0 1766 0
Q 1125 0 706 504
Q 288 1009 288 1791
Q 288 2575 706 3076
Q 1125 3578 1766 3578
Q 2131 3578 2409 3434
Q 2688 3291 2919 2981
L 2919 3500
L 4044 3500
L 4044 353
Q 4044 -491 3511 -936
Q 2978 -1381 1966 -1381
Q 1638 -1381 1331 -1331
Q 1025 -1281 716 -1178
L 716 -306
Q 1009 -475 1290 -558
Q 1572 -641 1856 -641
Q 2406 -641 2662 -400
Q 2919 -159 2919 353
L 2919 594
z
M 2181 2772
Q 1834 2772 1640 2515
Q 1447 2259 1447 1791
Q 1447 1309 1634 1061
Q 1822 813 2181 813
Q 2531 813 2725 1069
Q 2919 1325 2919 1791
Q 2919 2259 2725 2515
Q 2531 2772 2181 2772
z
" transform="scale(0.015625)"/>
      <path id="DejaVuSans-Bold-72" d="M 3138 2547
Q 2991 2616 2845 2648
Q 2700 2681 2553 2681
Q 2122 2681 1889 2404
Q 1656 2128 1656 1613
L 1656 0
L 538 0
L 538 3500
L 1656 3500
L 1656 2925
Q 1872 3269 2151 3426
Q 2431 3584 2822 3584
Q 2878 3584 2943 3579
Q 3009 3575 3134 3559
L 3138 2547
z
" transform="scale(0.015625)"/>
      <path id="DejaVuSans-Bold-6f" d="M 2203 2784
Q 1831 2784 1636 2517
Q 1441 2250 1441 1747
Q 1441 1244 1636 976
Q 1831 709 2203 709
Q 2569 709 2762 976
Q 2956 1244 2956 1747
Q 2956 2250 2762 2517
Q 2569 2784 2203 2784
z
M 2203 3584
Q 3106 3584 3614 3096
Q 4122 2609 4122 1747
Q 4122 884 3614 396
Q 3106 -91 2203 -91
Q 1297 -91 786 396
Q 275 884 275 1747
Q 275 2609 786 3096
Q 1297 3584 2203 3584
z
" transform="scale(0.015625)"/>
      <path id="DejaVuSans-Bold-75" d="M 500 1363
L 500 3500
L 1625 3500
L 1625 3150
Q 1625 2866 1622 2436
Q 1619 2006 1619 1863
Q 1619 1441 1641 1255
Q 1663 1069 1716 984
Q 1784 875 1895 815
Q 2006 756 2150 756
Q 2500 756 2700 1025
Q 2900 1294 2900 1772
L 2900 3500
L 4019 3500
L 4019 0
L 2900 0
L 2900 506
Q 2647 200 2364 54
Q 2081 -91 1741 -91
Q 1134 -91 817 281
Q 500 653 500 1363
z
" transform="scale(0.015625)"/>
      <path id="DejaVuSans-Bold-70" d="M 1656 506
L 1656 -1331
L 538 -1331
L 538 3500
L 1656 3500
L 1656 2988
Q 1888 3294 2169 3439
Q 2450 3584 2816 3584
Q 3463 3584 3878 3070
Q 4294 2556 4294 1747
Q 4294 938 3878 423
Q 3463 -91 2816 -91
Q 2450 -91 2169 54
Q 1888 200 1656 506
z
M 2400 2772
Q 2041 2772 1848 2508
Q 1656 2244 1656 1747
Q 1656 1250 1848 986
Q 2041 722 2400 722
Q 2759 722 2948 984
Q 3138 1247 3138 1747
Q 3138 2247 2948 2509
Q 2759 2772 2400 2772
z
" transform="scale(0.015625)"/>
      <path id="DejaVuSans-Bold-3a" d="M 716 3500
L 1844 3500
L 1844 2291
L 716 2291
L 716 3500
z
M 716 1209
L 1844 1209
L 1844 0
L 716 0
L 716 1209
z
" transform="scale(0.015625)"/>
      <path id="DejaVuSans-Bold-31" d="M 750 831
L 1813 831
L 1813 3847
L 722 3622
L 722 4441
L 1806 4666
L 2950 4666
L 2950 831
L 4013 831
L 4013 0
L 750 0
L 750 831
z
" transform="scale(0.015625)"/>
      <path id="DejaVuSans-Bold-2c" d="M 653 1209
L 1778 1209
L 1778 256
L 1006 -909
L 341 -909
L 653 256
L 653 1209
z
" transform="scale(0.015625)"/>
      <path id="DejaVuSans-Bold-20" transform="scale(0.015625)"/>
      <path id="DejaVuSans-Bold-4d" d="M 588 4666
L 2119 4666
L 3181 2169
L 4250 4666
L 5778 4666
L 5778 0
L 4641 0
L 4641 3413
L 3566 897
L 2803 897
L 1728 3413
L 1728 0
L 588 0
L 588 4666
z
" transform="scale(0.015625)"/>
      <path id="DejaVuSans-Bold-3d" d="M 678 3084
L 4684 3084
L 4684 2350
L 678 2350
L 678 3084
z
M 678 1663
L 4684 1663
L 4684 922
L 678 922
L 678 1663
z
" transform="scale(0.015625)"/>
      <path id="DejaVuSans-Bold-36" d="M 2316 2303
Q 2000 2303 1842 2098
Q 1684 1894 1684 1484
Q 1684 1075 1842 870
Q 2000 666 2316 666
Q 2634 666 2792 870
Q 2950 1075 2950 1484
Q 2950 1894 2792 2098
Q 2634 2303 2316 2303
z
M 3803 4544
L 3803 3681
Q 3506 3822 3243 3889
Q 2981 3956 2731 3956
Q 2194 3956 1894 3657
Q 1594 3359 1544 2772
Q 1750 2925 1990 3001
Q 2231 3078 2516 3078
Q 3231 3078 3670 2659
Q 4109 2241 4109 1563
Q 4109 813 3618 361
Q 3128 -91 2303 -91
Q 1394 -91 895 523
Q 397 1138 397 2266
Q 397 3422 980 4083
Q 1563 4744 2578 4744
Q 2900 4744 3203 4694
Q 3506 4644 3803 4544
z
" transform="scale(0.015625)"/>
      <path id="DejaVuSans-Bold-34" d="M 2356 3675
L 1038 1722
L 2356 1722
L 2356 3675
z
M 2156 4666
L 3494 4666
L 3494 1722
L 4159 1722
L 4159 850
L 3494 850
L 3494 0
L 2356 0
L 2356 850
L 288 850
L 288 1881
L 2156 4666
z
" transform="scale(0.015625)"/>
      <path id="DejaVuSans-Bold-2014" d="M 344 2156
L 6056 2156
L 6056 1350
L 344 1350
L 344 2156
z
" transform="scale(0.015625)"/>
      <path id="DejaVuSans-Bold-43" d="M 4288 256
Q 3956 84 3597 -3
Q 3238 -91 2847 -91
Q 1681 -91 1000 561
Q 319 1213 319 2328
Q 319 3447 1000 4098
Q 1681 4750 2847 4750
Q 3238 4750 3597 4662
Q 3956 4575 4288 4403
L 4288 3438
Q 3953 3666 3628 3772
Q 3303 3878 2944 3878
Q 2300 3878 1931 3465
Q 1563 3053 1563 2328
Q 1563 1606 1931 1193
Q 2300 781 2944 781
Q 3303 781 3628 887
Q 3953 994 4288 1222
L 4288 256
z
" transform="scale(0.015625)"/>
      <path id="DejaVuSans-Bold-54" d="M 31 4666
L 4331 4666
L 4331 3756
L 2784 3756
L 2784 0
L 1581 0
L 1581 3756
L 31 3756
L 31 4666
z
" transform="scale(0.015625)"/>
      <path id="DejaVuSans-Bold-41" d="M 3419 850
L 1538 850
L 1241 0
L 31 0
L 1759 4666
L 3194 4666
L 4922 0
L 3713 0
L 3419 850
z
M 1838 1716
L 3116 1716
L 2478 3572
L 1838 1716
z
" transform="scale(0.015625)"/>
     </defs>
     <use xlink:href="#DejaVuSans-Bold-63"/>
     <use xlink:href="#DejaVuSans-Bold-74" transform="translate(59.277344 0)"/>
     <use xlink:href="#DejaVuSans-Bold-61" transform="translate(107.080078 0)"/>
     <use xlink:href="#DejaVuSans-Bold-5f" transform="translate(174.560547 0)"/>
     <use xlink:href="#DejaVuSans-Bold-67" transform="translate(224.560547 0)"/>
     <use xlink:href="#DejaVuSans-Bold-72" transform="translate(296.142578 0)"/>
     <use xlink:href="#DejaVuSans-Bold-6f" transform="translate(345.458984 0)"/>
     <use xlink:href="#DejaVuSans-Bold-75" transform="translate(414.160156 0)"/>
     <use xlink:href="#DejaVuSans-Bold-70" transform="translate(485.351562 0)"/>
     <use xlink:href="#DejaVuSans-Bold-3a" transform="translate(556.933594 0)"/>
     <use xlink:href="#DejaVuSans-Bold-3a" transform="translate(596.923828 0)"/>
     <use xlink:href="#DejaVuSans-Bold-31" transform="translate(636.914062 0)"/>
     <use xlink:href="#DejaVuSans-Bold-2c" transform="translate(706.494141 0)"/>
     <use xlink:href="#DejaVuSans-Bold-20" transform="translate(744.482422 0)"/>
     <use xlink:href="#DejaVuSans-Bold-4d" transform="translate(779.296875 0)"/>
     <use xlink:href="#DejaVuSans-Bold-3d" transform="translate(878.808594 0)"/>
     <use xlink:href="#DejaVuSans-Bold-36" transform="translate(962.597656 0)"/>
     <use xlink:href="#DejaVuSans-Bold-34" transform="translate(1032.177734 0)"/>
     <use xlink:href="#DejaVuSans-Bold-20" transform="translate(1101.757812 0)"/>
     <use xlink:href="#DejaVuSans-Bold-20" transform="translate(1136.572266 0)"/>
     <use xlink:href="#DejaVuSans-Bold-2014" transform="translate(1171.386719 0)"/>
     <use xlink:href="#DejaVuSans-Bold-20" transform="translate(1271.386719 0)"/>
     <use xlink:href="#DejaVuSans-Bold-20" transform="translate(1306.201172 0)"/>
     <use xlink:href="#DejaVuSans-Bold-31" transform="translate(1341.015625 0)"/>
     <use xlink:href="#DejaVuSans-Bold-20" transform="translate(1410.595703 0)"/>
     <use xlink:href="#DejaVuSans-Bold-43" transform="translate(1445.410156 0)"/>
     <use xlink:href="#DejaVuSans-Bold-54" transform="translate(1518.798828 0)"/>
     <use xlink:href="#DejaVuSans-Bold-41" transform="translate(1579.261719 0)"/>
    </g>
   </g>
   <g id="text_2">
    <!-- SMEM (1 CTA) -->
    <g style="fill: #334155" transform="translate(28.5435 37.428414) scale(0.08 -0.08)">
     <defs>
      <path id="DejaVuSans-Bold-53" d="M 3834 4519
L 3834 3531
Q 3450 3703 3084 3790
Q 2719 3878 2394 3878
Q 1963 3878 1756 3759
Q 1550 3641 1550 3391
Q 1550 3203 1689 3098
Q 1828 2994 2194 2919
L 2706 2816
Q 3484 2659 3812 2340
Q 4141 2022 4141 1434
Q 4141 663 3683 286
Q 3225 -91 2284 -91
Q 1841 -91 1394 -6
Q 947 78 500 244
L 500 1259
Q 947 1022 1364 901
Q 1781 781 2169 781
Q 2563 781 2772 912
Q 2981 1044 2981 1288
Q 2981 1506 2839 1625
Q 2697 1744 2272 1838
L 1806 1941
Q 1106 2091 782 2419
Q 459 2747 459 3303
Q 459 4000 909 4375
Q 1359 4750 2203 4750
Q 2588 4750 2994 4692
Q 3400 4634 3834 4519
z
" transform="scale(0.015625)"/>
      <path id="DejaVuSans-Bold-45" d="M 588 4666
L 3834 4666
L 3834 3756
L 1791 3756
L 1791 2888
L 3713 2888
L 3713 1978
L 1791 1978
L 1791 909
L 3903 909
L 3903 0
L 588 0
L 588 4666
z
" transform="scale(0.015625)"/>
      <path id="DejaVuSans-Bold-28" d="M 2413 -844
L 1484 -844
Q 1006 -72 778 623
Q 550 1319 550 2003
Q 550 2688 779 3389
Q 1009 4091 1484 4856
L 2413 4856
Q 2013 4116 1813 3408
Q 1613 2700 1613 2009
Q 1613 1319 1811 609
Q 2009 -100 2413 -844
z
" transform="scale(0.015625)"/>
      <path id="DejaVuSans-Bold-29" d="M 513 -844
Q 913 -100 1113 609
Q 1313 1319 1313 2009
Q 1313 2700 1113 3408
Q 913 4116 513 4856
L 1441 4856
Q 1916 4091 2145 3389
Q 2375 2688 2375 2003
Q 2375 1319 2147 623
Q 1919 -72 1441 -844
L 513 -844
z
" transform="scale(0.015625)"/>
     </defs>
     <use xlink:href="#DejaVuSans-Bold-53"/>
     <use xlink:href="#DejaVuSans-Bold-4d" transform="translate(72.021484 0)"/>
     <use xlink:href="#DejaVuSans-Bold-45" transform="translate(171.533203 0)"/>
     <use xlink:href="#DejaVuSans-Bold-4d" transform="translate(239.84375 0)"/>
     <use xlink:href="#DejaVuSans-Bold-20" transform="translate(339.355469 0)"/>
     <use xlink:href="#DejaVuSans-Bold-28" transform="translate(374.169922 0)"/>
     <use xlink:href="#DejaVuSans-Bold-31" transform="translate(419.873047 0)"/>
     <use xlink:href="#DejaVuSans-Bold-20" transform="translate(489.453125 0)"/>
     <use xlink:href="#DejaVuSans-Bold-43" transform="translate(524.267578 0)"/>
     <use xlink:href="#DejaVuSans-Bold-54" transform="translate(597.65625 0)"/>
     <use xlink:href="#DejaVuSans-Bold-41" transform="translate(658.119141 0)"/>
     <use xlink:href="#DejaVuSans-Bold-29" transform="translate(735.511719 0)"/>
    </g>
   </g>
   <g id="text_3">
    <!-- A   (M, K) -->
    <g style="fill: #ffffff" transform="translate(89.317172 67.211939) scale(0.085 -0.085)">
     <defs>
      <path id="DejaVuSans-Bold-4b" d="M 588 4666
L 1791 4666
L 1791 2963
L 3525 4666
L 4922 4666
L 2675 2456
L 5153 0
L 3647 0
L 1791 1838
L 1791 0
L 588 0
L 588 4666
z
" transform="scale(0.015625)"/>
     </defs>
     <use xlink:href="#DejaVuSans-Bold-41"/>
     <use xlink:href="#DejaVuSans-Bold-20" transform="translate(77.392578 0)"/>
     <use xlink:href="#DejaVuSans-Bold-20" transform="translate(112.207031 0)"/>
     <use xlink:href="#DejaVuSans-Bold-20" transform="translate(147.021484 0)"/>
     <use xlink:href="#DejaVuSans-Bold-28" transform="translate(181.835938 0)"/>
     <use xlink:href="#DejaVuSans-Bold-4d" transform="translate(227.539062 0)"/>
     <use xlink:href="#DejaVuSans-Bold-2c" transform="translate(327.050781 0)"/>
     <use xlink:href="#DejaVuSans-Bold-20" transform="translate(365.039062 0)"/>
     <use xlink:href="#DejaVuSans-Bold-4b" transform="translate(399.853516 0)"/>
     <use xlink:href="#DejaVuSans-Bold-29" transform="translate(477.34375 0)"/>
    </g>
   </g>
   <g id="text_4">
    <!-- 64 × K -->
    <g style="fill: #ffffff" transform="translate(100.149719 84.278644) scale(0.067 -0.067)">
     <defs>
      <path id="DejaVuSans-36" d="M 2113 2584
Q 1688 2584 1439 2293
Q 1191 2003 1191 1497
Q 1191 994 1439 701
Q 1688 409 2113 409
Q 2538 409 2786 701
Q 3034 994 3034 1497
Q 3034 2003 2786 2293
Q 2538 2584 2113 2584
z
M 3366 4563
L 3366 3988
Q 3128 4100 2886 4159
Q 2644 4219 2406 4219
Q 1781 4219 1451 3797
Q 1122 3375 1075 2522
Q 1259 2794 1537 2939
Q 1816 3084 2150 3084
Q 2853 3084 3261 2657
Q 3669 2231 3669 1497
Q 3669 778 3244 343
Q 2819 -91 2113 -91
Q 1303 -91 875 529
Q 447 1150 447 2328
Q 447 3434 972 4092
Q 1497 4750 2381 4750
Q 2619 4750 2861 4703
Q 3103 4656 3366 4563
z
" transform="scale(0.015625)"/>
      <path id="DejaVuSans-34" d="M 2419 4116
L 825 1625
L 2419 1625
L 2419 4116
z
M 2253 4666
L 3047 4666
L 3047 1625
L 3713 1625
L 3713 1100
L 3047 1100
L 3047 0
L 2419 0
L 2419 1100
L 313 1100
L 313 1709
L 2253 4666
z
" transform="scale(0.015625)"/>
      <path id="DejaVuSans-20" transform="scale(0.015625)"/>
      <path id="DejaVuSans-d7" d="M 4488 3438
L 3059 2003
L 4488 575
L 4116 197
L 2681 1631
L 1247 197
L 878 575
L 2303 2003
L 878 3438
L 1247 3816
L 2681 2381
L 4116 3816
L 4488 3438
z
" transform="scale(0.015625)"/>
      <path id="DejaVuSans-4b" d="M 628 4666
L 1259 4666
L 1259 2694
L 3353 4666
L 4166 4666
L 1850 2491
L 4331 0
L 3500 0
L 1259 2247
L 1259 0
L 628 0
L 628 4666
z
" transform="scale(0.015625)"/>
     </defs>
     <use xlink:href="#DejaVuSans-36"/>
     <use xlink:href="#DejaVuSans-34" transform="translate(63.623047 0)"/>
     <use xlink:href="#DejaVuSans-20" transform="translate(127.246094 0)"/>
     <use xlink:href="#DejaVuSans-d7" transform="translate(159.033203 0)"/>
     <use xlink:href="#DejaVuSans-20" transform="translate(242.822266 0)"/>
     <use xlink:href="#DejaVuSans-4b" transform="translate(274.609375 0)"/>
    </g>
   </g>
   <g id="text_5">
    <!-- B   (N, K) -->
    <g style="fill: #ffffff" transform="translate(90.039672 143.100429) scale(0.085 -0.085)">
     <defs>
      <path id="DejaVuSans-Bold-42" d="M 2456 2859
Q 2741 2859 2887 2984
Q 3034 3109 3034 3353
Q 3034 3594 2887 3720
Q 2741 3847 2456 3847
L 1791 3847
L 1791 2859
L 2456 2859
z
M 2497 819
Q 2859 819 3042 972
Q 3225 1125 3225 1434
Q 3225 1738 3044 1889
Q 2863 2041 2497 2041
L 1791 2041
L 1791 819
L 2497 819
z
M 3616 2497
Q 4003 2384 4215 2081
Q 4428 1778 4428 1338
Q 4428 663 3972 331
Q 3516 0 2584 0
L 588 0
L 588 4666
L 2394 4666
Q 3366 4666 3802 4372
Q 4238 4078 4238 3431
Q 4238 3091 4078 2852
Q 3919 2613 3616 2497
z
" transform="scale(0.015625)"/>
      <path id="DejaVuSans-Bold-4e" d="M 588 4666
L 1931 4666
L 3628 1466
L 3628 4666
L 4769 4666
L 4769 0
L 3425 0
L 1728 3200
L 1728 0
L 588 0
L 588 4666
z
" transform="scale(0.015625)"/>
     </defs>
     <use xlink:href="#DejaVuSans-Bold-42"/>
     <use xlink:href="#DejaVuSans-Bold-20" transform="translate(76.220703 0)"/>
     <use xlink:href="#DejaVuSans-Bold-20" transform="translate(111.035156 0)"/>
     <use xlink:href="#DejaVuSans-Bold-20" transform="translate(145.849609 0)"/>
     <use xlink:href="#DejaVuSans-Bold-28" transform="translate(180.664062 0)"/>
     <use xlink:href="#DejaVuSans-Bold-4e" transform="translate(226.367188 0)"/>
     <use xlink:href="#DejaVuSans-Bold-2c" transform="translate(310.058594 0)"/>
     <use xlink:href="#DejaVuSans-Bold-20" transform="translate(348.046875 0)"/>
     <use xlink:href="#DejaVuSans-Bold-4b" transform="translate(382.861328 0)"/>
     <use xlink:href="#DejaVuSans-Bold-29" transform="translate(460.351562 0)"/>
    </g>
   </g>
   <g id="patch_14">
    <path d="M 208.404348 98.676
Q 237.23511 98.676 264.053412 98.676
" style="fill: none; stroke: #059669; stroke-width: 1.8; stroke-linecap: round"/>
    <path d="M 260.053412 96.676
L 264.053412 98.676
L 260.053412 100.676
z
" style="fill: #059669; stroke: #059669; stroke-width: 1.8; stroke-linecap: round"/>
   </g>
   <g id="text_6">
    <!-- tcgen05 -->
    <g style="fill: #059669" transform="translate(222.891516 85.711208) scale(0.07 -0.07)">
     <defs>
      <path id="DejaVuSans-74" d="M 1172 4494
L 1172 3500
L 2356 3500
L 2356 3053
L 1172 3053
L 1172 1153
Q 1172 725 1289 603
Q 1406 481 1766 481
L 2356 481
L 2356 0
L 1766 0
Q 1100 0 847 248
Q 594 497 594 1153
L 594 3053
L 172 3053
L 172 3500
L 594 3500
L 594 4494
L 1172 4494
z
" transform="scale(0.015625)"/>
      <path id="DejaVuSans-63" d="M 3122 3366
L 3122 2828
Q 2878 2963 2633 3030
Q 2388 3097 2138 3097
Q 1578 3097 1268 2742
Q 959 2388 959 1747
Q 959 1106 1268 751
Q 1578 397 2138 397
Q 2388 397 2633 464
Q 2878 531 3122 666
L 3122 134
Q 2881 22 2623 -34
Q 2366 -91 2075 -91
Q 1284 -91 818 406
Q 353 903 353 1747
Q 353 2603 823 3093
Q 1294 3584 2113 3584
Q 2378 3584 2631 3529
Q 2884 3475 3122 3366
z
" transform="scale(0.015625)"/>
      <path id="DejaVuSans-67" d="M 2906 1791
Q 2906 2416 2648 2759
Q 2391 3103 1925 3103
Q 1463 3103 1205 2759
Q 947 2416 947 1791
Q 947 1169 1205 825
Q 1463 481 1925 481
Q 2391 481 2648 825
Q 2906 1169 2906 1791
z
M 3481 434
Q 3481 -459 3084 -895
Q 2688 -1331 1869 -1331
Q 1566 -1331 1297 -1286
Q 1028 -1241 775 -1147
L 775 -588
Q 1028 -725 1275 -790
Q 1522 -856 1778 -856
Q 2344 -856 2625 -561
Q 2906 -266 2906 331
L 2906 616
Q 2728 306 2450 153
Q 2172 0 1784 0
Q 1141 0 747 490
Q 353 981 353 1791
Q 353 2603 747 3093
Q 1141 3584 1784 3584
Q 2172 3584 2450 3431
Q 2728 3278 2906 2969
L 2906 3500
L 3481 3500
L 3481 434
z
" transform="scale(0.015625)"/>
      <path id="DejaVuSans-65" d="M 3597 1894
L 3597 1613
L 953 1613
Q 991 1019 1311 708
Q 1631 397 2203 397
Q 2534 397 2845 478
Q 3156 559 3463 722
L 3463 178
Q 3153 47 2828 -22
Q 2503 -91 2169 -91
Q 1331 -91 842 396
Q 353 884 353 1716
Q 353 2575 817 3079
Q 1281 3584 2069 3584
Q 2775 3584 3186 3129
Q 3597 2675 3597 1894
z
M 3022 2063
Q 3016 2534 2758 2815
Q 2500 3097 2075 3097
Q 1594 3097 1305 2825
Q 1016 2553 972 2059
L 3022 2063
z
" transform="scale(0.015625)"/>
      <path id="DejaVuSans-6e" d="M 3513 2113
L 3513 0
L 2938 0
L 2938 2094
Q 2938 2591 2744 2837
Q 2550 3084 2163 3084
Q 1697 3084 1428 2787
Q 1159 2491 1159 1978
L 1159 0
L 581 0
L 581 3500
L 1159 3500
L 1159 2956
Q 1366 3272 1645 3428
Q 1925 3584 2291 3584
Q 2894 3584 3203 3211
Q 3513 2838 3513 2113
z
" transform="scale(0.015625)"/>
      <path id="DejaVuSans-30" d="M 2034 4250
Q 1547 4250 1301 3770
Q 1056 3291 1056 2328
Q 1056 1369 1301 889
Q 1547 409 2034 409
Q 2525 409 2770 889
Q 3016 1369 3016 2328
Q 3016 3291 2770 3770
Q 2525 4250 2034 4250
z
M 2034 4750
Q 2819 4750 3233 4129
Q 3647 3509 3647 2328
Q 3647 1150 3233 529
Q 2819 -91 2034 -91
Q 1250 -91 836 529
Q 422 1150 422 2328
Q 422 3509 836 4129
Q 1250 4750 2034 4750
z
" transform="scale(0.015625)"/>
      <path id="DejaVuSans-35" d="M 691 4666
L 3169 4666
L 3169 4134
L 1269 4134
L 1269 2991
Q 1406 3038 1543 3061
Q 1681 3084 1819 3084
Q 2600 3084 3056 2656
Q 3513 2228 3513 1497
Q 3513 744 3044 326
Q 2575 -91 1722 -91
Q 1428 -91 1123 -41
Q 819 9 494 109
L 494 744
Q 775 591 1075 516
Q 1375 441 1709 441
Q 2250 441 2565 725
Q 2881 1009 2881 1497
Q 2881 1984 2565 2268
Q 2250 2553 1709 2553
Q 1456 2553 1204 2497
Q 953 2441 691 2322
L 691 4666
z
" transform="scale(0.015625)"/>
     </defs>
     <use xlink:href="#DejaVuSans-74"/>
     <use xlink:href="#DejaVuSans-63" transform="translate(39.208984 0)"/>
     <use xlink:href="#DejaVuSans-67" transform="translate(94.189453 0)"/>
     <use xlink:href="#DejaVuSans-65" transform="translate(157.666016 0)"/>
     <use xlink:href="#DejaVuSans-6e" transform="translate(219.189453 0)"/>
     <use xlink:href="#DejaVuSans-30" transform="translate(282.568359 0)"/>
     <use xlink:href="#DejaVuSans-35" transform="translate(346.191406 0)"/>
    </g>
    <!-- MMA -->
    <g style="fill: #059669" transform="translate(228.801594 93.549677) scale(0.07 -0.07)">
     <defs>
      <path id="DejaVuSans-4d" d="M 628 4666
L 1569 4666
L 2759 1491
L 3956 4666
L 4897 4666
L 4897 0
L 4281 0
L 4281 4097
L 3078 897
L 2444 897
L 1241 4097
L 1241 0
L 628 0
L 628 4666
z
" transform="scale(0.015625)"/>
      <path id="DejaVuSans-41" d="M 2188 4044
L 1331 1722
L 3047 1722
L 2188 4044
z
M 1831 4666
L 2547 4666
L 4325 0
L 3669 0
L 3244 1197
L 1141 1197
L 716 0
L 50 0
L 1831 4666
z
" transform="scale(0.015625)"/>
     </defs>
     <use xlink:href="#DejaVuSans-4d"/>
     <use xlink:href="#DejaVuSans-4d" transform="translate(86.279297 0)"/>
     <use xlink:href="#DejaVuSans-41" transform="translate(172.558594 0)"/>
    </g>
   </g>
   <g id="text_7">
    <!-- TMEM (1 CTA) -->
    <g style="fill: #334155" transform="translate(294.1515 37.428414) scale(0.08 -0.08)">
     <use xlink:href="#DejaVuSans-Bold-54"/>
     <use xlink:href="#DejaVuSans-Bold-4d" transform="translate(68.212891 0)"/>
     <use xlink:href="#DejaVuSans-Bold-45" transform="translate(167.724609 0)"/>
     <use xlink:href="#DejaVuSans-Bold-4d" transform="translate(236.035156 0)"/>
     <use xlink:href="#DejaVuSans-Bold-20" transform="translate(335.546875 0)"/>
     <use xlink:href="#DejaVuSans-Bold-28" transform="translate(370.361328 0)"/>
     <use xlink:href="#DejaVuSans-Bold-31" transform="translate(416.064453 0)"/>
     <use xlink:href="#DejaVuSans-Bold-20" transform="translate(485.644531 0)"/>
     <use xlink:href="#DejaVuSans-Bold-43" transform="translate(520.458984 0)"/>
     <use xlink:href="#DejaVuSans-Bold-54" transform="translate(593.847656 0)"/>
     <use xlink:href="#DejaVuSans-Bold-41" transform="translate(654.310547 0)"/>
     <use xlink:href="#DejaVuSans-Bold-29" transform="translate(731.703125 0)"/>
    </g>
   </g>
   <g id="text_8">
    <!-- rows 0-15 -->
    <g style="fill: #ffffff" transform="translate(356.342672 54.412937) scale(0.075 -0.075)">
     <defs>
      <path id="DejaVuSans-Bold-77" d="M 225 3500
L 1313 3500
L 1900 1088
L 2491 3500
L 3425 3500
L 4013 1113
L 4603 3500
L 5691 3500
L 4769 0
L 3547 0
L 2956 2406
L 2369 0
L 1147 0
L 225 3500
z
" transform="scale(0.015625)"/>
      <path id="DejaVuSans-Bold-73" d="M 3272 3391
L 3272 2541
Q 2913 2691 2578 2766
Q 2244 2841 1947 2841
Q 1628 2841 1473 2761
Q 1319 2681 1319 2516
Q 1319 2381 1436 2309
Q 1553 2238 1856 2203
L 2053 2175
Q 2913 2066 3209 1816
Q 3506 1566 3506 1031
Q 3506 472 3093 190
Q 2681 -91 1863 -91
Q 1516 -91 1145 -36
Q 775 19 384 128
L 384 978
Q 719 816 1070 734
Q 1422 653 1784 653
Q 2113 653 2278 743
Q 2444 834 2444 1013
Q 2444 1163 2330 1236
Q 2216 1309 1875 1350
L 1678 1375
Q 931 1469 631 1722
Q 331 1975 331 2491
Q 331 3047 712 3315
Q 1094 3584 1881 3584
Q 2191 3584 2531 3537
Q 2872 3491 3272 3391
z
" transform="scale(0.015625)"/>
      <path id="DejaVuSans-Bold-30" d="M 2944 2338
Q 2944 3213 2780 3570
Q 2616 3928 2228 3928
Q 1841 3928 1675 3570
Q 1509 3213 1509 2338
Q 1509 1453 1675 1090
Q 1841 728 2228 728
Q 2613 728 2778 1090
Q 2944 1453 2944 2338
z
M 4147 2328
Q 4147 1169 3647 539
Q 3147 -91 2228 -91
Q 1306 -91 806 539
Q 306 1169 306 2328
Q 306 3491 806 4120
Q 1306 4750 2228 4750
Q 3147 4750 3647 4120
Q 4147 3491 4147 2328
z
" transform="scale(0.015625)"/>
      <path id="DejaVuSans-Bold-2d" d="M 347 2297
L 2309 2297
L 2309 1388
L 347 1388
L 347 2297
z
" transform="scale(0.015625)"/>
      <path id="DejaVuSans-Bold-35" d="M 678 4666
L 3669 4666
L 3669 3781
L 1638 3781
L 1638 3059
Q 1775 3097 1914 3117
Q 2053 3138 2203 3138
Q 3056 3138 3531 2711
Q 4006 2284 4006 1522
Q 4006 766 3489 337
Q 2972 -91 2053 -91
Q 1656 -91 1267 -14
Q 878 63 494 219
L 494 1166
Q 875 947 1217 837
Q 1559 728 1863 728
Q 2300 728 2551 942
Q 2803 1156 2803 1522
Q 2803 1891 2551 2103
Q 2300 2316 1863 2316
Q 1603 2316 1309 2248
Q 1016 2181 678 2041
L 678 4666
z
" transform="scale(0.015625)"/>
     </defs>
     <use xlink:href="#DejaVuSans-Bold-72"/>
     <use xlink:href="#DejaVuSans-Bold-6f" transform="translate(49.316406 0)"/>
     <use xlink:href="#DejaVuSans-Bold-77" transform="translate(118.017578 0)"/>
     <use xlink:href="#DejaVuSans-Bold-73" transform="translate(210.400391 0)"/>
     <use xlink:href="#DejaVuSans-Bold-20" transform="translate(269.921875 0)"/>
     <use xlink:href="#DejaVuSans-Bold-30" transform="translate(304.736328 0)"/>
     <use xlink:href="#DejaVuSans-Bold-2d" transform="translate(374.316406 0)"/>
     <use xlink:href="#DejaVuSans-Bold-31" transform="translate(415.820312 0)"/>
     <use xlink:href="#DejaVuSans-Bold-35" transform="translate(485.400391 0)"/>
    </g>
   </g>
   <g id="text_9">
    <!-- rows 16-31 -->
    <g style="fill: #ffffff" transform="translate(353.733492 86.429537) scale(0.075 -0.075)">
     <defs>
      <path id="DejaVuSans-Bold-33" d="M 2981 2516
Q 3453 2394 3698 2092
Q 3944 1791 3944 1325
Q 3944 631 3412 270
Q 2881 -91 1863 -91
Q 1503 -91 1142 -33
Q 781 25 428 141
L 428 1069
Q 766 900 1098 814
Q 1431 728 1753 728
Q 2231 728 2486 893
Q 2741 1059 2741 1369
Q 2741 1688 2480 1852
Q 2219 2016 1709 2016
L 1228 2016
L 1228 2791
L 1734 2791
Q 2188 2791 2409 2933
Q 2631 3075 2631 3366
Q 2631 3634 2415 3781
Q 2200 3928 1806 3928
Q 1516 3928 1219 3862
Q 922 3797 628 3669
L 628 4550
Q 984 4650 1334 4700
Q 1684 4750 2022 4750
Q 2931 4750 3382 4451
Q 3834 4153 3834 3553
Q 3834 3144 3618 2883
Q 3403 2622 2981 2516
z
" transform="scale(0.015625)"/>
     </defs>
     <use xlink:href="#DejaVuSans-Bold-72"/>
     <use xlink:href="#DejaVuSans-Bold-6f" transform="translate(49.316406 0)"/>
     <use xlink:href="#DejaVuSans-Bold-77" transform="translate(118.017578 0)"/>
     <use xlink:href="#DejaVuSans-Bold-73" transform="translate(210.400391 0)"/>
     <use xlink:href="#DejaVuSans-Bold-20" transform="translate(269.921875 0)"/>
     <use xlink:href="#DejaVuSans-Bold-31" transform="translate(304.736328 0)"/>
     <use xlink:href="#DejaVuSans-Bold-36" transform="translate(374.316406 0)"/>
     <use xlink:href="#DejaVuSans-Bold-2d" transform="translate(443.896484 0)"/>
     <use xlink:href="#DejaVuSans-Bold-33" transform="translate(485.400391 0)"/>
     <use xlink:href="#DejaVuSans-Bold-31" transform="translate(554.980469 0)"/>
    </g>
   </g>
   <g id="text_10">
    <!-- rows 32-47 -->
    <g style="fill: #ffffff" transform="translate(353.733492 118.446137) scale(0.075 -0.075)">
     <defs>
      <path id="DejaVuSans-Bold-32" d="M 1844 884
L 3897 884
L 3897 0
L 506 0
L 506 884
L 2209 2388
Q 2438 2594 2547 2791
Q 2656 2988 2656 3200
Q 2656 3528 2436 3728
Q 2216 3928 1850 3928
Q 1569 3928 1234 3808
Q 900 3688 519 3450
L 519 4475
Q 925 4609 1322 4679
Q 1719 4750 2100 4750
Q 2938 4750 3402 4381
Q 3866 4013 3866 3353
Q 3866 2972 3669 2642
Q 3472 2313 2841 1759
L 1844 884
z
" transform="scale(0.015625)"/>
      <path id="DejaVuSans-Bold-37" d="M 428 4666
L 3944 4666
L 3944 3988
L 2125 0
L 953 0
L 2675 3781
L 428 3781
L 428 4666
z
" transform="scale(0.015625)"/>
     </defs>
     <use xlink:href="#DejaVuSans-Bold-72"/>
     <use xlink:href="#DejaVuSans-Bold-6f" transform="translate(49.316406 0)"/>
     <use xlink:href="#DejaVuSans-Bold-77" transform="translate(118.017578 0)"/>
     <use xlink:href="#DejaVuSans-Bold-73" transform="translate(210.400391 0)"/>
     <use xlink:href="#DejaVuSans-Bold-20" transform="translate(269.921875 0)"/>
     <use xlink:href="#DejaVuSans-Bold-33" transform="translate(304.736328 0)"/>
     <use xlink:href="#DejaVuSans-Bold-32" transform="translate(374.316406 0)"/>
     <use xlink:href="#DejaVuSans-Bold-2d" transform="translate(443.896484 0)"/>
     <use xlink:href="#DejaVuSans-Bold-34" transform="translate(485.400391 0)"/>
     <use xlink:href="#DejaVuSans-Bold-37" transform="translate(554.980469 0)"/>
    </g>
   </g>
   <g id="text_11">
    <!-- rows 48-63 -->
    <g style="fill: #ffffff" transform="translate(353.733492 150.462737) scale(0.075 -0.075)">
     <defs>
      <path id="DejaVuSans-Bold-38" d="M 2228 2088
Q 1891 2088 1709 1903
Q 1528 1719 1528 1375
Q 1528 1031 1709 848
Q 1891 666 2228 666
Q 2563 666 2741 848
Q 2919 1031 2919 1375
Q 2919 1722 2741 1905
Q 2563 2088 2228 2088
z
M 1350 2484
Q 925 2613 709 2878
Q 494 3144 494 3541
Q 494 4131 934 4440
Q 1375 4750 2228 4750
Q 3075 4750 3515 4442
Q 3956 4134 3956 3541
Q 3956 3144 3739 2878
Q 3522 2613 3097 2484
Q 3572 2353 3814 2058
Q 4056 1763 4056 1313
Q 4056 619 3595 264
Q 3134 -91 2228 -91
Q 1319 -91 855 264
Q 391 619 391 1313
Q 391 1763 633 2058
Q 875 2353 1350 2484
z
M 1631 3419
Q 1631 3141 1786 2991
Q 1941 2841 2228 2841
Q 2509 2841 2662 2991
Q 2816 3141 2816 3419
Q 2816 3697 2662 3845
Q 2509 3994 2228 3994
Q 1941 3994 1786 3844
Q 1631 3694 1631 3419
z
" transform="scale(0.015625)"/>
     </defs>
     <use xlink:href="#DejaVuSans-Bold-72"/>
     <use xlink:href="#DejaVuSans-Bold-6f" transform="translate(49.316406 0)"/>
     <use xlink:href="#DejaVuSans-Bold-77" transform="translate(118.017578 0)"/>
     <use xlink:href="#DejaVuSans-Bold-73" transform="translate(210.400391 0)"/>
     <use xlink:href="#DejaVuSans-Bold-20" transform="translate(269.921875 0)"/>
     <use xlink:href="#DejaVuSans-Bold-34" transform="translate(304.736328 0)"/>
     <use xlink:href="#DejaVuSans-Bold-38" transform="translate(374.316406 0)"/>
     <use xlink:href="#DejaVuSans-Bold-2d" transform="translate(443.896484 0)"/>
     <use xlink:href="#DejaVuSans-Bold-36" transform="translate(485.400391 0)"/>
     <use xlink:href="#DejaVuSans-Bold-33" transform="translate(554.980469 0)"/>
    </g>
   </g>
   <g id="text_12">
    <!-- C (M, N): unused Lane bands can hold another aligned M=64 tile -->
    <g style="fill: #334155" transform="translate(270.04425 170.94204) scale(0.066 -0.066)">
     <defs>
      <path id="DejaVuSans-43" d="M 4122 4306
L 4122 3641
Q 3803 3938 3442 4084
Q 3081 4231 2675 4231
Q 1875 4231 1450 3742
Q 1025 3253 1025 2328
Q 1025 1406 1450 917
Q 1875 428 2675 428
Q 3081 428 3442 575
Q 3803 722 4122 1019
L 4122 359
Q 3791 134 3420 21
Q 3050 -91 2638 -91
Q 1578 -91 968 557
Q 359 1206 359 2328
Q 359 3453 968 4101
Q 1578 4750 2638 4750
Q 3056 4750 3426 4639
Q 3797 4528 4122 4306
z
" transform="scale(0.015625)"/>
      <path id="DejaVuSans-28" d="M 1984 4856
Q 1566 4138 1362 3434
Q 1159 2731 1159 2009
Q 1159 1288 1364 580
Q 1569 -128 1984 -844
L 1484 -844
Q 1016 -109 783 600
Q 550 1309 550 2009
Q 550 2706 781 3412
Q 1013 4119 1484 4856
L 1984 4856
z
" transform="scale(0.015625)"/>
      <path id="DejaVuSans-2c" d="M 750 794
L 1409 794
L 1409 256
L 897 -744
L 494 -744
L 750 256
L 750 794
z
" transform="scale(0.015625)"/>
      <path id="DejaVuSans-4e" d="M 628 4666
L 1478 4666
L 3547 763
L 3547 4666
L 4159 4666
L 4159 0
L 3309 0
L 1241 3903
L 1241 0
L 628 0
L 628 4666
z
" transform="scale(0.015625)"/>
      <path id="DejaVuSans-29" d="M 513 4856
L 1013 4856
Q 1481 4119 1714 3412
Q 1947 2706 1947 2009
Q 1947 1309 1714 600
Q 1481 -109 1013 -844
L 513 -844
Q 928 -128 1133 580
Q 1338 1288 1338 2009
Q 1338 2731 1133 3434
Q 928 4138 513 4856
z
" transform="scale(0.015625)"/>
      <path id="DejaVuSans-3a" d="M 750 794
L 1409 794
L 1409 0
L 750 0
L 750 794
z
M 750 3309
L 1409 3309
L 1409 2516
L 750 2516
L 750 3309
z
" transform="scale(0.015625)"/>
      <path id="DejaVuSans-75" d="M 544 1381
L 544 3500
L 1119 3500
L 1119 1403
Q 1119 906 1312 657
Q 1506 409 1894 409
Q 2359 409 2629 706
Q 2900 1003 2900 1516
L 2900 3500
L 3475 3500
L 3475 0
L 2900 0
L 2900 538
Q 2691 219 2414 64
Q 2138 -91 1772 -91
Q 1169 -91 856 284
Q 544 659 544 1381
z
M 1991 3584
L 1991 3584
z
" transform="scale(0.015625)"/>
      <path id="DejaVuSans-73" d="M 2834 3397
L 2834 2853
Q 2591 2978 2328 3040
Q 2066 3103 1784 3103
Q 1356 3103 1142 2972
Q 928 2841 928 2578
Q 928 2378 1081 2264
Q 1234 2150 1697 2047
L 1894 2003
Q 2506 1872 2764 1633
Q 3022 1394 3022 966
Q 3022 478 2636 193
Q 2250 -91 1575 -91
Q 1294 -91 989 -36
Q 684 19 347 128
L 347 722
Q 666 556 975 473
Q 1284 391 1588 391
Q 1994 391 2212 530
Q 2431 669 2431 922
Q 2431 1156 2273 1281
Q 2116 1406 1581 1522
L 1381 1569
Q 847 1681 609 1914
Q 372 2147 372 2553
Q 372 3047 722 3315
Q 1072 3584 1716 3584
Q 2034 3584 2315 3537
Q 2597 3491 2834 3397
z
" transform="scale(0.015625)"/>
      <path id="DejaVuSans-64" d="M 2906 2969
L 2906 4863
L 3481 4863
L 3481 0
L 2906 0
L 2906 525
Q 2725 213 2448 61
Q 2172 -91 1784 -91
Q 1150 -91 751 415
Q 353 922 353 1747
Q 353 2572 751 3078
Q 1150 3584 1784 3584
Q 2172 3584 2448 3432
Q 2725 3281 2906 2969
z
M 947 1747
Q 947 1113 1208 752
Q 1469 391 1925 391
Q 2381 391 2643 752
Q 2906 1113 2906 1747
Q 2906 2381 2643 2742
Q 2381 3103 1925 3103
Q 1469 3103 1208 2742
Q 947 2381 947 1747
z
" transform="scale(0.015625)"/>
      <path id="DejaVuSans-4c" d="M 628 4666
L 1259 4666
L 1259 531
L 3531 531
L 3531 0
L 628 0
L 628 4666
z
" transform="scale(0.015625)"/>
      <path id="DejaVuSans-61" d="M 2194 1759
Q 1497 1759 1228 1600
Q 959 1441 959 1056
Q 959 750 1161 570
Q 1363 391 1709 391
Q 2188 391 2477 730
Q 2766 1069 2766 1631
L 2766 1759
L 2194 1759
z
M 3341 1997
L 3341 0
L 2766 0
L 2766 531
Q 2569 213 2275 61
Q 1981 -91 1556 -91
Q 1019 -91 701 211
Q 384 513 384 1019
Q 384 1609 779 1909
Q 1175 2209 1959 2209
L 2766 2209
L 2766 2266
Q 2766 2663 2505 2880
Q 2244 3097 1772 3097
Q 1472 3097 1187 3025
Q 903 2953 641 2809
L 641 3341
Q 956 3463 1253 3523
Q 1550 3584 1831 3584
Q 2591 3584 2966 3190
Q 3341 2797 3341 1997
z
" transform="scale(0.015625)"/>
      <path id="DejaVuSans-62" d="M 3116 1747
Q 3116 2381 2855 2742
Q 2594 3103 2138 3103
Q 1681 3103 1420 2742
Q 1159 2381 1159 1747
Q 1159 1113 1420 752
Q 1681 391 2138 391
Q 2594 391 2855 752
Q 3116 1113 3116 1747
z
M 1159 2969
Q 1341 3281 1617 3432
Q 1894 3584 2278 3584
Q 2916 3584 3314 3078
Q 3713 2572 3713 1747
Q 3713 922 3314 415
Q 2916 -91 2278 -91
Q 1894 -91 1617 61
Q 1341 213 1159 525
L 1159 0
L 581 0
L 581 4863
L 1159 4863
L 1159 2969
z
" transform="scale(0.015625)"/>
      <path id="DejaVuSans-68" d="M 3513 2113
L 3513 0
L 2938 0
L 2938 2094
Q 2938 2591 2744 2837
Q 2550 3084 2163 3084
Q 1697 3084 1428 2787
Q 1159 2491 1159 1978
L 1159 0
L 581 0
L 581 4863
L 1159 4863
L 1159 2956
Q 1366 3272 1645 3428
Q 1925 3584 2291 3584
Q 2894 3584 3203 3211
Q 3513 2838 3513 2113
z
" transform="scale(0.015625)"/>
      <path id="DejaVuSans-6f" d="M 1959 3097
Q 1497 3097 1228 2736
Q 959 2375 959 1747
Q 959 1119 1226 758
Q 1494 397 1959 397
Q 2419 397 2687 759
Q 2956 1122 2956 1747
Q 2956 2369 2687 2733
Q 2419 3097 1959 3097
z
M 1959 3584
Q 2709 3584 3137 3096
Q 3566 2609 3566 1747
Q 3566 888 3137 398
Q 2709 -91 1959 -91
Q 1206 -91 779 398
Q 353 888 353 1747
Q 353 2609 779 3096
Q 1206 3584 1959 3584
z
" transform="scale(0.015625)"/>
      <path id="DejaVuSans-6c" d="M 603 4863
L 1178 4863
L 1178 0
L 603 0
L 603 4863
z
" transform="scale(0.015625)"/>
      <path id="DejaVuSans-72" d="M 2631 2963
Q 2534 3019 2420 3045
Q 2306 3072 2169 3072
Q 1681 3072 1420 2755
Q 1159 2438 1159 1844
L 1159 0
L 581 0
L 581 3500
L 1159 3500
L 1159 2956
Q 1341 3275 1631 3429
Q 1922 3584 2338 3584
Q 2397 3584 2469 3576
Q 2541 3569 2628 3553
L 2631 2963
z
" transform="scale(0.015625)"/>
      <path id="DejaVuSans-69" d="M 603 3500
L 1178 3500
L 1178 0
L 603 0
L 603 3500
z
M 603 4863
L 1178 4863
L 1178 4134
L 603 4134
L 603 4863
z
" transform="scale(0.015625)"/>
      <path id="DejaVuSans-3d" d="M 678 2906
L 4684 2906
L 4684 2381
L 678 2381
L 678 2906
z
M 678 1631
L 4684 1631
L 4684 1100
L 678 1100
L 678 1631
z
" transform="scale(0.015625)"/>
     </defs>
     <use xlink:href="#DejaVuSans-43"/>
     <use xlink:href="#DejaVuSans-20" transform="translate(69.824219 0)"/>
     <use xlink:href="#DejaVuSans-28" transform="translate(101.611328 0)"/>
     <use xlink:href="#DejaVuSans-4d" transform="translate(140.625 0)"/>
     <use xlink:href="#DejaVuSans-2c" transform="translate(226.904297 0)"/>
     <use xlink:href="#DejaVuSans-20" transform="translate(258.691406 0)"/>
     <use xlink:href="#DejaVuSans-4e" transform="translate(290.478516 0)"/>
     <use xlink:href="#DejaVuSans-29" transform="translate(365.283203 0)"/>
     <use xlink:href="#DejaVuSans-3a" transform="translate(404.296875 0)"/>
     <use xlink:href="#DejaVuSans-20" transform="translate(437.988281 0)"/>
     <use xlink:href="#DejaVuSans-75" transform="translate(469.775391 0)"/>
     <use xlink:href="#DejaVuSans-6e" transform="translate(533.154297 0)"/>
     <use xlink:href="#DejaVuSans-75" transform="translate(596.533203 0)"/>
     <use xlink:href="#DejaVuSans-73" transform="translate(659.912109 0)"/>
     <use xlink:href="#DejaVuSans-65" transform="translate(712.011719 0)"/>
     <use xlink:href="#DejaVuSans-64" transform="translate(773.535156 0)"/>
     <use xlink:href="#DejaVuSans-20" transform="translate(837.011719 0)"/>
     <use xlink:href="#DejaVuSans-4c" transform="translate(868.798828 0)"/>
     <use xlink:href="#DejaVuSans-61" transform="translate(924.511719 0)"/>
     <use xlink:href="#DejaVuSans-6e" transform="translate(985.791016 0)"/>
     <use xlink:href="#DejaVuSans-65" transform="translate(1049.169922 0)"/>
     <use xlink:href="#DejaVuSans-20" transform="translate(1110.693359 0)"/>
     <use xlink:href="#DejaVuSans-62" transform="translate(1142.480469 0)"/>
     <use xlink:href="#DejaVuSans-61" transform="translate(1205.957031 0)"/>
     <use xlink:href="#DejaVuSans-6e" transform="translate(1267.236328 0)"/>
     <use xlink:href="#DejaVuSans-64" transform="translate(1330.615234 0)"/>
     <use xlink:href="#DejaVuSans-73" transform="translate(1394.091797 0)"/>
     <use xlink:href="#DejaVuSans-20" transform="translate(1446.191406 0)"/>
     <use xlink:href="#DejaVuSans-63" transform="translate(1477.978516 0)"/>
     <use xlink:href="#DejaVuSans-61" transform="translate(1532.958984 0)"/>
     <use xlink:href="#DejaVuSans-6e" transform="translate(1594.238281 0)"/>
     <use xlink:href="#DejaVuSans-20" transform="translate(1657.617188 0)"/>
     <use xlink:href="#DejaVuSans-68" transform="translate(1689.404297 0)"/>
     <use xlink:href="#DejaVuSans-6f" transform="translate(1752.783203 0)"/>
     <use xlink:href="#DejaVuSans-6c" transform="translate(1813.964844 0)"/>
     <use xlink:href="#DejaVuSans-64" transform="translate(1841.748047 0)"/>
     <use xlink:href="#DejaVuSans-20" transform="translate(1905.224609 0)"/>
     <use xlink:href="#DejaVuSans-61" transform="translate(1937.011719 0)"/>
     <use xlink:href="#DejaVuSans-6e" transform="translate(1998.291016 0)"/>
     <use xlink:href="#DejaVuSans-6f" transform="translate(2061.669922 0)"/>
     <use xlink:href="#DejaVuSans-74" transform="translate(2122.851562 0)"/>
     <use xlink:href="#DejaVuSans-68" transform="translate(2162.060547 0)"/>
     <use xlink:href="#DejaVuSans-65" transform="translate(2225.439453 0)"/>
     <use xlink:href="#DejaVuSans-72" transform="translate(2286.962891 0)"/>
     <use xlink:href="#DejaVuSans-20" transform="translate(2328.076172 0)"/>
     <use xlink:href="#DejaVuSans-61" transform="translate(2359.863281 0)"/>
     <use xlink:href="#DejaVuSans-6c" transform="translate(2421.142578 0)"/>
     <use xlink:href="#DejaVuSans-69" transform="translate(2448.925781 0)"/>
     <use xlink:href="#DejaVuSans-67" transform="translate(2476.708984 0)"/>
     <use xlink:href="#DejaVuSans-6e" transform="translate(2540.185547 0)"/>
     <use xlink:href="#DejaVuSans-65" transform="translate(2603.564453 0)"/>
     <use xlink:href="#DejaVuSans-64" transform="translate(2665.087891 0)"/>
     <use xlink:href="#DejaVuSans-20" transform="translate(2728.564453 0)"/>
     <use xlink:href="#DejaVuSans-4d" transform="translate(2760.351562 0)"/>
     <use xlink:href="#DejaVuSans-3d" transform="translate(2846.630859 0)"/>
     <use xlink:href="#DejaVuSans-36" transform="translate(2930.419922 0)"/>
     <use xlink:href="#DejaVuSans-34" transform="translate(2994.042969 0)"/>
     <use xlink:href="#DejaVuSans-20" transform="translate(3057.666016 0)"/>
     <use xlink:href="#DejaVuSans-74" transform="translate(3089.453125 0)"/>
     <use xlink:href="#DejaVuSans-69" transform="translate(3128.662109 0)"/>
     <use xlink:href="#DejaVuSans-6c" transform="translate(3156.445312 0)"/>
     <use xlink:href="#DejaVuSans-65" transform="translate(3184.228516 0)"/>
    </g>
   </g>
  </g>
 </g>
 <defs>
  <clipPath id="p4598d0693c">
   <rect x="7.2" y="7.2" width="474.3" height="182.952"/>
  </clipPath>
 </defs>
 <defs>
  <pattern id="h022cc84512" patternUnits="userSpaceOnUse" x="0" y="0" width="72" height="72">
   <rect x="0" y="0" width="73" height="73" fill="#cbd5e1"/>
   <path d="M -36 36
L 36 -36
M -30 42
L 42 -30
M -24 48
L 48 -24
M -18 54
L 54 -18
M -12 60
L 60 -12
M -6 66
L 66 -6
M 0 72
L 72 0
M 6 78
L 78 6
M 12 84
L 84 12
M 18 90
L 90 18
M 24 96
L 96 24
M 30 102
L 102 30
M 36 108
L 108 36
" style="fill: #ffffff; stroke: #ffffff; stroke-width: 1.0; stroke-linecap: butt; stroke-linejoin: miter; stroke-opacity: 0.6"/>
  </pattern>
 </defs>
</svg>
