<?xml version="1.0" encoding="utf-8" standalone="no"?>
<!DOCTYPE svg PUBLIC "-//W3C//DTD SVG 1.1//EN"
  "http://www.w3.org/Graphics/SVG/1.1/DTD/svg11.dtd">
<svg xmlns:xlink="http://www.w3.org/1999/xlink" width="505.44pt" height="280.512pt" viewBox="0 0 505.44 280.512" xmlns="http://www.w3.org/2000/svg" version="1.1">
 <metadata>
  <rdf:RDF xmlns:dc="http://purl.org/dc/elements/1.1/" xmlns:cc="http://creativecommons.org/ns#" xmlns:rdf="http://www.w3.org/1999/02/22-rdf-syntax-ns#">
   <cc:Work>
    <dc:type rdf:resource="http://purl.org/dc/dcmitype/StillImage"/>
    <dc:date>2026-06-22T00:35:32.873732</dc:date>
    <dc:format>image/svg+xml</dc:format>
    <dc:creator>
     <cc:Agent>
      <dc:title>Matplotlib v3.10.8, https://matplotlib.org/</dc:title>
     </cc:Agent>
    </dc:creator>
   </cc:Work>
  </rdf:RDF>
 </metadata>
 <defs>
  <style type="text/css">*{stroke-linejoin: round; stroke-linecap: butt}</style>
 </defs>
 <g id="figure_1">
  <g id="patch_1">
   <path d="M 0 280.512 
L 505.44 280.512 
L 505.44 0 
L 0 0 
z
" style="fill: #ffffff"/>
  </g>
  <g id="axes_1">
   <g id="patch_2">
    <path d="M 29.2968 118.96704 
L 201.1608 118.96704 
Q 208.5264 118.96704 208.5264 114.97536 
L 208.5264 37.80288 
Q 208.5264 33.8112 201.1608 33.8112 
L 29.2968 33.8112 
Q 21.9312 33.8112 21.9312 37.80288 
L 21.9312 114.97536 
Q 21.9312 118.96704 29.2968 118.96704 
z
" clip-path="url(#p89d697c7c1)" style="fill: #ede9fe; stroke: #8b5cf6; stroke-width: 1.2; stroke-linejoin: miter"/>
   </g>
   <g id="patch_3">
    <path d="M 36.6624 76.38912 
L 193.7952 76.38912 
L 193.7952 41.79456 
L 36.6624 41.79456 
z
" clip-path="url(#p89d697c7c1)" style="fill: #8b5cf6; stroke: #ffffff; stroke-width: 1.2; stroke-linejoin: miter"/>
   </g>
   <g id="patch_4">
    <path d="M 36.6624 113.6448 
L 193.7952 113.6448 
L 193.7952 81.71136 
L 36.6624 81.71136 
z
" clip-path="url(#p89d697c7c1)" style="fill: #6d28d9; stroke: #ffffff; stroke-width: 1.2; stroke-linejoin: miter"/>
   </g>
   <g id="patch_5">
    <path d="M 304.2792 118.96704 
L 476.1432 118.96704 
Q 483.5088 118.96704 483.5088 114.97536 
L 483.5088 37.80288 
Q 483.5088 33.8112 476.1432 33.8112 
L 304.2792 33.8112 
Q 296.9136 33.8112 296.9136 37.80288 
L 296.9136 114.97536 
Q 296.9136 118.96704 304.2792 118.96704 
z
" clip-path="url(#p89d697c7c1)" style="fill: #fffbeb; stroke: #f59e0b; stroke-width: 1.2; stroke-linejoin: miter"/>
   </g>
   <g id="patch_6">
    <path d="M 311.6448 76.38912 
L 468.7776 76.38912 
L 468.7776 41.79456 
L 311.6448 41.79456 
z
" clip-path="url(#p89d697c7c1)" style="fill: #f59e0b; stroke: #ffffff; stroke-width: 1.2; stroke-linejoin: miter"/>
   </g>
   <g id="patch_7">
    <path d="M 311.6448 113.6448 
L 468.7776 113.6448 
L 468.7776 81.71136 
L 311.6448 81.71136 
z
" clip-path="url(#p89d697c7c1)" style="fill: #fbbf24; stroke: #ffffff; stroke-width: 1.2; stroke-linejoin: miter"/>
   </g>
   <g id="patch_8">
    <path d="M 29.2968 241.37856 
L 201.1608 241.37856 
Q 208.5264 241.37856 208.5264 237.38688 
L 208.5264 160.2144 
Q 208.5264 156.22272 201.1608 156.22272 
L 29.2968 156.22272 
Q 21.9312 156.22272 21.9312 160.2144 
L 21.9312 237.38688 
Q 21.9312 241.37856 29.2968 241.37856 
z
" clip-path="url(#p89d697c7c1)" style="fill: #ede9fe; stroke: #8b5cf6; stroke-width: 1.2; stroke-linejoin: miter"/>
   </g>
   <g id="patch_9">
    <path d="M 36.6624 198.80064 
L 193.7952 198.80064 
L 193.7952 164.20608 
L 36.6624 164.20608 
z
" clip-path="url(#p89d697c7c1)" style="fill: #8b5cf6; stroke: #ffffff; stroke-width: 1.2; stroke-linejoin: miter"/>
   </g>
   <g id="patch_10">
    <path d="M 36.6624 236.05632 
L 193.7952 236.05632 
L 193.7952 204.12288 
L 36.6624 204.12288 
z
" clip-path="url(#p89d697c7c1)" style="fill: #6d28d9; stroke: #ffffff; stroke-width: 1.2; stroke-linejoin: miter"/>
   </g>
   <g id="patch_11">
    <path d="M 304.2792 241.37856 
L 476.1432 241.37856 
Q 483.5088 241.37856 483.5088 237.38688 
L 483.5088 160.2144 
Q 483.5088 156.22272 476.1432 156.22272 
L 304.2792 156.22272 
Q 296.9136 156.22272 296.9136 160.2144 
L 296.9136 237.38688 
Q 296.9136 241.37856 304.2792 241.37856 
z
" clip-path="url(#p89d697c7c1)" style="fill: #fffbeb; stroke: #f59e0b; stroke-width: 1.2; stroke-linejoin: miter"/>
   </g>
   <g id="patch_12">
    <path d="M 311.6448 198.80064 
L 468.7776 198.80064 
L 468.7776 164.20608 
L 311.6448 164.20608 
z
" clip-path="url(#p89d697c7c1)" style="fill: #f59e0b; stroke: #ffffff; stroke-width: 1.2; stroke-linejoin: miter"/>
   </g>
   <g id="patch_13">
    <path d="M 311.6448 236.05632 
L 468.7776 236.05632 
L 468.7776 204.12288 
L 311.6448 204.12288 
z
" clip-path="url(#p89d697c7c1)" style="fill: #fbbf24; stroke: #ffffff; stroke-width: 1.2; stroke-linejoin: miter"/>
   </g>
   <g id="text_1">
    <!-- cta_group::2, M=128  —  2 CTAs (M split, N folded into lanes) -->
    <g style="fill: #1f2937" transform="translate(72.415313 17.839479) scale(0.105 -0.105)">
     <defs>
      <path id="DejaVuSans-Bold-63" d="M 3366 3391 
L 3366 2478 
Q 3138 2634 2908 2709 
Q 2678 2784 2431 2784 
Q 1963 2784 1702 2511 
Q 1441 2238 1441 1747 
Q 1441 1256 1702 982 
Q 1963 709 2431 709 
Q 2694 709 2930 787 
Q 3166 866 3366 1019 
L 3366 103 
Q 3103 6 2833 -42 
Q 2563 -91 2291 -91 
Q 1344 -91 809 395 
Q 275 881 275 1747 
Q 275 2613 809 3098 
Q 1344 3584 2291 3584 
Q 2566 3584 2833 3536 
Q 3100 3488 3366 3391 
z
" transform="scale(0.015625)"/>
      <path id="DejaVuSans-Bold-74" d="M 1759 4494 
L 1759 3500 
L 2913 3500 
L 2913 2700 
L 1759 2700 
L 1759 1216 
Q 1759 972 1856 886 
Q 1953 800 2241 800 
L 2816 800 
L 2816 0 
L 1856 0 
Q 1194 0 917 276 
Q 641 553 641 1216 
L 641 2700 
L 84 2700 
L 84 3500 
L 641 3500 
L 641 4494 
L 1759 4494 
z
" transform="scale(0.015625)"/>
      <path id="DejaVuSans-Bold-61" d="M 2106 1575 
Q 1756 1575 1579 1456 
Q 1403 1338 1403 1106 
Q 1403 894 1545 773 
Q 1688 653 1941 653 
Q 2256 653 2472 879 
Q 2688 1106 2688 1447 
L 2688 1575 
L 2106 1575 
z
M 3816 1997 
L 3816 0 
L 2688 0 
L 2688 519 
Q 2463 200 2181 54 
Q 1900 -91 1497 -91 
Q 953 -91 614 226 
Q 275 544 275 1050 
Q 275 1666 698 1953 
Q 1122 2241 2028 2241 
L 2688 2241 
L 2688 2328 
Q 2688 2594 2478 2717 
Q 2269 2841 1825 2841 
Q 1466 2841 1156 2769 
Q 847 2697 581 2553 
L 581 3406 
Q 941 3494 1303 3539 
Q 1666 3584 2028 3584 
Q 2975 3584 3395 3211 
Q 3816 2838 3816 1997 
z
" transform="scale(0.015625)"/>
      <path id="DejaVuSans-Bold-5f" d="M 3200 -916 
L 3200 -1509 
L 0 -1509 
L 0 -916 
L 3200 -916 
z
" transform="scale(0.015625)"/>
      <path id="DejaVuSans-Bold-67" d="M 2919 594 
Q 2688 288 2409 144 
Q 2131 0 1766 0 
Q 1125 0 706 504 
Q 288 1009 288 1791 
Q 288 2575 706 3076 
Q 1125 3578 1766 3578 
Q 2131 3578 2409 3434 
Q 2688 3291 2919 2981 
L 2919 3500 
L 4044 3500 
L 4044 353 
Q 4044 -491 3511 -936 
Q 2978 -1381 1966 -1381 
Q 1638 -1381 1331 -1331 
Q 1025 -1281 716 -1178 
L 716 -306 
Q 1009 -475 1290 -558 
Q 1572 -641 1856 -641 
Q 2406 -641 2662 -400 
Q 2919 -159 2919 353 
L 2919 594 
z
M 2181 2772 
Q 1834 2772 1640 2515 
Q 1447 2259 1447 1791 
Q 1447 1309 1634 1061 
Q 1822 813 2181 813 
Q 2531 813 2725 1069 
Q 2919 1325 2919 1791 
Q 2919 2259 2725 2515 
Q 2531 2772 2181 2772 
z
" transform="scale(0.015625)"/>
      <path id="DejaVuSans-Bold-72" d="M 3138 2547 
Q 2991 2616 2845 2648 
Q 2700 2681 2553 2681 
Q 2122 2681 1889 2404 
Q 1656 2128 1656 1613 
L 1656 0 
L 538 0 
L 538 3500 
L 1656 3500 
L 1656 2925 
Q 1872 3269 2151 3426 
Q 2431 3584 2822 3584 
Q 2878 3584 2943 3579 
Q 3009 3575 3134 3559 
L 3138 2547 
z
" transform="scale(0.015625)"/>
      <path id="DejaVuSans-Bold-6f" d="M 2203 2784 
Q 1831 2784 1636 2517 
Q 1441 2250 1441 1747 
Q 1441 1244 1636 976 
Q 1831 709 2203 709 
Q 2569 709 2762 976 
Q 2956 1244 2956 1747 
Q 2956 2250 2762 2517 
Q 2569 2784 2203 2784 
z
M 2203 3584 
Q 3106 3584 3614 3096 
Q 4122 2609 4122 1747 
Q 4122 884 3614 396 
Q 3106 -91 2203 -91 
Q 1297 -91 786 396 
Q 275 884 275 1747 
Q 275 2609 786 3096 
Q 1297 3584 2203 3584 
z
" transform="scale(0.015625)"/>
      <path id="DejaVuSans-Bold-75" d="M 500 1363 
L 500 3500 
L 1625 3500 
L 1625 3150 
Q 1625 2866 1622 2436 
Q 1619 2006 1619 1863 
Q 1619 1441 1641 1255 
Q 1663 1069 1716 984 
Q 1784 875 1895 815 
Q 2006 756 2150 756 
Q 2500 756 2700 1025 
Q 2900 1294 2900 1772 
L 2900 3500 
L 4019 3500 
L 4019 0 
L 2900 0 
L 2900 506 
Q 2647 200 2364 54 
Q 2081 -91 1741 -91 
Q 1134 -91 817 281 
Q 500 653 500 1363 
z
" transform="scale(0.015625)"/>
      <path id="DejaVuSans-Bold-70" d="M 1656 506 
L 1656 -1331 
L 538 -1331 
L 538 3500 
L 1656 3500 
L 1656 2988 
Q 1888 3294 2169 3439 
Q 2450 3584 2816 3584 
Q 3463 3584 3878 3070 
Q 4294 2556 4294 1747 
Q 4294 938 3878 423 
Q 3463 -91 2816 -91 
Q 2450 -91 2169 54 
Q 1888 200 1656 506 
z
M 2400 2772 
Q 2041 2772 1848 2508 
Q 1656 2244 1656 1747 
Q 1656 1250 1848 986 
Q 2041 722 2400 722 
Q 2759 722 2948 984 
Q 3138 1247 3138 1747 
Q 3138 2247 2948 2509 
Q 2759 2772 2400 2772 
z
" transform="scale(0.015625)"/>
      <path id="DejaVuSans-Bold-3a" d="M 716 3500 
L 1844 3500 
L 1844 2291 
L 716 2291 
L 716 3500 
z
M 716 1209 
L 1844 1209 
L 1844 0 
L 716 0 
L 716 1209 
z
" transform="scale(0.015625)"/>
      <path id="DejaVuSans-Bold-32" d="M 1844 884 
L 3897 884 
L 3897 0 
L 506 0 
L 506 884 
L 2209 2388 
Q 2438 2594 2547 2791 
Q 2656 2988 2656 3200 
Q 2656 3528 2436 3728 
Q 2216 3928 1850 3928 
Q 1569 3928 1234 3808 
Q 900 3688 519 3450 
L 519 4475 
Q 925 4609 1322 4679 
Q 1719 4750 2100 4750 
Q 2938 4750 3402 4381 
Q 3866 4013 3866 3353 
Q 3866 2972 3669 2642 
Q 3472 2313 2841 1759 
L 1844 884 
z
" transform="scale(0.015625)"/>
      <path id="DejaVuSans-Bold-2c" d="M 653 1209 
L 1778 1209 
L 1778 256 
L 1006 -909 
L 341 -909 
L 653 256 
L 653 1209 
z
" transform="scale(0.015625)"/>
      <path id="DejaVuSans-Bold-20" transform="scale(0.015625)"/>
      <path id="DejaVuSans-Bold-4d" d="M 588 4666 
L 2119 4666 
L 3181 2169 
L 4250 4666 
L 5778 4666 
L 5778 0 
L 4641 0 
L 4641 3413 
L 3566 897 
L 2803 897 
L 1728 3413 
L 1728 0 
L 588 0 
L 588 4666 
z
" transform="scale(0.015625)"/>
      <path id="DejaVuSans-Bold-3d" d="M 678 3084 
L 4684 3084 
L 4684 2350 
L 678 2350 
L 678 3084 
z
M 678 1663 
L 4684 1663 
L 4684 922 
L 678 922 
L 678 1663 
z
" transform="scale(0.015625)"/>
      <path id="DejaVuSans-Bold-31" d="M 750 831 
L 1813 831 
L 1813 3847 
L 722 3622 
L 722 4441 
L 1806 4666 
L 2950 4666 
L 2950 831 
L 4013 831 
L 4013 0 
L 750 0 
L 750 831 
z
" transform="scale(0.015625)"/>
      <path id="DejaVuSans-Bold-38" d="M 2228 2088 
Q 1891 2088 1709 1903 
Q 1528 1719 1528 1375 
Q 1528 1031 1709 848 
Q 1891 666 2228 666 
Q 2563 666 2741 848 
Q 2919 1031 2919 1375 
Q 2919 1722 2741 1905 
Q 2563 2088 2228 2088 
z
M 1350 2484 
Q 925 2613 709 2878 
Q 494 3144 494 3541 
Q 494 4131 934 4440 
Q 1375 4750 2228 4750 
Q 3075 4750 3515 4442 
Q 3956 4134 3956 3541 
Q 3956 3144 3739 2878 
Q 3522 2613 3097 2484 
Q 3572 2353 3814 2058 
Q 4056 1763 4056 1313 
Q 4056 619 3595 264 
Q 3134 -91 2228 -91 
Q 1319 -91 855 264 
Q 391 619 391 1313 
Q 391 1763 633 2058 
Q 875 2353 1350 2484 
z
M 1631 3419 
Q 1631 3141 1786 2991 
Q 1941 2841 2228 2841 
Q 2509 2841 2662 2991 
Q 2816 3141 2816 3419 
Q 2816 3697 2662 3845 
Q 2509 3994 2228 3994 
Q 1941 3994 1786 3844 
Q 1631 3694 1631 3419 
z
" transform="scale(0.015625)"/>
      <path id="DejaVuSans-Bold-2014" d="M 344 2156 
L 6056 2156 
L 6056 1350 
L 344 1350 
L 344 2156 
z
" transform="scale(0.015625)"/>
      <path id="DejaVuSans-Bold-43" d="M 4288 256 
Q 3956 84 3597 -3 
Q 3238 -91 2847 -91 
Q 1681 -91 1000 561 
Q 319 1213 319 2328 
Q 319 3447 1000 4098 
Q 1681 4750 2847 4750 
Q 3238 4750 3597 4662 
Q 3956 4575 4288 4403 
L 4288 3438 
Q 3953 3666 3628 3772 
Q 3303 3878 2944 3878 
Q 2300 3878 1931 3465 
Q 1563 3053 1563 2328 
Q 1563 1606 1931 1193 
Q 2300 781 2944 781 
Q 3303 781 3628 887 
Q 3953 994 4288 1222 
L 4288 256 
z
" transform="scale(0.015625)"/>
      <path id="DejaVuSans-Bold-54" d="M 31 4666 
L 4331 4666 
L 4331 3756 
L 2784 3756 
L 2784 0 
L 1581 0 
L 1581 3756 
L 31 3756 
L 31 4666 
z
" transform="scale(0.015625)"/>
      <path id="DejaVuSans-Bold-41" d="M 3419 850 
L 1538 850 
L 1241 0 
L 31 0 
L 1759 4666 
L 3194 4666 
L 4922 0 
L 3713 0 
L 3419 850 
z
M 1838 1716 
L 3116 1716 
L 2478 3572 
L 1838 1716 
z
" transform="scale(0.015625)"/>
      <path id="DejaVuSans-Bold-73" d="M 3272 3391 
L 3272 2541 
Q 2913 2691 2578 2766 
Q 2244 2841 1947 2841 
Q 1628 2841 1473 2761 
Q 1319 2681 1319 2516 
Q 1319 2381 1436 2309 
Q 1553 2238 1856 2203 
L 2053 2175 
Q 2913 2066 3209 1816 
Q 3506 1566 3506 1031 
Q 3506 472 3093 190 
Q 2681 -91 1863 -91 
Q 1516 -91 1145 -36 
Q 775 19 384 128 
L 384 978 
Q 719 816 1070 734 
Q 1422 653 1784 653 
Q 2113 653 2278 743 
Q 2444 834 2444 1013 
Q 2444 1163 2330 1236 
Q 2216 1309 1875 1350 
L 1678 1375 
Q 931 1469 631 1722 
Q 331 1975 331 2491 
Q 331 3047 712 3315 
Q 1094 3584 1881 3584 
Q 2191 3584 2531 3537 
Q 2872 3491 3272 3391 
z
" transform="scale(0.015625)"/>
      <path id="DejaVuSans-Bold-28" d="M 2413 -844 
L 1484 -844 
Q 1006 -72 778 623 
Q 550 1319 550 2003 
Q 550 2688 779 3389 
Q 1009 4091 1484 4856 
L 2413 4856 
Q 2013 4116 1813 3408 
Q 1613 2700 1613 2009 
Q 1613 1319 1811 609 
Q 2009 -100 2413 -844 
z
" transform="scale(0.015625)"/>
      <path id="DejaVuSans-Bold-6c" d="M 538 4863 
L 1656 4863 
L 1656 0 
L 538 0 
L 538 4863 
z
" transform="scale(0.015625)"/>
      <path id="DejaVuSans-Bold-69" d="M 538 3500 
L 1656 3500 
L 1656 0 
L 538 0 
L 538 3500 
z
M 538 4863 
L 1656 4863 
L 1656 3950 
L 538 3950 
L 538 4863 
z
" transform="scale(0.015625)"/>
      <path id="DejaVuSans-Bold-4e" d="M 588 4666 
L 1931 4666 
L 3628 1466 
L 3628 4666 
L 4769 4666 
L 4769 0 
L 3425 0 
L 1728 3200 
L 1728 0 
L 588 0 
L 588 4666 
z
" transform="scale(0.015625)"/>
      <path id="DejaVuSans-Bold-66" d="M 2841 4863 
L 2841 4128 
L 2222 4128 
Q 1984 4128 1890 4042 
Q 1797 3956 1797 3744 
L 1797 3500 
L 2753 3500 
L 2753 2700 
L 1797 2700 
L 1797 0 
L 678 0 
L 678 2700 
L 122 2700 
L 122 3500 
L 678 3500 
L 678 3744 
Q 678 4316 997 4589 
Q 1316 4863 1984 4863 
L 2841 4863 
z
" transform="scale(0.015625)"/>
      <path id="DejaVuSans-Bold-64" d="M 2919 2988 
L 2919 4863 
L 4044 4863 
L 4044 0 
L 2919 0 
L 2919 506 
Q 2688 197 2409 53 
Q 2131 -91 1766 -91 
Q 1119 -91 703 423 
Q 288 938 288 1747 
Q 288 2556 703 3070 
Q 1119 3584 1766 3584 
Q 2128 3584 2408 3439 
Q 2688 3294 2919 2988 
z
M 2181 722 
Q 2541 722 2730 984 
Q 2919 1247 2919 1747 
Q 2919 2247 2730 2509 
Q 2541 2772 2181 2772 
Q 1825 2772 1636 2509 
Q 1447 2247 1447 1747 
Q 1447 1247 1636 984 
Q 1825 722 2181 722 
z
" transform="scale(0.015625)"/>
      <path id="DejaVuSans-Bold-65" d="M 4031 1759 
L 4031 1441 
L 1416 1441 
Q 1456 1047 1700 850 
Q 1944 653 2381 653 
Q 2734 653 3104 758 
Q 3475 863 3866 1075 
L 3866 213 
Q 3469 63 3072 -14 
Q 2675 -91 2278 -91 
Q 1328 -91 801 392 
Q 275 875 275 1747 
Q 275 2603 792 3093 
Q 1309 3584 2216 3584 
Q 3041 3584 3536 3087 
Q 4031 2591 4031 1759 
z
M 2881 2131 
Q 2881 2450 2695 2645 
Q 2509 2841 2209 2841 
Q 1884 2841 1681 2658 
Q 1478 2475 1428 2131 
L 2881 2131 
z
" transform="scale(0.015625)"/>
      <path id="DejaVuSans-Bold-6e" d="M 4056 2131 
L 4056 0 
L 2931 0 
L 2931 347 
L 2931 1631 
Q 2931 2084 2911 2256 
Q 2891 2428 2841 2509 
Q 2775 2619 2662 2680 
Q 2550 2741 2406 2741 
Q 2056 2741 1856 2470 
Q 1656 2200 1656 1722 
L 1656 0 
L 538 0 
L 538 3500 
L 1656 3500 
L 1656 2988 
Q 1909 3294 2193 3439 
Q 2478 3584 2822 3584 
Q 3428 3584 3742 3212 
Q 4056 2841 4056 2131 
z
" transform="scale(0.015625)"/>
      <path id="DejaVuSans-Bold-29" d="M 513 -844 
Q 913 -100 1113 609 
Q 1313 1319 1313 2009 
Q 1313 2700 1113 3408 
Q 913 4116 513 4856 
L 1441 4856 
Q 1916 4091 2145 3389 
Q 2375 2688 2375 2003 
Q 2375 1319 2147 623 
Q 1919 -72 1441 -844 
L 513 -844 
z
" transform="scale(0.015625)"/>
     </defs>
     <use xlink:href="#DejaVuSans-Bold-63"/>
     <use xlink:href="#DejaVuSans-Bold-74" transform="translate(59.277344 0)"/>
     <use xlink:href="#DejaVuSans-Bold-61" transform="translate(107.080078 0)"/>
     <use xlink:href="#DejaVuSans-Bold-5f" transform="translate(174.560547 0)"/>
     <use xlink:href="#DejaVuSans-Bold-67" transform="translate(224.560547 0)"/>
     <use xlink:href="#DejaVuSans-Bold-72" transform="translate(296.142578 0)"/>
     <use xlink:href="#DejaVuSans-Bold-6f" transform="translate(345.458984 0)"/>
     <use xlink:href="#DejaVuSans-Bold-75" transform="translate(414.160156 0)"/>
     <use xlink:href="#DejaVuSans-Bold-70" transform="translate(485.351562 0)"/>
     <use xlink:href="#DejaVuSans-Bold-3a" transform="translate(556.933594 0)"/>
     <use xlink:href="#DejaVuSans-Bold-3a" transform="translate(596.923828 0)"/>
     <use xlink:href="#DejaVuSans-Bold-32" transform="translate(636.914062 0)"/>
     <use xlink:href="#DejaVuSans-Bold-2c" transform="translate(706.494141 0)"/>
     <use xlink:href="#DejaVuSans-Bold-20" transform="translate(744.482422 0)"/>
     <use xlink:href="#DejaVuSans-Bold-4d" transform="translate(779.296875 0)"/>
     <use xlink:href="#DejaVuSans-Bold-3d" transform="translate(878.808594 0)"/>
     <use xlink:href="#DejaVuSans-Bold-31" transform="translate(962.597656 0)"/>
     <use xlink:href="#DejaVuSans-Bold-32" transform="translate(1032.177734 0)"/>
     <use xlink:href="#DejaVuSans-Bold-38" transform="translate(1101.757812 0)"/>
     <use xlink:href="#DejaVuSans-Bold-20" transform="translate(1171.337891 0)"/>
     <use xlink:href="#DejaVuSans-Bold-20" transform="translate(1206.152344 0)"/>
     <use xlink:href="#DejaVuSans-Bold-2014" transform="translate(1240.966797 0)"/>
     <use xlink:href="#DejaVuSans-Bold-20" transform="translate(1340.966797 0)"/>
     <use xlink:href="#DejaVuSans-Bold-20" transform="translate(1375.78125 0)"/>
     <use xlink:href="#DejaVuSans-Bold-32" transform="translate(1410.595703 0)"/>
     <use xlink:href="#DejaVuSans-Bold-20" transform="translate(1480.175781 0)"/>
     <use xlink:href="#DejaVuSans-Bold-43" transform="translate(1514.990234 0)"/>
     <use xlink:href="#DejaVuSans-Bold-54" transform="translate(1588.378906 0)"/>
     <use xlink:href="#DejaVuSans-Bold-41" transform="translate(1648.841797 0)"/>
     <use xlink:href="#DejaVuSans-Bold-73" transform="translate(1726.234375 0)"/>
     <use xlink:href="#DejaVuSans-Bold-20" transform="translate(1785.755859 0)"/>
     <use xlink:href="#DejaVuSans-Bold-28" transform="translate(1820.570312 0)"/>
     <use xlink:href="#DejaVuSans-Bold-4d" transform="translate(1866.273438 0)"/>
     <use xlink:href="#DejaVuSans-Bold-20" transform="translate(1965.785156 0)"/>
     <use xlink:href="#DejaVuSans-Bold-73" transform="translate(2000.599609 0)"/>
     <use xlink:href="#DejaVuSans-Bold-70" transform="translate(2060.121094 0)"/>
     <use xlink:href="#DejaVuSans-Bold-6c" transform="translate(2131.703125 0)"/>
     <use xlink:href="#DejaVuSans-Bold-69" transform="translate(2165.980469 0)"/>
     <use xlink:href="#DejaVuSans-Bold-74" transform="translate(2200.257812 0)"/>
     <use xlink:href="#DejaVuSans-Bold-2c" transform="translate(2248.060547 0)"/>
     <use xlink:href="#DejaVuSans-Bold-20" transform="translate(2286.048828 0)"/>
     <use xlink:href="#DejaVuSans-Bold-4e" transform="translate(2320.863281 0)"/>
     <use xlink:href="#DejaVuSans-Bold-20" transform="translate(2404.554688 0)"/>
     <use xlink:href="#DejaVuSans-Bold-66" transform="translate(2439.369141 0)"/>
     <use xlink:href="#DejaVuSans-Bold-6f" transform="translate(2482.875 0)"/>
     <use xlink:href="#DejaVuSans-Bold-6c" transform="translate(2551.576172 0)"/>
     <use xlink:href="#DejaVuSans-Bold-64" transform="translate(2585.853516 0)"/>
     <use xlink:href="#DejaVuSans-Bold-65" transform="translate(2657.435547 0)"/>
     <use xlink:href="#DejaVuSans-Bold-64" transform="translate(2725.257812 0)"/>
     <use xlink:href="#DejaVuSans-Bold-20" transform="translate(2796.839844 0)"/>
     <use xlink:href="#DejaVuSans-Bold-69" transform="translate(2831.654297 0)"/>
     <use xlink:href="#DejaVuSans-Bold-6e" transform="translate(2865.931641 0)"/>
     <use xlink:href="#DejaVuSans-Bold-74" transform="translate(2937.123047 0)"/>
     <use xlink:href="#DejaVuSans-Bold-6f" transform="translate(2984.925781 0)"/>
     <use xlink:href="#DejaVuSans-Bold-20" transform="translate(3053.626953 0)"/>
     <use xlink:href="#DejaVuSans-Bold-6c" transform="translate(3088.441406 0)"/>
     <use xlink:href="#DejaVuSans-Bold-61" transform="translate(3122.71875 0)"/>
     <use xlink:href="#DejaVuSans-Bold-6e" transform="translate(3190.199219 0)"/>
     <use xlink:href="#DejaVuSans-Bold-65" transform="translate(3261.390625 0)"/>
     <use xlink:href="#DejaVuSans-Bold-73" transform="translate(3329.212891 0)"/>
     <use xlink:href="#DejaVuSans-Bold-29" transform="translate(3388.734375 0)"/>
    </g>
   </g>
   <g id="text_2">
    <!-- CTA 0 — SMEM -->
    <g style="fill: #334155" transform="translate(29.2968 43.083294) scale(0.08 -0.08)">
     <defs>
      <path id="DejaVuSans-Bold-30" d="M 2944 2338 
Q 2944 3213 2780 3570 
Q 2616 3928 2228 3928 
Q 1841 3928 1675 3570 
Q 1509 3213 1509 2338 
Q 1509 1453 1675 1090 
Q 1841 728 2228 728 
Q 2613 728 2778 1090 
Q 2944 1453 2944 2338 
z
M 4147 2328 
Q 4147 1169 3647 539 
Q 3147 -91 2228 -91 
Q 1306 -91 806 539 
Q 306 1169 306 2328 
Q 306 3491 806 4120 
Q 1306 4750 2228 4750 
Q 3147 4750 3647 4120 
Q 4147 3491 4147 2328 
z
" transform="scale(0.015625)"/>
      <path id="DejaVuSans-Bold-53" d="M 3834 4519 
L 3834 3531 
Q 3450 3703 3084 3790 
Q 2719 3878 2394 3878 
Q 1963 3878 1756 3759 
Q 1550 3641 1550 3391 
Q 1550 3203 1689 3098 
Q 1828 2994 2194 2919 
L 2706 2816 
Q 3484 2659 3812 2340 
Q 4141 2022 4141 1434 
Q 4141 663 3683 286 
Q 3225 -91 2284 -91 
Q 1841 -91 1394 -6 
Q 947 78 500 244 
L 500 1259 
Q 947 1022 1364 901 
Q 1781 781 2169 781 
Q 2563 781 2772 912 
Q 2981 1044 2981 1288 
Q 2981 1506 2839 1625 
Q 2697 1744 2272 1838 
L 1806 1941 
Q 1106 2091 782 2419 
Q 459 2747 459 3303 
Q 459 4000 909 4375 
Q 1359 4750 2203 4750 
Q 2588 4750 2994 4692 
Q 3400 4634 3834 4519 
z
" transform="scale(0.015625)"/>
      <path id="DejaVuSans-Bold-45" d="M 588 4666 
L 3834 4666 
L 3834 3756 
L 1791 3756 
L 1791 2888 
L 3713 2888 
L 3713 1978 
L 1791 1978 
L 1791 909 
L 3903 909 
L 3903 0 
L 588 0 
L 588 4666 
z
" transform="scale(0.015625)"/>
     </defs>
     <use xlink:href="#DejaVuSans-Bold-43"/>
     <use xlink:href="#DejaVuSans-Bold-54" transform="translate(73.388672 0)"/>
     <use xlink:href="#DejaVuSans-Bold-41" transform="translate(133.851562 0)"/>
     <use xlink:href="#DejaVuSans-Bold-20" transform="translate(211.244141 0)"/>
     <use xlink:href="#DejaVuSans-Bold-30" transform="translate(246.058594 0)"/>
     <use xlink:href="#DejaVuSans-Bold-20" transform="translate(315.638672 0)"/>
     <use xlink:href="#DejaVuSans-Bold-2014" transform="translate(350.453125 0)"/>
     <use xlink:href="#DejaVuSans-Bold-20" transform="translate(450.453125 0)"/>
     <use xlink:href="#DejaVuSans-Bold-53" transform="translate(485.267578 0)"/>
     <use xlink:href="#DejaVuSans-Bold-4d" transform="translate(557.289062 0)"/>
     <use xlink:href="#DejaVuSans-Bold-45" transform="translate(656.800781 0)"/>
     <use xlink:href="#DejaVuSans-Bold-4d" transform="translate(725.111328 0)"/>
    </g>
   </g>
   <g id="text_3">
    <!-- A  rows 0-63 -->
    <g style="fill: #ffffff" transform="translate(87.149425 56.456102) scale(0.08 -0.08)">
     <defs>
      <path id="DejaVuSans-Bold-77" d="M 225 3500 
L 1313 3500 
L 1900 1088 
L 2491 3500 
L 3425 3500 
L 4013 1113 
L 4603 3500 
L 5691 3500 
L 4769 0 
L 3547 0 
L 2956 2406 
L 2369 0 
L 1147 0 
L 225 3500 
z
" transform="scale(0.015625)"/>
      <path id="DejaVuSans-Bold-2d" d="M 347 2297 
L 2309 2297 
L 2309 1388 
L 347 1388 
L 347 2297 
z
" transform="scale(0.015625)"/>
      <path id="DejaVuSans-Bold-36" d="M 2316 2303 
Q 2000 2303 1842 2098 
Q 1684 1894 1684 1484 
Q 1684 1075 1842 870 
Q 2000 666 2316 666 
Q 2634 666 2792 870 
Q 2950 1075 2950 1484 
Q 2950 1894 2792 2098 
Q 2634 2303 2316 2303 
z
M 3803 4544 
L 3803 3681 
Q 3506 3822 3243 3889 
Q 2981 3956 2731 3956 
Q 2194 3956 1894 3657 
Q 1594 3359 1544 2772 
Q 1750 2925 1990 3001 
Q 2231 3078 2516 3078 
Q 3231 3078 3670 2659 
Q 4109 2241 4109 1563 
Q 4109 813 3618 361 
Q 3128 -91 2303 -91 
Q 1394 -91 895 523 
Q 397 1138 397 2266 
Q 397 3422 980 4083 
Q 1563 4744 2578 4744 
Q 2900 4744 3203 4694 
Q 3506 4644 3803 4544 
z
" transform="scale(0.015625)"/>
      <path id="DejaVuSans-Bold-33" d="M 2981 2516 
Q 3453 2394 3698 2092 
Q 3944 1791 3944 1325 
Q 3944 631 3412 270 
Q 2881 -91 1863 -91 
Q 1503 -91 1142 -33 
Q 781 25 428 141 
L 428 1069 
Q 766 900 1098 814 
Q 1431 728 1753 728 
Q 2231 728 2486 893 
Q 2741 1059 2741 1369 
Q 2741 1688 2480 1852 
Q 2219 2016 1709 2016 
L 1228 2016 
L 1228 2791 
L 1734 2791 
Q 2188 2791 2409 2933 
Q 2631 3075 2631 3366 
Q 2631 3634 2415 3781 
Q 2200 3928 1806 3928 
Q 1516 3928 1219 3862 
Q 922 3797 628 3669 
L 628 4550 
Q 984 4650 1334 4700 
Q 1684 4750 2022 4750 
Q 2931 4750 3382 4451 
Q 3834 4153 3834 3553 
Q 3834 3144 3618 2883 
Q 3403 2622 2981 2516 
z
" transform="scale(0.015625)"/>
     </defs>
     <use xlink:href="#DejaVuSans-Bold-41"/>
     <use xlink:href="#DejaVuSans-Bold-20" transform="translate(77.392578 0)"/>
     <use xlink:href="#DejaVuSans-Bold-20" transform="translate(112.207031 0)"/>
     <use xlink:href="#DejaVuSans-Bold-72" transform="translate(147.021484 0)"/>
     <use xlink:href="#DejaVuSans-Bold-6f" transform="translate(196.337891 0)"/>
     <use xlink:href="#DejaVuSans-Bold-77" transform="translate(265.039062 0)"/>
     <use xlink:href="#DejaVuSans-Bold-73" transform="translate(357.421875 0)"/>
     <use xlink:href="#DejaVuSans-Bold-20" transform="translate(416.943359 0)"/>
     <use xlink:href="#DejaVuSans-Bold-30" transform="translate(451.757812 0)"/>
     <use xlink:href="#DejaVuSans-Bold-2d" transform="translate(521.337891 0)"/>
     <use xlink:href="#DejaVuSans-Bold-36" transform="translate(562.841797 0)"/>
     <use xlink:href="#DejaVuSans-Bold-33" transform="translate(632.421875 0)"/>
    </g>
   </g>
   <g id="text_4">
    <!-- 64 × K -->
    <g style="fill: #ffffff" transform="translate(104.682988 66.337782) scale(0.062 -0.062)">
     <defs>
      <path id="DejaVuSans-36" d="M 2113 2584 
Q 1688 2584 1439 2293 
Q 1191 2003 1191 1497 
Q 1191 994 1439 701 
Q 1688 409 2113 409 
Q 2538 409 2786 701 
Q 3034 994 3034 1497 
Q 3034 2003 2786 2293 
Q 2538 2584 2113 2584 
z
M 3366 4563 
L 3366 3988 
Q 3128 4100 2886 4159 
Q 2644 4219 2406 4219 
Q 1781 4219 1451 3797 
Q 1122 3375 1075 2522 
Q 1259 2794 1537 2939 
Q 1816 3084 2150 3084 
Q 2853 3084 3261 2657 
Q 3669 2231 3669 1497 
Q 3669 778 3244 343 
Q 2819 -91 2113 -91 
Q 1303 -91 875 529 
Q 447 1150 447 2328 
Q 447 3434 972 4092 
Q 1497 4750 2381 4750 
Q 2619 4750 2861 4703 
Q 3103 4656 3366 4563 
z
" transform="scale(0.015625)"/>
      <path id="DejaVuSans-34" d="M 2419 4116 
L 825 1625 
L 2419 1625 
L 2419 4116 
z
M 2253 4666 
L 3047 4666 
L 3047 1625 
L 3713 1625 
L 3713 1100 
L 3047 1100 
L 3047 0 
L 2419 0 
L 2419 1100 
L 313 1100 
L 313 1709 
L 2253 4666 
z
" transform="scale(0.015625)"/>
      <path id="DejaVuSans-20" transform="scale(0.015625)"/>
      <path id="DejaVuSans-d7" d="M 4488 3438 
L 3059 2003 
L 4488 575 
L 4116 197 
L 2681 1631 
L 1247 197 
L 878 575 
L 2303 2003 
L 878 3438 
L 1247 3816 
L 2681 2381 
L 4116 3816 
L 4488 3438 
z
" transform="scale(0.015625)"/>
      <path id="DejaVuSans-4b" d="M 628 4666 
L 1259 4666 
L 1259 2694 
L 3353 4666 
L 4166 4666 
L 1850 2491 
L 4331 0 
L 3500 0 
L 1259 2247 
L 1259 0 
L 628 0 
L 628 4666 
z
" transform="scale(0.015625)"/>
     </defs>
     <use xlink:href="#DejaVuSans-36"/>
     <use xlink:href="#DejaVuSans-34" transform="translate(63.623047 0)"/>
     <use xlink:href="#DejaVuSans-20" transform="translate(127.246094 0)"/>
     <use xlink:href="#DejaVuSans-d7" transform="translate(159.033203 0)"/>
     <use xlink:href="#DejaVuSans-20" transform="translate(242.822266 0)"/>
     <use xlink:href="#DejaVuSans-4b" transform="translate(274.609375 0)"/>
    </g>
   </g>
   <g id="text_5">
    <!-- B  cols 0..N/2 -->
    <g style="fill: #ffffff" transform="translate(85.71755 95.414898) scale(0.08 -0.08)">
     <defs>
      <path id="DejaVuSans-Bold-42" d="M 2456 2859 
Q 2741 2859 2887 2984 
Q 3034 3109 3034 3353 
Q 3034 3594 2887 3720 
Q 2741 3847 2456 3847 
L 1791 3847 
L 1791 2859 
L 2456 2859 
z
M 2497 819 
Q 2859 819 3042 972 
Q 3225 1125 3225 1434 
Q 3225 1738 3044 1889 
Q 2863 2041 2497 2041 
L 1791 2041 
L 1791 819 
L 2497 819 
z
M 3616 2497 
Q 4003 2384 4215 2081 
Q 4428 1778 4428 1338 
Q 4428 663 3972 331 
Q 3516 0 2584 0 
L 588 0 
L 588 4666 
L 2394 4666 
Q 3366 4666 3802 4372 
Q 4238 4078 4238 3431 
Q 4238 3091 4078 2852 
Q 3919 2613 3616 2497 
z
" transform="scale(0.015625)"/>
      <path id="DejaVuSans-Bold-2e" d="M 653 1209 
L 1778 1209 
L 1778 0 
L 653 0 
L 653 1209 
z
" transform="scale(0.015625)"/>
      <path id="DejaVuSans-Bold-2f" d="M 1644 4666 
L 2338 4666 
L 691 -594 
L 0 -594 
L 1644 4666 
z
" transform="scale(0.015625)"/>
     </defs>
     <use xlink:href="#DejaVuSans-Bold-42"/>
     <use xlink:href="#DejaVuSans-Bold-20" transform="translate(76.220703 0)"/>
     <use xlink:href="#DejaVuSans-Bold-20" transform="translate(111.035156 0)"/>
     <use xlink:href="#DejaVuSans-Bold-63" transform="translate(145.849609 0)"/>
     <use xlink:href="#DejaVuSans-Bold-6f" transform="translate(205.126953 0)"/>
     <use xlink:href="#DejaVuSans-Bold-6c" transform="translate(273.828125 0)"/>
     <use xlink:href="#DejaVuSans-Bold-73" transform="translate(308.105469 0)"/>
     <use xlink:href="#DejaVuSans-Bold-20" transform="translate(367.626953 0)"/>
     <use xlink:href="#DejaVuSans-Bold-30" transform="translate(402.441406 0)"/>
     <use xlink:href="#DejaVuSans-Bold-2e" transform="translate(472.021484 0)"/>
     <use xlink:href="#DejaVuSans-Bold-2e" transform="translate(510.009766 0)"/>
     <use xlink:href="#DejaVuSans-Bold-4e" transform="translate(547.998047 0)"/>
     <use xlink:href="#DejaVuSans-Bold-2f" transform="translate(631.689453 0)"/>
     <use xlink:href="#DejaVuSans-Bold-32" transform="translate(668.212891 0)"/>
    </g>
   </g>
   <g id="text_6">
    <!-- N/2 × K -->
    <g style="fill: #ffffff" transform="translate(103.291863 104.498243) scale(0.062 -0.062)">
     <defs>
      <path id="DejaVuSans-4e" d="M 628 4666 
L 1478 4666 
L 3547 763 
L 3547 4666 
L 4159 4666 
L 4159 0 
L 3309 0 
L 1241 3903 
L 1241 0 
L 628 0 
L 628 4666 
z
" transform="scale(0.015625)"/>
      <path id="DejaVuSans-2f" d="M 1625 4666 
L 2156 4666 
L 531 -594 
L 0 -594 
L 1625 4666 
z
" transform="scale(0.015625)"/>
      <path id="DejaVuSans-32" d="M 1228 531 
L 3431 531 
L 3431 0 
L 469 0 
L 469 531 
Q 828 903 1448 1529 
Q 2069 2156 2228 2338 
Q 2531 2678 2651 2914 
Q 2772 3150 2772 3378 
Q 2772 3750 2511 3984 
Q 2250 4219 1831 4219 
Q 1534 4219 1204 4116 
Q 875 4013 500 3803 
L 500 4441 
Q 881 4594 1212 4672 
Q 1544 4750 1819 4750 
Q 2544 4750 2975 4387 
Q 3406 4025 3406 3419 
Q 3406 3131 3298 2873 
Q 3191 2616 2906 2266 
Q 2828 2175 2409 1742 
Q 1991 1309 1228 531 
z
" transform="scale(0.015625)"/>
     </defs>
     <use xlink:href="#DejaVuSans-4e"/>
     <use xlink:href="#DejaVuSans-2f" transform="translate(74.804688 0)"/>
     <use xlink:href="#DejaVuSans-32" transform="translate(108.496094 0)"/>
     <use xlink:href="#DejaVuSans-20" transform="translate(172.119141 0)"/>
     <use xlink:href="#DejaVuSans-d7" transform="translate(203.90625 0)"/>
     <use xlink:href="#DejaVuSans-20" transform="translate(287.695312 0)"/>
     <use xlink:href="#DejaVuSans-4b" transform="translate(319.482422 0)"/>
    </g>
   </g>
   <g id="patch_14">
    <path d="M 215.435546 79.05024 
Q 245.355498 79.05024 273.262988 79.05024 
" style="fill: none; stroke: #059669; stroke-width: 1.8; stroke-linecap: round"/>
    <path d="M 269.262988 77.05024 
L 273.262988 79.05024 
L 269.262988 81.05024 
z
" style="fill: #059669; stroke: #059669; stroke-width: 1.8; stroke-linecap: round"/>
   </g>
   <g id="text_7">
    <!-- MMA -->
    <g style="fill: #059669" transform="translate(236.920494 65.015082) scale(0.07 -0.07)">
     <defs>
      <path id="DejaVuSans-4d" d="M 628 4666 
L 1569 4666 
L 2759 1491 
L 3956 4666 
L 4897 4666 
L 4897 0 
L 4281 0 
L 4281 4097 
L 3078 897 
L 2444 897 
L 1241 4097 
L 1241 0 
L 628 0 
L 628 4666 
z
" transform="scale(0.015625)"/>
      <path id="DejaVuSans-41" d="M 2188 4044 
L 1331 1722 
L 3047 1722 
L 2188 4044 
z
M 1831 4666 
L 2547 4666 
L 4325 0 
L 3669 0 
L 3244 1197 
L 1141 1197 
L 716 0 
L 50 0 
L 1831 4666 
z
" transform="scale(0.015625)"/>
     </defs>
     <use xlink:href="#DejaVuSans-4d"/>
     <use xlink:href="#DejaVuSans-4d" transform="translate(86.279297 0)"/>
     <use xlink:href="#DejaVuSans-41" transform="translate(172.558594 0)"/>
    </g>
   </g>
   <g id="text_8">
    <!-- CTA 0 — TMEM -->
    <g style="fill: #334155" transform="translate(304.2792 43.083294) scale(0.08 -0.08)">
     <use xlink:href="#DejaVuSans-Bold-43"/>
     <use xlink:href="#DejaVuSans-Bold-54" transform="translate(73.388672 0)"/>
     <use xlink:href="#DejaVuSans-Bold-41" transform="translate(133.851562 0)"/>
     <use xlink:href="#DejaVuSans-Bold-20" transform="translate(211.244141 0)"/>
     <use xlink:href="#DejaVuSans-Bold-30" transform="translate(246.058594 0)"/>
     <use xlink:href="#DejaVuSans-Bold-20" transform="translate(315.638672 0)"/>
     <use xlink:href="#DejaVuSans-Bold-2014" transform="translate(350.453125 0)"/>
     <use xlink:href="#DejaVuSans-Bold-20" transform="translate(450.453125 0)"/>
     <use xlink:href="#DejaVuSans-Bold-54" transform="translate(485.267578 0)"/>
     <use xlink:href="#DejaVuSans-Bold-4d" transform="translate(553.480469 0)"/>
     <use xlink:href="#DejaVuSans-Bold-45" transform="translate(652.992188 0)"/>
     <use xlink:href="#DejaVuSans-Bold-4d" transform="translate(721.302734 0)"/>
    </g>
   </g>
   <g id="text_9">
    <!-- C rows 0-63 -->
    <g style="fill: #ffffff" transform="translate(365.342255 56.318133) scale(0.075 -0.075)">
     <use xlink:href="#DejaVuSans-Bold-43"/>
     <use xlink:href="#DejaVuSans-Bold-20" transform="translate(73.388672 0)"/>
     <use xlink:href="#DejaVuSans-Bold-72" transform="translate(108.203125 0)"/>
     <use xlink:href="#DejaVuSans-Bold-6f" transform="translate(157.519531 0)"/>
     <use xlink:href="#DejaVuSans-Bold-77" transform="translate(226.220703 0)"/>
     <use xlink:href="#DejaVuSans-Bold-73" transform="translate(318.603516 0)"/>
     <use xlink:href="#DejaVuSans-Bold-20" transform="translate(378.125 0)"/>
     <use xlink:href="#DejaVuSans-Bold-30" transform="translate(412.939453 0)"/>
     <use xlink:href="#DejaVuSans-Bold-2d" transform="translate(482.519531 0)"/>
     <use xlink:href="#DejaVuSans-Bold-36" transform="translate(524.023438 0)"/>
     <use xlink:href="#DejaVuSans-Bold-33" transform="translate(593.603516 0)"/>
    </g>
   </g>
   <g id="text_10">
    <!-- N-low -&gt; lanes 0-63 -->
    <g style="fill: #ffffff" transform="translate(361.999763 66.199813) scale(0.057 -0.057)">
     <defs>
      <path id="DejaVuSans-2d" d="M 313 2009 
L 1997 2009 
L 1997 1497 
L 313 1497 
L 313 2009 
z
" transform="scale(0.015625)"/>
      <path id="DejaVuSans-6c" d="M 603 4863 
L 1178 4863 
L 1178 0 
L 603 0 
L 603 4863 
z
" transform="scale(0.015625)"/>
      <path id="DejaVuSans-6f" d="M 1959 3097 
Q 1497 3097 1228 2736 
Q 959 2375 959 1747 
Q 959 1119 1226 758 
Q 1494 397 1959 397 
Q 2419 397 2687 759 
Q 2956 1122 2956 1747 
Q 2956 2369 2687 2733 
Q 2419 3097 1959 3097 
z
M 1959 3584 
Q 2709 3584 3137 3096 
Q 3566 2609 3566 1747 
Q 3566 888 3137 398 
Q 2709 -91 1959 -91 
Q 1206 -91 779 398 
Q 353 888 353 1747 
Q 353 2609 779 3096 
Q 1206 3584 1959 3584 
z
" transform="scale(0.015625)"/>
      <path id="DejaVuSans-77" d="M 269 3500 
L 844 3500 
L 1563 769 
L 2278 3500 
L 2956 3500 
L 3675 769 
L 4391 3500 
L 4966 3500 
L 4050 0 
L 3372 0 
L 2619 2869 
L 1863 0 
L 1184 0 
L 269 3500 
z
" transform="scale(0.015625)"/>
      <path id="DejaVuSans-3e" d="M 678 3150 
L 678 3719 
L 4684 2266 
L 4684 1747 
L 678 294 
L 678 863 
L 3897 2003 
L 678 3150 
z
" transform="scale(0.015625)"/>
      <path id="DejaVuSans-61" d="M 2194 1759 
Q 1497 1759 1228 1600 
Q 959 1441 959 1056 
Q 959 750 1161 570 
Q 1363 391 1709 391 
Q 2188 391 2477 730 
Q 2766 1069 2766 1631 
L 2766 1759 
L 2194 1759 
z
M 3341 1997 
L 3341 0 
L 2766 0 
L 2766 531 
Q 2569 213 2275 61 
Q 1981 -91 1556 -91 
Q 1019 -91 701 211 
Q 384 513 384 1019 
Q 384 1609 779 1909 
Q 1175 2209 1959 2209 
L 2766 2209 
L 2766 2266 
Q 2766 2663 2505 2880 
Q 2244 3097 1772 3097 
Q 1472 3097 1187 3025 
Q 903 2953 641 2809 
L 641 3341 
Q 956 3463 1253 3523 
Q 1550 3584 1831 3584 
Q 2591 3584 2966 3190 
Q 3341 2797 3341 1997 
z
" transform="scale(0.015625)"/>
      <path id="DejaVuSans-6e" d="M 3513 2113 
L 3513 0 
L 2938 0 
L 2938 2094 
Q 2938 2591 2744 2837 
Q 2550 3084 2163 3084 
Q 1697 3084 1428 2787 
Q 1159 2491 1159 1978 
L 1159 0 
L 581 0 
L 581 3500 
L 1159 3500 
L 1159 2956 
Q 1366 3272 1645 3428 
Q 1925 3584 2291 3584 
Q 2894 3584 3203 3211 
Q 3513 2838 3513 2113 
z
" transform="scale(0.015625)"/>
      <path id="DejaVuSans-65" d="M 3597 1894 
L 3597 1613 
L 953 1613 
Q 991 1019 1311 708 
Q 1631 397 2203 397 
Q 2534 397 2845 478 
Q 3156 559 3463 722 
L 3463 178 
Q 3153 47 2828 -22 
Q 2503 -91 2169 -91 
Q 1331 -91 842 396 
Q 353 884 353 1716 
Q 353 2575 817 3079 
Q 1281 3584 2069 3584 
Q 2775 3584 3186 3129 
Q 3597 2675 3597 1894 
z
M 3022 2063 
Q 3016 2534 2758 2815 
Q 2500 3097 2075 3097 
Q 1594 3097 1305 2825 
Q 1016 2553 972 2059 
L 3022 2063 
z
" transform="scale(0.015625)"/>
      <path id="DejaVuSans-73" d="M 2834 3397 
L 2834 2853 
Q 2591 2978 2328 3040 
Q 2066 3103 1784 3103 
Q 1356 3103 1142 2972 
Q 928 2841 928 2578 
Q 928 2378 1081 2264 
Q 1234 2150 1697 2047 
L 1894 2003 
Q 2506 1872 2764 1633 
Q 3022 1394 3022 966 
Q 3022 478 2636 193 
Q 2250 -91 1575 -91 
Q 1294 -91 989 -36 
Q 684 19 347 128 
L 347 722 
Q 666 556 975 473 
Q 1284 391 1588 391 
Q 1994 391 2212 530 
Q 2431 669 2431 922 
Q 2431 1156 2273 1281 
Q 2116 1406 1581 1522 
L 1381 1569 
Q 847 1681 609 1914 
Q 372 2147 372 2553 
Q 372 3047 722 3315 
Q 1072 3584 1716 3584 
Q 2034 3584 2315 3537 
Q 2597 3491 2834 3397 
z
" transform="scale(0.015625)"/>
      <path id="DejaVuSans-30" d="M 2034 4250 
Q 1547 4250 1301 3770 
Q 1056 3291 1056 2328 
Q 1056 1369 1301 889 
Q 1547 409 2034 409 
Q 2525 409 2770 889 
Q 3016 1369 3016 2328 
Q 3016 3291 2770 3770 
Q 2525 4250 2034 4250 
z
M 2034 4750 
Q 2819 4750 3233 4129 
Q 3647 3509 3647 2328 
Q 3647 1150 3233 529 
Q 2819 -91 2034 -91 
Q 1250 -91 836 529 
Q 422 1150 422 2328 
Q 422 3509 836 4129 
Q 1250 4750 2034 4750 
z
" transform="scale(0.015625)"/>
      <path id="DejaVuSans-33" d="M 2597 2516 
Q 3050 2419 3304 2112 
Q 3559 1806 3559 1356 
Q 3559 666 3084 287 
Q 2609 -91 1734 -91 
Q 1441 -91 1130 -33 
Q 819 25 488 141 
L 488 750 
Q 750 597 1062 519 
Q 1375 441 1716 441 
Q 2309 441 2620 675 
Q 2931 909 2931 1356 
Q 2931 1769 2642 2001 
Q 2353 2234 1838 2234 
L 1294 2234 
L 1294 2753 
L 1863 2753 
Q 2328 2753 2575 2939 
Q 2822 3125 2822 3475 
Q 2822 3834 2567 4026 
Q 2313 4219 1838 4219 
Q 1578 4219 1281 4162 
Q 984 4106 628 3988 
L 628 4550 
Q 988 4650 1302 4700 
Q 1616 4750 1894 4750 
Q 2613 4750 3031 4423 
Q 3450 4097 3450 3541 
Q 3450 3153 3228 2886 
Q 3006 2619 2597 2516 
z
" transform="scale(0.015625)"/>
     </defs>
     <use xlink:href="#DejaVuSans-4e"/>
     <use xlink:href="#DejaVuSans-2d" transform="translate(74.804688 0)"/>
     <use xlink:href="#DejaVuSans-6c" transform="translate(110.888672 0)"/>
     <use xlink:href="#DejaVuSans-6f" transform="translate(138.671875 0)"/>
     <use xlink:href="#DejaVuSans-77" transform="translate(199.853516 0)"/>
     <use xlink:href="#DejaVuSans-20" transform="translate(281.640625 0)"/>
     <use xlink:href="#DejaVuSans-2d" transform="translate(313.427734 0)"/>
     <use xlink:href="#DejaVuSans-3e" transform="translate(349.511719 0)"/>
     <use xlink:href="#DejaVuSans-20" transform="translate(433.300781 0)"/>
     <use xlink:href="#DejaVuSans-6c" transform="translate(465.087891 0)"/>
     <use xlink:href="#DejaVuSans-61" transform="translate(492.871094 0)"/>
     <use xlink:href="#DejaVuSans-6e" transform="translate(554.150391 0)"/>
     <use xlink:href="#DejaVuSans-65" transform="translate(617.529297 0)"/>
     <use xlink:href="#DejaVuSans-73" transform="translate(679.052734 0)"/>
     <use xlink:href="#DejaVuSans-20" transform="translate(731.152344 0)"/>
     <use xlink:href="#DejaVuSans-30" transform="translate(762.939453 0)"/>
     <use xlink:href="#DejaVuSans-2d" transform="translate(826.5625 0)"/>
     <use xlink:href="#DejaVuSans-36" transform="translate(862.646484 0)"/>
     <use xlink:href="#DejaVuSans-33" transform="translate(926.269531 0)"/>
    </g>
   </g>
   <g id="text_11">
    <!-- rows 0-63 -->
    <g style="fill: #ffffff" transform="translate(369.399872 95.27693) scale(0.075 -0.075)">
     <use xlink:href="#DejaVuSans-Bold-72"/>
     <use xlink:href="#DejaVuSans-Bold-6f" transform="translate(49.316406 0)"/>
     <use xlink:href="#DejaVuSans-Bold-77" transform="translate(118.017578 0)"/>
     <use xlink:href="#DejaVuSans-Bold-73" transform="translate(210.400391 0)"/>
     <use xlink:href="#DejaVuSans-Bold-20" transform="translate(269.921875 0)"/>
     <use xlink:href="#DejaVuSans-Bold-30" transform="translate(304.736328 0)"/>
     <use xlink:href="#DejaVuSans-Bold-2d" transform="translate(374.316406 0)"/>
     <use xlink:href="#DejaVuSans-Bold-36" transform="translate(415.820312 0)"/>
     <use xlink:href="#DejaVuSans-Bold-33" transform="translate(485.400391 0)"/>
    </g>
   </g>
   <g id="text_12">
    <!-- N-high -&gt; lanes 64-127 -->
    <g style="fill: #ffffff" transform="translate(357.026067 104.360274) scale(0.057 -0.057)">
     <defs>
      <path id="DejaVuSans-68" d="M 3513 2113 
L 3513 0 
L 2938 0 
L 2938 2094 
Q 2938 2591 2744 2837 
Q 2550 3084 2163 3084 
Q 1697 3084 1428 2787 
Q 1159 2491 1159 1978 
L 1159 0 
L 581 0 
L 581 4863 
L 1159 4863 
L 1159 2956 
Q 1366 3272 1645 3428 
Q 1925 3584 2291 3584 
Q 2894 3584 3203 3211 
Q 3513 2838 3513 2113 
z
" transform="scale(0.015625)"/>
      <path id="DejaVuSans-69" d="M 603 3500 
L 1178 3500 
L 1178 0 
L 603 0 
L 603 3500 
z
M 603 4863 
L 1178 4863 
L 1178 4134 
L 603 4134 
L 603 4863 
z
" transform="scale(0.015625)"/>
      <path id="DejaVuSans-67" d="M 2906 1791 
Q 2906 2416 2648 2759 
Q 2391 3103 1925 3103 
Q 1463 3103 1205 2759 
Q 947 2416 947 1791 
Q 947 1169 1205 825 
Q 1463 481 1925 481 
Q 2391 481 2648 825 
Q 2906 1169 2906 1791 
z
M 3481 434 
Q 3481 -459 3084 -895 
Q 2688 -1331 1869 -1331 
Q 1566 -1331 1297 -1286 
Q 1028 -1241 775 -1147 
L 775 -588 
Q 1028 -725 1275 -790 
Q 1522 -856 1778 -856 
Q 2344 -856 2625 -561 
Q 2906 -266 2906 331 
L 2906 616 
Q 2728 306 2450 153 
Q 2172 0 1784 0 
Q 1141 0 747 490 
Q 353 981 353 1791 
Q 353 2603 747 3093 
Q 1141 3584 1784 3584 
Q 2172 3584 2450 3431 
Q 2728 3278 2906 2969 
L 2906 3500 
L 3481 3500 
L 3481 434 
z
" transform="scale(0.015625)"/>
      <path id="DejaVuSans-31" d="M 794 531 
L 1825 531 
L 1825 4091 
L 703 3866 
L 703 4441 
L 1819 4666 
L 2450 4666 
L 2450 531 
L 3481 531 
L 3481 0 
L 794 0 
L 794 531 
z
" transform="scale(0.015625)"/>
      <path id="DejaVuSans-37" d="M 525 4666 
L 3525 4666 
L 3525 4397 
L 1831 0 
L 1172 0 
L 2766 4134 
L 525 4134 
L 525 4666 
z
" transform="scale(0.015625)"/>
     </defs>
     <use xlink:href="#DejaVuSans-4e"/>
     <use xlink:href="#DejaVuSans-2d" transform="translate(74.804688 0)"/>
     <use xlink:href="#DejaVuSans-68" transform="translate(110.888672 0)"/>
     <use xlink:href="#DejaVuSans-69" transform="translate(174.267578 0)"/>
     <use xlink:href="#DejaVuSans-67" transform="translate(202.050781 0)"/>
     <use xlink:href="#DejaVuSans-68" transform="translate(265.527344 0)"/>
     <use xlink:href="#DejaVuSans-20" transform="translate(328.90625 0)"/>
     <use xlink:href="#DejaVuSans-2d" transform="translate(360.693359 0)"/>
     <use xlink:href="#DejaVuSans-3e" transform="translate(396.777344 0)"/>
     <use xlink:href="#DejaVuSans-20" transform="translate(480.566406 0)"/>
     <use xlink:href="#DejaVuSans-6c" transform="translate(512.353516 0)"/>
     <use xlink:href="#DejaVuSans-61" transform="translate(540.136719 0)"/>
     <use xlink:href="#DejaVuSans-6e" transform="translate(601.416016 0)"/>
     <use xlink:href="#DejaVuSans-65" transform="translate(664.794922 0)"/>
     <use xlink:href="#DejaVuSans-73" transform="translate(726.318359 0)"/>
     <use xlink:href="#DejaVuSans-20" transform="translate(778.417969 0)"/>
     <use xlink:href="#DejaVuSans-36" transform="translate(810.205078 0)"/>
     <use xlink:href="#DejaVuSans-34" transform="translate(873.828125 0)"/>
     <use xlink:href="#DejaVuSans-2d" transform="translate(937.451172 0)"/>
     <use xlink:href="#DejaVuSans-31" transform="translate(973.535156 0)"/>
     <use xlink:href="#DejaVuSans-32" transform="translate(1037.158203 0)"/>
     <use xlink:href="#DejaVuSans-37" transform="translate(1100.78125 0)"/>
    </g>
   </g>
   <g id="text_13">
    <!-- CTA 1 — SMEM -->
    <g style="fill: #334155" transform="translate(29.2968 165.494814) scale(0.08 -0.08)">
     <use xlink:href="#DejaVuSans-Bold-43"/>
     <use xlink:href="#DejaVuSans-Bold-54" transform="translate(73.388672 0)"/>
     <use xlink:href="#DejaVuSans-Bold-41" transform="translate(133.851562 0)"/>
     <use xlink:href="#DejaVuSans-Bold-20" transform="translate(211.244141 0)"/>
     <use xlink:href="#DejaVuSans-Bold-31" transform="translate(246.058594 0)"/>
     <use xlink:href="#DejaVuSans-Bold-20" transform="translate(315.638672 0)"/>
     <use xlink:href="#DejaVuSans-Bold-2014" transform="translate(350.453125 0)"/>
     <use xlink:href="#DejaVuSans-Bold-20" transform="translate(450.453125 0)"/>
     <use xlink:href="#DejaVuSans-Bold-53" transform="translate(485.267578 0)"/>
     <use xlink:href="#DejaVuSans-Bold-4d" transform="translate(557.289062 0)"/>
     <use xlink:href="#DejaVuSans-Bold-45" transform="translate(656.800781 0)"/>
     <use xlink:href="#DejaVuSans-Bold-4d" transform="translate(725.111328 0)"/>
    </g>
   </g>
   <g id="text_14">
    <!-- A  rows 64-127 -->
    <g style="fill: #ffffff" transform="translate(81.583175 178.867622) scale(0.08 -0.08)">
     <defs>
      <path id="DejaVuSans-Bold-34" d="M 2356 3675 
L 1038 1722 
L 2356 1722 
L 2356 3675 
z
M 2156 4666 
L 3494 4666 
L 3494 1722 
L 4159 1722 
L 4159 850 
L 3494 850 
L 3494 0 
L 2356 0 
L 2356 850 
L 288 850 
L 288 1881 
L 2156 4666 
z
" transform="scale(0.015625)"/>
      <path id="DejaVuSans-Bold-37" d="M 428 4666 
L 3944 4666 
L 3944 3988 
L 2125 0 
L 953 0 
L 2675 3781 
L 428 3781 
L 428 4666 
z
" transform="scale(0.015625)"/>
     </defs>
     <use xlink:href="#DejaVuSans-Bold-41"/>
     <use xlink:href="#DejaVuSans-Bold-20" transform="translate(77.392578 0)"/>
     <use xlink:href="#DejaVuSans-Bold-20" transform="translate(112.207031 0)"/>
     <use xlink:href="#DejaVuSans-Bold-72" transform="translate(147.021484 0)"/>
     <use xlink:href="#DejaVuSans-Bold-6f" transform="translate(196.337891 0)"/>
     <use xlink:href="#DejaVuSans-Bold-77" transform="translate(265.039062 0)"/>
     <use xlink:href="#DejaVuSans-Bold-73" transform="translate(357.421875 0)"/>
     <use xlink:href="#DejaVuSans-Bold-20" transform="translate(416.943359 0)"/>
     <use xlink:href="#DejaVuSans-Bold-36" transform="translate(451.757812 0)"/>
     <use xlink:href="#DejaVuSans-Bold-34" transform="translate(521.337891 0)"/>
     <use xlink:href="#DejaVuSans-Bold-2d" transform="translate(590.917969 0)"/>
     <use xlink:href="#DejaVuSans-Bold-31" transform="translate(632.421875 0)"/>
     <use xlink:href="#DejaVuSans-Bold-32" transform="translate(702.001953 0)"/>
     <use xlink:href="#DejaVuSans-Bold-37" transform="translate(771.582031 0)"/>
    </g>
   </g>
   <g id="text_15">
    <!-- 64 × K -->
    <g style="fill: #ffffff" transform="translate(104.682988 188.749302) scale(0.062 -0.062)">
     <use xlink:href="#DejaVuSans-36"/>
     <use xlink:href="#DejaVuSans-34" transform="translate(63.623047 0)"/>
     <use xlink:href="#DejaVuSans-20" transform="translate(127.246094 0)"/>
     <use xlink:href="#DejaVuSans-d7" transform="translate(159.033203 0)"/>
     <use xlink:href="#DejaVuSans-20" transform="translate(242.822266 0)"/>
     <use xlink:href="#DejaVuSans-4b" transform="translate(274.609375 0)"/>
    </g>
   </g>
   <g id="text_16">
    <!-- B  cols N/2..N -->
    <g style="fill: #ffffff" transform="translate(85.153175 217.826418) scale(0.08 -0.08)">
     <use xlink:href="#DejaVuSans-Bold-42"/>
     <use xlink:href="#DejaVuSans-Bold-20" transform="translate(76.220703 0)"/>
     <use xlink:href="#DejaVuSans-Bold-20" transform="translate(111.035156 0)"/>
     <use xlink:href="#DejaVuSans-Bold-63" transform="translate(145.849609 0)"/>
     <use xlink:href="#DejaVuSans-Bold-6f" transform="translate(205.126953 0)"/>
     <use xlink:href="#DejaVuSans-Bold-6c" transform="translate(273.828125 0)"/>
     <use xlink:href="#DejaVuSans-Bold-73" transform="translate(308.105469 0)"/>
     <use xlink:href="#DejaVuSans-Bold-20" transform="translate(367.626953 0)"/>
     <use xlink:href="#DejaVuSans-Bold-4e" transform="translate(402.441406 0)"/>
     <use xlink:href="#DejaVuSans-Bold-2f" transform="translate(486.132812 0)"/>
     <use xlink:href="#DejaVuSans-Bold-32" transform="translate(522.65625 0)"/>
     <use xlink:href="#DejaVuSans-Bold-2e" transform="translate(592.236328 0)"/>
     <use xlink:href="#DejaVuSans-Bold-2e" transform="translate(630.224609 0)"/>
     <use xlink:href="#DejaVuSans-Bold-4e" transform="translate(668.212891 0)"/>
    </g>
   </g>
   <g id="text_17">
    <!-- N/2 × K -->
    <g style="fill: #ffffff" transform="translate(103.291863 226.909763) scale(0.062 -0.062)">
     <use xlink:href="#DejaVuSans-4e"/>
     <use xlink:href="#DejaVuSans-2f" transform="translate(74.804688 0)"/>
     <use xlink:href="#DejaVuSans-32" transform="translate(108.496094 0)"/>
     <use xlink:href="#DejaVuSans-20" transform="translate(172.119141 0)"/>
     <use xlink:href="#DejaVuSans-d7" transform="translate(203.90625 0)"/>
     <use xlink:href="#DejaVuSans-20" transform="translate(287.695312 0)"/>
     <use xlink:href="#DejaVuSans-4b" transform="translate(319.482422 0)"/>
    </g>
   </g>
   <g id="patch_15">
    <path d="M 215.435546 201.46176 
Q 245.355498 201.46176 273.262988 201.46176 
" style="fill: none; stroke: #059669; stroke-width: 1.8; stroke-linecap: round"/>
    <path d="M 269.262988 199.46176 
L 273.262988 201.46176 
L 269.262988 203.46176 
z
" style="fill: #059669; stroke: #059669; stroke-width: 1.8; stroke-linecap: round"/>
   </g>
   <g id="text_18">
    <!-- MMA -->
    <g style="fill: #059669" transform="translate(236.920494 187.426602) scale(0.07 -0.07)">
     <use xlink:href="#DejaVuSans-4d"/>
     <use xlink:href="#DejaVuSans-4d" transform="translate(86.279297 0)"/>
     <use xlink:href="#DejaVuSans-41" transform="translate(172.558594 0)"/>
    </g>
   </g>
   <g id="text_19">
    <!-- CTA 1 — TMEM -->
    <g style="fill: #334155" transform="translate(304.2792 165.494814) scale(0.08 -0.08)">
     <use xlink:href="#DejaVuSans-Bold-43"/>
     <use xlink:href="#DejaVuSans-Bold-54" transform="translate(73.388672 0)"/>
     <use xlink:href="#DejaVuSans-Bold-41" transform="translate(133.851562 0)"/>
     <use xlink:href="#DejaVuSans-Bold-20" transform="translate(211.244141 0)"/>
     <use xlink:href="#DejaVuSans-Bold-31" transform="translate(246.058594 0)"/>
     <use xlink:href="#DejaVuSans-Bold-20" transform="translate(315.638672 0)"/>
     <use xlink:href="#DejaVuSans-Bold-2014" transform="translate(350.453125 0)"/>
     <use xlink:href="#DejaVuSans-Bold-20" transform="translate(450.453125 0)"/>
     <use xlink:href="#DejaVuSans-Bold-54" transform="translate(485.267578 0)"/>
     <use xlink:href="#DejaVuSans-Bold-4d" transform="translate(553.480469 0)"/>
     <use xlink:href="#DejaVuSans-Bold-45" transform="translate(652.992188 0)"/>
     <use xlink:href="#DejaVuSans-Bold-4d" transform="translate(721.302734 0)"/>
    </g>
   </g>
   <g id="text_20">
    <!-- C rows 64-127 -->
    <g style="fill: #ffffff" transform="translate(360.123895 178.729653) scale(0.075 -0.075)">
     <use xlink:href="#DejaVuSans-Bold-43"/>
     <use xlink:href="#DejaVuSans-Bold-20" transform="translate(73.388672 0)"/>
     <use xlink:href="#DejaVuSans-Bold-72" transform="translate(108.203125 0)"/>
     <use xlink:href="#DejaVuSans-Bold-6f" transform="translate(157.519531 0)"/>
     <use xlink:href="#DejaVuSans-Bold-77" transform="translate(226.220703 0)"/>
     <use xlink:href="#DejaVuSans-Bold-73" transform="translate(318.603516 0)"/>
     <use xlink:href="#DejaVuSans-Bold-20" transform="translate(378.125 0)"/>
     <use xlink:href="#DejaVuSans-Bold-36" transform="translate(412.939453 0)"/>
     <use xlink:href="#DejaVuSans-Bold-34" transform="translate(482.519531 0)"/>
     <use xlink:href="#DejaVuSans-Bold-2d" transform="translate(552.099609 0)"/>
     <use xlink:href="#DejaVuSans-Bold-31" transform="translate(593.603516 0)"/>
     <use xlink:href="#DejaVuSans-Bold-32" transform="translate(663.183594 0)"/>
     <use xlink:href="#DejaVuSans-Bold-37" transform="translate(732.763672 0)"/>
    </g>
   </g>
   <g id="text_21">
    <!-- N-low -&gt; lanes 0-63 -->
    <g style="fill: #ffffff" transform="translate(361.999763 188.611333) scale(0.057 -0.057)">
     <use xlink:href="#DejaVuSans-4e"/>
     <use xlink:href="#DejaVuSans-2d" transform="translate(74.804688 0)"/>
     <use xlink:href="#DejaVuSans-6c" transform="translate(110.888672 0)"/>
     <use xlink:href="#DejaVuSans-6f" transform="translate(138.671875 0)"/>
     <use xlink:href="#DejaVuSans-77" transform="translate(199.853516 0)"/>
     <use xlink:href="#DejaVuSans-20" transform="translate(281.640625 0)"/>
     <use xlink:href="#DejaVuSans-2d" transform="translate(313.427734 0)"/>
     <use xlink:href="#DejaVuSans-3e" transform="translate(349.511719 0)"/>
     <use xlink:href="#DejaVuSans-20" transform="translate(433.300781 0)"/>
     <use xlink:href="#DejaVuSans-6c" transform="translate(465.087891 0)"/>
     <use xlink:href="#DejaVuSans-61" transform="translate(492.871094 0)"/>
     <use xlink:href="#DejaVuSans-6e" transform="translate(554.150391 0)"/>
     <use xlink:href="#DejaVuSans-65" transform="translate(617.529297 0)"/>
     <use xlink:href="#DejaVuSans-73" transform="translate(679.052734 0)"/>
     <use xlink:href="#DejaVuSans-20" transform="translate(731.152344 0)"/>
     <use xlink:href="#DejaVuSans-30" transform="translate(762.939453 0)"/>
     <use xlink:href="#DejaVuSans-2d" transform="translate(826.5625 0)"/>
     <use xlink:href="#DejaVuSans-36" transform="translate(862.646484 0)"/>
     <use xlink:href="#DejaVuSans-33" transform="translate(926.269531 0)"/>
    </g>
   </g>
   <g id="text_22">
    <!-- rows 64-127 -->
    <g style="fill: #ffffff" transform="translate(364.181512 217.68845) scale(0.075 -0.075)">
     <use xlink:href="#DejaVuSans-Bold-72"/>
     <use xlink:href="#DejaVuSans-Bold-6f" transform="translate(49.316406 0)"/>
     <use xlink:href="#DejaVuSans-Bold-77" transform="translate(118.017578 0)"/>
     <use xlink:href="#DejaVuSans-Bold-73" transform="translate(210.400391 0)"/>
     <use xlink:href="#DejaVuSans-Bold-20" transform="translate(269.921875 0)"/>
     <use xlink:href="#DejaVuSans-Bold-36" transform="translate(304.736328 0)"/>
     <use xlink:href="#DejaVuSans-Bold-34" transform="translate(374.316406 0)"/>
     <use xlink:href="#DejaVuSans-Bold-2d" transform="translate(443.896484 0)"/>
     <use xlink:href="#DejaVuSans-Bold-31" transform="translate(485.400391 0)"/>
     <use xlink:href="#DejaVuSans-Bold-32" transform="translate(554.980469 0)"/>
     <use xlink:href="#DejaVuSans-Bold-37" transform="translate(624.560547 0)"/>
    </g>
   </g>
   <g id="text_23">
    <!-- N-high -&gt; lanes 64-127 -->
    <g style="fill: #ffffff" transform="translate(357.026067 226.771794) scale(0.057 -0.057)">
     <use xlink:href="#DejaVuSans-4e"/>
     <use xlink:href="#DejaVuSans-2d" transform="translate(74.804688 0)"/>
     <use xlink:href="#DejaVuSans-68" transform="translate(110.888672 0)"/>
     <use xlink:href="#DejaVuSans-69" transform="translate(174.267578 0)"/>
     <use xlink:href="#DejaVuSans-67" transform="translate(202.050781 0)"/>
     <use xlink:href="#DejaVuSans-68" transform="translate(265.527344 0)"/>
     <use xlink:href="#DejaVuSans-20" transform="translate(328.90625 0)"/>
     <use xlink:href="#DejaVuSans-2d" transform="translate(360.693359 0)"/>
     <use xlink:href="#DejaVuSans-3e" transform="translate(396.777344 0)"/>
     <use xlink:href="#DejaVuSans-20" transform="translate(480.566406 0)"/>
     <use xlink:href="#DejaVuSans-6c" transform="translate(512.353516 0)"/>
     <use xlink:href="#DejaVuSans-61" transform="translate(540.136719 0)"/>
     <use xlink:href="#DejaVuSans-6e" transform="translate(601.416016 0)"/>
     <use xlink:href="#DejaVuSans-65" transform="translate(664.794922 0)"/>
     <use xlink:href="#DejaVuSans-73" transform="translate(726.318359 0)"/>
     <use xlink:href="#DejaVuSans-20" transform="translate(778.417969 0)"/>
     <use xlink:href="#DejaVuSans-36" transform="translate(810.205078 0)"/>
     <use xlink:href="#DejaVuSans-34" transform="translate(873.828125 0)"/>
     <use xlink:href="#DejaVuSans-2d" transform="translate(937.451172 0)"/>
     <use xlink:href="#DejaVuSans-31" transform="translate(973.535156 0)"/>
     <use xlink:href="#DejaVuSans-32" transform="translate(1037.158203 0)"/>
     <use xlink:href="#DejaVuSans-37" transform="translate(1100.78125 0)"/>
    </g>
   </g>
   <g id="text_24">
    <!-- each CTA: 64 rows, N split -&gt; low half in lanes 0-63, -->
    <g style="fill: #334155" transform="translate(164.622813 138.325119) scale(0.068 -0.068)">
     <defs>
      <path id="DejaVuSans-Oblique-65" d="M 3078 2063 
Q 3088 2113 3092 2166 
Q 3097 2219 3097 2272 
Q 3097 2653 2873 2875 
Q 2650 3097 2266 3097 
Q 1838 3097 1509 2826 
Q 1181 2556 1013 2059 
L 3078 2063 
z
M 3578 1613 
L 903 1613 
Q 884 1494 878 1425 
Q 872 1356 872 1306 
Q 872 872 1139 634 
Q 1406 397 1894 397 
Q 2269 397 2603 481 
Q 2938 566 3225 728 
L 3116 159 
Q 2806 34 2476 -28 
Q 2147 -91 1806 -91 
Q 1078 -91 686 257 
Q 294 606 294 1247 
Q 294 1794 489 2264 
Q 684 2734 1063 3103 
Q 1306 3334 1642 3459 
Q 1978 3584 2356 3584 
Q 2950 3584 3301 3228 
Q 3653 2872 3653 2272 
Q 3653 2128 3634 1964 
Q 3616 1800 3578 1613 
z
" transform="scale(0.015625)"/>
      <path id="DejaVuSans-Oblique-61" d="M 3438 1997 
L 3047 0 
L 2472 0 
L 2578 531 
Q 2325 219 2001 64 
Q 1678 -91 1281 -91 
Q 834 -91 548 182 
Q 263 456 263 884 
Q 263 1497 752 1853 
Q 1241 2209 2100 2209 
L 2900 2209 
L 2931 2363 
Q 2938 2388 2941 2417 
Q 2944 2447 2944 2509 
Q 2944 2788 2717 2942 
Q 2491 3097 2081 3097 
Q 1800 3097 1504 3025 
Q 1209 2953 897 2809 
L 997 3341 
Q 1322 3463 1633 3523 
Q 1944 3584 2234 3584 
Q 2853 3584 3176 3315 
Q 3500 3047 3500 2534 
Q 3500 2431 3484 2292 
Q 3469 2153 3438 1997 
z
M 2816 1759 
L 2241 1759 
Q 1534 1759 1195 1570 
Q 856 1381 856 984 
Q 856 709 1029 553 
Q 1203 397 1509 397 
Q 1978 397 2328 733 
Q 2678 1069 2791 1631 
L 2816 1759 
z
" transform="scale(0.015625)"/>
      <path id="DejaVuSans-Oblique-63" d="M 3431 3366 
L 3316 2797 
Q 3109 2947 2876 3022 
Q 2644 3097 2394 3097 
Q 2119 3097 1870 3000 
Q 1622 2903 1453 2725 
Q 1184 2453 1037 2087 
Q 891 1722 891 1331 
Q 891 859 1127 628 
Q 1363 397 1844 397 
Q 2081 397 2348 469 
Q 2616 541 2906 684 
L 2797 116 
Q 2547 13 2283 -39 
Q 2019 -91 1741 -91 
Q 1044 -91 669 257 
Q 294 606 294 1253 
Q 294 1797 489 2255 
Q 684 2713 1069 3078 
Q 1331 3328 1684 3456 
Q 2038 3584 2456 3584 
Q 2700 3584 2940 3529 
Q 3181 3475 3431 3366 
z
" transform="scale(0.015625)"/>
      <path id="DejaVuSans-Oblique-68" d="M 3566 2113 
L 3156 0 
L 2578 0 
L 2988 2091 
Q 3016 2238 3031 2350 
Q 3047 2463 3047 2528 
Q 3047 2791 2881 2937 
Q 2716 3084 2419 3084 
Q 1956 3084 1617 2771 
Q 1278 2459 1178 1941 
L 800 0 
L 225 0 
L 1172 4863 
L 1747 4863 
L 1375 2950 
Q 1594 3244 1934 3414 
Q 2275 3584 2650 3584 
Q 3113 3584 3367 3334 
Q 3622 3084 3622 2631 
Q 3622 2519 3608 2391 
Q 3594 2263 3566 2113 
z
" transform="scale(0.015625)"/>
      <path id="DejaVuSans-Oblique-20" transform="scale(0.015625)"/>
      <path id="DejaVuSans-Oblique-43" d="M 4447 4306 
L 4319 3641 
Q 4019 3944 3683 4091 
Q 3347 4238 2956 4238 
Q 2422 4238 2017 3981 
Q 1613 3725 1319 3200 
Q 1131 2863 1032 2486 
Q 934 2109 934 1728 
Q 934 1091 1264 756 
Q 1594 422 2222 422 
Q 2656 422 3056 561 
Q 3456 700 3834 978 
L 3688 231 
Q 3316 72 2936 -9 
Q 2556 -91 2175 -91 
Q 1278 -91 773 396 
Q 269 884 269 1753 
Q 269 2309 461 2846 
Q 653 3384 1013 3828 
Q 1394 4300 1883 4525 
Q 2372 4750 3022 4750 
Q 3422 4750 3780 4639 
Q 4138 4528 4447 4306 
z
" transform="scale(0.015625)"/>
      <path id="DejaVuSans-Oblique-54" d="M 378 4666 
L 4325 4666 
L 4225 4134 
L 2559 4134 
L 1759 0 
L 1125 0 
L 1925 4134 
L 275 4134 
L 378 4666 
z
" transform="scale(0.015625)"/>
      <path id="DejaVuSans-Oblique-41" d="M 2356 4666 
L 3072 4666 
L 3938 0 
L 3278 0 
L 3084 1197 
L 984 1197 
L 325 0 
L -341 0 
L 2356 4666 
z
M 2584 4044 
L 1275 1722 
L 2988 1722 
L 2584 4044 
z
" transform="scale(0.015625)"/>
      <path id="DejaVuSans-Oblique-3a" d="M 978 3309 
L 1638 3309 
L 1484 2516 
L 825 2516 
L 978 3309 
z
M 488 794 
L 1147 794 
L 991 0 
L 331 0 
L 488 794 
z
" transform="scale(0.015625)"/>
      <path id="DejaVuSans-Oblique-36" d="M 2938 1728 
Q 2938 2125 2734 2354 
Q 2531 2584 2181 2584 
Q 1697 2584 1367 2211 
Q 1038 1838 1038 1288 
Q 1038 875 1239 642 
Q 1441 409 1797 409 
Q 2284 409 2611 792 
Q 2938 1175 2938 1728 
z
M 3788 4556 
L 3681 3981 
Q 3500 4100 3265 4162 
Q 3031 4225 2766 4225 
Q 2119 4225 1726 3819 
Q 1334 3413 1141 2547 
Q 1369 2813 1670 2948 
Q 1972 3084 2322 3084 
Q 2894 3084 3233 2754 
Q 3572 2425 3572 1869 
Q 3572 1413 3405 1020 
Q 3238 628 2919 331 
Q 2700 128 2409 18 
Q 2119 -91 1791 -91 
Q 1147 -91 775 318 
Q 403 728 403 1441 
Q 403 2103 573 2717 
Q 744 3331 1050 3781 
Q 1372 4256 1830 4503 
Q 2288 4750 2841 4750 
Q 3084 4750 3321 4701 
Q 3559 4653 3788 4556 
z
" transform="scale(0.015625)"/>
      <path id="DejaVuSans-Oblique-34" d="M 2753 4666 
L 3547 4666 
L 2950 1625 
L 3616 1625 
L 3513 1100 
L 2847 1100 
L 2638 0 
L 2009 0 
L 2222 1100 
L 116 1100 
L 238 1709 
L 2753 4666 
z
M 2809 4116 
L 728 1625 
L 2322 1625 
L 2809 4116 
z
" transform="scale(0.015625)"/>
      <path id="DejaVuSans-Oblique-72" d="M 2853 2969 
Q 2766 3016 2653 3041 
Q 2541 3066 2413 3066 
Q 1953 3066 1609 2717 
Q 1266 2369 1153 1784 
L 800 0 
L 225 0 
L 909 3500 
L 1484 3500 
L 1375 2956 
Q 1603 3259 1920 3421 
Q 2238 3584 2597 3584 
Q 2691 3584 2781 3573 
Q 2872 3563 2963 3538 
L 2853 2969 
z
" transform="scale(0.015625)"/>
      <path id="DejaVuSans-Oblique-6f" d="M 1625 -91 
Q 1009 -91 651 289 
Q 294 669 294 1325 
Q 294 1706 417 2101 
Q 541 2497 738 2766 
Q 1047 3184 1428 3384 
Q 1809 3584 2291 3584 
Q 2888 3584 3255 3212 
Q 3622 2841 3622 2241 
Q 3622 1825 3500 1412 
Q 3378 1000 3181 728 
Q 2875 309 2494 109 
Q 2113 -91 1625 -91 
z
M 891 1344 
Q 891 869 1089 633 
Q 1288 397 1691 397 
Q 2269 397 2648 901 
Q 3028 1406 3028 2181 
Q 3028 2634 2825 2865 
Q 2622 3097 2228 3097 
Q 1903 3097 1650 2945 
Q 1397 2794 1197 2484 
Q 1050 2253 970 1956 
Q 891 1659 891 1344 
z
" transform="scale(0.015625)"/>
      <path id="DejaVuSans-Oblique-77" d="M 544 3500 
L 1113 3500 
L 1259 684 
L 2566 3500 
L 3231 3500 
L 3425 684 
L 4666 3500 
L 5241 3500 
L 3641 0 
L 2969 0 
L 2797 2900 
L 1459 0 
L 781 0 
L 544 3500 
z
" transform="scale(0.015625)"/>
      <path id="DejaVuSans-Oblique-73" d="M 3200 3397 
L 3091 2853 
Q 2863 2978 2609 3040 
Q 2356 3103 2088 3103 
Q 1634 3103 1373 2948 
Q 1113 2794 1113 2528 
Q 1113 2219 1719 2053 
Q 1766 2041 1788 2034 
L 1972 1978 
Q 2547 1819 2739 1644 
Q 2931 1469 2931 1166 
Q 2931 609 2489 259 
Q 2047 -91 1331 -91 
Q 1053 -91 747 -37 
Q 441 16 72 128 
L 184 722 
Q 500 559 806 475 
Q 1113 391 1394 391 
Q 1816 391 2080 572 
Q 2344 753 2344 1031 
Q 2344 1331 1650 1516 
L 1591 1531 
L 1394 1581 
Q 956 1697 753 1886 
Q 550 2075 550 2369 
Q 550 2928 970 3256 
Q 1391 3584 2113 3584 
Q 2397 3584 2667 3537 
Q 2938 3491 3200 3397 
z
" transform="scale(0.015625)"/>
      <path id="DejaVuSans-Oblique-2c" d="M 575 794 
L 1234 794 
L 1131 256 
L 422 -744 
L 19 -744 
L 469 256 
L 575 794 
z
" transform="scale(0.015625)"/>
      <path id="DejaVuSans-Oblique-4e" d="M 1081 4666 
L 1931 4666 
L 3219 666 
L 4000 4666 
L 4616 4666 
L 3706 0 
L 2853 0 
L 1569 4025 
L 788 0 
L 172 0 
L 1081 4666 
z
" transform="scale(0.015625)"/>
      <path id="DejaVuSans-Oblique-70" d="M 3175 2156 
Q 3175 2616 2975 2859 
Q 2775 3103 2400 3103 
Q 2144 3103 1911 2972 
Q 1678 2841 1497 2591 
Q 1319 2344 1212 1994 
Q 1106 1644 1106 1300 
Q 1106 863 1306 627 
Q 1506 391 1875 391 
Q 2147 391 2380 519 
Q 2613 647 2778 891 
Q 2956 1147 3065 1494 
Q 3175 1841 3175 2156 
z
M 1394 2969 
Q 1625 3272 1939 3428 
Q 2253 3584 2638 3584 
Q 3175 3584 3472 3232 
Q 3769 2881 3769 2247 
Q 3769 1728 3584 1258 
Q 3400 788 3053 416 
Q 2822 169 2531 39 
Q 2241 -91 1919 -91 
Q 1547 -91 1294 64 
Q 1041 219 916 525 
L 556 -1331 
L -19 -1331 
L 922 3500 
L 1497 3500 
L 1394 2969 
z
" transform="scale(0.015625)"/>
      <path id="DejaVuSans-Oblique-6c" d="M 1172 4863 
L 1747 4863 
L 800 0 
L 225 0 
L 1172 4863 
z
" transform="scale(0.015625)"/>
      <path id="DejaVuSans-Oblique-69" d="M 1172 4863 
L 1747 4863 
L 1606 4134 
L 1031 4134 
L 1172 4863 
z
M 909 3500 
L 1484 3500 
L 800 0 
L 225 0 
L 909 3500 
z
" transform="scale(0.015625)"/>
      <path id="DejaVuSans-Oblique-74" d="M 2706 3500 
L 2619 3053 
L 1472 3053 
L 1100 1153 
Q 1081 1047 1072 975 
Q 1063 903 1063 863 
Q 1063 663 1183 572 
Q 1303 481 1569 481 
L 2150 481 
L 2053 0 
L 1503 0 
Q 991 0 739 200 
Q 488 400 488 806 
Q 488 878 497 964 
Q 506 1050 525 1153 
L 897 3053 
L 409 3053 
L 500 3500 
L 978 3500 
L 1172 4494 
L 1747 4494 
L 1556 3500 
L 2706 3500 
z
" transform="scale(0.015625)"/>
      <path id="DejaVuSans-Oblique-2d" d="M 391 2009 
L 2075 2009 
L 1978 1497 
L 288 1497 
L 391 2009 
z
" transform="scale(0.015625)"/>
      <path id="DejaVuSans-Oblique-3e" d="M 678 3150 
L 678 3719 
L 4684 2266 
L 4684 1747 
L 678 294 
L 678 863 
L 3897 2003 
L 678 3150 
z
" transform="scale(0.015625)"/>
      <path id="DejaVuSans-Oblique-66" d="M 3059 4863 
L 2969 4384 
L 2419 4384 
Q 2106 4384 1964 4261 
Q 1822 4138 1753 3809 
L 1691 3500 
L 2638 3500 
L 2553 3053 
L 1606 3053 
L 1013 0 
L 434 0 
L 1031 3053 
L 481 3053 
L 563 3500 
L 1113 3500 
L 1159 3744 
Q 1278 4363 1576 4613 
Q 1875 4863 2516 4863 
L 3059 4863 
z
" transform="scale(0.015625)"/>
      <path id="DejaVuSans-Oblique-6e" d="M 3566 2113 
L 3156 0 
L 2578 0 
L 2988 2091 
Q 3016 2238 3031 2350 
Q 3047 2463 3047 2528 
Q 3047 2791 2881 2937 
Q 2716 3084 2419 3084 
Q 1956 3084 1622 2776 
Q 1288 2469 1184 1941 
L 800 0 
L 225 0 
L 903 3500 
L 1478 3500 
L 1363 2950 
Q 1603 3253 1940 3418 
Q 2278 3584 2650 3584 
Q 3113 3584 3367 3334 
Q 3622 3084 3622 2631 
Q 3622 2519 3608 2391 
Q 3594 2263 3566 2113 
z
" transform="scale(0.015625)"/>
      <path id="DejaVuSans-Oblique-30" d="M 2444 4750 
Q 3078 4750 3414 4328 
Q 3750 3906 3750 3116 
Q 3750 2516 3592 1923 
Q 3434 1331 3150 863 
Q 2859 394 2467 151 
Q 2075 -91 1600 -91 
Q 988 -91 653 334 
Q 319 759 319 1544 
Q 319 2138 480 2733 
Q 641 3328 928 3794 
Q 1216 4263 1602 4506 
Q 1988 4750 2444 4750 
z
M 2406 4250 
Q 2169 4250 1955 4123 
Q 1741 3997 1569 3750 
Q 1281 3338 1111 2720 
Q 941 2103 941 1453 
Q 941 938 1123 673 
Q 1306 409 1663 409 
Q 1913 409 2125 536 
Q 2338 663 2509 909 
Q 2794 1319 2961 1936 
Q 3128 2553 3128 3206 
Q 3128 3722 2945 3986 
Q 2763 4250 2406 4250 
z
" transform="scale(0.015625)"/>
      <path id="DejaVuSans-Oblique-33" d="M 1013 4550 
Q 1356 4650 1679 4700 
Q 2003 4750 2316 4750 
Q 2934 4750 3296 4475 
Q 3659 4200 3659 3738 
Q 3659 3284 3373 2959 
Q 3088 2634 2584 2516 
Q 2978 2403 3162 2165 
Q 3347 1928 3347 1538 
Q 3347 1163 3167 834 
Q 2988 506 2650 269 
Q 2394 88 2037 -1 
Q 1681 -91 1216 -91 
Q 922 -91 622 -33 
Q 322 25 13 141 
L 128 738 
Q 422 575 720 495 
Q 1019 416 1331 416 
Q 1947 416 2330 733 
Q 2713 1050 2713 1556 
Q 2713 1881 2469 2057 
Q 2225 2234 1772 2234 
L 1228 2234 
L 1325 2747 
L 1900 2747 
Q 2419 2747 2717 2984 
Q 3016 3222 3016 3628 
Q 3016 3922 2797 4083 
Q 2578 4244 2181 4244 
Q 1881 4244 1567 4180 
Q 1253 4116 916 3988 
L 1013 4550 
z
" transform="scale(0.015625)"/>
     </defs>
     <use xlink:href="#DejaVuSans-Oblique-65"/>
     <use xlink:href="#DejaVuSans-Oblique-61" transform="translate(61.523438 0)"/>
     <use xlink:href="#DejaVuSans-Oblique-63" transform="translate(122.802734 0)"/>
     <use xlink:href="#DejaVuSans-Oblique-68" transform="translate(177.783203 0)"/>
     <use xlink:href="#DejaVuSans-Oblique-20" transform="translate(241.162109 0)"/>
     <use xlink:href="#DejaVuSans-Oblique-43" transform="translate(272.949219 0)"/>
     <use xlink:href="#DejaVuSans-Oblique-54" transform="translate(342.773438 0)"/>
     <use xlink:href="#DejaVuSans-Oblique-41" transform="translate(394.732422 0)"/>
     <use xlink:href="#DejaVuSans-Oblique-3a" transform="translate(465.015625 0)"/>
     <use xlink:href="#DejaVuSans-Oblique-20" transform="translate(498.707031 0)"/>
     <use xlink:href="#DejaVuSans-Oblique-36" transform="translate(530.494141 0)"/>
     <use xlink:href="#DejaVuSans-Oblique-34" transform="translate(594.117188 0)"/>
     <use xlink:href="#DejaVuSans-Oblique-20" transform="translate(657.740234 0)"/>
     <use xlink:href="#DejaVuSans-Oblique-72" transform="translate(689.527344 0)"/>
     <use xlink:href="#DejaVuSans-Oblique-6f" transform="translate(730.640625 0)"/>
     <use xlink:href="#DejaVuSans-Oblique-77" transform="translate(791.822266 0)"/>
     <use xlink:href="#DejaVuSans-Oblique-73" transform="translate(873.609375 0)"/>
     <use xlink:href="#DejaVuSans-Oblique-2c" transform="translate(925.708984 0)"/>
     <use xlink:href="#DejaVuSans-Oblique-20" transform="translate(957.496094 0)"/>
     <use xlink:href="#DejaVuSans-Oblique-4e" transform="translate(989.283203 0)"/>
     <use xlink:href="#DejaVuSans-Oblique-20" transform="translate(1064.087891 0)"/>
     <use xlink:href="#DejaVuSans-Oblique-73" transform="translate(1095.875 0)"/>
     <use xlink:href="#DejaVuSans-Oblique-70" transform="translate(1147.974609 0)"/>
     <use xlink:href="#DejaVuSans-Oblique-6c" transform="translate(1211.451172 0)"/>
     <use xlink:href="#DejaVuSans-Oblique-69" transform="translate(1239.234375 0)"/>
     <use xlink:href="#DejaVuSans-Oblique-74" transform="translate(1267.017578 0)"/>
     <use xlink:href="#DejaVuSans-Oblique-20" transform="translate(1306.226562 0)"/>
     <use xlink:href="#DejaVuSans-Oblique-2d" transform="translate(1338.013672 0)"/>
     <use xlink:href="#DejaVuSans-Oblique-3e" transform="translate(1374.097656 0)"/>
     <use xlink:href="#DejaVuSans-Oblique-20" transform="translate(1457.886719 0)"/>
     <use xlink:href="#DejaVuSans-Oblique-6c" transform="translate(1489.673828 0)"/>
     <use xlink:href="#DejaVuSans-Oblique-6f" transform="translate(1517.457031 0)"/>
     <use xlink:href="#DejaVuSans-Oblique-77" transform="translate(1578.638672 0)"/>
     <use xlink:href="#DejaVuSans-Oblique-20" transform="translate(1660.425781 0)"/>
     <use xlink:href="#DejaVuSans-Oblique-68" transform="translate(1692.212891 0)"/>
     <use xlink:href="#DejaVuSans-Oblique-61" transform="translate(1755.591797 0)"/>
     <use xlink:href="#DejaVuSans-Oblique-6c" transform="translate(1816.871094 0)"/>
     <use xlink:href="#DejaVuSans-Oblique-66" transform="translate(1844.654297 0)"/>
     <use xlink:href="#DejaVuSans-Oblique-20" transform="translate(1879.859375 0)"/>
     <use xlink:href="#DejaVuSans-Oblique-69" transform="translate(1911.646484 0)"/>
     <use xlink:href="#DejaVuSans-Oblique-6e" transform="translate(1939.429688 0)"/>
     <use xlink:href="#DejaVuSans-Oblique-20" transform="translate(2002.808594 0)"/>
     <use xlink:href="#DejaVuSans-Oblique-6c" transform="translate(2034.595703 0)"/>
     <use xlink:href="#DejaVuSans-Oblique-61" transform="translate(2062.378906 0)"/>
     <use xlink:href="#DejaVuSans-Oblique-6e" transform="translate(2123.658203 0)"/>
     <use xlink:href="#DejaVuSans-Oblique-65" transform="translate(2187.037109 0)"/>
     <use xlink:href="#DejaVuSans-Oblique-73" transform="translate(2248.560547 0)"/>
     <use xlink:href="#DejaVuSans-Oblique-20" transform="translate(2300.660156 0)"/>
     <use xlink:href="#DejaVuSans-Oblique-30" transform="translate(2332.447266 0)"/>
     <use xlink:href="#DejaVuSans-Oblique-2d" transform="translate(2396.070312 0)"/>
     <use xlink:href="#DejaVuSans-Oblique-36" transform="translate(2432.154297 0)"/>
     <use xlink:href="#DejaVuSans-Oblique-33" transform="translate(2495.777344 0)"/>
     <use xlink:href="#DejaVuSans-Oblique-2c" transform="translate(2559.400391 0)"/>
    </g>
    <!-- high half in lanes 64-127 -->
    <g style="fill: #334155" transform="translate(210.417094 145.939631) scale(0.068 -0.068)">
     <defs>
      <path id="DejaVuSans-Oblique-67" d="M 3816 3500 
L 3219 434 
Q 3047 -456 2561 -893 
Q 2075 -1331 1253 -1331 
Q 950 -1331 690 -1286 
Q 431 -1241 206 -1147 
L 313 -588 
Q 525 -725 762 -790 
Q 1000 -856 1269 -856 
Q 1816 -856 2167 -557 
Q 2519 -259 2631 300 
L 2681 563 
Q 2441 288 2122 144 
Q 1803 0 1434 0 
Q 903 0 598 351 
Q 294 703 294 1319 
Q 294 1803 478 2267 
Q 663 2731 997 3091 
Q 1219 3328 1514 3456 
Q 1809 3584 2131 3584 
Q 2484 3584 2746 3420 
Q 3009 3256 3138 2956 
L 3238 3500 
L 3816 3500 
z
M 2950 2216 
Q 2950 2641 2750 2872 
Q 2550 3103 2181 3103 
Q 1953 3103 1747 3012 
Q 1541 2922 1394 2759 
Q 1156 2491 1023 2127 
Q 891 1763 891 1375 
Q 891 944 1092 712 
Q 1294 481 1672 481 
Q 2219 481 2584 976 
Q 2950 1472 2950 2216 
z
" transform="scale(0.015625)"/>
      <path id="DejaVuSans-Oblique-31" d="M 416 531 
L 1447 531 
L 2144 4122 
L 978 3897 
L 1088 4441 
L 2247 4666 
L 2881 4666 
L 2075 531 
L 3103 531 
L 3003 0 
L 313 0 
L 416 531 
z
" transform="scale(0.015625)"/>
      <path id="DejaVuSans-Oblique-32" d="M 2950 2253 
L 934 525 
L 3163 525 
L 3053 0 
L 25 0 
L 128 531 
L 2234 2338 
Q 2656 2703 2832 2979 
Q 3009 3256 3009 3547 
Q 3009 3850 2796 4040 
Q 2584 4231 2241 4231 
Q 1944 4231 1581 4125 
Q 1219 4019 806 3816 
L 922 4441 
Q 1309 4594 1662 4672 
Q 2016 4750 2316 4750 
Q 2928 4750 3301 4425 
Q 3675 4100 3675 3572 
Q 3675 3216 3497 2892 
Q 3319 2569 2950 2253 
z
" transform="scale(0.015625)"/>
      <path id="DejaVuSans-Oblique-37" d="M 819 4666 
L 4013 4666 
L 3956 4397 
L 1288 0 
L 594 0 
L 3116 4134 
L 716 4134 
L 819 4666 
z
" transform="scale(0.015625)"/>
     </defs>
     <use xlink:href="#DejaVuSans-Oblique-68"/>
     <use xlink:href="#DejaVuSans-Oblique-69" transform="translate(63.378906 0)"/>
     <use xlink:href="#DejaVuSans-Oblique-67" transform="translate(91.162109 0)"/>
     <use xlink:href="#DejaVuSans-Oblique-68" transform="translate(154.638672 0)"/>
     <use xlink:href="#DejaVuSans-Oblique-20" transform="translate(218.017578 0)"/>
     <use xlink:href="#DejaVuSans-Oblique-68" transform="translate(249.804688 0)"/>
     <use xlink:href="#DejaVuSans-Oblique-61" transform="translate(313.183594 0)"/>
     <use xlink:href="#DejaVuSans-Oblique-6c" transform="translate(374.462891 0)"/>
     <use xlink:href="#DejaVuSans-Oblique-66" transform="translate(402.246094 0)"/>
     <use xlink:href="#DejaVuSans-Oblique-20" transform="translate(437.451172 0)"/>
     <use xlink:href="#DejaVuSans-Oblique-69" transform="translate(469.238281 0)"/>
     <use xlink:href="#DejaVuSans-Oblique-6e" transform="translate(497.021484 0)"/>
     <use xlink:href="#DejaVuSans-Oblique-20" transform="translate(560.400391 0)"/>
     <use xlink:href="#DejaVuSans-Oblique-6c" transform="translate(592.1875 0)"/>
     <use xlink:href="#DejaVuSans-Oblique-61" transform="translate(619.970703 0)"/>
     <use xlink:href="#DejaVuSans-Oblique-6e" transform="translate(681.25 0)"/>
     <use xlink:href="#DejaVuSans-Oblique-65" transform="translate(744.628906 0)"/>
     <use xlink:href="#DejaVuSans-Oblique-73" transform="translate(806.152344 0)"/>
     <use xlink:href="#DejaVuSans-Oblique-20" transform="translate(858.251953 0)"/>
     <use xlink:href="#DejaVuSans-Oblique-36" transform="translate(890.039062 0)"/>
     <use xlink:href="#DejaVuSans-Oblique-34" transform="translate(953.662109 0)"/>
     <use xlink:href="#DejaVuSans-Oblique-2d" transform="translate(1017.285156 0)"/>
     <use xlink:href="#DejaVuSans-Oblique-31" transform="translate(1053.369141 0)"/>
     <use xlink:href="#DejaVuSans-Oblique-32" transform="translate(1116.992188 0)"/>
     <use xlink:href="#DejaVuSans-Oblique-37" transform="translate(1180.615234 0)"/>
    </g>
   </g>
  </g>
 </g>
 <defs>
  <clipPath id="p89d697c7c1">
   <rect x="7.2" y="7.2" width="491.04" height="266.112"/>
  </clipPath>
 </defs>
</svg>
