<?xml version="1.0" encoding="utf-8" standalone="no"?>
<!DOCTYPE svg PUBLIC "-//W3C//DTD SVG 1.1//EN"
  "http://www.w3.org/Graphics/SVG/1.1/DTD/svg11.dtd">
<svg xmlns:xlink="http://www.w3.org/1999/xlink" width="598.9886pt" height="269.424pt" viewBox="0 0 598.9886 269.424" xmlns="http://www.w3.org/2000/svg" version="1.1">
 <metadata>
  <rdf:RDF xmlns:dc="http://purl.org/dc/elements/1.1/" xmlns:cc="http://creativecommons.org/ns#" xmlns:rdf="http://www.w3.org/1999/02/22-rdf-syntax-ns#">
   <cc:Work>
    <dc:type rdf:resource="http://purl.org/dc/dcmitype/StillImage"/>
    <dc:date>2026-06-18T00:39:23.363597</dc:date>
    <dc:format>image/svg+xml</dc:format>
    <dc:creator>
     <cc:Agent>
      <dc:title>Matplotlib v3.10.5, https://matplotlib.org/</dc:title>
     </cc:Agent>
    </dc:creator>
   </cc:Work>
  </rdf:RDF>
 </metadata>
 <defs>
  <style type="text/css">*{stroke-linejoin: round; stroke-linecap: butt}</style>
 </defs>
 <g id="figure_1">
  <g id="patch_1">
   <path d="M 0 269.424 
L 598.9886 269.424 
L 598.9886 0 
L 0 0 
z
" style="fill: #ffffff"/>
  </g>
  <g id="axes_1">
   <g id="patch_2">
    <path d="M 167.904 93.90816 
L 226.8288 93.90816 
L 226.8288 60.75504 
L 167.904 60.75504 
z
" clip-path="url(#pa1b7352be0)" style="fill: #ef4444; opacity: 0.92; stroke: #ffffff; stroke-width: 1.6; stroke-linejoin: miter"/>
   </g>
   <g id="patch_3">
    <path d="M 226.8288 93.90816 
L 285.7536 93.90816 
L 285.7536 60.75504 
L 226.8288 60.75504 
z
" clip-path="url(#pa1b7352be0)" style="fill: #ef4444; opacity: 0.92; stroke: #ffffff; stroke-width: 1.6; stroke-linejoin: miter"/>
   </g>
   <g id="patch_4">
    <path d="M 285.7536 93.90816 
L 344.6784 93.90816 
L 344.6784 60.75504 
L 285.7536 60.75504 
z
" clip-path="url(#pa1b7352be0)" style="fill: #ef4444; opacity: 0.92; stroke: #ffffff; stroke-width: 1.6; stroke-linejoin: miter"/>
   </g>
   <g id="patch_5">
    <path d="M 344.6784 93.90816 
L 403.6032 93.90816 
L 403.6032 60.75504 
L 344.6784 60.75504 
z
" clip-path="url(#pa1b7352be0)" style="fill: #ef4444; opacity: 0.92; stroke: #ffffff; stroke-width: 1.6; stroke-linejoin: miter"/>
   </g>
   <g id="patch_6">
    <path d="M 167.904 144.91296 
L 226.8288 144.91296 
L 226.8288 111.75984 
L 167.904 111.75984 
z
" clip-path="url(#pa1b7352be0)" style="fill: #ef4444; opacity: 0.92; stroke: #ffffff; stroke-width: 1.6; stroke-linejoin: miter"/>
   </g>
   <g id="patch_7">
    <path d="M 226.8288 144.91296 
L 285.7536 144.91296 
L 285.7536 111.75984 
L 226.8288 111.75984 
z
" clip-path="url(#pa1b7352be0)" style="fill: #3b82f6; opacity: 0.92; stroke: #ffffff; stroke-width: 1.6; stroke-linejoin: miter"/>
   </g>
   <g id="patch_8">
    <path d="M 285.7536 144.91296 
L 344.6784 144.91296 
L 344.6784 111.75984 
L 285.7536 111.75984 
z
" clip-path="url(#pa1b7352be0)" style="fill: #ef4444; opacity: 0.92; stroke: #ffffff; stroke-width: 1.6; stroke-linejoin: miter"/>
   </g>
   <g id="patch_9">
    <path d="M 344.6784 144.91296 
L 403.6032 144.91296 
L 403.6032 111.75984 
L 344.6784 111.75984 
z
" clip-path="url(#pa1b7352be0)" style="fill: #3b82f6; opacity: 0.92; stroke: #ffffff; stroke-width: 1.6; stroke-linejoin: miter"/>
   </g>
   <g id="patch_10">
    <path d="M 167.904 195.91776 
L 226.8288 195.91776 
L 226.8288 162.76464 
L 167.904 162.76464 
z
" clip-path="url(#pa1b7352be0)" style="fill: #ef4444; opacity: 0.92; stroke: #ffffff; stroke-width: 1.6; stroke-linejoin: miter"/>
   </g>
   <g id="patch_11">
    <path d="M 226.8288 195.91776 
L 285.7536 195.91776 
L 285.7536 162.76464 
L 226.8288 162.76464 
z
" clip-path="url(#pa1b7352be0)" style="fill: #3b82f6; opacity: 0.92; stroke: #ffffff; stroke-width: 1.6; stroke-linejoin: miter"/>
   </g>
   <g id="patch_12">
    <path d="M 285.7536 195.91776 
L 344.6784 195.91776 
L 344.6784 162.76464 
L 285.7536 162.76464 
z
" clip-path="url(#pa1b7352be0)" style="fill: #10b981; opacity: 0.92; stroke: #ffffff; stroke-width: 1.6; stroke-linejoin: miter"/>
   </g>
   <g id="patch_13">
    <path d="M 344.6784 195.91776 
L 403.6032 195.91776 
L 403.6032 162.76464 
L 344.6784 162.76464 
z
" clip-path="url(#pa1b7352be0)" style="fill: #f59e0b; opacity: 0.92; stroke: #ffffff; stroke-width: 1.6; stroke-linejoin: miter"/>
   </g>
   <g id="text_1">
    <!-- scale_vec modes: how one TMEM u32 packs K-block scales -->
    <g style="fill: #1f2937" transform="translate(77.655 23.968845) scale(0.12 -0.12)">
     <defs>
      <path id="DejaVuSans-Bold-73" d="M 3272 3391 
L 3272 2541 
Q 2913 2691 2578 2766 
Q 2244 2841 1947 2841 
Q 1628 2841 1473 2761 
Q 1319 2681 1319 2516 
Q 1319 2381 1436 2309 
Q 1553 2238 1856 2203 
L 2053 2175 
Q 2913 2066 3209 1816 
Q 3506 1566 3506 1031 
Q 3506 472 3093 190 
Q 2681 -91 1863 -91 
Q 1516 -91 1145 -36 
Q 775 19 384 128 
L 384 978 
Q 719 816 1070 734 
Q 1422 653 1784 653 
Q 2113 653 2278 743 
Q 2444 834 2444 1013 
Q 2444 1163 2330 1236 
Q 2216 1309 1875 1350 
L 1678 1375 
Q 931 1469 631 1722 
Q 331 1975 331 2491 
Q 331 3047 712 3315 
Q 1094 3584 1881 3584 
Q 2191 3584 2531 3537 
Q 2872 3491 3272 3391 
z
" transform="scale(0.015625)"/>
      <path id="DejaVuSans-Bold-63" d="M 3366 3391 
L 3366 2478 
Q 3138 2634 2908 2709 
Q 2678 2784 2431 2784 
Q 1963 2784 1702 2511 
Q 1441 2238 1441 1747 
Q 1441 1256 1702 982 
Q 1963 709 2431 709 
Q 2694 709 2930 787 
Q 3166 866 3366 1019 
L 3366 103 
Q 3103 6 2833 -42 
Q 2563 -91 2291 -91 
Q 1344 -91 809 395 
Q 275 881 275 1747 
Q 275 2613 809 3098 
Q 1344 3584 2291 3584 
Q 2566 3584 2833 3536 
Q 3100 3488 3366 3391 
z
" transform="scale(0.015625)"/>
      <path id="DejaVuSans-Bold-61" d="M 2106 1575 
Q 1756 1575 1579 1456 
Q 1403 1338 1403 1106 
Q 1403 894 1545 773 
Q 1688 653 1941 653 
Q 2256 653 2472 879 
Q 2688 1106 2688 1447 
L 2688 1575 
L 2106 1575 
z
M 3816 1997 
L 3816 0 
L 2688 0 
L 2688 519 
Q 2463 200 2181 54 
Q 1900 -91 1497 -91 
Q 953 -91 614 226 
Q 275 544 275 1050 
Q 275 1666 698 1953 
Q 1122 2241 2028 2241 
L 2688 2241 
L 2688 2328 
Q 2688 2594 2478 2717 
Q 2269 2841 1825 2841 
Q 1466 2841 1156 2769 
Q 847 2697 581 2553 
L 581 3406 
Q 941 3494 1303 3539 
Q 1666 3584 2028 3584 
Q 2975 3584 3395 3211 
Q 3816 2838 3816 1997 
z
" transform="scale(0.015625)"/>
      <path id="DejaVuSans-Bold-6c" d="M 538 4863 
L 1656 4863 
L 1656 0 
L 538 0 
L 538 4863 
z
" transform="scale(0.015625)"/>
      <path id="DejaVuSans-Bold-65" d="M 4031 1759 
L 4031 1441 
L 1416 1441 
Q 1456 1047 1700 850 
Q 1944 653 2381 653 
Q 2734 653 3104 758 
Q 3475 863 3866 1075 
L 3866 213 
Q 3469 63 3072 -14 
Q 2675 -91 2278 -91 
Q 1328 -91 801 392 
Q 275 875 275 1747 
Q 275 2603 792 3093 
Q 1309 3584 2216 3584 
Q 3041 3584 3536 3087 
Q 4031 2591 4031 1759 
z
M 2881 2131 
Q 2881 2450 2695 2645 
Q 2509 2841 2209 2841 
Q 1884 2841 1681 2658 
Q 1478 2475 1428 2131 
L 2881 2131 
z
" transform="scale(0.015625)"/>
      <path id="DejaVuSans-Bold-5f" d="M 3200 -916 
L 3200 -1509 
L 0 -1509 
L 0 -916 
L 3200 -916 
z
" transform="scale(0.015625)"/>
      <path id="DejaVuSans-Bold-76" d="M 97 3500 
L 1216 3500 
L 2088 1081 
L 2956 3500 
L 4078 3500 
L 2700 0 
L 1472 0 
L 97 3500 
z
" transform="scale(0.015625)"/>
      <path id="DejaVuSans-Bold-20" transform="scale(0.015625)"/>
      <path id="DejaVuSans-Bold-6d" d="M 3781 2919 
Q 3994 3244 4286 3414 
Q 4578 3584 4928 3584 
Q 5531 3584 5847 3212 
Q 6163 2841 6163 2131 
L 6163 0 
L 5038 0 
L 5038 1825 
Q 5041 1866 5042 1909 
Q 5044 1953 5044 2034 
Q 5044 2406 4934 2573 
Q 4825 2741 4581 2741 
Q 4263 2741 4089 2478 
Q 3916 2216 3909 1719 
L 3909 0 
L 2784 0 
L 2784 1825 
Q 2784 2406 2684 2573 
Q 2584 2741 2328 2741 
Q 2006 2741 1831 2477 
Q 1656 2213 1656 1722 
L 1656 0 
L 531 0 
L 531 3500 
L 1656 3500 
L 1656 2988 
Q 1863 3284 2130 3434 
Q 2397 3584 2719 3584 
Q 3081 3584 3359 3409 
Q 3638 3234 3781 2919 
z
" transform="scale(0.015625)"/>
      <path id="DejaVuSans-Bold-6f" d="M 2203 2784 
Q 1831 2784 1636 2517 
Q 1441 2250 1441 1747 
Q 1441 1244 1636 976 
Q 1831 709 2203 709 
Q 2569 709 2762 976 
Q 2956 1244 2956 1747 
Q 2956 2250 2762 2517 
Q 2569 2784 2203 2784 
z
M 2203 3584 
Q 3106 3584 3614 3096 
Q 4122 2609 4122 1747 
Q 4122 884 3614 396 
Q 3106 -91 2203 -91 
Q 1297 -91 786 396 
Q 275 884 275 1747 
Q 275 2609 786 3096 
Q 1297 3584 2203 3584 
z
" transform="scale(0.015625)"/>
      <path id="DejaVuSans-Bold-64" d="M 2919 2988 
L 2919 4863 
L 4044 4863 
L 4044 0 
L 2919 0 
L 2919 506 
Q 2688 197 2409 53 
Q 2131 -91 1766 -91 
Q 1119 -91 703 423 
Q 288 938 288 1747 
Q 288 2556 703 3070 
Q 1119 3584 1766 3584 
Q 2128 3584 2408 3439 
Q 2688 3294 2919 2988 
z
M 2181 722 
Q 2541 722 2730 984 
Q 2919 1247 2919 1747 
Q 2919 2247 2730 2509 
Q 2541 2772 2181 2772 
Q 1825 2772 1636 2509 
Q 1447 2247 1447 1747 
Q 1447 1247 1636 984 
Q 1825 722 2181 722 
z
" transform="scale(0.015625)"/>
      <path id="DejaVuSans-Bold-3a" d="M 716 3500 
L 1844 3500 
L 1844 2291 
L 716 2291 
L 716 3500 
z
M 716 1209 
L 1844 1209 
L 1844 0 
L 716 0 
L 716 1209 
z
" transform="scale(0.015625)"/>
      <path id="DejaVuSans-Bold-68" d="M 4056 2131 
L 4056 0 
L 2931 0 
L 2931 347 
L 2931 1625 
Q 2931 2084 2911 2256 
Q 2891 2428 2841 2509 
Q 2775 2619 2662 2680 
Q 2550 2741 2406 2741 
Q 2056 2741 1856 2470 
Q 1656 2200 1656 1722 
L 1656 0 
L 538 0 
L 538 4863 
L 1656 4863 
L 1656 2988 
Q 1909 3294 2193 3439 
Q 2478 3584 2822 3584 
Q 3428 3584 3742 3212 
Q 4056 2841 4056 2131 
z
" transform="scale(0.015625)"/>
      <path id="DejaVuSans-Bold-77" d="M 225 3500 
L 1313 3500 
L 1900 1088 
L 2491 3500 
L 3425 3500 
L 4013 1113 
L 4603 3500 
L 5691 3500 
L 4769 0 
L 3547 0 
L 2956 2406 
L 2369 0 
L 1147 0 
L 225 3500 
z
" transform="scale(0.015625)"/>
      <path id="DejaVuSans-Bold-6e" d="M 4056 2131 
L 4056 0 
L 2931 0 
L 2931 347 
L 2931 1631 
Q 2931 2084 2911 2256 
Q 2891 2428 2841 2509 
Q 2775 2619 2662 2680 
Q 2550 2741 2406 2741 
Q 2056 2741 1856 2470 
Q 1656 2200 1656 1722 
L 1656 0 
L 538 0 
L 538 3500 
L 1656 3500 
L 1656 2988 
Q 1909 3294 2193 3439 
Q 2478 3584 2822 3584 
Q 3428 3584 3742 3212 
Q 4056 2841 4056 2131 
z
" transform="scale(0.015625)"/>
      <path id="DejaVuSans-Bold-54" d="M 31 4666 
L 4331 4666 
L 4331 3756 
L 2784 3756 
L 2784 0 
L 1581 0 
L 1581 3756 
L 31 3756 
L 31 4666 
z
" transform="scale(0.015625)"/>
      <path id="DejaVuSans-Bold-4d" d="M 588 4666 
L 2119 4666 
L 3181 2169 
L 4250 4666 
L 5778 4666 
L 5778 0 
L 4641 0 
L 4641 3413 
L 3566 897 
L 2803 897 
L 1728 3413 
L 1728 0 
L 588 0 
L 588 4666 
z
" transform="scale(0.015625)"/>
      <path id="DejaVuSans-Bold-45" d="M 588 4666 
L 3834 4666 
L 3834 3756 
L 1791 3756 
L 1791 2888 
L 3713 2888 
L 3713 1978 
L 1791 1978 
L 1791 909 
L 3903 909 
L 3903 0 
L 588 0 
L 588 4666 
z
" transform="scale(0.015625)"/>
      <path id="DejaVuSans-Bold-75" d="M 500 1363 
L 500 3500 
L 1625 3500 
L 1625 3150 
Q 1625 2866 1622 2436 
Q 1619 2006 1619 1863 
Q 1619 1441 1641 1255 
Q 1663 1069 1716 984 
Q 1784 875 1895 815 
Q 2006 756 2150 756 
Q 2500 756 2700 1025 
Q 2900 1294 2900 1772 
L 2900 3500 
L 4019 3500 
L 4019 0 
L 2900 0 
L 2900 506 
Q 2647 200 2364 54 
Q 2081 -91 1741 -91 
Q 1134 -91 817 281 
Q 500 653 500 1363 
z
" transform="scale(0.015625)"/>
      <path id="DejaVuSans-Bold-33" d="M 2981 2516 
Q 3453 2394 3698 2092 
Q 3944 1791 3944 1325 
Q 3944 631 3412 270 
Q 2881 -91 1863 -91 
Q 1503 -91 1142 -33 
Q 781 25 428 141 
L 428 1069 
Q 766 900 1098 814 
Q 1431 728 1753 728 
Q 2231 728 2486 893 
Q 2741 1059 2741 1369 
Q 2741 1688 2480 1852 
Q 2219 2016 1709 2016 
L 1228 2016 
L 1228 2791 
L 1734 2791 
Q 2188 2791 2409 2933 
Q 2631 3075 2631 3366 
Q 2631 3634 2415 3781 
Q 2200 3928 1806 3928 
Q 1516 3928 1219 3862 
Q 922 3797 628 3669 
L 628 4550 
Q 984 4650 1334 4700 
Q 1684 4750 2022 4750 
Q 2931 4750 3382 4451 
Q 3834 4153 3834 3553 
Q 3834 3144 3618 2883 
Q 3403 2622 2981 2516 
z
" transform="scale(0.015625)"/>
      <path id="DejaVuSans-Bold-32" d="M 1844 884 
L 3897 884 
L 3897 0 
L 506 0 
L 506 884 
L 2209 2388 
Q 2438 2594 2547 2791 
Q 2656 2988 2656 3200 
Q 2656 3528 2436 3728 
Q 2216 3928 1850 3928 
Q 1569 3928 1234 3808 
Q 900 3688 519 3450 
L 519 4475 
Q 925 4609 1322 4679 
Q 1719 4750 2100 4750 
Q 2938 4750 3402 4381 
Q 3866 4013 3866 3353 
Q 3866 2972 3669 2642 
Q 3472 2313 2841 1759 
L 1844 884 
z
" transform="scale(0.015625)"/>
      <path id="DejaVuSans-Bold-70" d="M 1656 506 
L 1656 -1331 
L 538 -1331 
L 538 3500 
L 1656 3500 
L 1656 2988 
Q 1888 3294 2169 3439 
Q 2450 3584 2816 3584 
Q 3463 3584 3878 3070 
Q 4294 2556 4294 1747 
Q 4294 938 3878 423 
Q 3463 -91 2816 -91 
Q 2450 -91 2169 54 
Q 1888 200 1656 506 
z
M 2400 2772 
Q 2041 2772 1848 2508 
Q 1656 2244 1656 1747 
Q 1656 1250 1848 986 
Q 2041 722 2400 722 
Q 2759 722 2948 984 
Q 3138 1247 3138 1747 
Q 3138 2247 2948 2509 
Q 2759 2772 2400 2772 
z
" transform="scale(0.015625)"/>
      <path id="DejaVuSans-Bold-6b" d="M 538 4863 
L 1656 4863 
L 1656 2216 
L 2944 3500 
L 4244 3500 
L 2534 1894 
L 4378 0 
L 3022 0 
L 1656 1459 
L 1656 0 
L 538 0 
L 538 4863 
z
" transform="scale(0.015625)"/>
      <path id="DejaVuSans-Bold-4b" d="M 588 4666 
L 1791 4666 
L 1791 2963 
L 3525 4666 
L 4922 4666 
L 2675 2456 
L 5153 0 
L 3647 0 
L 1791 1838 
L 1791 0 
L 588 0 
L 588 4666 
z
" transform="scale(0.015625)"/>
      <path id="DejaVuSans-Bold-2d" d="M 347 2297 
L 2309 2297 
L 2309 1388 
L 347 1388 
L 347 2297 
z
" transform="scale(0.015625)"/>
      <path id="DejaVuSans-Bold-62" d="M 2400 722 
Q 2759 722 2948 984 
Q 3138 1247 3138 1747 
Q 3138 2247 2948 2509 
Q 2759 2772 2400 2772 
Q 2041 2772 1848 2508 
Q 1656 2244 1656 1747 
Q 1656 1250 1848 986 
Q 2041 722 2400 722 
z
M 1656 2988 
Q 1888 3294 2169 3439 
Q 2450 3584 2816 3584 
Q 3463 3584 3878 3070 
Q 4294 2556 4294 1747 
Q 4294 938 3878 423 
Q 3463 -91 2816 -91 
Q 2450 -91 2169 54 
Q 1888 200 1656 506 
L 1656 0 
L 538 0 
L 538 4863 
L 1656 4863 
L 1656 2988 
z
" transform="scale(0.015625)"/>
     </defs>
     <use xlink:href="#DejaVuSans-Bold-73"/>
     <use xlink:href="#DejaVuSans-Bold-63" transform="translate(59.521484 0)"/>
     <use xlink:href="#DejaVuSans-Bold-61" transform="translate(118.798828 0)"/>
     <use xlink:href="#DejaVuSans-Bold-6c" transform="translate(186.279297 0)"/>
     <use xlink:href="#DejaVuSans-Bold-65" transform="translate(220.556641 0)"/>
     <use xlink:href="#DejaVuSans-Bold-5f" transform="translate(288.378906 0)"/>
     <use xlink:href="#DejaVuSans-Bold-76" transform="translate(338.378906 0)"/>
     <use xlink:href="#DejaVuSans-Bold-65" transform="translate(403.564453 0)"/>
     <use xlink:href="#DejaVuSans-Bold-63" transform="translate(471.386719 0)"/>
     <use xlink:href="#DejaVuSans-Bold-20" transform="translate(530.664062 0)"/>
     <use xlink:href="#DejaVuSans-Bold-6d" transform="translate(565.478516 0)"/>
     <use xlink:href="#DejaVuSans-Bold-6f" transform="translate(669.677734 0)"/>
     <use xlink:href="#DejaVuSans-Bold-64" transform="translate(738.378906 0)"/>
     <use xlink:href="#DejaVuSans-Bold-65" transform="translate(809.960938 0)"/>
     <use xlink:href="#DejaVuSans-Bold-73" transform="translate(877.783203 0)"/>
     <use xlink:href="#DejaVuSans-Bold-3a" transform="translate(937.304688 0)"/>
     <use xlink:href="#DejaVuSans-Bold-20" transform="translate(977.294922 0)"/>
     <use xlink:href="#DejaVuSans-Bold-68" transform="translate(1012.109375 0)"/>
     <use xlink:href="#DejaVuSans-Bold-6f" transform="translate(1083.300781 0)"/>
     <use xlink:href="#DejaVuSans-Bold-77" transform="translate(1152.001953 0)"/>
     <use xlink:href="#DejaVuSans-Bold-20" transform="translate(1244.384766 0)"/>
     <use xlink:href="#DejaVuSans-Bold-6f" transform="translate(1279.199219 0)"/>
     <use xlink:href="#DejaVuSans-Bold-6e" transform="translate(1347.900391 0)"/>
     <use xlink:href="#DejaVuSans-Bold-65" transform="translate(1419.091797 0)"/>
     <use xlink:href="#DejaVuSans-Bold-20" transform="translate(1486.914062 0)"/>
     <use xlink:href="#DejaVuSans-Bold-54" transform="translate(1521.728516 0)"/>
     <use xlink:href="#DejaVuSans-Bold-4d" transform="translate(1589.941406 0)"/>
     <use xlink:href="#DejaVuSans-Bold-45" transform="translate(1689.453125 0)"/>
     <use xlink:href="#DejaVuSans-Bold-4d" transform="translate(1757.763672 0)"/>
     <use xlink:href="#DejaVuSans-Bold-20" transform="translate(1857.275391 0)"/>
     <use xlink:href="#DejaVuSans-Bold-75" transform="translate(1892.089844 0)"/>
     <use xlink:href="#DejaVuSans-Bold-33" transform="translate(1963.28125 0)"/>
     <use xlink:href="#DejaVuSans-Bold-32" transform="translate(2032.861328 0)"/>
     <use xlink:href="#DejaVuSans-Bold-20" transform="translate(2102.441406 0)"/>
     <use xlink:href="#DejaVuSans-Bold-70" transform="translate(2137.255859 0)"/>
     <use xlink:href="#DejaVuSans-Bold-61" transform="translate(2208.837891 0)"/>
     <use xlink:href="#DejaVuSans-Bold-63" transform="translate(2276.318359 0)"/>
     <use xlink:href="#DejaVuSans-Bold-6b" transform="translate(2335.595703 0)"/>
     <use xlink:href="#DejaVuSans-Bold-73" transform="translate(2402.099609 0)"/>
     <use xlink:href="#DejaVuSans-Bold-20" transform="translate(2461.621094 0)"/>
     <use xlink:href="#DejaVuSans-Bold-4b" transform="translate(2496.435547 0)"/>
     <use xlink:href="#DejaVuSans-Bold-2d" transform="translate(2565.175781 0)"/>
     <use xlink:href="#DejaVuSans-Bold-62" transform="translate(2606.679688 0)"/>
     <use xlink:href="#DejaVuSans-Bold-6c" transform="translate(2678.261719 0)"/>
     <use xlink:href="#DejaVuSans-Bold-6f" transform="translate(2712.539062 0)"/>
     <use xlink:href="#DejaVuSans-Bold-63" transform="translate(2781.240234 0)"/>
     <use xlink:href="#DejaVuSans-Bold-6b" transform="translate(2840.517578 0)"/>
     <use xlink:href="#DejaVuSans-Bold-20" transform="translate(2907.021484 0)"/>
     <use xlink:href="#DejaVuSans-Bold-73" transform="translate(2941.835938 0)"/>
     <use xlink:href="#DejaVuSans-Bold-63" transform="translate(3001.357422 0)"/>
     <use xlink:href="#DejaVuSans-Bold-61" transform="translate(3060.634766 0)"/>
     <use xlink:href="#DejaVuSans-Bold-6c" transform="translate(3128.115234 0)"/>
     <use xlink:href="#DejaVuSans-Bold-65" transform="translate(3162.392578 0)"/>
     <use xlink:href="#DejaVuSans-Bold-73" transform="translate(3230.214844 0)"/>
    </g>
   </g>
   <g id="text_2">
    <!-- [0:7] -->
    <g style="fill: #1f2937" transform="translate(188.405072 44.972891) scale(0.075 -0.075)">
     <defs>
      <path id="DejaVuSans-5b" d="M 550 4863 
L 1875 4863 
L 1875 4416 
L 1125 4416 
L 1125 -397 
L 1875 -397 
L 1875 -844 
L 550 -844 
L 550 4863 
z
" transform="scale(0.015625)"/>
      <path id="DejaVuSans-30" d="M 2034 4250 
Q 1547 4250 1301 3770 
Q 1056 3291 1056 2328 
Q 1056 1369 1301 889 
Q 1547 409 2034 409 
Q 2525 409 2770 889 
Q 3016 1369 3016 2328 
Q 3016 3291 2770 3770 
Q 2525 4250 2034 4250 
z
M 2034 4750 
Q 2819 4750 3233 4129 
Q 3647 3509 3647 2328 
Q 3647 1150 3233 529 
Q 2819 -91 2034 -91 
Q 1250 -91 836 529 
Q 422 1150 422 2328 
Q 422 3509 836 4129 
Q 1250 4750 2034 4750 
z
" transform="scale(0.015625)"/>
      <path id="DejaVuSans-3a" d="M 750 794 
L 1409 794 
L 1409 0 
L 750 0 
L 750 794 
z
M 750 3309 
L 1409 3309 
L 1409 2516 
L 750 2516 
L 750 3309 
z
" transform="scale(0.015625)"/>
      <path id="DejaVuSans-37" d="M 525 4666 
L 3525 4666 
L 3525 4397 
L 1831 0 
L 1172 0 
L 2766 4134 
L 525 4134 
L 525 4666 
z
" transform="scale(0.015625)"/>
      <path id="DejaVuSans-5d" d="M 1947 4863 
L 1947 -844 
L 622 -844 
L 622 -397 
L 1369 -397 
L 1369 4416 
L 622 4416 
L 622 4863 
L 1947 4863 
z
" transform="scale(0.015625)"/>
     </defs>
     <use xlink:href="#DejaVuSans-5b"/>
     <use xlink:href="#DejaVuSans-30" transform="translate(39.013672 0)"/>
     <use xlink:href="#DejaVuSans-3a" transform="translate(102.636719 0)"/>
     <use xlink:href="#DejaVuSans-37" transform="translate(136.328125 0)"/>
     <use xlink:href="#DejaVuSans-5d" transform="translate(199.951172 0)"/>
    </g>
   </g>
   <g id="text_3">
    <!-- [8:15] -->
    <g style="fill: #1f2937" transform="translate(244.943934 44.972891) scale(0.075 -0.075)">
     <defs>
      <path id="DejaVuSans-38" d="M 2034 2216 
Q 1584 2216 1326 1975 
Q 1069 1734 1069 1313 
Q 1069 891 1326 650 
Q 1584 409 2034 409 
Q 2484 409 2743 651 
Q 3003 894 3003 1313 
Q 3003 1734 2745 1975 
Q 2488 2216 2034 2216 
z
M 1403 2484 
Q 997 2584 770 2862 
Q 544 3141 544 3541 
Q 544 4100 942 4425 
Q 1341 4750 2034 4750 
Q 2731 4750 3128 4425 
Q 3525 4100 3525 3541 
Q 3525 3141 3298 2862 
Q 3072 2584 2669 2484 
Q 3125 2378 3379 2068 
Q 3634 1759 3634 1313 
Q 3634 634 3220 271 
Q 2806 -91 2034 -91 
Q 1263 -91 848 271 
Q 434 634 434 1313 
Q 434 1759 690 2068 
Q 947 2378 1403 2484 
z
M 1172 3481 
Q 1172 3119 1398 2916 
Q 1625 2713 2034 2713 
Q 2441 2713 2670 2916 
Q 2900 3119 2900 3481 
Q 2900 3844 2670 4047 
Q 2441 4250 2034 4250 
Q 1625 4250 1398 4047 
Q 1172 3844 1172 3481 
z
" transform="scale(0.015625)"/>
      <path id="DejaVuSans-31" d="M 794 531 
L 1825 531 
L 1825 4091 
L 703 3866 
L 703 4441 
L 1819 4666 
L 2450 4666 
L 2450 531 
L 3481 531 
L 3481 0 
L 794 0 
L 794 531 
z
" transform="scale(0.015625)"/>
      <path id="DejaVuSans-35" d="M 691 4666 
L 3169 4666 
L 3169 4134 
L 1269 4134 
L 1269 2991 
Q 1406 3038 1543 3061 
Q 1681 3084 1819 3084 
Q 2600 3084 3056 2656 
Q 3513 2228 3513 1497 
Q 3513 744 3044 326 
Q 2575 -91 1722 -91 
Q 1428 -91 1123 -41 
Q 819 9 494 109 
L 494 744 
Q 775 591 1075 516 
Q 1375 441 1709 441 
Q 2250 441 2565 725 
Q 2881 1009 2881 1497 
Q 2881 1984 2565 2268 
Q 2250 2553 1709 2553 
Q 1456 2553 1204 2497 
Q 953 2441 691 2322 
L 691 4666 
z
" transform="scale(0.015625)"/>
     </defs>
     <use xlink:href="#DejaVuSans-5b"/>
     <use xlink:href="#DejaVuSans-38" transform="translate(39.013672 0)"/>
     <use xlink:href="#DejaVuSans-3a" transform="translate(102.636719 0)"/>
     <use xlink:href="#DejaVuSans-31" transform="translate(136.328125 0)"/>
     <use xlink:href="#DejaVuSans-35" transform="translate(199.951172 0)"/>
     <use xlink:href="#DejaVuSans-5d" transform="translate(263.574219 0)"/>
    </g>
   </g>
   <g id="text_4">
    <!-- [16:23] -->
    <g style="fill: #1f2937" transform="translate(301.482797 44.972891) scale(0.075 -0.075)">
     <defs>
      <path id="DejaVuSans-36" d="M 2113 2584 
Q 1688 2584 1439 2293 
Q 1191 2003 1191 1497 
Q 1191 994 1439 701 
Q 1688 409 2113 409 
Q 2538 409 2786 701 
Q 3034 994 3034 1497 
Q 3034 2003 2786 2293 
Q 2538 2584 2113 2584 
z
M 3366 4563 
L 3366 3988 
Q 3128 4100 2886 4159 
Q 2644 4219 2406 4219 
Q 1781 4219 1451 3797 
Q 1122 3375 1075 2522 
Q 1259 2794 1537 2939 
Q 1816 3084 2150 3084 
Q 2853 3084 3261 2657 
Q 3669 2231 3669 1497 
Q 3669 778 3244 343 
Q 2819 -91 2113 -91 
Q 1303 -91 875 529 
Q 447 1150 447 2328 
Q 447 3434 972 4092 
Q 1497 4750 2381 4750 
Q 2619 4750 2861 4703 
Q 3103 4656 3366 4563 
z
" transform="scale(0.015625)"/>
      <path id="DejaVuSans-32" d="M 1228 531 
L 3431 531 
L 3431 0 
L 469 0 
L 469 531 
Q 828 903 1448 1529 
Q 2069 2156 2228 2338 
Q 2531 2678 2651 2914 
Q 2772 3150 2772 3378 
Q 2772 3750 2511 3984 
Q 2250 4219 1831 4219 
Q 1534 4219 1204 4116 
Q 875 4013 500 3803 
L 500 4441 
Q 881 4594 1212 4672 
Q 1544 4750 1819 4750 
Q 2544 4750 2975 4387 
Q 3406 4025 3406 3419 
Q 3406 3131 3298 2873 
Q 3191 2616 2906 2266 
Q 2828 2175 2409 1742 
Q 1991 1309 1228 531 
z
" transform="scale(0.015625)"/>
      <path id="DejaVuSans-33" d="M 2597 2516 
Q 3050 2419 3304 2112 
Q 3559 1806 3559 1356 
Q 3559 666 3084 287 
Q 2609 -91 1734 -91 
Q 1441 -91 1130 -33 
Q 819 25 488 141 
L 488 750 
Q 750 597 1062 519 
Q 1375 441 1716 441 
Q 2309 441 2620 675 
Q 2931 909 2931 1356 
Q 2931 1769 2642 2001 
Q 2353 2234 1838 2234 
L 1294 2234 
L 1294 2753 
L 1863 2753 
Q 2328 2753 2575 2939 
Q 2822 3125 2822 3475 
Q 2822 3834 2567 4026 
Q 2313 4219 1838 4219 
Q 1578 4219 1281 4162 
Q 984 4106 628 3988 
L 628 4550 
Q 988 4650 1302 4700 
Q 1616 4750 1894 4750 
Q 2613 4750 3031 4423 
Q 3450 4097 3450 3541 
Q 3450 3153 3228 2886 
Q 3006 2619 2597 2516 
z
" transform="scale(0.015625)"/>
     </defs>
     <use xlink:href="#DejaVuSans-5b"/>
     <use xlink:href="#DejaVuSans-31" transform="translate(39.013672 0)"/>
     <use xlink:href="#DejaVuSans-36" transform="translate(102.636719 0)"/>
     <use xlink:href="#DejaVuSans-3a" transform="translate(166.259766 0)"/>
     <use xlink:href="#DejaVuSans-32" transform="translate(199.951172 0)"/>
     <use xlink:href="#DejaVuSans-33" transform="translate(263.574219 0)"/>
     <use xlink:href="#DejaVuSans-5d" transform="translate(327.197266 0)"/>
    </g>
   </g>
   <g id="text_5">
    <!-- [24:31] -->
    <g style="fill: #1f2937" transform="translate(360.407597 44.972891) scale(0.075 -0.075)">
     <defs>
      <path id="DejaVuSans-34" d="M 2419 4116 
L 825 1625 
L 2419 1625 
L 2419 4116 
z
M 2253 4666 
L 3047 4666 
L 3047 1625 
L 3713 1625 
L 3713 1100 
L 3047 1100 
L 3047 0 
L 2419 0 
L 2419 1100 
L 313 1100 
L 313 1709 
L 2253 4666 
z
" transform="scale(0.015625)"/>
     </defs>
     <use xlink:href="#DejaVuSans-5b"/>
     <use xlink:href="#DejaVuSans-32" transform="translate(39.013672 0)"/>
     <use xlink:href="#DejaVuSans-34" transform="translate(102.636719 0)"/>
     <use xlink:href="#DejaVuSans-3a" transform="translate(166.259766 0)"/>
     <use xlink:href="#DejaVuSans-33" transform="translate(199.951172 0)"/>
     <use xlink:href="#DejaVuSans-31" transform="translate(263.574219 0)"/>
     <use xlink:href="#DejaVuSans-5d" transform="translate(327.197266 0)"/>
    </g>
   </g>
   <g id="text_6">
    <!-- bytes of the 32-bit word -->
    <g style="fill: #1f2937" transform="translate(237.644225 32.7024) scale(0.08 -0.08)">
     <defs>
      <path id="DejaVuSans-62" d="M 3116 1747 
Q 3116 2381 2855 2742 
Q 2594 3103 2138 3103 
Q 1681 3103 1420 2742 
Q 1159 2381 1159 1747 
Q 1159 1113 1420 752 
Q 1681 391 2138 391 
Q 2594 391 2855 752 
Q 3116 1113 3116 1747 
z
M 1159 2969 
Q 1341 3281 1617 3432 
Q 1894 3584 2278 3584 
Q 2916 3584 3314 3078 
Q 3713 2572 3713 1747 
Q 3713 922 3314 415 
Q 2916 -91 2278 -91 
Q 1894 -91 1617 61 
Q 1341 213 1159 525 
L 1159 0 
L 581 0 
L 581 4863 
L 1159 4863 
L 1159 2969 
z
" transform="scale(0.015625)"/>
      <path id="DejaVuSans-79" d="M 2059 -325 
Q 1816 -950 1584 -1140 
Q 1353 -1331 966 -1331 
L 506 -1331 
L 506 -850 
L 844 -850 
Q 1081 -850 1212 -737 
Q 1344 -625 1503 -206 
L 1606 56 
L 191 3500 
L 800 3500 
L 1894 763 
L 2988 3500 
L 3597 3500 
L 2059 -325 
z
" transform="scale(0.015625)"/>
      <path id="DejaVuSans-74" d="M 1172 4494 
L 1172 3500 
L 2356 3500 
L 2356 3053 
L 1172 3053 
L 1172 1153 
Q 1172 725 1289 603 
Q 1406 481 1766 481 
L 2356 481 
L 2356 0 
L 1766 0 
Q 1100 0 847 248 
Q 594 497 594 1153 
L 594 3053 
L 172 3053 
L 172 3500 
L 594 3500 
L 594 4494 
L 1172 4494 
z
" transform="scale(0.015625)"/>
      <path id="DejaVuSans-65" d="M 3597 1894 
L 3597 1613 
L 953 1613 
Q 991 1019 1311 708 
Q 1631 397 2203 397 
Q 2534 397 2845 478 
Q 3156 559 3463 722 
L 3463 178 
Q 3153 47 2828 -22 
Q 2503 -91 2169 -91 
Q 1331 -91 842 396 
Q 353 884 353 1716 
Q 353 2575 817 3079 
Q 1281 3584 2069 3584 
Q 2775 3584 3186 3129 
Q 3597 2675 3597 1894 
z
M 3022 2063 
Q 3016 2534 2758 2815 
Q 2500 3097 2075 3097 
Q 1594 3097 1305 2825 
Q 1016 2553 972 2059 
L 3022 2063 
z
" transform="scale(0.015625)"/>
      <path id="DejaVuSans-73" d="M 2834 3397 
L 2834 2853 
Q 2591 2978 2328 3040 
Q 2066 3103 1784 3103 
Q 1356 3103 1142 2972 
Q 928 2841 928 2578 
Q 928 2378 1081 2264 
Q 1234 2150 1697 2047 
L 1894 2003 
Q 2506 1872 2764 1633 
Q 3022 1394 3022 966 
Q 3022 478 2636 193 
Q 2250 -91 1575 -91 
Q 1294 -91 989 -36 
Q 684 19 347 128 
L 347 722 
Q 666 556 975 473 
Q 1284 391 1588 391 
Q 1994 391 2212 530 
Q 2431 669 2431 922 
Q 2431 1156 2273 1281 
Q 2116 1406 1581 1522 
L 1381 1569 
Q 847 1681 609 1914 
Q 372 2147 372 2553 
Q 372 3047 722 3315 
Q 1072 3584 1716 3584 
Q 2034 3584 2315 3537 
Q 2597 3491 2834 3397 
z
" transform="scale(0.015625)"/>
      <path id="DejaVuSans-20" transform="scale(0.015625)"/>
      <path id="DejaVuSans-6f" d="M 1959 3097 
Q 1497 3097 1228 2736 
Q 959 2375 959 1747 
Q 959 1119 1226 758 
Q 1494 397 1959 397 
Q 2419 397 2687 759 
Q 2956 1122 2956 1747 
Q 2956 2369 2687 2733 
Q 2419 3097 1959 3097 
z
M 1959 3584 
Q 2709 3584 3137 3096 
Q 3566 2609 3566 1747 
Q 3566 888 3137 398 
Q 2709 -91 1959 -91 
Q 1206 -91 779 398 
Q 353 888 353 1747 
Q 353 2609 779 3096 
Q 1206 3584 1959 3584 
z
" transform="scale(0.015625)"/>
      <path id="DejaVuSans-66" d="M 2375 4863 
L 2375 4384 
L 1825 4384 
Q 1516 4384 1395 4259 
Q 1275 4134 1275 3809 
L 1275 3500 
L 2222 3500 
L 2222 3053 
L 1275 3053 
L 1275 0 
L 697 0 
L 697 3053 
L 147 3053 
L 147 3500 
L 697 3500 
L 697 3744 
Q 697 4328 969 4595 
Q 1241 4863 1831 4863 
L 2375 4863 
z
" transform="scale(0.015625)"/>
      <path id="DejaVuSans-68" d="M 3513 2113 
L 3513 0 
L 2938 0 
L 2938 2094 
Q 2938 2591 2744 2837 
Q 2550 3084 2163 3084 
Q 1697 3084 1428 2787 
Q 1159 2491 1159 1978 
L 1159 0 
L 581 0 
L 581 4863 
L 1159 4863 
L 1159 2956 
Q 1366 3272 1645 3428 
Q 1925 3584 2291 3584 
Q 2894 3584 3203 3211 
Q 3513 2838 3513 2113 
z
" transform="scale(0.015625)"/>
      <path id="DejaVuSans-2d" d="M 313 2009 
L 1997 2009 
L 1997 1497 
L 313 1497 
L 313 2009 
z
" transform="scale(0.015625)"/>
      <path id="DejaVuSans-69" d="M 603 3500 
L 1178 3500 
L 1178 0 
L 603 0 
L 603 3500 
z
M 603 4863 
L 1178 4863 
L 1178 4134 
L 603 4134 
L 603 4863 
z
" transform="scale(0.015625)"/>
      <path id="DejaVuSans-77" d="M 269 3500 
L 844 3500 
L 1563 769 
L 2278 3500 
L 2956 3500 
L 3675 769 
L 4391 3500 
L 4966 3500 
L 4050 0 
L 3372 0 
L 2619 2869 
L 1863 0 
L 1184 0 
L 269 3500 
z
" transform="scale(0.015625)"/>
      <path id="DejaVuSans-72" d="M 2631 2963 
Q 2534 3019 2420 3045 
Q 2306 3072 2169 3072 
Q 1681 3072 1420 2755 
Q 1159 2438 1159 1844 
L 1159 0 
L 581 0 
L 581 3500 
L 1159 3500 
L 1159 2956 
Q 1341 3275 1631 3429 
Q 1922 3584 2338 3584 
Q 2397 3584 2469 3576 
Q 2541 3569 2628 3553 
L 2631 2963 
z
" transform="scale(0.015625)"/>
      <path id="DejaVuSans-64" d="M 2906 2969 
L 2906 4863 
L 3481 4863 
L 3481 0 
L 2906 0 
L 2906 525 
Q 2725 213 2448 61 
Q 2172 -91 1784 -91 
Q 1150 -91 751 415 
Q 353 922 353 1747 
Q 353 2572 751 3078 
Q 1150 3584 1784 3584 
Q 2172 3584 2448 3432 
Q 2725 3281 2906 2969 
z
M 947 1747 
Q 947 1113 1208 752 
Q 1469 391 1925 391 
Q 2381 391 2643 752 
Q 2906 1113 2906 1747 
Q 2906 2381 2643 2742 
Q 2381 3103 1925 3103 
Q 1469 3103 1208 2742 
Q 947 2381 947 1747 
z
" transform="scale(0.015625)"/>
     </defs>
     <use xlink:href="#DejaVuSans-62"/>
     <use xlink:href="#DejaVuSans-79" transform="translate(63.476562 0)"/>
     <use xlink:href="#DejaVuSans-74" transform="translate(122.65625 0)"/>
     <use xlink:href="#DejaVuSans-65" transform="translate(161.865234 0)"/>
     <use xlink:href="#DejaVuSans-73" transform="translate(223.388672 0)"/>
     <use xlink:href="#DejaVuSans-20" transform="translate(275.488281 0)"/>
     <use xlink:href="#DejaVuSans-6f" transform="translate(307.275391 0)"/>
     <use xlink:href="#DejaVuSans-66" transform="translate(368.457031 0)"/>
     <use xlink:href="#DejaVuSans-20" transform="translate(403.662109 0)"/>
     <use xlink:href="#DejaVuSans-74" transform="translate(435.449219 0)"/>
     <use xlink:href="#DejaVuSans-68" transform="translate(474.658203 0)"/>
     <use xlink:href="#DejaVuSans-65" transform="translate(538.037109 0)"/>
     <use xlink:href="#DejaVuSans-20" transform="translate(599.560547 0)"/>
     <use xlink:href="#DejaVuSans-33" transform="translate(631.347656 0)"/>
     <use xlink:href="#DejaVuSans-32" transform="translate(694.970703 0)"/>
     <use xlink:href="#DejaVuSans-2d" transform="translate(758.59375 0)"/>
     <use xlink:href="#DejaVuSans-62" transform="translate(794.677734 0)"/>
     <use xlink:href="#DejaVuSans-69" transform="translate(858.154297 0)"/>
     <use xlink:href="#DejaVuSans-74" transform="translate(885.9375 0)"/>
     <use xlink:href="#DejaVuSans-20" transform="translate(925.146484 0)"/>
     <use xlink:href="#DejaVuSans-77" transform="translate(956.933594 0)"/>
     <use xlink:href="#DejaVuSans-6f" transform="translate(1038.720703 0)"/>
     <use xlink:href="#DejaVuSans-72" transform="translate(1099.902344 0)"/>
     <use xlink:href="#DejaVuSans-64" transform="translate(1139.265625 0)"/>
    </g>
   </g>
   <g id="text_7">
    <!-- 1X -->
    <g style="fill: #1f2937" transform="translate(135.699694 80.366912) scale(0.11 -0.11)">
     <defs>
      <path id="DejaVuSans-Bold-31" d="M 750 831 
L 1813 831 
L 1813 3847 
L 722 3622 
L 722 4441 
L 1806 4666 
L 2950 4666 
L 2950 831 
L 4013 831 
L 4013 0 
L 750 0 
L 750 831 
z
" transform="scale(0.015625)"/>
      <path id="DejaVuSans-Bold-58" d="M 3188 2381 
L 4806 0 
L 3553 0 
L 2463 1594 
L 1381 0 
L 122 0 
L 1741 2381 
L 184 4666 
L 1441 4666 
L 2463 3163 
L 3481 4666 
L 4744 4666 
L 3188 2381 
z
" transform="scale(0.015625)"/>
     </defs>
     <use xlink:href="#DejaVuSans-Bold-31"/>
     <use xlink:href="#DejaVuSans-Bold-58" transform="translate(69.580078 0)"/>
    </g>
   </g>
   <g id="text_8">
    <!-- fp8 / mxfp8 -->
    <g style="fill: #1f2937" transform="translate(108.448444 102.353291) scale(0.075 -0.075)">
     <defs>
      <path id="DejaVuSans-70" d="M 1159 525 
L 1159 -1331 
L 581 -1331 
L 581 3500 
L 1159 3500 
L 1159 2969 
Q 1341 3281 1617 3432 
Q 1894 3584 2278 3584 
Q 2916 3584 3314 3078 
Q 3713 2572 3713 1747 
Q 3713 922 3314 415 
Q 2916 -91 2278 -91 
Q 1894 -91 1617 61 
Q 1341 213 1159 525 
z
M 3116 1747 
Q 3116 2381 2855 2742 
Q 2594 3103 2138 3103 
Q 1681 3103 1420 2742 
Q 1159 2381 1159 1747 
Q 1159 1113 1420 752 
Q 1681 391 2138 391 
Q 2594 391 2855 752 
Q 3116 1113 3116 1747 
z
" transform="scale(0.015625)"/>
      <path id="DejaVuSans-2f" d="M 1625 4666 
L 2156 4666 
L 531 -594 
L 0 -594 
L 1625 4666 
z
" transform="scale(0.015625)"/>
      <path id="DejaVuSans-6d" d="M 3328 2828 
Q 3544 3216 3844 3400 
Q 4144 3584 4550 3584 
Q 5097 3584 5394 3201 
Q 5691 2819 5691 2113 
L 5691 0 
L 5113 0 
L 5113 2094 
Q 5113 2597 4934 2840 
Q 4756 3084 4391 3084 
Q 3944 3084 3684 2787 
Q 3425 2491 3425 1978 
L 3425 0 
L 2847 0 
L 2847 2094 
Q 2847 2600 2669 2842 
Q 2491 3084 2119 3084 
Q 1678 3084 1418 2786 
Q 1159 2488 1159 1978 
L 1159 0 
L 581 0 
L 581 3500 
L 1159 3500 
L 1159 2956 
Q 1356 3278 1631 3431 
Q 1906 3584 2284 3584 
Q 2666 3584 2933 3390 
Q 3200 3197 3328 2828 
z
" transform="scale(0.015625)"/>
      <path id="DejaVuSans-78" d="M 3513 3500 
L 2247 1797 
L 3578 0 
L 2900 0 
L 1881 1375 
L 863 0 
L 184 0 
L 1544 1831 
L 300 3500 
L 978 3500 
L 1906 2253 
L 2834 3500 
L 3513 3500 
z
" transform="scale(0.015625)"/>
     </defs>
     <use xlink:href="#DejaVuSans-66"/>
     <use xlink:href="#DejaVuSans-70" transform="translate(35.205078 0)"/>
     <use xlink:href="#DejaVuSans-38" transform="translate(98.681641 0)"/>
     <use xlink:href="#DejaVuSans-20" transform="translate(162.304688 0)"/>
     <use xlink:href="#DejaVuSans-2f" transform="translate(194.091797 0)"/>
     <use xlink:href="#DejaVuSans-20" transform="translate(227.783203 0)"/>
     <use xlink:href="#DejaVuSans-6d" transform="translate(259.570312 0)"/>
     <use xlink:href="#DejaVuSans-78" transform="translate(356.982422 0)"/>
     <use xlink:href="#DejaVuSans-66" transform="translate(416.162109 0)"/>
     <use xlink:href="#DejaVuSans-70" transform="translate(451.367188 0)"/>
     <use xlink:href="#DejaVuSans-38" transform="translate(514.84375 0)"/>
    </g>
   </g>
   <g id="text_9">
    <!-- SF0 -->
    <g style="fill: #ffffff" transform="translate(187.920619 79.815037) scale(0.09 -0.09)">
     <defs>
      <path id="DejaVuSans-Bold-53" d="M 3834 4519 
L 3834 3531 
Q 3450 3703 3084 3790 
Q 2719 3878 2394 3878 
Q 1963 3878 1756 3759 
Q 1550 3641 1550 3391 
Q 1550 3203 1689 3098 
Q 1828 2994 2194 2919 
L 2706 2816 
Q 3484 2659 3812 2340 
Q 4141 2022 4141 1434 
Q 4141 663 3683 286 
Q 3225 -91 2284 -91 
Q 1841 -91 1394 -6 
Q 947 78 500 244 
L 500 1259 
Q 947 1022 1364 901 
Q 1781 781 2169 781 
Q 2563 781 2772 912 
Q 2981 1044 2981 1288 
Q 2981 1506 2839 1625 
Q 2697 1744 2272 1838 
L 1806 1941 
Q 1106 2091 782 2419 
Q 459 2747 459 3303 
Q 459 4000 909 4375 
Q 1359 4750 2203 4750 
Q 2588 4750 2994 4692 
Q 3400 4634 3834 4519 
z
" transform="scale(0.015625)"/>
      <path id="DejaVuSans-Bold-46" d="M 588 4666 
L 3834 4666 
L 3834 3756 
L 1791 3756 
L 1791 2888 
L 3713 2888 
L 3713 1978 
L 1791 1978 
L 1791 0 
L 588 0 
L 588 4666 
z
" transform="scale(0.015625)"/>
      <path id="DejaVuSans-Bold-30" d="M 2944 2338 
Q 2944 3213 2780 3570 
Q 2616 3928 2228 3928 
Q 1841 3928 1675 3570 
Q 1509 3213 1509 2338 
Q 1509 1453 1675 1090 
Q 1841 728 2228 728 
Q 2613 728 2778 1090 
Q 2944 1453 2944 2338 
z
M 4147 2328 
Q 4147 1169 3647 539 
Q 3147 -91 2228 -91 
Q 1306 -91 806 539 
Q 306 1169 306 2328 
Q 306 3491 806 4120 
Q 1306 4750 2228 4750 
Q 3147 4750 3647 4120 
Q 4147 3491 4147 2328 
z
" transform="scale(0.015625)"/>
     </defs>
     <use xlink:href="#DejaVuSans-Bold-53"/>
     <use xlink:href="#DejaVuSans-Bold-46" transform="translate(72.021484 0)"/>
     <use xlink:href="#DejaVuSans-Bold-30" transform="translate(140.332031 0)"/>
    </g>
   </g>
   <g id="text_10">
    <!-- SF0 -->
    <g style="fill: #ffffff" transform="translate(246.845419 79.815037) scale(0.09 -0.09)">
     <use xlink:href="#DejaVuSans-Bold-53"/>
     <use xlink:href="#DejaVuSans-Bold-46" transform="translate(72.021484 0)"/>
     <use xlink:href="#DejaVuSans-Bold-30" transform="translate(140.332031 0)"/>
    </g>
   </g>
   <g id="text_11">
    <!-- SF0 -->
    <g style="fill: #ffffff" transform="translate(305.770219 79.815037) scale(0.09 -0.09)">
     <use xlink:href="#DejaVuSans-Bold-53"/>
     <use xlink:href="#DejaVuSans-Bold-46" transform="translate(72.021484 0)"/>
     <use xlink:href="#DejaVuSans-Bold-30" transform="translate(140.332031 0)"/>
    </g>
   </g>
   <g id="text_12">
    <!-- SF0 -->
    <g style="fill: #ffffff" transform="translate(364.695019 79.815037) scale(0.09 -0.09)">
     <use xlink:href="#DejaVuSans-Bold-53"/>
     <use xlink:href="#DejaVuSans-Bold-46" transform="translate(72.021484 0)"/>
     <use xlink:href="#DejaVuSans-Bold-30" transform="translate(140.332031 0)"/>
    </g>
   </g>
   <g id="text_13">
    <!-- one scale, broadcast ×4   (SF_VEC = 32) -->
    <g style="fill: #1f2937" transform="translate(419.6736 79.42785) scale(0.08 -0.08)">
     <defs>
      <path id="DejaVuSans-6e" d="M 3513 2113 
L 3513 0 
L 2938 0 
L 2938 2094 
Q 2938 2591 2744 2837 
Q 2550 3084 2163 3084 
Q 1697 3084 1428 2787 
Q 1159 2491 1159 1978 
L 1159 0 
L 581 0 
L 581 3500 
L 1159 3500 
L 1159 2956 
Q 1366 3272 1645 3428 
Q 1925 3584 2291 3584 
Q 2894 3584 3203 3211 
Q 3513 2838 3513 2113 
z
" transform="scale(0.015625)"/>
      <path id="DejaVuSans-63" d="M 3122 3366 
L 3122 2828 
Q 2878 2963 2633 3030 
Q 2388 3097 2138 3097 
Q 1578 3097 1268 2742 
Q 959 2388 959 1747 
Q 959 1106 1268 751 
Q 1578 397 2138 397 
Q 2388 397 2633 464 
Q 2878 531 3122 666 
L 3122 134 
Q 2881 22 2623 -34 
Q 2366 -91 2075 -91 
Q 1284 -91 818 406 
Q 353 903 353 1747 
Q 353 2603 823 3093 
Q 1294 3584 2113 3584 
Q 2378 3584 2631 3529 
Q 2884 3475 3122 3366 
z
" transform="scale(0.015625)"/>
      <path id="DejaVuSans-61" d="M 2194 1759 
Q 1497 1759 1228 1600 
Q 959 1441 959 1056 
Q 959 750 1161 570 
Q 1363 391 1709 391 
Q 2188 391 2477 730 
Q 2766 1069 2766 1631 
L 2766 1759 
L 2194 1759 
z
M 3341 1997 
L 3341 0 
L 2766 0 
L 2766 531 
Q 2569 213 2275 61 
Q 1981 -91 1556 -91 
Q 1019 -91 701 211 
Q 384 513 384 1019 
Q 384 1609 779 1909 
Q 1175 2209 1959 2209 
L 2766 2209 
L 2766 2266 
Q 2766 2663 2505 2880 
Q 2244 3097 1772 3097 
Q 1472 3097 1187 3025 
Q 903 2953 641 2809 
L 641 3341 
Q 956 3463 1253 3523 
Q 1550 3584 1831 3584 
Q 2591 3584 2966 3190 
Q 3341 2797 3341 1997 
z
" transform="scale(0.015625)"/>
      <path id="DejaVuSans-6c" d="M 603 4863 
L 1178 4863 
L 1178 0 
L 603 0 
L 603 4863 
z
" transform="scale(0.015625)"/>
      <path id="DejaVuSans-2c" d="M 750 794 
L 1409 794 
L 1409 256 
L 897 -744 
L 494 -744 
L 750 256 
L 750 794 
z
" transform="scale(0.015625)"/>
      <path id="DejaVuSans-d7" d="M 4488 3438 
L 3059 2003 
L 4488 575 
L 4116 197 
L 2681 1631 
L 1247 197 
L 878 575 
L 2303 2003 
L 878 3438 
L 1247 3816 
L 2681 2381 
L 4116 3816 
L 4488 3438 
z
" transform="scale(0.015625)"/>
      <path id="DejaVuSans-28" d="M 1984 4856 
Q 1566 4138 1362 3434 
Q 1159 2731 1159 2009 
Q 1159 1288 1364 580 
Q 1569 -128 1984 -844 
L 1484 -844 
Q 1016 -109 783 600 
Q 550 1309 550 2009 
Q 550 2706 781 3412 
Q 1013 4119 1484 4856 
L 1984 4856 
z
" transform="scale(0.015625)"/>
      <path id="DejaVuSans-53" d="M 3425 4513 
L 3425 3897 
Q 3066 4069 2747 4153 
Q 2428 4238 2131 4238 
Q 1616 4238 1336 4038 
Q 1056 3838 1056 3469 
Q 1056 3159 1242 3001 
Q 1428 2844 1947 2747 
L 2328 2669 
Q 3034 2534 3370 2195 
Q 3706 1856 3706 1288 
Q 3706 609 3251 259 
Q 2797 -91 1919 -91 
Q 1588 -91 1214 -16 
Q 841 59 441 206 
L 441 856 
Q 825 641 1194 531 
Q 1563 422 1919 422 
Q 2459 422 2753 634 
Q 3047 847 3047 1241 
Q 3047 1584 2836 1778 
Q 2625 1972 2144 2069 
L 1759 2144 
Q 1053 2284 737 2584 
Q 422 2884 422 3419 
Q 422 4038 858 4394 
Q 1294 4750 2059 4750 
Q 2388 4750 2728 4690 
Q 3069 4631 3425 4513 
z
" transform="scale(0.015625)"/>
      <path id="DejaVuSans-46" d="M 628 4666 
L 3309 4666 
L 3309 4134 
L 1259 4134 
L 1259 2759 
L 3109 2759 
L 3109 2228 
L 1259 2228 
L 1259 0 
L 628 0 
L 628 4666 
z
" transform="scale(0.015625)"/>
      <path id="DejaVuSans-5f" d="M 3263 -1063 
L 3263 -1509 
L -63 -1509 
L -63 -1063 
L 3263 -1063 
z
" transform="scale(0.015625)"/>
      <path id="DejaVuSans-56" d="M 1831 0 
L 50 4666 
L 709 4666 
L 2188 738 
L 3669 4666 
L 4325 4666 
L 2547 0 
L 1831 0 
z
" transform="scale(0.015625)"/>
      <path id="DejaVuSans-45" d="M 628 4666 
L 3578 4666 
L 3578 4134 
L 1259 4134 
L 1259 2753 
L 3481 2753 
L 3481 2222 
L 1259 2222 
L 1259 531 
L 3634 531 
L 3634 0 
L 628 0 
L 628 4666 
z
" transform="scale(0.015625)"/>
      <path id="DejaVuSans-43" d="M 4122 4306 
L 4122 3641 
Q 3803 3938 3442 4084 
Q 3081 4231 2675 4231 
Q 1875 4231 1450 3742 
Q 1025 3253 1025 2328 
Q 1025 1406 1450 917 
Q 1875 428 2675 428 
Q 3081 428 3442 575 
Q 3803 722 4122 1019 
L 4122 359 
Q 3791 134 3420 21 
Q 3050 -91 2638 -91 
Q 1578 -91 968 557 
Q 359 1206 359 2328 
Q 359 3453 968 4101 
Q 1578 4750 2638 4750 
Q 3056 4750 3426 4639 
Q 3797 4528 4122 4306 
z
" transform="scale(0.015625)"/>
      <path id="DejaVuSans-3d" d="M 678 2906 
L 4684 2906 
L 4684 2381 
L 678 2381 
L 678 2906 
z
M 678 1631 
L 4684 1631 
L 4684 1100 
L 678 1100 
L 678 1631 
z
" transform="scale(0.015625)"/>
      <path id="DejaVuSans-29" d="M 513 4856 
L 1013 4856 
Q 1481 4119 1714 3412 
Q 1947 2706 1947 2009 
Q 1947 1309 1714 600 
Q 1481 -109 1013 -844 
L 513 -844 
Q 928 -128 1133 580 
Q 1338 1288 1338 2009 
Q 1338 2731 1133 3434 
Q 928 4138 513 4856 
z
" transform="scale(0.015625)"/>
     </defs>
     <use xlink:href="#DejaVuSans-6f"/>
     <use xlink:href="#DejaVuSans-6e" transform="translate(61.181641 0)"/>
     <use xlink:href="#DejaVuSans-65" transform="translate(124.560547 0)"/>
     <use xlink:href="#DejaVuSans-20" transform="translate(186.083984 0)"/>
     <use xlink:href="#DejaVuSans-73" transform="translate(217.871094 0)"/>
     <use xlink:href="#DejaVuSans-63" transform="translate(269.970703 0)"/>
     <use xlink:href="#DejaVuSans-61" transform="translate(324.951172 0)"/>
     <use xlink:href="#DejaVuSans-6c" transform="translate(386.230469 0)"/>
     <use xlink:href="#DejaVuSans-65" transform="translate(414.013672 0)"/>
     <use xlink:href="#DejaVuSans-2c" transform="translate(475.537109 0)"/>
     <use xlink:href="#DejaVuSans-20" transform="translate(507.324219 0)"/>
     <use xlink:href="#DejaVuSans-62" transform="translate(539.111328 0)"/>
     <use xlink:href="#DejaVuSans-72" transform="translate(602.587891 0)"/>
     <use xlink:href="#DejaVuSans-6f" transform="translate(641.451172 0)"/>
     <use xlink:href="#DejaVuSans-61" transform="translate(702.632812 0)"/>
     <use xlink:href="#DejaVuSans-64" transform="translate(763.912109 0)"/>
     <use xlink:href="#DejaVuSans-63" transform="translate(827.388672 0)"/>
     <use xlink:href="#DejaVuSans-61" transform="translate(882.369141 0)"/>
     <use xlink:href="#DejaVuSans-73" transform="translate(943.648438 0)"/>
     <use xlink:href="#DejaVuSans-74" transform="translate(995.748047 0)"/>
     <use xlink:href="#DejaVuSans-20" transform="translate(1034.957031 0)"/>
     <use xlink:href="#DejaVuSans-d7" transform="translate(1066.744141 0)"/>
     <use xlink:href="#DejaVuSans-34" transform="translate(1150.533203 0)"/>
     <use xlink:href="#DejaVuSans-20" transform="translate(1214.15625 0)"/>
     <use xlink:href="#DejaVuSans-20" transform="translate(1245.943359 0)"/>
     <use xlink:href="#DejaVuSans-20" transform="translate(1277.730469 0)"/>
     <use xlink:href="#DejaVuSans-28" transform="translate(1309.517578 0)"/>
     <use xlink:href="#DejaVuSans-53" transform="translate(1348.53125 0)"/>
     <use xlink:href="#DejaVuSans-46" transform="translate(1412.007812 0)"/>
     <use xlink:href="#DejaVuSans-5f" transform="translate(1469.527344 0)"/>
     <use xlink:href="#DejaVuSans-56" transform="translate(1519.527344 0)"/>
     <use xlink:href="#DejaVuSans-45" transform="translate(1587.935547 0)"/>
     <use xlink:href="#DejaVuSans-43" transform="translate(1651.119141 0)"/>
     <use xlink:href="#DejaVuSans-20" transform="translate(1720.943359 0)"/>
     <use xlink:href="#DejaVuSans-3d" transform="translate(1752.730469 0)"/>
     <use xlink:href="#DejaVuSans-20" transform="translate(1836.519531 0)"/>
     <use xlink:href="#DejaVuSans-33" transform="translate(1868.306641 0)"/>
     <use xlink:href="#DejaVuSans-32" transform="translate(1931.929688 0)"/>
     <use xlink:href="#DejaVuSans-29" transform="translate(1995.552734 0)"/>
    </g>
   </g>
   <g id="text_14">
    <!-- 2X -->
    <g style="fill: #1f2937" transform="translate(135.699694 131.371712) scale(0.11 -0.11)">
     <use xlink:href="#DejaVuSans-Bold-32"/>
     <use xlink:href="#DejaVuSans-Bold-58" transform="translate(69.580078 0)"/>
    </g>
   </g>
   <g id="text_15">
    <!-- mxfp4 -->
    <g style="fill: #1f2937" transform="translate(127.915631 153.358091) scale(0.075 -0.075)">
     <use xlink:href="#DejaVuSans-6d"/>
     <use xlink:href="#DejaVuSans-78" transform="translate(97.412109 0)"/>
     <use xlink:href="#DejaVuSans-66" transform="translate(156.591797 0)"/>
     <use xlink:href="#DejaVuSans-70" transform="translate(191.796875 0)"/>
     <use xlink:href="#DejaVuSans-34" transform="translate(255.273438 0)"/>
    </g>
   </g>
   <g id="text_16">
    <!-- SF0 -->
    <g style="fill: #ffffff" transform="translate(187.920619 130.819837) scale(0.09 -0.09)">
     <use xlink:href="#DejaVuSans-Bold-53"/>
     <use xlink:href="#DejaVuSans-Bold-46" transform="translate(72.021484 0)"/>
     <use xlink:href="#DejaVuSans-Bold-30" transform="translate(140.332031 0)"/>
    </g>
   </g>
   <g id="text_17">
    <!-- SF1 -->
    <g style="fill: #ffffff" transform="translate(246.845419 130.819837) scale(0.09 -0.09)">
     <use xlink:href="#DejaVuSans-Bold-53"/>
     <use xlink:href="#DejaVuSans-Bold-46" transform="translate(72.021484 0)"/>
     <use xlink:href="#DejaVuSans-Bold-31" transform="translate(140.332031 0)"/>
    </g>
   </g>
   <g id="text_18">
    <!-- SF0 -->
    <g style="fill: #ffffff" transform="translate(305.770219 130.819837) scale(0.09 -0.09)">
     <use xlink:href="#DejaVuSans-Bold-53"/>
     <use xlink:href="#DejaVuSans-Bold-46" transform="translate(72.021484 0)"/>
     <use xlink:href="#DejaVuSans-Bold-30" transform="translate(140.332031 0)"/>
    </g>
   </g>
   <g id="text_19">
    <!-- SF1 -->
    <g style="fill: #ffffff" transform="translate(364.695019 130.819837) scale(0.09 -0.09)">
     <use xlink:href="#DejaVuSans-Bold-53"/>
     <use xlink:href="#DejaVuSans-Bold-46" transform="translate(72.021484 0)"/>
     <use xlink:href="#DejaVuSans-Bold-31" transform="translate(140.332031 0)"/>
    </g>
   </g>
   <g id="text_20">
    <!-- two scales, each ×2   (SF_VEC = 32) -->
    <g style="fill: #1f2937" transform="translate(419.6736 130.43265) scale(0.08 -0.08)">
     <use xlink:href="#DejaVuSans-74"/>
     <use xlink:href="#DejaVuSans-77" transform="translate(39.208984 0)"/>
     <use xlink:href="#DejaVuSans-6f" transform="translate(120.996094 0)"/>
     <use xlink:href="#DejaVuSans-20" transform="translate(182.177734 0)"/>
     <use xlink:href="#DejaVuSans-73" transform="translate(213.964844 0)"/>
     <use xlink:href="#DejaVuSans-63" transform="translate(266.064453 0)"/>
     <use xlink:href="#DejaVuSans-61" transform="translate(321.044922 0)"/>
     <use xlink:href="#DejaVuSans-6c" transform="translate(382.324219 0)"/>
     <use xlink:href="#DejaVuSans-65" transform="translate(410.107422 0)"/>
     <use xlink:href="#DejaVuSans-73" transform="translate(471.630859 0)"/>
     <use xlink:href="#DejaVuSans-2c" transform="translate(523.730469 0)"/>
     <use xlink:href="#DejaVuSans-20" transform="translate(555.517578 0)"/>
     <use xlink:href="#DejaVuSans-65" transform="translate(587.304688 0)"/>
     <use xlink:href="#DejaVuSans-61" transform="translate(648.828125 0)"/>
     <use xlink:href="#DejaVuSans-63" transform="translate(710.107422 0)"/>
     <use xlink:href="#DejaVuSans-68" transform="translate(765.087891 0)"/>
     <use xlink:href="#DejaVuSans-20" transform="translate(828.466797 0)"/>
     <use xlink:href="#DejaVuSans-d7" transform="translate(860.253906 0)"/>
     <use xlink:href="#DejaVuSans-32" transform="translate(944.042969 0)"/>
     <use xlink:href="#DejaVuSans-20" transform="translate(1007.666016 0)"/>
     <use xlink:href="#DejaVuSans-20" transform="translate(1039.453125 0)"/>
     <use xlink:href="#DejaVuSans-20" transform="translate(1071.240234 0)"/>
     <use xlink:href="#DejaVuSans-28" transform="translate(1103.027344 0)"/>
     <use xlink:href="#DejaVuSans-53" transform="translate(1142.041016 0)"/>
     <use xlink:href="#DejaVuSans-46" transform="translate(1205.517578 0)"/>
     <use xlink:href="#DejaVuSans-5f" transform="translate(1263.037109 0)"/>
     <use xlink:href="#DejaVuSans-56" transform="translate(1313.037109 0)"/>
     <use xlink:href="#DejaVuSans-45" transform="translate(1381.445312 0)"/>
     <use xlink:href="#DejaVuSans-43" transform="translate(1444.628906 0)"/>
     <use xlink:href="#DejaVuSans-20" transform="translate(1514.453125 0)"/>
     <use xlink:href="#DejaVuSans-3d" transform="translate(1546.240234 0)"/>
     <use xlink:href="#DejaVuSans-20" transform="translate(1630.029297 0)"/>
     <use xlink:href="#DejaVuSans-33" transform="translate(1661.816406 0)"/>
     <use xlink:href="#DejaVuSans-32" transform="translate(1725.439453 0)"/>
     <use xlink:href="#DejaVuSans-29" transform="translate(1789.0625 0)"/>
    </g>
   </g>
   <g id="text_21">
    <!-- 4X -->
    <g style="fill: #1f2937" transform="translate(135.699694 182.376512) scale(0.11 -0.11)">
     <defs>
      <path id="DejaVuSans-Bold-34" d="M 2356 3675 
L 1038 1722 
L 2356 1722 
L 2356 3675 
z
M 2156 4666 
L 3494 4666 
L 3494 1722 
L 4159 1722 
L 4159 850 
L 3494 850 
L 3494 0 
L 2356 0 
L 2356 850 
L 288 850 
L 288 1881 
L 2156 4666 
z
" transform="scale(0.015625)"/>
     </defs>
     <use xlink:href="#DejaVuSans-Bold-34"/>
     <use xlink:href="#DejaVuSans-Bold-58" transform="translate(69.580078 0)"/>
    </g>
   </g>
   <g id="text_22">
    <!-- nvfp4 -->
    <g style="fill: #1f2937" transform="translate(130.467975 204.362891) scale(0.075 -0.075)">
     <defs>
      <path id="DejaVuSans-76" d="M 191 3500 
L 800 3500 
L 1894 563 
L 2988 3500 
L 3597 3500 
L 2284 0 
L 1503 0 
L 191 3500 
z
" transform="scale(0.015625)"/>
     </defs>
     <use xlink:href="#DejaVuSans-6e"/>
     <use xlink:href="#DejaVuSans-76" transform="translate(63.378906 0)"/>
     <use xlink:href="#DejaVuSans-66" transform="translate(122.558594 0)"/>
     <use xlink:href="#DejaVuSans-70" transform="translate(157.763672 0)"/>
     <use xlink:href="#DejaVuSans-34" transform="translate(221.240234 0)"/>
    </g>
   </g>
   <g id="text_23">
    <!-- SF0 -->
    <g style="fill: #ffffff" transform="translate(187.920619 181.824637) scale(0.09 -0.09)">
     <use xlink:href="#DejaVuSans-Bold-53"/>
     <use xlink:href="#DejaVuSans-Bold-46" transform="translate(72.021484 0)"/>
     <use xlink:href="#DejaVuSans-Bold-30" transform="translate(140.332031 0)"/>
    </g>
   </g>
   <g id="text_24">
    <!-- SF1 -->
    <g style="fill: #ffffff" transform="translate(246.845419 181.824637) scale(0.09 -0.09)">
     <use xlink:href="#DejaVuSans-Bold-53"/>
     <use xlink:href="#DejaVuSans-Bold-46" transform="translate(72.021484 0)"/>
     <use xlink:href="#DejaVuSans-Bold-31" transform="translate(140.332031 0)"/>
    </g>
   </g>
   <g id="text_25">
    <!-- SF2 -->
    <g style="fill: #ffffff" transform="translate(305.770219 181.824637) scale(0.09 -0.09)">
     <use xlink:href="#DejaVuSans-Bold-53"/>
     <use xlink:href="#DejaVuSans-Bold-46" transform="translate(72.021484 0)"/>
     <use xlink:href="#DejaVuSans-Bold-32" transform="translate(140.332031 0)"/>
    </g>
   </g>
   <g id="text_26">
    <!-- SF3 -->
    <g style="fill: #ffffff" transform="translate(364.695019 181.824637) scale(0.09 -0.09)">
     <use xlink:href="#DejaVuSans-Bold-53"/>
     <use xlink:href="#DejaVuSans-Bold-46" transform="translate(72.021484 0)"/>
     <use xlink:href="#DejaVuSans-Bold-33" transform="translate(140.332031 0)"/>
    </g>
   </g>
   <g id="text_27">
    <!-- four scales = four K-blocks   (SF_VEC = 16) -->
    <g style="fill: #1f2937" transform="translate(419.6736 181.43745) scale(0.08 -0.08)">
     <defs>
      <path id="DejaVuSans-75" d="M 544 1381 
L 544 3500 
L 1119 3500 
L 1119 1403 
Q 1119 906 1312 657 
Q 1506 409 1894 409 
Q 2359 409 2629 706 
Q 2900 1003 2900 1516 
L 2900 3500 
L 3475 3500 
L 3475 0 
L 2900 0 
L 2900 538 
Q 2691 219 2414 64 
Q 2138 -91 1772 -91 
Q 1169 -91 856 284 
Q 544 659 544 1381 
z
M 1991 3584 
L 1991 3584 
z
" transform="scale(0.015625)"/>
      <path id="DejaVuSans-4b" d="M 628 4666 
L 1259 4666 
L 1259 2694 
L 3353 4666 
L 4166 4666 
L 1850 2491 
L 4331 0 
L 3500 0 
L 1259 2247 
L 1259 0 
L 628 0 
L 628 4666 
z
" transform="scale(0.015625)"/>
      <path id="DejaVuSans-6b" d="M 581 4863 
L 1159 4863 
L 1159 1991 
L 2875 3500 
L 3609 3500 
L 1753 1863 
L 3688 0 
L 2938 0 
L 1159 1709 
L 1159 0 
L 581 0 
L 581 4863 
z
" transform="scale(0.015625)"/>
     </defs>
     <use xlink:href="#DejaVuSans-66"/>
     <use xlink:href="#DejaVuSans-6f" transform="translate(35.205078 0)"/>
     <use xlink:href="#DejaVuSans-75" transform="translate(96.386719 0)"/>
     <use xlink:href="#DejaVuSans-72" transform="translate(159.765625 0)"/>
     <use xlink:href="#DejaVuSans-20" transform="translate(200.878906 0)"/>
     <use xlink:href="#DejaVuSans-73" transform="translate(232.666016 0)"/>
     <use xlink:href="#DejaVuSans-63" transform="translate(284.765625 0)"/>
     <use xlink:href="#DejaVuSans-61" transform="translate(339.746094 0)"/>
     <use xlink:href="#DejaVuSans-6c" transform="translate(401.025391 0)"/>
     <use xlink:href="#DejaVuSans-65" transform="translate(428.808594 0)"/>
     <use xlink:href="#DejaVuSans-73" transform="translate(490.332031 0)"/>
     <use xlink:href="#DejaVuSans-20" transform="translate(542.431641 0)"/>
     <use xlink:href="#DejaVuSans-3d" transform="translate(574.21875 0)"/>
     <use xlink:href="#DejaVuSans-20" transform="translate(658.007812 0)"/>
     <use xlink:href="#DejaVuSans-66" transform="translate(689.794922 0)"/>
     <use xlink:href="#DejaVuSans-6f" transform="translate(725 0)"/>
     <use xlink:href="#DejaVuSans-75" transform="translate(786.181641 0)"/>
     <use xlink:href="#DejaVuSans-72" transform="translate(849.560547 0)"/>
     <use xlink:href="#DejaVuSans-20" transform="translate(890.673828 0)"/>
     <use xlink:href="#DejaVuSans-4b" transform="translate(922.460938 0)"/>
     <use xlink:href="#DejaVuSans-2d" transform="translate(977.537109 0)"/>
     <use xlink:href="#DejaVuSans-62" transform="translate(1013.621094 0)"/>
     <use xlink:href="#DejaVuSans-6c" transform="translate(1077.097656 0)"/>
     <use xlink:href="#DejaVuSans-6f" transform="translate(1104.880859 0)"/>
     <use xlink:href="#DejaVuSans-63" transform="translate(1166.0625 0)"/>
     <use xlink:href="#DejaVuSans-6b" transform="translate(1221.042969 0)"/>
     <use xlink:href="#DejaVuSans-73" transform="translate(1278.953125 0)"/>
     <use xlink:href="#DejaVuSans-20" transform="translate(1331.052734 0)"/>
     <use xlink:href="#DejaVuSans-20" transform="translate(1362.839844 0)"/>
     <use xlink:href="#DejaVuSans-20" transform="translate(1394.626953 0)"/>
     <use xlink:href="#DejaVuSans-28" transform="translate(1426.414062 0)"/>
     <use xlink:href="#DejaVuSans-53" transform="translate(1465.427734 0)"/>
     <use xlink:href="#DejaVuSans-46" transform="translate(1528.904297 0)"/>
     <use xlink:href="#DejaVuSans-5f" transform="translate(1586.423828 0)"/>
     <use xlink:href="#DejaVuSans-56" transform="translate(1636.423828 0)"/>
     <use xlink:href="#DejaVuSans-45" transform="translate(1704.832031 0)"/>
     <use xlink:href="#DejaVuSans-43" transform="translate(1768.015625 0)"/>
     <use xlink:href="#DejaVuSans-20" transform="translate(1837.839844 0)"/>
     <use xlink:href="#DejaVuSans-3d" transform="translate(1869.626953 0)"/>
     <use xlink:href="#DejaVuSans-20" transform="translate(1953.416016 0)"/>
     <use xlink:href="#DejaVuSans-31" transform="translate(1985.203125 0)"/>
     <use xlink:href="#DejaVuSans-36" transform="translate(2048.826172 0)"/>
     <use xlink:href="#DejaVuSans-29" transform="translate(2112.449219 0)"/>
    </g>
   </g>
   <g id="text_28">
    <!-- SFk = the scale for K-block k of one M-row.  sf_per_mma (the “×N”) = mma_k / SF_VEC: 1 (fp8), 2 (mxfp4), 4 (nvfp4). -->
    <g style="fill: #1f2937" transform="translate(51.977031 239.27184) scale(0.076 -0.076)">
     <defs>
      <path id="DejaVuSans-Oblique-53" d="M 3859 4513 
L 3738 3897 
Q 3422 4066 3111 4152 
Q 2800 4238 2509 4238 
Q 1944 4238 1609 3991 
Q 1275 3744 1275 3334 
Q 1275 3109 1398 2989 
Q 1522 2869 2034 2731 
L 2413 2638 
Q 3053 2472 3303 2217 
Q 3553 1963 3553 1503 
Q 3553 797 2998 353 
Q 2444 -91 1538 -91 
Q 1166 -91 791 -17 
Q 416 56 38 206 
L 166 856 
Q 513 641 861 531 
Q 1209 422 1556 422 
Q 2147 422 2503 684 
Q 2859 947 2859 1369 
Q 2859 1650 2717 1795 
Q 2575 1941 2106 2059 
L 1728 2156 
Q 1081 2325 845 2545 
Q 609 2766 609 3163 
Q 609 3859 1145 4304 
Q 1681 4750 2541 4750 
Q 2875 4750 3203 4690 
Q 3531 4631 3859 4513 
z
" transform="scale(0.015625)"/>
      <path id="DejaVuSans-Oblique-46" d="M 1081 4666 
L 3756 4666 
L 3653 4134 
L 1606 4134 
L 1338 2759 
L 3188 2759 
L 3084 2228 
L 1234 2228 
L 800 0 
L 172 0 
L 1081 4666 
z
" transform="scale(0.015625)"/>
      <path id="DejaVuSans-Oblique-6b" d="M 1172 4863 
L 1747 4863 
L 1197 2028 
L 3169 3500 
L 3916 3500 
L 1716 1825 
L 3322 0 
L 2625 0 
L 1131 1709 
L 800 0 
L 225 0 
L 1172 4863 
z
" transform="scale(0.015625)"/>
      <path id="DejaVuSans-Oblique-20" transform="scale(0.015625)"/>
      <path id="DejaVuSans-Oblique-3d" d="M 678 2906 
L 4684 2906 
L 4684 2381 
L 678 2381 
L 678 2906 
z
M 678 1631 
L 4684 1631 
L 4684 1100 
L 678 1100 
L 678 1631 
z
" transform="scale(0.015625)"/>
      <path id="DejaVuSans-Oblique-74" d="M 2706 3500 
L 2619 3053 
L 1472 3053 
L 1100 1153 
Q 1081 1047 1072 975 
Q 1063 903 1063 863 
Q 1063 663 1183 572 
Q 1303 481 1569 481 
L 2150 481 
L 2053 0 
L 1503 0 
Q 991 0 739 200 
Q 488 400 488 806 
Q 488 878 497 964 
Q 506 1050 525 1153 
L 897 3053 
L 409 3053 
L 500 3500 
L 978 3500 
L 1172 4494 
L 1747 4494 
L 1556 3500 
L 2706 3500 
z
" transform="scale(0.015625)"/>
      <path id="DejaVuSans-Oblique-68" d="M 3566 2113 
L 3156 0 
L 2578 0 
L 2988 2091 
Q 3016 2238 3031 2350 
Q 3047 2463 3047 2528 
Q 3047 2791 2881 2937 
Q 2716 3084 2419 3084 
Q 1956 3084 1617 2771 
Q 1278 2459 1178 1941 
L 800 0 
L 225 0 
L 1172 4863 
L 1747 4863 
L 1375 2950 
Q 1594 3244 1934 3414 
Q 2275 3584 2650 3584 
Q 3113 3584 3367 3334 
Q 3622 3084 3622 2631 
Q 3622 2519 3608 2391 
Q 3594 2263 3566 2113 
z
" transform="scale(0.015625)"/>
      <path id="DejaVuSans-Oblique-65" d="M 3078 2063 
Q 3088 2113 3092 2166 
Q 3097 2219 3097 2272 
Q 3097 2653 2873 2875 
Q 2650 3097 2266 3097 
Q 1838 3097 1509 2826 
Q 1181 2556 1013 2059 
L 3078 2063 
z
M 3578 1613 
L 903 1613 
Q 884 1494 878 1425 
Q 872 1356 872 1306 
Q 872 872 1139 634 
Q 1406 397 1894 397 
Q 2269 397 2603 481 
Q 2938 566 3225 728 
L 3116 159 
Q 2806 34 2476 -28 
Q 2147 -91 1806 -91 
Q 1078 -91 686 257 
Q 294 606 294 1247 
Q 294 1794 489 2264 
Q 684 2734 1063 3103 
Q 1306 3334 1642 3459 
Q 1978 3584 2356 3584 
Q 2950 3584 3301 3228 
Q 3653 2872 3653 2272 
Q 3653 2128 3634 1964 
Q 3616 1800 3578 1613 
z
" transform="scale(0.015625)"/>
      <path id="DejaVuSans-Oblique-73" d="M 3200 3397 
L 3091 2853 
Q 2863 2978 2609 3040 
Q 2356 3103 2088 3103 
Q 1634 3103 1373 2948 
Q 1113 2794 1113 2528 
Q 1113 2219 1719 2053 
Q 1766 2041 1788 2034 
L 1972 1978 
Q 2547 1819 2739 1644 
Q 2931 1469 2931 1166 
Q 2931 609 2489 259 
Q 2047 -91 1331 -91 
Q 1053 -91 747 -37 
Q 441 16 72 128 
L 184 722 
Q 500 559 806 475 
Q 1113 391 1394 391 
Q 1816 391 2080 572 
Q 2344 753 2344 1031 
Q 2344 1331 1650 1516 
L 1591 1531 
L 1394 1581 
Q 956 1697 753 1886 
Q 550 2075 550 2369 
Q 550 2928 970 3256 
Q 1391 3584 2113 3584 
Q 2397 3584 2667 3537 
Q 2938 3491 3200 3397 
z
" transform="scale(0.015625)"/>
      <path id="DejaVuSans-Oblique-63" d="M 3431 3366 
L 3316 2797 
Q 3109 2947 2876 3022 
Q 2644 3097 2394 3097 
Q 2119 3097 1870 3000 
Q 1622 2903 1453 2725 
Q 1184 2453 1037 2087 
Q 891 1722 891 1331 
Q 891 859 1127 628 
Q 1363 397 1844 397 
Q 2081 397 2348 469 
Q 2616 541 2906 684 
L 2797 116 
Q 2547 13 2283 -39 
Q 2019 -91 1741 -91 
Q 1044 -91 669 257 
Q 294 606 294 1253 
Q 294 1797 489 2255 
Q 684 2713 1069 3078 
Q 1331 3328 1684 3456 
Q 2038 3584 2456 3584 
Q 2700 3584 2940 3529 
Q 3181 3475 3431 3366 
z
" transform="scale(0.015625)"/>
      <path id="DejaVuSans-Oblique-61" d="M 3438 1997 
L 3047 0 
L 2472 0 
L 2578 531 
Q 2325 219 2001 64 
Q 1678 -91 1281 -91 
Q 834 -91 548 182 
Q 263 456 263 884 
Q 263 1497 752 1853 
Q 1241 2209 2100 2209 
L 2900 2209 
L 2931 2363 
Q 2938 2388 2941 2417 
Q 2944 2447 2944 2509 
Q 2944 2788 2717 2942 
Q 2491 3097 2081 3097 
Q 1800 3097 1504 3025 
Q 1209 2953 897 2809 
L 997 3341 
Q 1322 3463 1633 3523 
Q 1944 3584 2234 3584 
Q 2853 3584 3176 3315 
Q 3500 3047 3500 2534 
Q 3500 2431 3484 2292 
Q 3469 2153 3438 1997 
z
M 2816 1759 
L 2241 1759 
Q 1534 1759 1195 1570 
Q 856 1381 856 984 
Q 856 709 1029 553 
Q 1203 397 1509 397 
Q 1978 397 2328 733 
Q 2678 1069 2791 1631 
L 2816 1759 
z
" transform="scale(0.015625)"/>
      <path id="DejaVuSans-Oblique-6c" d="M 1172 4863 
L 1747 4863 
L 800 0 
L 225 0 
L 1172 4863 
z
" transform="scale(0.015625)"/>
      <path id="DejaVuSans-Oblique-66" d="M 3059 4863 
L 2969 4384 
L 2419 4384 
Q 2106 4384 1964 4261 
Q 1822 4138 1753 3809 
L 1691 3500 
L 2638 3500 
L 2553 3053 
L 1606 3053 
L 1013 0 
L 434 0 
L 1031 3053 
L 481 3053 
L 563 3500 
L 1113 3500 
L 1159 3744 
Q 1278 4363 1576 4613 
Q 1875 4863 2516 4863 
L 3059 4863 
z
" transform="scale(0.015625)"/>
      <path id="DejaVuSans-Oblique-6f" d="M 1625 -91 
Q 1009 -91 651 289 
Q 294 669 294 1325 
Q 294 1706 417 2101 
Q 541 2497 738 2766 
Q 1047 3184 1428 3384 
Q 1809 3584 2291 3584 
Q 2888 3584 3255 3212 
Q 3622 2841 3622 2241 
Q 3622 1825 3500 1412 
Q 3378 1000 3181 728 
Q 2875 309 2494 109 
Q 2113 -91 1625 -91 
z
M 891 1344 
Q 891 869 1089 633 
Q 1288 397 1691 397 
Q 2269 397 2648 901 
Q 3028 1406 3028 2181 
Q 3028 2634 2825 2865 
Q 2622 3097 2228 3097 
Q 1903 3097 1650 2945 
Q 1397 2794 1197 2484 
Q 1050 2253 970 1956 
Q 891 1659 891 1344 
z
" transform="scale(0.015625)"/>
      <path id="DejaVuSans-Oblique-72" d="M 2853 2969 
Q 2766 3016 2653 3041 
Q 2541 3066 2413 3066 
Q 1953 3066 1609 2717 
Q 1266 2369 1153 1784 
L 800 0 
L 225 0 
L 909 3500 
L 1484 3500 
L 1375 2956 
Q 1603 3259 1920 3421 
Q 2238 3584 2597 3584 
Q 2691 3584 2781 3573 
Q 2872 3563 2963 3538 
L 2853 2969 
z
" transform="scale(0.015625)"/>
      <path id="DejaVuSans-Oblique-4b" d="M 1081 4666 
L 1716 4666 
L 1331 2700 
L 3781 4666 
L 4622 4666 
L 1850 2438 
L 3878 0 
L 3109 0 
L 1247 2272 
L 806 0 
L 172 0 
L 1081 4666 
z
" transform="scale(0.015625)"/>
      <path id="DejaVuSans-Oblique-2d" d="M 391 2009 
L 2075 2009 
L 1978 1497 
L 288 1497 
L 391 2009 
z
" transform="scale(0.015625)"/>
      <path id="DejaVuSans-Oblique-62" d="M 3169 2138 
Q 3169 2591 2961 2847 
Q 2753 3103 2388 3103 
Q 2122 3103 1889 2973 
Q 1656 2844 1484 2597 
Q 1303 2338 1198 1995 
Q 1094 1653 1094 1313 
Q 1094 881 1298 636 
Q 1503 391 1863 391 
Q 2134 391 2365 517 
Q 2597 644 2772 891 
Q 2950 1147 3059 1487 
Q 3169 1828 3169 2138 
z
M 1381 2969 
Q 1594 3256 1914 3420 
Q 2234 3584 2584 3584 
Q 3122 3584 3439 3221 
Q 3756 2859 3756 2241 
Q 3756 1734 3570 1259 
Q 3384 784 3041 416 
Q 2816 172 2522 40 
Q 2228 -91 1906 -91 
Q 1566 -91 1316 65 
Q 1066 222 909 531 
L 806 0 
L 231 0 
L 1178 4863 
L 1753 4863 
L 1381 2969 
z
" transform="scale(0.015625)"/>
      <path id="DejaVuSans-Oblique-6e" d="M 3566 2113 
L 3156 0 
L 2578 0 
L 2988 2091 
Q 3016 2238 3031 2350 
Q 3047 2463 3047 2528 
Q 3047 2791 2881 2937 
Q 2716 3084 2419 3084 
Q 1956 3084 1622 2776 
Q 1288 2469 1184 1941 
L 800 0 
L 225 0 
L 903 3500 
L 1478 3500 
L 1363 2950 
Q 1603 3253 1940 3418 
Q 2278 3584 2650 3584 
Q 3113 3584 3367 3334 
Q 3622 3084 3622 2631 
Q 3622 2519 3608 2391 
Q 3594 2263 3566 2113 
z
" transform="scale(0.015625)"/>
      <path id="DejaVuSans-Oblique-4d" d="M 1081 4666 
L 2028 4666 
L 2572 1522 
L 4378 4666 
L 5350 4666 
L 4441 0 
L 3828 0 
L 4622 4091 
L 2791 897 
L 2175 897 
L 1581 4103 
L 788 0 
L 172 0 
L 1081 4666 
z
" transform="scale(0.015625)"/>
      <path id="DejaVuSans-Oblique-77" d="M 544 3500 
L 1113 3500 
L 1259 684 
L 2566 3500 
L 3231 3500 
L 3425 684 
L 4666 3500 
L 5241 3500 
L 3641 0 
L 2969 0 
L 2797 2900 
L 1459 0 
L 781 0 
L 544 3500 
z
" transform="scale(0.015625)"/>
      <path id="DejaVuSans-Oblique-2e" d="M 525 794 
L 1184 794 
L 1031 0 
L 372 0 
L 525 794 
z
" transform="scale(0.015625)"/>
      <path id="DejaVuSans-Oblique-5f" d="M 3263 -1063 
L 3263 -1509 
L -63 -1509 
L -63 -1063 
L 3263 -1063 
z
" transform="scale(0.015625)"/>
      <path id="DejaVuSans-Oblique-70" d="M 3175 2156 
Q 3175 2616 2975 2859 
Q 2775 3103 2400 3103 
Q 2144 3103 1911 2972 
Q 1678 2841 1497 2591 
Q 1319 2344 1212 1994 
Q 1106 1644 1106 1300 
Q 1106 863 1306 627 
Q 1506 391 1875 391 
Q 2147 391 2380 519 
Q 2613 647 2778 891 
Q 2956 1147 3065 1494 
Q 3175 1841 3175 2156 
z
M 1394 2969 
Q 1625 3272 1939 3428 
Q 2253 3584 2638 3584 
Q 3175 3584 3472 3232 
Q 3769 2881 3769 2247 
Q 3769 1728 3584 1258 
Q 3400 788 3053 416 
Q 2822 169 2531 39 
Q 2241 -91 1919 -91 
Q 1547 -91 1294 64 
Q 1041 219 916 525 
L 556 -1331 
L -19 -1331 
L 922 3500 
L 1497 3500 
L 1394 2969 
z
" transform="scale(0.015625)"/>
      <path id="DejaVuSans-Oblique-6d" d="M 5747 2113 
L 5338 0 
L 4763 0 
L 5166 2094 
Q 5191 2228 5203 2325 
Q 5216 2422 5216 2491 
Q 5216 2772 5059 2928 
Q 4903 3084 4622 3084 
Q 4203 3084 3875 2770 
Q 3547 2456 3450 1953 
L 3066 0 
L 2491 0 
L 2900 2094 
Q 2925 2209 2937 2307 
Q 2950 2406 2950 2484 
Q 2950 2769 2794 2926 
Q 2638 3084 2363 3084 
Q 1938 3084 1609 2770 
Q 1281 2456 1184 1953 
L 800 0 
L 225 0 
L 909 3500 
L 1484 3500 
L 1375 2956 
Q 1609 3263 1923 3423 
Q 2238 3584 2597 3584 
Q 2978 3584 3223 3384 
Q 3469 3184 3519 2828 
Q 3781 3197 4126 3390 
Q 4472 3584 4856 3584 
Q 5306 3584 5551 3325 
Q 5797 3066 5797 2591 
Q 5797 2488 5784 2364 
Q 5772 2241 5747 2113 
z
" transform="scale(0.015625)"/>
      <path id="DejaVuSans-Oblique-28" d="M 2731 4856 
Q 1903 3822 1495 2892 
Q 1088 1963 1088 1100 
Q 1088 606 1206 120 
Q 1325 -366 1563 -844 
L 1063 -844 
Q 775 -306 634 201 
Q 494 709 494 1197 
Q 494 2125 923 3036 
Q 1353 3947 2222 4856 
L 2731 4856 
z
" transform="scale(0.015625)"/>
      <path id="DejaVuSans-Oblique-201c" d="M 1497 3128 
L 838 3128 
L 947 3669 
L 1650 4666 
L 2053 4666 
L 1606 3669 
L 1497 3128 
z
M 2778 3128 
L 2119 3128 
L 2228 3669 
L 2931 4666 
L 3334 4666 
L 2888 3669 
L 2778 3128 
z
" transform="scale(0.015625)"/>
      <path id="DejaVuSans-Oblique-d7" d="M 4488 3438 
L 3059 2003 
L 4488 575 
L 4116 197 
L 2681 1631 
L 1247 197 
L 878 575 
L 2303 2003 
L 878 3438 
L 1247 3816 
L 2681 2381 
L 4116 3816 
L 4488 3438 
z
" transform="scale(0.015625)"/>
      <path id="DejaVuSans-Oblique-4e" d="M 1081 4666 
L 1931 4666 
L 3219 666 
L 4000 4666 
L 4616 4666 
L 3706 0 
L 2853 0 
L 1569 4025 
L 788 0 
L 172 0 
L 1081 4666 
z
" transform="scale(0.015625)"/>
      <path id="DejaVuSans-Oblique-201d" d="M 1422 4666 
L 2081 4666 
L 1972 4128 
L 1269 3128 
L 863 3128 
L 1313 4128 
L 1422 4666 
z
M 2700 4666 
L 3359 4666 
L 3250 4128 
L 2547 3128 
L 2144 3128 
L 2591 4128 
L 2700 4666 
z
" transform="scale(0.015625)"/>
      <path id="DejaVuSans-Oblique-29" d="M -397 -844 
Q 434 191 840 1120 
Q 1247 2050 1247 2913 
Q 1247 3406 1130 3892 
Q 1013 4378 775 4856 
L 1275 4856 
Q 1563 4316 1703 3812 
Q 1844 3309 1844 2822 
Q 1844 1891 1411 973 
Q 978 56 116 -844 
L -397 -844 
z
" transform="scale(0.015625)"/>
      <path id="DejaVuSans-Oblique-2f" d="M 2175 4666 
L 2731 4666 
L 84 -594 
L -469 -594 
L 2175 4666 
z
" transform="scale(0.015625)"/>
      <path id="DejaVuSans-Oblique-56" d="M 1319 0 
L 500 4666 
L 1119 4666 
L 1797 653 
L 4063 4666 
L 4750 4666 
L 2053 0 
L 1319 0 
z
" transform="scale(0.015625)"/>
      <path id="DejaVuSans-Oblique-45" d="M 1081 4666 
L 4031 4666 
L 3928 4134 
L 1606 4134 
L 1338 2753 
L 3566 2753 
L 3463 2222 
L 1234 2222 
L 909 531 
L 3284 531 
L 3181 0 
L 172 0 
L 1081 4666 
z
" transform="scale(0.015625)"/>
      <path id="DejaVuSans-Oblique-43" d="M 4447 4306 
L 4319 3641 
Q 4019 3944 3683 4091 
Q 3347 4238 2956 4238 
Q 2422 4238 2017 3981 
Q 1613 3725 1319 3200 
Q 1131 2863 1032 2486 
Q 934 2109 934 1728 
Q 934 1091 1264 756 
Q 1594 422 2222 422 
Q 2656 422 3056 561 
Q 3456 700 3834 978 
L 3688 231 
Q 3316 72 2936 -9 
Q 2556 -91 2175 -91 
Q 1278 -91 773 396 
Q 269 884 269 1753 
Q 269 2309 461 2846 
Q 653 3384 1013 3828 
Q 1394 4300 1883 4525 
Q 2372 4750 3022 4750 
Q 3422 4750 3780 4639 
Q 4138 4528 4447 4306 
z
" transform="scale(0.015625)"/>
      <path id="DejaVuSans-Oblique-3a" d="M 978 3309 
L 1638 3309 
L 1484 2516 
L 825 2516 
L 978 3309 
z
M 488 794 
L 1147 794 
L 991 0 
L 331 0 
L 488 794 
z
" transform="scale(0.015625)"/>
      <path id="DejaVuSans-Oblique-31" d="M 416 531 
L 1447 531 
L 2144 4122 
L 978 3897 
L 1088 4441 
L 2247 4666 
L 2881 4666 
L 2075 531 
L 3103 531 
L 3003 0 
L 313 0 
L 416 531 
z
" transform="scale(0.015625)"/>
      <path id="DejaVuSans-Oblique-38" d="M 2847 1416 
Q 2847 1769 2600 1992 
Q 2353 2216 1953 2216 
Q 1466 2216 1148 1923 
Q 831 1631 831 1184 
Q 831 828 1073 618 
Q 1316 409 1728 409 
Q 2219 409 2533 693 
Q 2847 978 2847 1416 
z
M 3169 3591 
Q 3169 3888 2950 4069 
Q 2731 4250 2369 4250 
Q 1941 4250 1664 4009 
Q 1388 3769 1388 3406 
Q 1388 3094 1605 2903 
Q 1822 2713 2181 2713 
Q 2613 2713 2891 2961 
Q 3169 3209 3169 3591 
z
M 2741 2456 
Q 3094 2322 3281 2050 
Q 3469 1778 3469 1394 
Q 3469 747 2969 328 
Q 2469 -91 1678 -91 
Q 1006 -91 609 239 
Q 213 569 213 1119 
Q 213 1619 553 2008 
Q 894 2397 1441 2503 
Q 1113 2616 941 2852 
Q 769 3088 769 3425 
Q 769 3991 1239 4370 
Q 1709 4750 2431 4750 
Q 3034 4750 3414 4442 
Q 3794 4134 3794 3659 
Q 3794 3247 3511 2923 
Q 3228 2600 2741 2456 
z
" transform="scale(0.015625)"/>
      <path id="DejaVuSans-Oblique-2c" d="M 575 794 
L 1234 794 
L 1131 256 
L 422 -744 
L 19 -744 
L 469 256 
L 575 794 
z
" transform="scale(0.015625)"/>
      <path id="DejaVuSans-Oblique-32" d="M 2950 2253 
L 934 525 
L 3163 525 
L 3053 0 
L 25 0 
L 128 531 
L 2234 2338 
Q 2656 2703 2832 2979 
Q 3009 3256 3009 3547 
Q 3009 3850 2796 4040 
Q 2584 4231 2241 4231 
Q 1944 4231 1581 4125 
Q 1219 4019 806 3816 
L 922 4441 
Q 1309 4594 1662 4672 
Q 2016 4750 2316 4750 
Q 2928 4750 3301 4425 
Q 3675 4100 3675 3572 
Q 3675 3216 3497 2892 
Q 3319 2569 2950 2253 
z
" transform="scale(0.015625)"/>
      <path id="DejaVuSans-Oblique-78" d="M 3841 3500 
L 2234 1784 
L 3219 0 
L 2559 0 
L 1819 1388 
L 531 0 
L -166 0 
L 1556 1844 
L 641 3500 
L 1300 3500 
L 1972 2234 
L 3144 3500 
L 3841 3500 
z
" transform="scale(0.015625)"/>
      <path id="DejaVuSans-Oblique-34" d="M 2753 4666 
L 3547 4666 
L 2950 1625 
L 3616 1625 
L 3513 1100 
L 2847 1100 
L 2638 0 
L 2009 0 
L 2222 1100 
L 116 1100 
L 238 1709 
L 2753 4666 
z
M 2809 4116 
L 728 1625 
L 2322 1625 
L 2809 4116 
z
" transform="scale(0.015625)"/>
      <path id="DejaVuSans-Oblique-76" d="M 459 3500 
L 1069 3500 
L 1581 525 
L 3256 3500 
L 3866 3500 
L 1875 0 
L 1100 0 
L 459 3500 
z
" transform="scale(0.015625)"/>
     </defs>
     <use xlink:href="#DejaVuSans-Oblique-53"/>
     <use xlink:href="#DejaVuSans-Oblique-46" transform="translate(63.476562 0)"/>
     <use xlink:href="#DejaVuSans-Oblique-6b" transform="translate(120.996094 0)"/>
     <use xlink:href="#DejaVuSans-Oblique-20" transform="translate(178.90625 0)"/>
     <use xlink:href="#DejaVuSans-Oblique-3d" transform="translate(210.693359 0)"/>
     <use xlink:href="#DejaVuSans-Oblique-20" transform="translate(294.482422 0)"/>
     <use xlink:href="#DejaVuSans-Oblique-74" transform="translate(326.269531 0)"/>
     <use xlink:href="#DejaVuSans-Oblique-68" transform="translate(365.478516 0)"/>
     <use xlink:href="#DejaVuSans-Oblique-65" transform="translate(428.857422 0)"/>
     <use xlink:href="#DejaVuSans-Oblique-20" transform="translate(490.380859 0)"/>
     <use xlink:href="#DejaVuSans-Oblique-73" transform="translate(522.167969 0)"/>
     <use xlink:href="#DejaVuSans-Oblique-63" transform="translate(574.267578 0)"/>
     <use xlink:href="#DejaVuSans-Oblique-61" transform="translate(629.248047 0)"/>
     <use xlink:href="#DejaVuSans-Oblique-6c" transform="translate(690.527344 0)"/>
     <use xlink:href="#DejaVuSans-Oblique-65" transform="translate(718.310547 0)"/>
     <use xlink:href="#DejaVuSans-Oblique-20" transform="translate(779.833984 0)"/>
     <use xlink:href="#DejaVuSans-Oblique-66" transform="translate(811.621094 0)"/>
     <use xlink:href="#DejaVuSans-Oblique-6f" transform="translate(846.826172 0)"/>
     <use xlink:href="#DejaVuSans-Oblique-72" transform="translate(908.007812 0)"/>
     <use xlink:href="#DejaVuSans-Oblique-20" transform="translate(949.121094 0)"/>
     <use xlink:href="#DejaVuSans-Oblique-4b" transform="translate(980.908203 0)"/>
     <use xlink:href="#DejaVuSans-Oblique-2d" transform="translate(1036.484375 0)"/>
     <use xlink:href="#DejaVuSans-Oblique-62" transform="translate(1072.568359 0)"/>
     <use xlink:href="#DejaVuSans-Oblique-6c" transform="translate(1136.044922 0)"/>
     <use xlink:href="#DejaVuSans-Oblique-6f" transform="translate(1163.828125 0)"/>
     <use xlink:href="#DejaVuSans-Oblique-63" transform="translate(1225.009766 0)"/>
     <use xlink:href="#DejaVuSans-Oblique-6b" transform="translate(1279.990234 0)"/>
     <use xlink:href="#DejaVuSans-Oblique-20" transform="translate(1337.900391 0)"/>
     <use xlink:href="#DejaVuSans-Oblique-6b" transform="translate(1369.6875 0)"/>
     <use xlink:href="#DejaVuSans-Oblique-20" transform="translate(1427.597656 0)"/>
     <use xlink:href="#DejaVuSans-Oblique-6f" transform="translate(1459.384766 0)"/>
     <use xlink:href="#DejaVuSans-Oblique-66" transform="translate(1520.566406 0)"/>
     <use xlink:href="#DejaVuSans-Oblique-20" transform="translate(1555.771484 0)"/>
     <use xlink:href="#DejaVuSans-Oblique-6f" transform="translate(1587.558594 0)"/>
     <use xlink:href="#DejaVuSans-Oblique-6e" transform="translate(1648.740234 0)"/>
     <use xlink:href="#DejaVuSans-Oblique-65" transform="translate(1712.119141 0)"/>
     <use xlink:href="#DejaVuSans-Oblique-20" transform="translate(1773.642578 0)"/>
     <use xlink:href="#DejaVuSans-Oblique-4d" transform="translate(1805.429688 0)"/>
     <use xlink:href="#DejaVuSans-Oblique-2d" transform="translate(1891.708984 0)"/>
     <use xlink:href="#DejaVuSans-Oblique-72" transform="translate(1927.792969 0)"/>
     <use xlink:href="#DejaVuSans-Oblique-6f" transform="translate(1968.90625 0)"/>
     <use xlink:href="#DejaVuSans-Oblique-77" transform="translate(2030.087891 0)"/>
     <use xlink:href="#DejaVuSans-Oblique-2e" transform="translate(2105.5 0)"/>
     <use xlink:href="#DejaVuSans-Oblique-20" transform="translate(2137.287109 0)"/>
     <use xlink:href="#DejaVuSans-Oblique-20" transform="translate(2169.074219 0)"/>
     <use xlink:href="#DejaVuSans-Oblique-73" transform="translate(2200.861328 0)"/>
     <use xlink:href="#DejaVuSans-Oblique-66" transform="translate(2252.960938 0)"/>
     <use xlink:href="#DejaVuSans-Oblique-5f" transform="translate(2288.166016 0)"/>
     <use xlink:href="#DejaVuSans-Oblique-70" transform="translate(2338.166016 0)"/>
     <use xlink:href="#DejaVuSans-Oblique-65" transform="translate(2401.642578 0)"/>
     <use xlink:href="#DejaVuSans-Oblique-72" transform="translate(2463.166016 0)"/>
     <use xlink:href="#DejaVuSans-Oblique-5f" transform="translate(2504.279297 0)"/>
     <use xlink:href="#DejaVuSans-Oblique-6d" transform="translate(2554.279297 0)"/>
     <use xlink:href="#DejaVuSans-Oblique-6d" transform="translate(2651.691406 0)"/>
     <use xlink:href="#DejaVuSans-Oblique-61" transform="translate(2749.103516 0)"/>
     <use xlink:href="#DejaVuSans-Oblique-20" transform="translate(2810.382812 0)"/>
     <use xlink:href="#DejaVuSans-Oblique-28" transform="translate(2842.169922 0)"/>
     <use xlink:href="#DejaVuSans-Oblique-74" transform="translate(2881.183594 0)"/>
     <use xlink:href="#DejaVuSans-Oblique-68" transform="translate(2920.392578 0)"/>
     <use xlink:href="#DejaVuSans-Oblique-65" transform="translate(2983.771484 0)"/>
     <use xlink:href="#DejaVuSans-Oblique-20" transform="translate(3045.294922 0)"/>
     <use xlink:href="#DejaVuSans-Oblique-201c" transform="translate(3077.082031 0)"/>
     <use xlink:href="#DejaVuSans-Oblique-d7" transform="translate(3128.888672 0)"/>
     <use xlink:href="#DejaVuSans-Oblique-4e" transform="translate(3212.677734 0)"/>
     <use xlink:href="#DejaVuSans-Oblique-201d" transform="translate(3287.482422 0)"/>
     <use xlink:href="#DejaVuSans-Oblique-29" transform="translate(3339.289062 0)"/>
     <use xlink:href="#DejaVuSans-Oblique-20" transform="translate(3378.302734 0)"/>
     <use xlink:href="#DejaVuSans-Oblique-3d" transform="translate(3410.089844 0)"/>
     <use xlink:href="#DejaVuSans-Oblique-20" transform="translate(3493.878906 0)"/>
     <use xlink:href="#DejaVuSans-Oblique-6d" transform="translate(3525.666016 0)"/>
     <use xlink:href="#DejaVuSans-Oblique-6d" transform="translate(3623.078125 0)"/>
     <use xlink:href="#DejaVuSans-Oblique-61" transform="translate(3720.490234 0)"/>
     <use xlink:href="#DejaVuSans-Oblique-5f" transform="translate(3781.769531 0)"/>
     <use xlink:href="#DejaVuSans-Oblique-6b" transform="translate(3831.769531 0)"/>
     <use xlink:href="#DejaVuSans-Oblique-20" transform="translate(3889.679688 0)"/>
     <use xlink:href="#DejaVuSans-Oblique-2f" transform="translate(3921.466797 0)"/>
     <use xlink:href="#DejaVuSans-Oblique-20" transform="translate(3955.158203 0)"/>
     <use xlink:href="#DejaVuSans-Oblique-53" transform="translate(3986.945312 0)"/>
     <use xlink:href="#DejaVuSans-Oblique-46" transform="translate(4050.421875 0)"/>
     <use xlink:href="#DejaVuSans-Oblique-5f" transform="translate(4107.941406 0)"/>
     <use xlink:href="#DejaVuSans-Oblique-56" transform="translate(4157.941406 0)"/>
     <use xlink:href="#DejaVuSans-Oblique-45" transform="translate(4226.349609 0)"/>
     <use xlink:href="#DejaVuSans-Oblique-43" transform="translate(4289.533203 0)"/>
     <use xlink:href="#DejaVuSans-Oblique-3a" transform="translate(4359.357422 0)"/>
     <use xlink:href="#DejaVuSans-Oblique-20" transform="translate(4393.048828 0)"/>
     <use xlink:href="#DejaVuSans-Oblique-31" transform="translate(4424.835938 0)"/>
     <use xlink:href="#DejaVuSans-Oblique-20" transform="translate(4488.458984 0)"/>
     <use xlink:href="#DejaVuSans-Oblique-28" transform="translate(4520.246094 0)"/>
     <use xlink:href="#DejaVuSans-Oblique-66" transform="translate(4559.259766 0)"/>
     <use xlink:href="#DejaVuSans-Oblique-70" transform="translate(4594.464844 0)"/>
     <use xlink:href="#DejaVuSans-Oblique-38" transform="translate(4657.941406 0)"/>
     <use xlink:href="#DejaVuSans-Oblique-29" transform="translate(4721.564453 0)"/>
     <use xlink:href="#DejaVuSans-Oblique-2c" transform="translate(4760.578125 0)"/>
     <use xlink:href="#DejaVuSans-Oblique-20" transform="translate(4792.365234 0)"/>
     <use xlink:href="#DejaVuSans-Oblique-32" transform="translate(4824.152344 0)"/>
     <use xlink:href="#DejaVuSans-Oblique-20" transform="translate(4887.775391 0)"/>
     <use xlink:href="#DejaVuSans-Oblique-28" transform="translate(4919.5625 0)"/>
     <use xlink:href="#DejaVuSans-Oblique-6d" transform="translate(4958.576172 0)"/>
     <use xlink:href="#DejaVuSans-Oblique-78" transform="translate(5055.988281 0)"/>
     <use xlink:href="#DejaVuSans-Oblique-66" transform="translate(5115.167969 0)"/>
     <use xlink:href="#DejaVuSans-Oblique-70" transform="translate(5150.373047 0)"/>
     <use xlink:href="#DejaVuSans-Oblique-34" transform="translate(5213.849609 0)"/>
     <use xlink:href="#DejaVuSans-Oblique-29" transform="translate(5277.472656 0)"/>
     <use xlink:href="#DejaVuSans-Oblique-2c" transform="translate(5316.486328 0)"/>
     <use xlink:href="#DejaVuSans-Oblique-20" transform="translate(5348.273438 0)"/>
     <use xlink:href="#DejaVuSans-Oblique-34" transform="translate(5380.060547 0)"/>
     <use xlink:href="#DejaVuSans-Oblique-20" transform="translate(5443.683594 0)"/>
     <use xlink:href="#DejaVuSans-Oblique-28" transform="translate(5475.470703 0)"/>
     <use xlink:href="#DejaVuSans-Oblique-6e" transform="translate(5514.484375 0)"/>
     <use xlink:href="#DejaVuSans-Oblique-76" transform="translate(5577.863281 0)"/>
     <use xlink:href="#DejaVuSans-Oblique-66" transform="translate(5637.042969 0)"/>
     <use xlink:href="#DejaVuSans-Oblique-70" transform="translate(5672.248047 0)"/>
     <use xlink:href="#DejaVuSans-Oblique-34" transform="translate(5735.724609 0)"/>
     <use xlink:href="#DejaVuSans-Oblique-29" transform="translate(5799.347656 0)"/>
     <use xlink:href="#DejaVuSans-Oblique-2e" transform="translate(5838.361328 0)"/>
    </g>
   </g>
   <g id="text_29">
    <!-- Lane/column placement (TLane = m%32, m//32 → column) is the same for all three modes; only the byte packing differs. -->
    <g style="fill: #1f2937" transform="translate(43.823656 252.02304) scale(0.076 -0.076)">
     <defs>
      <path id="DejaVuSans-Oblique-4c" d="M 1075 4666 
L 1709 4666 
L 909 525 
L 3181 525 
L 3078 0 
L 172 0 
L 1075 4666 
z
" transform="scale(0.015625)"/>
      <path id="DejaVuSans-Oblique-75" d="M 428 1388 
L 838 3500 
L 1416 3500 
L 1006 1409 
Q 975 1256 961 1147 
Q 947 1038 947 966 
Q 947 700 1109 554 
Q 1272 409 1569 409 
Q 2031 409 2368 721 
Q 2706 1034 2809 1563 
L 3194 3500 
L 3769 3500 
L 3091 0 
L 2516 0 
L 2631 550 
Q 2388 244 2052 76 
Q 1716 -91 1338 -91 
Q 878 -91 622 161 
Q 366 413 366 863 
Q 366 956 381 1097 
Q 397 1238 428 1388 
z
" transform="scale(0.015625)"/>
      <path id="DejaVuSans-Oblique-54" d="M 378 4666 
L 4325 4666 
L 4225 4134 
L 2559 4134 
L 1759 0 
L 1125 0 
L 1925 4134 
L 275 4134 
L 378 4666 
z
" transform="scale(0.015625)"/>
      <path id="DejaVuSans-Oblique-25" d="M 1503 2209 
Q 1078 2209 829 2486 
Q 581 2763 581 3238 
Q 581 3913 943 4331 
Q 1306 4750 1888 4750 
Q 2313 4750 2561 4470 
Q 2809 4191 2809 3713 
Q 2809 3044 2446 2626 
Q 2084 2209 1503 2209 
z
M 2309 3694 
Q 2309 4022 2187 4187 
Q 2066 4353 1825 4353 
Q 1475 4353 1278 4050 
Q 1081 3747 1081 3206 
Q 1081 2919 1207 2762 
Q 1334 2606 1569 2606 
Q 1903 2606 2106 2903 
Q 2309 3200 2309 3694 
z
M 4997 1394 
Q 4997 1728 4878 1893 
Q 4759 2059 4519 2059 
Q 4172 2059 3973 1754 
Q 3775 1450 3775 909 
Q 3775 619 3901 462 
Q 4028 306 4263 306 
Q 4597 306 4797 603 
Q 4997 900 4997 1394 
z
M 4197 -91 
Q 3772 -91 3525 187 
Q 3278 466 3278 941 
Q 3278 1616 3639 2033 
Q 4000 2450 4581 2450 
Q 5006 2450 5251 2175 
Q 5497 1900 5497 1422 
Q 5497 750 5136 329 
Q 4775 -91 4197 -91 
z
M 5259 4750 
L 1403 -91 
L 903 -91 
L 4763 4750 
L 5259 4750 
z
" transform="scale(0.015625)"/>
      <path id="DejaVuSans-Oblique-33" d="M 1013 4550 
Q 1356 4650 1679 4700 
Q 2003 4750 2316 4750 
Q 2934 4750 3296 4475 
Q 3659 4200 3659 3738 
Q 3659 3284 3373 2959 
Q 3088 2634 2584 2516 
Q 2978 2403 3162 2165 
Q 3347 1928 3347 1538 
Q 3347 1163 3167 834 
Q 2988 506 2650 269 
Q 2394 88 2037 -1 
Q 1681 -91 1216 -91 
Q 922 -91 622 -33 
Q 322 25 13 141 
L 128 738 
Q 422 575 720 495 
Q 1019 416 1331 416 
Q 1947 416 2330 733 
Q 2713 1050 2713 1556 
Q 2713 1881 2469 2057 
Q 2225 2234 1772 2234 
L 1228 2234 
L 1325 2747 
L 1900 2747 
Q 2419 2747 2717 2984 
Q 3016 3222 3016 3628 
Q 3016 3922 2797 4083 
Q 2578 4244 2181 4244 
Q 1881 4244 1567 4180 
Q 1253 4116 916 3988 
L 1013 4550 
z
" transform="scale(0.015625)"/>
      <path id="DejaVuSans-Oblique-2192" d="M 5050 2147 
L 5050 1866 
L 3822 638 
L 3447 1013 
L 4175 1741 
L 366 1741 
L 366 2272 
L 4175 2272 
L 3447 3000 
L 3822 3375 
L 5050 2147 
z
" transform="scale(0.015625)"/>
      <path id="DejaVuSans-Oblique-69" d="M 1172 4863 
L 1747 4863 
L 1606 4134 
L 1031 4134 
L 1172 4863 
z
M 909 3500 
L 1484 3500 
L 800 0 
L 225 0 
L 909 3500 
z
" transform="scale(0.015625)"/>
      <path id="DejaVuSans-Oblique-64" d="M 2675 525 
Q 2444 222 2128 65 
Q 1813 -91 1428 -91 
Q 903 -91 598 267 
Q 294 625 294 1247 
Q 294 1766 478 2236 
Q 663 2706 1013 3078 
Q 1244 3325 1534 3454 
Q 1825 3584 2144 3584 
Q 2481 3584 2739 3421 
Q 2997 3259 3138 2956 
L 3513 4863 
L 4091 4863 
L 3144 0 
L 2566 0 
L 2675 525 
z
M 891 1350 
Q 891 897 1095 644 
Q 1300 391 1663 391 
Q 1931 391 2161 520 
Q 2391 650 2566 903 
Q 2750 1166 2856 1509 
Q 2963 1853 2963 2188 
Q 2963 2622 2758 2865 
Q 2553 3109 2194 3109 
Q 1922 3109 1687 2981 
Q 1453 2853 1288 2613 
Q 1106 2353 998 2009 
Q 891 1666 891 1350 
z
" transform="scale(0.015625)"/>
      <path id="DejaVuSans-Oblique-3b" d="M 563 794 
L 1222 794 
L 1113 256 
L 409 -744 
L 6 -744 
L 453 256 
L 563 794 
z
M 1050 3309 
L 1709 3309 
L 1556 2516 
L 897 2516 
L 1050 3309 
z
" transform="scale(0.015625)"/>
      <path id="DejaVuSans-Oblique-79" d="M 1588 -325 
Q 1188 -997 936 -1164 
Q 684 -1331 294 -1331 
L -159 -1331 
L -63 -850 
L 269 -850 
Q 509 -850 678 -719 
Q 847 -588 1056 -206 
L 1234 128 
L 459 3500 
L 1069 3500 
L 1650 819 
L 3256 3500 
L 3859 3500 
L 1588 -325 
z
" transform="scale(0.015625)"/>
      <path id="DejaVuSans-Oblique-67" d="M 3816 3500 
L 3219 434 
Q 3047 -456 2561 -893 
Q 2075 -1331 1253 -1331 
Q 950 -1331 690 -1286 
Q 431 -1241 206 -1147 
L 313 -588 
Q 525 -725 762 -790 
Q 1000 -856 1269 -856 
Q 1816 -856 2167 -557 
Q 2519 -259 2631 300 
L 2681 563 
Q 2441 288 2122 144 
Q 1803 0 1434 0 
Q 903 0 598 351 
Q 294 703 294 1319 
Q 294 1803 478 2267 
Q 663 2731 997 3091 
Q 1219 3328 1514 3456 
Q 1809 3584 2131 3584 
Q 2484 3584 2746 3420 
Q 3009 3256 3138 2956 
L 3238 3500 
L 3816 3500 
z
M 2950 2216 
Q 2950 2641 2750 2872 
Q 2550 3103 2181 3103 
Q 1953 3103 1747 3012 
Q 1541 2922 1394 2759 
Q 1156 2491 1023 2127 
Q 891 1763 891 1375 
Q 891 944 1092 712 
Q 1294 481 1672 481 
Q 2219 481 2584 976 
Q 2950 1472 2950 2216 
z
" transform="scale(0.015625)"/>
     </defs>
     <use xlink:href="#DejaVuSans-Oblique-4c"/>
     <use xlink:href="#DejaVuSans-Oblique-61" transform="translate(55.712891 0)"/>
     <use xlink:href="#DejaVuSans-Oblique-6e" transform="translate(116.992188 0)"/>
     <use xlink:href="#DejaVuSans-Oblique-65" transform="translate(180.371094 0)"/>
     <use xlink:href="#DejaVuSans-Oblique-2f" transform="translate(241.894531 0)"/>
     <use xlink:href="#DejaVuSans-Oblique-63" transform="translate(275.585938 0)"/>
     <use xlink:href="#DejaVuSans-Oblique-6f" transform="translate(330.566406 0)"/>
     <use xlink:href="#DejaVuSans-Oblique-6c" transform="translate(391.748047 0)"/>
     <use xlink:href="#DejaVuSans-Oblique-75" transform="translate(419.53125 0)"/>
     <use xlink:href="#DejaVuSans-Oblique-6d" transform="translate(482.910156 0)"/>
     <use xlink:href="#DejaVuSans-Oblique-6e" transform="translate(580.322266 0)"/>
     <use xlink:href="#DejaVuSans-Oblique-20" transform="translate(643.701172 0)"/>
     <use xlink:href="#DejaVuSans-Oblique-70" transform="translate(675.488281 0)"/>
     <use xlink:href="#DejaVuSans-Oblique-6c" transform="translate(738.964844 0)"/>
     <use xlink:href="#DejaVuSans-Oblique-61" transform="translate(766.748047 0)"/>
     <use xlink:href="#DejaVuSans-Oblique-63" transform="translate(828.027344 0)"/>
     <use xlink:href="#DejaVuSans-Oblique-65" transform="translate(883.007812 0)"/>
     <use xlink:href="#DejaVuSans-Oblique-6d" transform="translate(944.53125 0)"/>
     <use xlink:href="#DejaVuSans-Oblique-65" transform="translate(1041.943359 0)"/>
     <use xlink:href="#DejaVuSans-Oblique-6e" transform="translate(1103.466797 0)"/>
     <use xlink:href="#DejaVuSans-Oblique-74" transform="translate(1166.845703 0)"/>
     <use xlink:href="#DejaVuSans-Oblique-20" transform="translate(1206.054688 0)"/>
     <use xlink:href="#DejaVuSans-Oblique-28" transform="translate(1237.841797 0)"/>
     <use xlink:href="#DejaVuSans-Oblique-54" transform="translate(1276.855469 0)"/>
     <use xlink:href="#DejaVuSans-Oblique-4c" transform="translate(1337.939453 0)"/>
     <use xlink:href="#DejaVuSans-Oblique-61" transform="translate(1393.652344 0)"/>
     <use xlink:href="#DejaVuSans-Oblique-6e" transform="translate(1454.931641 0)"/>
     <use xlink:href="#DejaVuSans-Oblique-65" transform="translate(1518.310547 0)"/>
     <use xlink:href="#DejaVuSans-Oblique-20" transform="translate(1579.833984 0)"/>
     <use xlink:href="#DejaVuSans-Oblique-3d" transform="translate(1611.621094 0)"/>
     <use xlink:href="#DejaVuSans-Oblique-20" transform="translate(1695.410156 0)"/>
     <use xlink:href="#DejaVuSans-Oblique-6d" transform="translate(1727.197266 0)"/>
     <use xlink:href="#DejaVuSans-Oblique-25" transform="translate(1824.609375 0)"/>
     <use xlink:href="#DejaVuSans-Oblique-33" transform="translate(1919.628906 0)"/>
     <use xlink:href="#DejaVuSans-Oblique-32" transform="translate(1983.251953 0)"/>
     <use xlink:href="#DejaVuSans-Oblique-2c" transform="translate(2046.875 0)"/>
     <use xlink:href="#DejaVuSans-Oblique-20" transform="translate(2078.662109 0)"/>
     <use xlink:href="#DejaVuSans-Oblique-6d" transform="translate(2110.449219 0)"/>
     <use xlink:href="#DejaVuSans-Oblique-2f" transform="translate(2207.861328 0)"/>
     <use xlink:href="#DejaVuSans-Oblique-2f" transform="translate(2241.552734 0)"/>
     <use xlink:href="#DejaVuSans-Oblique-33" transform="translate(2275.244141 0)"/>
     <use xlink:href="#DejaVuSans-Oblique-32" transform="translate(2338.867188 0)"/>
     <use xlink:href="#DejaVuSans-Oblique-20" transform="translate(2402.490234 0)"/>
     <use xlink:href="#DejaVuSans-Oblique-2192" transform="translate(2434.277344 0)"/>
     <use xlink:href="#DejaVuSans-Oblique-20" transform="translate(2518.066406 0)"/>
     <use xlink:href="#DejaVuSans-Oblique-63" transform="translate(2549.853516 0)"/>
     <use xlink:href="#DejaVuSans-Oblique-6f" transform="translate(2604.833984 0)"/>
     <use xlink:href="#DejaVuSans-Oblique-6c" transform="translate(2666.015625 0)"/>
     <use xlink:href="#DejaVuSans-Oblique-75" transform="translate(2693.798828 0)"/>
     <use xlink:href="#DejaVuSans-Oblique-6d" transform="translate(2757.177734 0)"/>
     <use xlink:href="#DejaVuSans-Oblique-6e" transform="translate(2854.589844 0)"/>
     <use xlink:href="#DejaVuSans-Oblique-29" transform="translate(2917.96875 0)"/>
     <use xlink:href="#DejaVuSans-Oblique-20" transform="translate(2956.982422 0)"/>
     <use xlink:href="#DejaVuSans-Oblique-69" transform="translate(2988.769531 0)"/>
     <use xlink:href="#DejaVuSans-Oblique-73" transform="translate(3016.552734 0)"/>
     <use xlink:href="#DejaVuSans-Oblique-20" transform="translate(3068.652344 0)"/>
     <use xlink:href="#DejaVuSans-Oblique-74" transform="translate(3100.439453 0)"/>
     <use xlink:href="#DejaVuSans-Oblique-68" transform="translate(3139.648438 0)"/>
     <use xlink:href="#DejaVuSans-Oblique-65" transform="translate(3203.027344 0)"/>
     <use xlink:href="#DejaVuSans-Oblique-20" transform="translate(3264.550781 0)"/>
     <use xlink:href="#DejaVuSans-Oblique-73" transform="translate(3296.337891 0)"/>
     <use xlink:href="#DejaVuSans-Oblique-61" transform="translate(3348.4375 0)"/>
     <use xlink:href="#DejaVuSans-Oblique-6d" transform="translate(3409.716797 0)"/>
     <use xlink:href="#DejaVuSans-Oblique-65" transform="translate(3507.128906 0)"/>
     <use xlink:href="#DejaVuSans-Oblique-20" transform="translate(3568.652344 0)"/>
     <use xlink:href="#DejaVuSans-Oblique-66" transform="translate(3600.439453 0)"/>
     <use xlink:href="#DejaVuSans-Oblique-6f" transform="translate(3635.644531 0)"/>
     <use xlink:href="#DejaVuSans-Oblique-72" transform="translate(3696.826172 0)"/>
     <use xlink:href="#DejaVuSans-Oblique-20" transform="translate(3737.939453 0)"/>
     <use xlink:href="#DejaVuSans-Oblique-61" transform="translate(3769.726562 0)"/>
     <use xlink:href="#DejaVuSans-Oblique-6c" transform="translate(3831.005859 0)"/>
     <use xlink:href="#DejaVuSans-Oblique-6c" transform="translate(3858.789062 0)"/>
     <use xlink:href="#DejaVuSans-Oblique-20" transform="translate(3886.572266 0)"/>
     <use xlink:href="#DejaVuSans-Oblique-74" transform="translate(3918.359375 0)"/>
     <use xlink:href="#DejaVuSans-Oblique-68" transform="translate(3957.568359 0)"/>
     <use xlink:href="#DejaVuSans-Oblique-72" transform="translate(4020.947266 0)"/>
     <use xlink:href="#DejaVuSans-Oblique-65" transform="translate(4062.060547 0)"/>
     <use xlink:href="#DejaVuSans-Oblique-65" transform="translate(4123.583984 0)"/>
     <use xlink:href="#DejaVuSans-Oblique-20" transform="translate(4185.107422 0)"/>
     <use xlink:href="#DejaVuSans-Oblique-6d" transform="translate(4216.894531 0)"/>
     <use xlink:href="#DejaVuSans-Oblique-6f" transform="translate(4314.306641 0)"/>
     <use xlink:href="#DejaVuSans-Oblique-64" transform="translate(4375.488281 0)"/>
     <use xlink:href="#DejaVuSans-Oblique-65" transform="translate(4438.964844 0)"/>
     <use xlink:href="#DejaVuSans-Oblique-73" transform="translate(4500.488281 0)"/>
     <use xlink:href="#DejaVuSans-Oblique-3b" transform="translate(4552.587891 0)"/>
     <use xlink:href="#DejaVuSans-Oblique-20" transform="translate(4586.279297 0)"/>
     <use xlink:href="#DejaVuSans-Oblique-6f" transform="translate(4618.066406 0)"/>
     <use xlink:href="#DejaVuSans-Oblique-6e" transform="translate(4679.248047 0)"/>
     <use xlink:href="#DejaVuSans-Oblique-6c" transform="translate(4742.626953 0)"/>
     <use xlink:href="#DejaVuSans-Oblique-79" transform="translate(4770.410156 0)"/>
     <use xlink:href="#DejaVuSans-Oblique-20" transform="translate(4829.589844 0)"/>
     <use xlink:href="#DejaVuSans-Oblique-74" transform="translate(4861.376953 0)"/>
     <use xlink:href="#DejaVuSans-Oblique-68" transform="translate(4900.585938 0)"/>
     <use xlink:href="#DejaVuSans-Oblique-65" transform="translate(4963.964844 0)"/>
     <use xlink:href="#DejaVuSans-Oblique-20" transform="translate(5025.488281 0)"/>
     <use xlink:href="#DejaVuSans-Oblique-62" transform="translate(5057.275391 0)"/>
     <use xlink:href="#DejaVuSans-Oblique-79" transform="translate(5120.751953 0)"/>
     <use xlink:href="#DejaVuSans-Oblique-74" transform="translate(5179.931641 0)"/>
     <use xlink:href="#DejaVuSans-Oblique-65" transform="translate(5219.140625 0)"/>
     <use xlink:href="#DejaVuSans-Oblique-20" transform="translate(5280.664062 0)"/>
     <use xlink:href="#DejaVuSans-Oblique-70" transform="translate(5312.451172 0)"/>
     <use xlink:href="#DejaVuSans-Oblique-61" transform="translate(5375.927734 0)"/>
     <use xlink:href="#DejaVuSans-Oblique-63" transform="translate(5437.207031 0)"/>
     <use xlink:href="#DejaVuSans-Oblique-6b" transform="translate(5492.1875 0)"/>
     <use xlink:href="#DejaVuSans-Oblique-69" transform="translate(5550.097656 0)"/>
     <use xlink:href="#DejaVuSans-Oblique-6e" transform="translate(5577.880859 0)"/>
     <use xlink:href="#DejaVuSans-Oblique-67" transform="translate(5641.259766 0)"/>
     <use xlink:href="#DejaVuSans-Oblique-20" transform="translate(5704.736328 0)"/>
     <use xlink:href="#DejaVuSans-Oblique-64" transform="translate(5736.523438 0)"/>
     <use xlink:href="#DejaVuSans-Oblique-69" transform="translate(5800 0)"/>
     <use xlink:href="#DejaVuSans-Oblique-66" transform="translate(5827.783203 0)"/>
     <use xlink:href="#DejaVuSans-Oblique-66" transform="translate(5862.988281 0)"/>
     <use xlink:href="#DejaVuSans-Oblique-65" transform="translate(5898.193359 0)"/>
     <use xlink:href="#DejaVuSans-Oblique-72" transform="translate(5959.716797 0)"/>
     <use xlink:href="#DejaVuSans-Oblique-73" transform="translate(6000.830078 0)"/>
     <use xlink:href="#DejaVuSans-Oblique-2e" transform="translate(6052.929688 0)"/>
    </g>
   </g>
  </g>
 </g>
 <defs>
  <clipPath id="pa1b7352be0">
   <rect x="7.2" y="7.2" width="535.68" height="255.024"/>
  </clipPath>
 </defs>
</svg>
